<?xml version="1.0" encoding="UTF-8"?>
<svg width="16px" height="16px" viewBox="0 0 16 16" version="1.1" xmlns="http://www.w3.org/2000/svg" xmlns:xlink="http://www.w3.org/1999/xlink">
    <title>bianji (4)</title>
    <defs>
        <polygon id="path-1" points="0 0 15.5127521 0 15.5127521 16 0 16"></polygon>
    </defs>
    <g id="页面-1" stroke="none" stroke-width="1" fill="none" fill-rule="evenodd">
        <g id="1选中封控管控区" transform="translate(-194.000000, -82.000000)">
            <g id="编组-6" transform="translate(49.000000, 66.000000)">
                <g id="编组-3" transform="translate(136.000000, 0.000000)">
                    <g id="bianji-(4)" transform="translate(9.000000, 16.000000)">
                        <mask id="mask-2" fill="white">
                            <use xlink:href="#path-1"></use>
                        </mask>
                        <g id="Clip-2"></g>
                        <path d="M14.9359748,14.846551 C15.2545128,14.846551 15.5127521,15.1047691 15.5127521,15.4233283 C15.5127521,15.7417818 15.2545128,16 14.9359748,16 L14.9359748,16 L0.575425609,16 C0.369417116,16 0.178995487,15.8901105 0.0760334811,15.7116641 C-0.0270130062,15.5332178 -0.0270130062,15.3133332 0.0760334811,15.1349713 C0.178995487,14.956525 0.369417116,14.846551 0.575425609,14.846551 L0.575425609,14.846551 Z M10.1791935,0.168857689 L12.9082463,2.90485915 C13.1282788,3.12537736 13.133411,3.48087613 12.9197147,3.70766711 L5.16159623,11.9329269 C5.07926886,12.0205343 4.97159701,12.0802628 4.85361839,12.1037065 L0.911113428,12.8856475 C0.71765046,12.9241711 0.517999211,12.8611478 0.381709196,12.7185006 C0.245419181,12.5759378 0.19145653,12.373562 0.238639529,12.1820843 L1.15450505,8.47832452 C1.17965946,8.37618621 1.23229153,8.28281287 1.30671985,8.20846902 L9.36481155,0.168857689 L9.36364992,0.168857689 C9.58887799,-0.0562858964 9.9539443,-0.0562858964 10.1791935,0.168857689 Z M9.77080922,1.39259545 L8.11674862,3.043 L10.1376074,4.9683867 L9.34633119,5.80809202 L7.30374862,3.853 L2.23527874,8.91089166 L2.23527874,8.91205329 L1.57665983,11.5776604 L4.44878234,11.0078317 L11.6971386,3.32355018 L9.77080922,1.39259545 Z" id="形状结合" fill="#FFFFFF" mask="url(#mask-2)"></path>
                    </g>
                </g>
            </g>
        </g>
    </g>
</svg>