<?xml version="1.0" encoding="UTF-8"?>
<svg width="17px" height="16px" viewBox="0 0 17 16" version="1.1" xmlns="http://www.w3.org/2000/svg" xmlns:xlink="http://www.w3.org/1999/xlink">
    <title>ditu</title>
    <g id="页面-1" stroke="none" stroke-width="1" fill="none" fill-rule="evenodd">
        <g id="1选中封控管控区" transform="translate(-56.000000, -82.000000)" fill="#FFFFFF" fill-rule="nonzero">
            <g id="编组-6" transform="translate(49.000000, 66.000000)">
                <g id="ditu" transform="translate(7.585510, 16.000000)">
                    <path d="M15.5223601,4.91648866 L15.5289371,4.99996396 L15.5289371,12.9323699 C15.5289371,13.0875299 15.4592211,13.2326445 15.3420898,13.3295666 L15.2662996,13.3816316 L10.7346896,15.9328814 C10.6164987,15.9994216 10.4781798,16.0160727 10.3495855,15.9819643 L10.2554296,15.946852 L4.95563209,13.3573154 L0.785585387,15.9228232 C0.466608853,16.1189269 0.0626503188,15.9198281 0.00656938813,15.5675289 L0,15.4836197 L0,7.06762486 C0,6.91730872 0.0654653121,6.77610142 0.1765863,6.67915104 L0.248579097,6.62657282 L1.91035822,5.62062512 C2.15394453,5.47317165 2.47094491,5.55110272 2.61839837,5.79468903 C2.74946812,6.0112102 2.70245626,6.28573754 2.51931258,6.4476318 L2.44433446,6.50272919 L1.03113443,7.35714418 L1.03113443,14.5616805 L4.65869302,12.331257 C4.7790281,12.2572762 4.92295517,12.2366774 5.0569405,12.2710842 L5.15504145,12.3072282 L10.4639522,14.9009237 L14.4977501,12.6303657 L14.4977501,5.78672644 L13.2631817,6.3269659 C13.031237,6.42826922 12.7653313,6.3453867 12.6290625,6.14245277 L12.584358,6.0608504 C12.4830547,5.82890573 12.5659372,5.56299999 12.7688711,5.42673121 L12.8504735,5.38202668 L14.8070158,4.52749435 C15.1214113,4.39018011 15.4705126,4.59226311 15.5223601,4.91648866 Z M7.64533568,0 C9.92325497,0 11.7698734,1.84661844 11.7698734,4.12453773 C11.7698734,6.40245702 9.92325497,8.24907547 7.64533568,8.24907547 C5.36741639,8.24907547 3.52079795,6.40245702 3.52079795,4.12453773 C3.52079795,1.84661844 5.36741639,0 7.64533568,0 Z M4.55193238,4.12453773 C4.55193238,5.8329772 5.93689621,7.21794103 7.64533568,7.21794103 C8.24982101,7.21794103 8.81381017,7.04455633 9.29028414,6.74480596 L5.07973712,2.3957268 C4.74649831,2.88929178 4.55193238,3.4841931 4.55193238,4.12453773 Z M7.64533568,1.03113443 C6.94946884,1.03113443 6.30726744,1.26090348 5.79046048,1.64871257 L10.0606415,6.05744767 C10.4849514,5.52792967 10.738739,4.85587133 10.738739,4.12453773 C10.738739,2.41609827 9.35377515,1.03113443 7.64533568,1.03113443 Z" id="形状结合"></path>
                </g>
            </g>
        </g>
    </g>
</svg>