<?xml version="1.0" encoding="UTF-8"?>
<svg width="32px" height="32px" viewBox="0 0 32 32" version="1.1" xmlns="http://www.w3.org/2000/svg" xmlns:xlink="http://www.w3.org/1999/xlink">
    <title>切片</title>
    <g id="页面-1" stroke="none" stroke-width="1" fill="none" fill-rule="evenodd">
        <g id="5图层备份-2" transform="translate(-1830.000000, -249.000000)" fill="currentColor" fill-rule="nonzero">
            <g id="编组-5" transform="translate(1804.000000, 140.000000)">
                <g id="编组-3" transform="translate(0.000000, 92.000000)">
                    <g id="编组-6" transform="translate(14.000000, 17.000000)">
                        <g id="icon/iisg-icon-legend" transform="translate(12.000000, 0.000000)">
                            <g id="图层-(1)" transform="translate(0.000000, 0.000000)">
                                <path d="M31.6243079,8.08421054 L17.490539,0.505263168 C16.5482878,-0.168421056 15.4489946,-0.168421056 14.5067434,0.505263168 L0.372974487,8.08421054 C0.372974487,8.25263161 0.215932598,8.42105263 0.0588907089,8.42105263 C-0.09815118,9.09473686 0.0588907089,9.76842104 0.530016339,9.93684211 L5.55535642,12.631579 L1.31522575,14.9894737 C0.844100117,15.3263158 0.530016376,15.8315789 0.530016339,16.3368421 C0.530016339,16.8421053 0.84410008,17.5157895 1.31522575,17.6842105 L4.9271889,19.7052632 L1.31522575,21.7263158 C0.844100117,22.0631579 0.530016376,22.5684211 0.530016339,23.0736842 C0.530016339,23.5789474 0.84410008,24.2526316 1.31522575,24.4210526 L14.5067434,31.4947368 C14.977869,31.8315789 15.4489947,32 15.9201203,32 C16.3912459,32 17.0194134,31.8315789 17.490539,31.4947368 L30.6820567,24.4210526 C31.1531823,24.0842105 31.467266,23.5789474 31.4672661,23.0736842 C31.4672661,22.5684211 31.1531823,21.8947368 30.6820567,21.7263158 L27.0700935,19.7052632 L30.6820567,17.6842105 C31.1531823,17.3473685 31.467266,16.8421053 31.4672661,16.3368421 C31.4672661,15.8315789 31.1531823,15.1578947 30.6820567,14.9894737 L26.5989679,12.631579 L31.6243079,9.93684211 C31.7813498,9.76842104 31.9383917,9.76842104 31.9383917,9.60000001 C32.0954336,8.92631579 31.9383917,8.25263161 31.6243079,8.08421054 Z M28.6405123,23.0736842 L16.5482878,29.6421053 C16.234204,29.8105263 15.9201202,29.8105263 15.6060365,29.6421053 L3.51381201,23.0736842 L7.43985894,20.8842105 L14.6637852,24.7578948 C15.1349109,25.0947369 15.6060365,25.2631579 16.0771621,25.2631579 C16.5482878,25.2631579 17.1764553,25.0947369 17.6475809,24.7578948 L24.8715073,20.8842105 L28.6405123,23.0736842 Z M28.6405123,16.3368421 L24.7144654,18.5263158 L22.3588372,19.7052632 L16.3912459,22.9052632 C16.0771622,23.0736842 15.7630784,23.0736842 15.4489947,22.9052632 L9.48140331,19.7052632 L7.12577516,18.5263158 L3.19972827,16.3368421 L7.91098457,13.8105263 L14.6637852,17.5157895 C15.6060365,18.1894737 16.7053297,18.1894737 17.6475809,17.5157895 L24.4003816,13.8105263 L28.6405123,16.3368421 L28.6405123,16.3368421 Z" id="形状"></path>
                            </g>
                        </g>
                    </g>
                </g>
            </g>
        </g>
    </g>
</svg>