<?xml version="1.0" encoding="UTF-8"?>
<svg width="24px" height="24px" viewBox="0 0 24 24" version="1.1" xmlns="http://www.w3.org/2000/svg" xmlns:xlink="http://www.w3.org/1999/xlink">
    <title>切片</title>
    <g id="页面-1" stroke="none" stroke-width="1" fill="none" fill-rule="evenodd">
        <g id="5图层备份-2" transform="translate(-1835.000000, -437.000000)" fill="currentColor">
            <g id="编组-5" transform="translate(1804.000000, 140.000000)">
                <g id="编组-4备份-2" transform="translate(1.000000, 276.000000)">
                    <g id="编组-18" transform="translate(7.000000, 21.000000)">
                        <g id="icon/iisg-icon-legend备份" transform="translate(23.000000, 0.000000)">
                            <path d="M5.99921875,0 C6.37949219,0 6.69280599,0.28359375 6.74238417,0.650394694 L6.74921875,0.75234375 L6.74921875,3 L8.4953125,3 C9.00892857,3 9.43362564,3.38194754 9.49167616,3.88500393 L9.4984375,4.003125 L9.4984375,5.50078125 L10.0023438,5.50078125 C10.5137835,5.50078125 10.9342833,5.88272879 10.9936219,6.38390864 L11.0007813,6.5015625 L11,14.729 L14.0766141,11.5980384 C14.1225468,11.5510185 14.1812457,11.5193818 14.2446986,11.5065023 L14.3094394,11.5 C14.397082,11.5 14.481021,11.5353452 14.5422647,11.5980384 L14.5422647,11.5980384 L19.5385055,16.6845585 C19.7119366,16.8627411 19.5860209,17.1597122 19.338941,17.1597122 L19.338941,17.1597122 L18.5929497,17.1597122 L18.5929497,22.2414807 L11,22.241 L11,22.635 L21.0708761,22.6358582 L21.0708761,18.9819265 L19.7784581,18.9819265 L20.3462668,17.4709378 L19.7784581,17.4709378 L20.3462668,15.9623249 L19.7784581,15.9623249 L21.3892291,11.6716873 L23,15.9623249 L22.4345671,15.9623249 L23,17.4709378 L22.4345671,17.4709378 L23,18.9819265 L21.707582,18.9819265 L21.707582,22.6358582 L22.681647,22.6358582 L22.681647,23.9068943 L11,23.906 L11.0007813,24 L1,24 L1,6.5015625 C1,5.98794643 1.3880102,5.56527025 1.88067346,5.50750843 L1.99609375,5.50078125 L2.5,5.50078125 L2.5,4.003125 C2.5,3.48950893 2.88598932,3.06481186 3.38587002,3.00676134 L3.503125,3 L5.24921875,3 L5.24921875,0.75234375 C5.24921875,0.3375 5.58203125,0 5.99921875,0 Z M4.9046875,19.9992187 L3.5921875,19.9992187 C3.55351563,19.9992187 3.52011719,20.0229492 3.50583496,20.0565674 L3.4984375,20.0929687 L3.4984375,21.4054687 C3.4984375,21.4441406 3.52216797,21.4775391 3.55578613,21.4918213 L3.5921875,21.4992187 L4.9046875,21.4992187 C4.94335938,21.4992187 4.97675781,21.4754883 4.99104004,21.4418701 L4.9984375,21.4054687 L4.9984375,20.0929687 C4.9984375,20.0414062 4.95625,19.9992187 4.9046875,19.9992187 Z M8.40390625,19.9992187 L7.09140625,19.9992187 C7.05273438,19.9992187 7.01933594,20.0229492 7.00505371,20.0565674 L6.99765625,20.0929687 L6.99765625,21.4054687 C6.99765625,21.4441406 7.02138672,21.4775391 7.05500488,21.4918213 L7.09140625,21.4992187 L8.40390625,21.4992187 C8.44257813,21.4992187 8.47597656,21.4754883 8.49025879,21.4418701 L8.49765625,21.4054687 L8.49765625,20.0929687 C8.49765625,20.0414062 8.45546875,19.9992187 8.40390625,19.9992187 Z M16.2884544,19.4095648 L14.5683981,19.4095648 L14.5683981,21.1296211 L16.2884544,21.1296211 L16.2884544,19.4095648 Z M13.4446597,19.4095648 L11.7246034,19.4095648 L11.7246034,21.1296211 L13.4446597,21.1296211 L13.4446597,19.4095648 Z M16.2884544,17.1597122 L14.5683981,17.1597122 L14.5683981,18.8797684 L16.2884544,18.8797684 L16.2884544,17.1597122 Z M13.4446597,17.1597122 L11.7246034,17.1597122 L11.7246034,18.8797684 L13.4446597,18.8797684 L13.4446597,17.1597122 Z M4.9046875,16.5 L3.5921875,16.5 C3.55351563,16.5 3.52011719,16.5237305 3.50583496,16.5573486 L3.4984375,16.59375 L3.4984375,17.90625 C3.4984375,17.9449219 3.52216797,17.9783203 3.55578613,17.9926025 L3.5921875,18 L4.9046875,18 C4.94335938,18 4.97675781,17.9762695 4.99104004,17.9426514 L4.9984375,17.90625 L4.9984375,16.59375 C4.9984375,16.5421875 4.95625,16.5 4.9046875,16.5 Z M8.40390625,16.5 L7.09140625,16.5 C7.05273438,16.5 7.01933594,16.5237305 7.00505371,16.5573486 L6.99765625,16.59375 L6.99765625,17.90625 C6.99765625,17.9449219 7.02138672,17.9783203 7.05500488,17.9926025 L7.09140625,18 L8.40390625,18 C8.44257813,18 8.47597656,17.9762695 8.49025879,17.9426514 L8.49765625,17.90625 L8.49765625,16.59375 C8.49765625,16.5421875 8.45546875,16.5 8.40390625,16.5 Z M4.9046875,12.4992187 L3.5921875,12.4992187 C3.55351563,12.4992187 3.52011719,12.5229492 3.50583496,12.5565674 L3.4984375,12.5929687 L3.4984375,13.9054687 C3.4984375,13.9441406 3.52216797,13.9775391 3.55578613,13.9918213 L3.5921875,13.9992187 L4.9046875,13.9992187 C4.94335938,13.9992187 4.97675781,13.9754883 4.99104004,13.9418701 L4.9984375,13.9054687 L4.9984375,12.5929687 C4.9984375,12.5414062 4.95625,12.4992187 4.9046875,12.4992187 Z M8.40390625,12.4992187 L7.09140625,12.4992187 C7.05273438,12.4992187 7.01933594,12.5229492 7.00505371,12.5565674 L6.99765625,12.5929687 L6.99765625,13.9054687 C6.99765625,13.9441406 7.02138672,13.9775391 7.05500488,13.9918213 L7.09140625,13.9992187 L8.40390625,13.9992187 C8.44257813,13.9992187 8.47597656,13.9754883 8.49025879,13.9418701 L8.49765625,13.9054687 L8.49765625,12.5929687 C8.49765625,12.5414062 8.45546875,12.4992187 8.40390625,12.4992187 Z M4.9046875,8.50078125 L3.5921875,8.50078125 C3.55351563,8.50078125 3.52011719,8.52451172 3.50583496,8.55812988 L3.4984375,8.59453125 L3.4984375,9.90703125 C3.4984375,9.94570313 3.52216797,9.97910156 3.55578613,9.99338379 L3.5921875,10.0007813 L4.9046875,10.0007813 C4.94335938,10.0007813 4.97675781,9.97705078 4.99104004,9.94343262 L4.9984375,9.90703125 L4.9984375,8.59453125 C4.9984375,8.54296875 4.95625,8.50078125 4.9046875,8.50078125 Z M8.40390625,8.50078125 L7.09140625,8.50078125 C7.05273438,8.50078125 7.01933594,8.52451172 7.00505371,8.55812988 L6.99765625,8.59453125 L6.99765625,9.90703125 C6.99765625,9.94570313 7.02138672,9.97910156 7.05500488,9.99338379 L7.09140625,10.0007813 L8.40390625,10.0007813 C8.44257813,10.0007813 8.47597656,9.97705078 8.49025879,9.94343262 L8.49765625,9.90703125 L8.49765625,8.59453125 C8.49765625,8.54296875 8.45546875,8.50078125 8.40390625,8.50078125 Z" id="形状结合"></path>
                        </g>
                    </g>
                </g>
            </g>
        </g>
    </g>
</svg>