<?xml version="1.0" encoding="UTF-8"?>
<svg width="24px" height="24px" viewBox="0 0 24 24" version="1.1" xmlns="http://www.w3.org/2000/svg" xmlns:xlink="http://www.w3.org/1999/xlink">
    <title>切片</title>
    <defs>
        <rect id="path-1" x="0" y="0" width="24" height="24"></rect>
    </defs>
    <g id="页面-1" stroke="none" stroke-width="1" fill="none" fill-rule="evenodd">
        <g id="5图层备份-2" transform="translate(-1835.000000, -161.000000)">
            <g id="编组-5" transform="translate(1804.000000, 140.000000)">
                <g id="编组-4" transform="translate(1.000000, 0.000000)">
                    <g id="编组-17" transform="translate(28.000000, 21.000000)">
                        <g id="icon/iisg-icon-legend" transform="translate(2.000000, 0.000000)">
                            <mask id="mask-2" fill="white">
                                <use xlink:href="#path-1"></use>
                            </mask>
                            <use id="矩形" fill="currentColor" opacity="0" xlink:href="#path-1"></use>
                            <path d="M22.1776103,8.66579367 C23.1852268,8.66579367 24.002138,9.48270486 24.002138,10.4901432 L24.002138,21.0944529 C24.002138,22.1020337 23.1852268,22.9188024 22.1776103,22.9188024 L11.5734787,22.9188024 C10.5658623,22.9188024 9.74912923,22.1020337 9.74912923,21.0944529 L9.74912923,16.4764068 L1.82434948,16.4764068 C0.816768665,16.4764068 1.64313008e-13,15.6596738 1.64313008e-13,14.6520573 L1.64313008e-13,1.82434948 C1.64313008e-13,0.816768665 0.816768665,-9.69890834e-13 1.82434948,-9.69890834e-13 L19.6406104,-9.69890834e-13 C20.6482268,-9.69890834e-13 21.4649599,0.816768665 21.4649599,1.82434948 L21.4649599,8.66579367 L22.1776103,8.66579367 Z M16.4107361,9.45430574 C16.0200255,9.6039267 15.7102007,9.89622028 15.540091,10.2777377 L10.6727598,21.1608363 C10.4959869,21.5557159 10.6727598,22.0178341 11.0686371,22.194322 C11.4643363,22.3708098 11.9275591,22.194322 12.104332,21.7992998 L13.8862432,17.8131965 L19.9306947,17.8131965 L21.6400581,21.7876124 L21.6417328,21.7892871 C21.7697961,22.0850726 22.0594529,22.2632353 22.3626144,22.2632353 C22.4670176,22.2632353 22.5713853,22.2413569 22.6724391,22.1976714 C23.0699555,22.0279893 23.2535699,21.5674034 23.0834603,21.1708847 L18.4115734,10.2979413 C18.2566432,9.9349172 17.9703359,9.64764781 17.6098417,9.48619685 C17.2276116,9.31651478 16.8014467,9.30468479 16.4107361,9.45430574 Z M16.973338,10.9163437 L19.2636896,16.2485725 L14.5867786,16.2485725 L16.973338,10.9163437 Z M16.4774045,3.47958702 L18.282263,5.43075265 L18.282263,7.98168488 L10.7752033,7.98168488 C9.76776504,7.98168488 8.95085384,8.79845355 8.95085384,9.80603437 L8.95085384,12.4552411 L3.70257534,12.4552411 L3.70257534,10.6514872 L7.379424,5.43075265 L11.0536002,6.93929109 L16.4774045,3.47958702 Z M5.0170947,3.19274522 C5.77275359,3.19274522 6.38531227,3.8053039 6.38531227,4.56096279 C6.38531227,5.31662168 5.77275359,5.92918036 5.0170947,5.92918036 C4.26143581,5.92918036 3.64869897,5.31662168 3.64869897,4.56096279 C3.64869897,3.8053039 4.26143581,3.19274522 5.0170947,3.19274522 Z M19.6406104,2.2804814 C19.6406104,2.02855947 19.436436,1.82434948 19.1844785,1.82434948 L2.2804814,1.82434948 C2.02855947,1.82434948 1.82434948,2.02855947 1.82434948,2.2804814 L1.82434948,14.1959254 C1.82434948,14.447883 2.02855947,14.6520573 2.2804814,14.6520573 L9.74912923,14.6520573 L9.74912923,10.4901432 C9.74912923,9.48270486 10.5658623,8.66579367 11.5734787,8.66579367 L19.6406104,8.66579367 L19.6406104,2.2804814 Z" id="形状结合" fill="currentColor" mask="url(#mask-2)"></path>
                        </g>
                    </g>
                </g>
            </g>
        </g>
    </g>
</svg>
