<?xml version="1.0" encoding="UTF-8"?>
<svg width="24px" height="24px" viewBox="0 0 24 24" version="1.1" xmlns="http://www.w3.org/2000/svg" xmlns:xlink="http://www.w3.org/1999/xlink">
    <title>切片</title>
    <g id="页面-1" stroke="none" stroke-width="1" fill="none" fill-rule="evenodd">
        <g id="5图层备份-2" transform="translate(-1835.000000, -345.000000)" fill="currentColor">
            <g id="编组-5" transform="translate(1804.000000, 140.000000)">
                <g id="编组-4备份" transform="translate(1.000000, 184.000000)">
                    <g id="编组-20" transform="translate(14.000000, 21.000000)">
                        <g id="icon/iisg-icon-legend备份" transform="translate(16.000000, 0.000000)">
                            <g id="virus" transform="translate(0.000000, 1.000000)">
                                <path d="M20.078625,15.171375 L20.96025,15.680375 L21.29775,15.095825 C21.3529801,15.0001714 21.4752939,14.9673991 21.57095,15.022625 L22.263775,15.422625 C22.3594286,15.4778551 22.3922009,15.6001689 22.336975,15.695825 L21.061975,17.904175 C21.0067449,17.9998286 20.8844311,18.0326009 20.788775,17.977375 L20.09595,17.577375 C20.0002964,17.5221449 19.9675241,17.3998311 20.02275,17.304175 L20.36025,16.719625 L19.477675,16.210125 C18.823031,17.1849445 17.9849261,18.0230409 17.0101,18.677675 L17.9196,20.253075 L18.504175,19.915575 C18.5977294,19.8615618 18.7172688,19.8916016 18.774175,19.983425 L18.777375,19.988775 L19.177375,20.6816 C19.2313882,20.7751544 19.2013484,20.8946938 19.109525,20.9516 L19.104175,20.9548 L16.895825,22.2298 C16.8022706,22.2838132 16.6827312,22.2537734 16.625825,22.16195 L16.622625,22.1566 L16.222625,21.463775 C16.1686118,21.3702206 16.1986516,21.2506812 16.290475,21.193775 L16.295825,21.190575 L16.880375,20.853075 L15.971375,19.278625 C14.943,19.78515 13.8038,20.101075 12.6,20.180325 L12.6,21.2 L13.275,21.2 C13.3830227,21.2000013 13.4715243,21.2857801 13.4749,21.39375 L13.475,21.4 L13.475,22.2 C13.4749987,22.3080227 13.3892199,22.3965243 13.28125,22.4 L13.275,22.4 L10.725,22.4 C10.6169773,22.4 10.5284757,22.3142199 10.5251,22.20625 L10.525,22.2 L10.525,21.4 C10.5250013,21.2919773 10.6107801,21.2034757 10.71875,21.2001 L10.725,21.2 L11.4,21.2 L11.4,20.180325 C10.196175,20.101075 9.057,19.78515 8.028625,19.278625 L7.119625,20.853075 L7.704175,21.190575 C7.79982863,21.2458051 7.83260087,21.3681189 7.777375,21.463775 L7.377375,22.1566 C7.32214492,22.2522536 7.19983106,22.2850259 7.104175,22.2298 L4.895825,20.9548 C4.80017137,20.8995699 4.76739913,20.7772561 4.822625,20.6816 L5.222625,19.988775 C5.27785508,19.8931214 5.40016894,19.8603491 5.495825,19.915575 L6.080375,20.253075 L6.989875,18.677675 C6.01505553,18.023031 5.17695915,17.1849261 4.522325,16.2101 L3.63975,16.7196 L3.97725,17.304175 C4.03120213,17.3976133 4.00131309,17.5170036 3.9097,17.574 L3.90405,17.577375 L3.211225,17.977375 C3.11779308,18.0313317 2.99840463,18.0014541 2.9414,17.90985 L2.938025,17.904175 L1.663025,15.695825 C1.60906833,15.6023931 1.63894587,15.4830046 1.73055,15.426 L1.736225,15.422625 L2.42905,15.022625 C2.52247631,14.9686848 2.64184656,14.9985605 2.69885,15.09015 L2.70225,15.095825 L3.03975,15.680375 L3.921375,15.171375 C3.41485,14.143 3.098925,13.0038 3.019675,11.8 L1.2,11.8 L1.2,12.475 C1.2,12.5854569 1.11045695,12.675 1,12.675 L0.2,12.675 C0.08954305,12.675 0,12.5854569 0,12.475 L0,9.925 C0,9.81454305 0.08954305,9.725 0.2,9.725 L1,9.725 C1.11045695,9.725 1.2,9.81454305 1.2,9.925 L1.2,10.6 L3.019675,10.6 C3.098925,9.396175 3.41485,8.257 3.921375,7.228625 L3.03975,6.719625 L2.70225,7.304175 C2.64831035,7.39762249 2.52997006,7.43143874 2.4348,7.3806 L2.42905,7.377375 L1.736225,6.977375 C1.64279193,6.92343633 1.60897768,6.80511412 1.6598,6.70995 L1.663025,6.7042 L2.938025,4.495825 C2.99196367,4.40239193 3.11028588,4.36857768 3.20545,4.4194 L3.2112,4.422625 L3.90405,4.822625 C3.99747391,4.87657212 4.03127652,4.99489232 3.98045,5.09005 L3.97725,5.0958 L3.63975,5.680375 L4.522325,6.189875 C5.17696903,5.21505553 6.01507389,4.37695915 6.9899,3.722325 L6.0804,2.146925 L5.495825,2.484425 C5.40016894,2.53965087 5.27785508,2.50687863 5.222625,2.411225 L4.822625,1.7184 C4.76739913,1.62274394 4.80017137,1.50043008 4.895825,1.4452 L7.104175,0.1702 C7.19983106,0.114974133 7.32214492,0.147746368 7.377375,0.2434 L7.777375,0.936225 C7.83260087,1.03188106 7.79982863,1.15419492 7.704175,1.209425 L7.119625,1.546925 L8.028625,3.121375 C9.057025,2.61485 10.196175,2.298925 11.399975,2.219675 L11.4,1.2 L10.725,1.2 C10.6145431,1.2 10.525,1.11045695 10.525,1 L10.525,0.2 C10.525,0.08954305 10.6145431,0 10.725,0 L13.275,0 C13.3854569,0 13.475,0.08954305 13.475,0.2 L13.475,1 C13.475,1.11045695 13.3854569,1.2 13.275,1.2 L12.6,1.2 L12.6,2.219675 C13.8038,2.298925 14.942975,2.61485 15.971375,3.121375 L16.880375,1.546925 L16.295825,1.209425 C16.2022685,1.15541448 16.1685096,1.03687105 16.219575,0.941675 L16.222625,0.936225 L16.622625,0.2434 C16.6766355,0.149843455 16.795179,0.116084588 16.890375,0.16715 L16.895825,0.1702 L19.104175,1.4452 C19.1977315,1.49921052 19.2314904,1.61775395 19.180425,1.71295 L19.177375,1.7184 L18.777375,2.411225 C18.7233645,2.50478154 18.604821,2.53854041 18.509625,2.487475 L18.504175,2.484425 L17.919625,2.146925 L17.010125,3.722325 C17.9849445,4.37696903 18.8230409,5.21507389 19.477675,6.1899 L20.36025,5.6804 L20.02275,5.095825 C19.9675241,5.00016894 20.0002964,4.87785508 20.09595,4.822625 L20.788775,4.422625 C20.8844311,4.36739913 21.0067449,4.40017137 21.061975,4.495825 L22.336975,6.704175 C22.3922009,6.79983106 22.3594286,6.92214492 22.263775,6.977375 L21.57095,7.377375 C21.4752939,7.43260087 21.3529801,7.39982863 21.29775,7.304175 L20.96025,6.719625 L20.078625,7.228625 C20.58515,8.257025 20.901075,9.3962 20.980325,10.6 L22.8,10.6 L22.8,9.925 C22.8000013,9.8169773 22.8857801,9.72847571 22.99375,9.7251 L23,9.725 L23.8,9.725 C23.9080227,9.72500125 23.9965243,9.81078006 24,9.91875 L24,9.925 L24,12.475 C24,12.5830227 23.9142199,12.6715243 23.80625,12.6749 L23.8,12.675 L23,12.675 C22.8919773,12.6749987 22.8034757,12.5892199 22.8001,12.48125 L22.8,12.475 L22.8,11.8 L20.980325,11.8 C20.901075,13.003825 20.58515,14.143 20.078625,15.171375 Z M12,3.8 C7.9131,3.8 4.6,7.1131 4.6,11.2 C4.6,15.2869 7.9131,18.6 12,18.6 C16.0869,18.6 19.4,15.2869 19.4,11.2 C19.4,7.1131 16.0869,3.8 12,3.8 Z M12.7,13.725 C13.8045769,13.725 14.7,14.6204231 14.7,15.725 C14.7,16.8295769 13.8045769,17.725 12.7,17.725 C11.5954231,17.725 10.7,16.8295769 10.7,15.725 C10.7,14.6204231 11.5954231,13.725 12.7,13.725 Z M9.55,7.15 C11.20685,7.15 12.55,8.49315 12.55,10.15 C12.55,11.80685 11.20685,13.15 9.55,13.15 C7.89315,13.15 6.55,11.80685 6.55,10.15 C6.55,8.49315 7.89315,7.15 9.55,7.15 Z M16.175,8.65 C17.0034167,8.65 17.675,9.32158333 17.675,10.15 C17.675,10.9784167 17.0034167,11.65 16.175,11.65 C15.3465833,11.65 14.675,10.9784167 14.675,10.15 C14.675,9.32158333 15.3465833,8.65 16.175,8.65 Z" id="形状"></path>
                            </g>
                        </g>
                    </g>
                </g>
            </g>
        </g>
    </g>
</svg>