<?xml version="1.0" encoding="UTF-8"?>
<svg width="24px" height="24px" viewBox="0 0 24 24" version="1.1" xmlns="http://www.w3.org/2000/svg" xmlns:xlink="http://www.w3.org/1999/xlink">
    <title>切片</title>
    <g id="页面-1" stroke="none" stroke-width="1" fill="none" fill-rule="evenodd">
        <g id="5图层备份-2" transform="translate(-1835.000000, -621.000000)" fill="currentColor">
            <g id="编组-5" transform="translate(1804.000000, 140.000000)">
                <g id="编组-4备份-4" transform="translate(1.000000, 460.000000)">
                    <g id="编组-19" transform="translate(7.000000, 21.000000)">
                        <g id="icon/iisg-icon-legend备份" transform="translate(23.000000, 0.000000)">
                            <path d="M19.0702256,2.91221967 C20.9447094,4.77112854 21.9991026,7.30171618 21.9991026,9.94164644 C21.9991026,12.5815767 20.9447094,15.1121643 19.0702256,16.9710732 L11.9992992,24 L4.92837291,16.9700732 C3.05419719,15.1112033 2,12.5808306 2,9.94114645 C2,7.30146233 3.05419719,4.77108964 4.92837291,2.91221967 C8.83333223,-0.970739889 15.1652663,-0.970739889 19.0702256,2.91221967 Z M15.9650207,4.09810072 C15.8040545,4.09791733 15.651353,4.16127133 15.5390397,4.27411261 C15.4267263,4.38695388 15.3640891,4.53995078 15.3650257,4.69915683 L15.3650257,4.69915683 L15.3644736,5.89409417 L12.6418994,5.89405702 C12.4823738,5.50469028 12.1712104,5.19349171 11.7818287,5.03393561 L11.7818287,5.03393561 L11.7805217,4.69212701 C11.7785939,4.36417558 11.5127003,4.09906633 11.1847446,4.0981074 C10.8561032,4.0981074 10.5891433,4.36349129 10.5872101,4.69212701 L10.5872101,4.69212701 L10.5866716,5.03565384 C10.3961155,5.11415462 10.2210059,5.2300829 10.072581,5.3787733 C9.92390905,5.52771122 9.80815618,5.70336403 9.72999078,5.89442878 L9.72999078,5.89442878 L8.79247364,5.89409417 L8.79284916,4.69212701 C8.79092141,4.36417557 8.52502781,4.09906631 8.1970721,4.0981074 C7.8684307,4.0981074 7.60147078,4.36349129 7.5995376,4.69212701 L7.5995376,4.69212701 L7.59947364,5.89409417 L6.40095369,5.89422582 C6.08962555,5.91815637 5.8492142,6.17775637 5.8492142,6.49000287 C5.8492142,6.80224938 6.08962555,7.06184938 6.40095369,7.08577993 L6.40095369,7.08577993 L7.59947364,7.08509417 L7.59947364,10.0200942 L6.40095369,10.0207288 C6.08962555,10.0446594 5.8492142,10.3042593 5.8492142,10.6165059 C5.8492142,10.9287524 6.08962555,11.1883524 6.40095369,11.2122829 L6.40095369,11.2122829 L7.59947364,11.2120942 L7.59947364,13.6550942 L6.40552306,13.6551445 C6.07357263,13.6551445 5.80447364,13.9242435 5.80447364,14.256194 C5.80447364,14.5881444 6.07357263,14.8572434 6.40552306,14.8572434 L6.40552306,14.8572434 L7.59947364,14.8570942 L7.5995376,15.4547779 C7.60147079,15.7834136 7.86843071,16.0487975 8.1970721,16.0487975 C8.52502779,16.0478386 8.7909214,15.7827293 8.79284916,15.4547779 L8.79284916,15.4547779 L8.79247364,14.8570942 L10.5864736,14.8570942 L10.5872101,15.4547779 C10.5891433,15.7834136 10.8561032,16.0487975 11.1847446,16.0487975 C11.5127003,16.0478385 11.7785939,15.7827293 11.7805217,15.4547779 L11.7805217,15.4547779 L11.7804736,14.8570942 L15.3644736,14.8570942 L15.3650257,15.4477481 C15.3597526,15.665631 15.4729773,15.8692582 15.6608396,15.9797503 C15.8487019,16.0902425 16.0816909,16.0902425 16.2695532,15.9797503 C16.4574155,15.8692582 16.5706401,15.665631 16.5653671,15.4477481 L16.5653671,15.4477481 L16.5644736,14.8570942 L17.1565747,14.8572434 C17.4885252,14.8572434 17.7576242,14.5881444 17.7576242,14.256194 C17.7576242,13.9242435 17.4885252,13.6551445 17.1565747,13.6551445 L17.1565747,13.6551445 L16.5644736,13.6550942 L16.5651532,12.0902355 C17.0005805,11.9273803 17.3446544,11.5770417 17.4987858,11.137921 C17.5865516,11.0888029 17.6621176,11.0174534 17.7166109,10.9284068 C17.8337612,10.7369735 17.8337612,10.4960382 17.7166109,10.3046049 C17.6621176,10.2155584 17.5865516,10.1442088 17.4987579,10.0953373 C17.3444708,9.65586742 17.000507,9.30545274 16.5648212,9.14263421 L16.5648212,9.14263421 L16.5644736,7.08509417 L17.2562252,7.08551703 C17.4442288,7.06998472 17.6161962,6.96598956 17.7166109,6.80190387 C17.8337612,6.61047056 17.8337612,6.36953519 17.7166109,6.17810188 C17.6161962,6.01401619 17.4442288,5.91002103 17.2562252,5.89448871 L17.2562252,5.89448871 L16.5644736,5.89409417 L16.5653671,4.69915683 C16.5663076,4.53958416 16.5033817,4.38626474 16.3906108,4.27336185 C16.27784,4.16045896 16.1245943,4.09735369 15.9650207,4.09810072 L15.9650207,4.09810072 Z M10.5864736,11.2120942 L10.5864736,13.6550942 L8.79247364,13.6550942 L8.79247364,11.2120942 L10.5864736,11.2120942 Z M11.7804736,11.2120942 L14.558467,11.2132703 C14.7106292,11.5840511 15.0003429,11.8839064 15.364207,12.0492467 L15.364207,12.0492467 L15.3644736,13.6550942 L11.7804736,13.6550942 L11.7804736,11.2120942 Z M16.0441061,9.69031066 C16.4298763,9.68804972 16.7789293,9.91867904 16.9281381,10.2744326 C17.0773468,10.6301861 16.9972456,11.0408097 16.7252689,11.3144016 C16.4532923,11.5879935 16.0431503,11.6705249 15.6865194,11.5234254 C15.3298886,11.3763258 15.0971831,11.0286446 15.0971831,10.6428677 C15.0962559,10.3909271 15.1955405,10.1489548 15.3731623,9.97027796 C15.5507842,9.79160115 15.7921644,9.69088553 16.0441061,9.69031066 Z M8.79247364,7.08509417 L9.72973439,7.0860426 C9.88878313,7.47418165 10.1985018,7.78457937 10.5860932,7.94455767 L10.5860932,7.94455767 L10.5864736,10.0200942 L8.79247364,10.0200942 L8.79247364,7.08509417 Z M15.3644736,7.08509417 L15.3644696,9.18426513 C15.0008516,9.3497357 14.7111701,9.64945782 14.5588462,10.0202084 L14.5588462,10.0202084 L11.7804736,10.0200942 L11.7816107,7.94615871 C12.1710164,7.78666082 12.4822263,7.47550881 12.6418102,7.08616594 L12.6418102,7.08616594 L15.3644736,7.08509417 Z M11.2114579,5.56382381 C11.5968202,5.5633978 11.9444744,5.79520612 12.0922419,6.15111206 C12.2400093,6.50701799 12.1587745,6.91689539 11.886433,7.18953869 C11.6140915,7.46218199 11.2043044,7.54387075 10.848235,7.39649761 C10.4921656,7.24912447 10.2599721,6.90172719 10.2599721,6.51636469 C10.2605518,5.990943 10.6860372,5.56498609 11.2114579,5.56382381 Z" id="形状结合"></path>
                        </g>
                    </g>
                </g>
            </g>
        </g>
    </g>
</svg>