<?xml version="1.0" encoding="UTF-8"?>
<svg width="24px" height="24px" viewBox="0 0 24 24" version="1.1" xmlns="http://www.w3.org/2000/svg" xmlns:xlink="http://www.w3.org/1999/xlink">
    <title>切片</title>
    <g id="页面-1" stroke="none" stroke-width="1" fill="none" fill-rule="evenodd">
        <g id="5图层备份-2" transform="translate(-1835.000000, -529.000000)" fill="currentColor">
            <g id="编组-5" transform="translate(1804.000000, 140.000000)">
                <g id="编组-4备份-3" transform="translate(1.000000, 368.000000)">
                    <g id="编组-21" transform="translate(14.000000, 21.000000)">
                        <g id="icon/iisg-icon-legend备份" transform="translate(16.000000, 0.000000)">
                            <path d="M19.2,10.4 C19.6418278,10.4 20,10.7581722 20,11.2 L20,15.1184 C20,15.5602278 19.6418278,15.9184 19.2,15.9184 L18.399,15.918 L18.399,21.6 L20,21.6 L20,24 L4,24 L4,21.6 L5.599,21.6 L5.6,15.9184 L5.6,15.9184 L4.8,15.9184 C4.3581722,15.9184 4,15.5602278 4,15.1184 L4,11.2 C4,10.7581722 4.3581722,10.4 4.8,10.4 L5.6,10.4 L5.599,6 L4.8,6 C4.3581722,6 4,5.6418278 4,5.2 C4,4.7581722 4.3581722,4.4 4.8,4.4 L5.9086504,4.40019072 C6.57843264,2.7164933 8.27622858,1.40815531 10.4003081,0.963845341 L10.4,0.8 C10.4,0.3581722 10.7581722,0 11.2,0 L12.8,0 C13.2418278,0 13.6,0.3581722 13.6,0.8 L13.6006912,0.964054443 C15.7243039,1.40856568 17.4216724,2.71675735 18.0913496,4.40019072 L19.1304,4.4 C19.5722278,4.4 19.9304,4.7581722 19.9304,5.2 C19.9304,5.6418278 19.5722278,6 19.1304,6 L18.399,6 L18.3989906,10.4000006 L18.3989906,10.4000006 L19.2,10.4 Z M12.0000001,9.6 C9.79086103,9.6 8.00000008,11.390861 8.00000008,13.6 C8.00000008,15.809139 9.79086103,17.6 12.0000001,17.6 C14.209139,17.6 16.0000001,15.809139 16.0000001,13.6 C16.0000001,11.390861 14.209139,9.6 12.0000001,9.6 Z M12,11.2 C13.3254834,11.2 14.4,12.2745166 14.4,13.6 C14.4,14.9254834 13.3254834,16 12,16 C10.6745166,16 9.6,14.9254834 9.6,13.6 C9.6,12.2745166 10.6745166,11.2 12,11.2 Z" id="形状结合"></path>
                        </g>
                    </g>
                </g>
            </g>
        </g>
    </g>
</svg>