<?xml version="1.0" encoding="UTF-8"?>
<svg width="24px" height="24px" viewBox="0 0 24 24" version="1.1" xmlns="http://www.w3.org/2000/svg"
     xmlns:xlink="http://www.w3.org/1999/xlink">
    <title>切片</title>
    <g id="页面-1" stroke="none" stroke-width="1" fill-rule="evenodd">
        <g id="icon/iisg-icon-医院">
            <path d="M18.6666667,22.3333333 L16.6666667,22.3333333 L16.6666667,5.66666667 L7.33333333,5.66666667 L7.33333333,22.3333333 L0,22.3333333 L0,10.3333333 L5.33333333,10.3333333 L5.33333333,3.66666667 L8.66666667,3.66666667 L8.66666667,1 L15.3333333,1 L15.3333333,3.66666667 L18.6666667,3.66666667 L18.6666667,10.3333333 L24,10.3333333 L24,22.3333333 L18.6666667,22.3333333 Z M11.3333333,7 L13.3333333,7 L13.3333333,9 L15.3333333,9 L15.3333333,11 L13.3333333,11 L13.3333333,13 L11.3333333,13 L11.3333333,11 L9.33333333,11 L9.33333333,9 L11.3333333,9 L11.3333333,7 Z M14.6666667,22.3333333 L9.33333333,22.3333333 L9.33333333,15.6666667 L14.6666667,15.6666667 L14.6666667,22.3333333 Z"
                  id="形状"></path>
        </g>
    </g>
</svg>