<?xml version="1.0" standalone="no"?><!DOCTYPE svg PUBLIC "-//W3C//DTD SVG 1.1//EN" "http://www.w3.org/Graphics/SVG/1.1/DTD/svg11.dtd"><svg t="1607667789334" class="icon" viewBox="0 0 1024 1024" version="1.1" xmlns="http://www.w3.org/2000/svg" p-id="3430" width="20" height="20" xmlns:xlink="http://www.w3.org/1999/xlink"><defs><style type="text/css"></style></defs><path d="M81.60985479 431.60170977c-8.80952695 7.90294219-15.45871904 19.58691972-15.45871904 33.18120351 0 23.8932 19.33688935 43.25347442 43.20310868 43.25347442l86.48176554 0 0 410.62289765c0 23.9183833 19.33599023 43.20400781 43.20310868 43.20400781l143.35380616 0c23.84283427 0 43.20130957-19.31080693 43.20130957-43.20400781l0-172.90596973 172.88798203 0 0 172.90596973c0 23.8932 19.25864297 43.20400781 43.17882451 43.20400781l143.32592461 0c23.8698167 0 43.20490693-19.28562451 43.20490694-43.20400781l0-410.62289766 86.4556831 0c23.91658418 0 43.20220869-19.35937442 43.20220869-43.25347441 0-13.59338379-6.59612812-25.27736221-16.5433834-33.18120351-148.33912588-125.00174883-429.28164668-369.46500293-429.28164668-369.46500294S231.0075626 306.59996094 81.60985479 431.60170977zM441.93345489 118.38097373" fill="#ffffff" p-id="3431"></path></svg>