<?xml version="1.0" encoding="UTF-8"?>
<svg width="16px" height="16px" viewBox="0 0 16 16" version="1.1" xmlns="http://www.w3.org/2000/svg" xmlns:xlink="http://www.w3.org/1999/xlink">
    <title>形状</title>
    <g id="页面-1" stroke="none" stroke-width="1" fill="none" fill-rule="evenodd">
        <g id="5图层备份-2" transform="translate(-738.000000, -113.000000)" fill="#32ADE5" fill-rule="nonzero">
            <g id="编组-9" transform="translate(707.000000, 86.000000)">
                <g id="编组-7" transform="translate(15.000000, 10.000000)">
                    <g id="编组-11" transform="translate(0.000000, 1.000000)">
                        <g id="好友" transform="translate(16.000000, 16.000000)">
                            <path d="M7.39992084,10.1227723 C7.37879872,10.2389439 7.35239608,10.3287129 7.32071292,10.3920792 C7.28902975,10.4554456 7.21510236,10.5240924 7.09893074,10.5980198 C6.82434328,10.7669967 6.52863371,10.9042904 6.21180202,11.009901 C5.89497033,11.1155116 5.59133997,11.2316832 5.30091092,11.3584158 C5.01048188,11.4851485 4.75701653,11.6514851 4.54051487,11.8574257 C4.32401322,12.0633664 4.18935975,12.3564357 4.13655448,12.7366337 C4.11543237,12.8528053 4.10223105,12.9663366 4.09695053,13.0772277 C4.09167001,13.1881188 4.08374922,13.2910891 4.07318815,13.3861386 C4.0626271,13.4072607 4.05206604,13.4257426 4.04150498,13.4415842 C4.03094392,13.4574258 4.02038286,13.4759076 4.00982181,13.4970297 C3.59794062,13.4653466 3.1807789,13.4283829 2.75833665,13.3861386 C2.3358944,13.3438944 1.94777558,13.2963697 1.59398021,13.2435644 C1.24018483,13.1907591 0.941834995,13.1379538 0.698930702,13.0851485 C0.45602641,13.0323432 0.302891097,12.979538 0.239524763,12.9267327 C0.144475263,12.8528053 0.0731881322,12.6310231 0.0256633716,12.2613862 C-0.021861389,11.8917492 -0.00337953995,11.4112211 0.0811089187,10.819802 C0.1339142,10.4924093 0.268567664,10.2415842 0.485069311,10.0673267 C0.701570958,9.89306931 0.957676568,9.75577558 1.25338614,9.65544555 C1.54909572,9.55511552 1.85272608,9.46270628 2.16427724,9.37821783 C2.4758284,9.29372939 2.75305612,9.17755777 2.99596041,9.02970299 C3.18605943,8.90297031 3.33127395,8.7867987 3.43160398,8.68118814 C3.53193401,8.57557759 3.60322114,8.46732677 3.64546537,8.35643567 C3.6877096,8.24554458 3.70883171,8.13201322 3.70883171,8.01584161 C3.70883171,7.89966999 3.70355119,7.77293732 3.69299014,7.63564359 C3.67186802,7.42442247 3.60058089,7.25808583 3.47912874,7.13663368 C3.3576766,7.01518154 3.22302313,6.89108913 3.07516835,6.76435645 C2.9906799,6.71155117 2.91939277,6.62706272 2.86130696,6.5108911 C2.80322115,6.39471949 2.75305613,6.27854787 2.71081191,6.16237626 C2.66856768,6.03564358 2.62632346,5.89306933 2.58407924,5.73465349 C2.52071291,5.71353138 2.45734657,5.68184821 2.39398022,5.63960399 C2.34117494,5.59735976 2.2857294,5.53399342 2.22764358,5.44950497 C2.16955777,5.36501653 2.11411222,5.24884491 2.06130694,5.10099013 C2.00850166,4.95313535 1.98737955,4.81320135 1.9979406,4.68118814 C2.00850165,4.54917493 2.03490429,4.43564358 2.07714852,4.34059408 C2.11939275,4.22442246 2.17747856,4.12937296 2.25140594,4.05544556 C2.24084489,3.71749177 2.25668647,3.37425745 2.29893069,3.02574259 C2.34117492,2.74059408 2.40982179,2.43432345 2.50487129,2.10693071 C2.59992079,1.77953797 2.74249504,1.4838284 2.93259405,1.21980199 C3.10157095,0.966336644 3.29166996,0.76039605 3.50289109,0.601980205 C3.71411221,0.443564361 3.9279736,0.319471949 4.14447525,0.22970297 C4.36097689,0.13993399 4.58011881,0.079207917 4.801901,0.0475247502 C5.02368319,0.0158415834 5.24018484,0 5.45140596,0 C5.97945876,0 6.45470629,0.110891089 6.87714854,0.332673267 C7.29959079,0.554455445 7.61642247,0.792079206 7.82764359,1.04554455 C7.96493732,1.22508251 8.05206603,1.39141915 8.08902973,1.54455446 C8.12599343,1.69768977 8.17615845,1.87458746 8.23952478,2.07524752 C8.03886472,2.19141914 7.82500333,2.3630363 7.59794062,2.59009901 C7.37087791,2.81716172 7.17285811,3.04686469 7.00388121,3.27920792 C6.79266009,3.57491749 6.63424424,3.90231023 6.52863368,4.26138614 C6.42302312,4.62046205 6.34381519,4.95313532 6.29100991,5.25940594 C6.23820463,5.62904291 6.21180199,5.99867988 6.21180199,6.36831684 C6.12731354,6.46336634 6.0639472,6.5689769 6.02170297,6.68514853 C5.97945874,6.79075909 5.9530561,6.9148515 5.94249505,7.05742576 C5.931934,7.20000002 5.95305611,7.3557756 6.00586139,7.5247525 C6.05866668,7.70429046 6.11675248,7.84158419 6.18011882,7.93663369 C6.24348515,8.03168319 6.30157096,8.10561058 6.35437624,8.15841586 C6.41774257,8.22178219 6.48110891,8.26402642 6.54447526,8.28514853 C6.58671949,8.45412543 6.62896371,8.61254127 6.67120793,8.76039607 C6.71345216,8.88712874 6.76361717,9.01650168 6.82170298,9.14851488 C6.87978878,9.28052808 6.95107591,9.37821785 7.03556437,9.44158419 C7.10949176,9.50495053 7.16757757,9.55775581 7.20982179,9.60000004 C7.25206601,9.64224427 7.28638944,9.68184823 7.31279209,9.71881191 C7.33919473,9.7557756 7.35503632,9.80594062 7.36031684,9.86930696 C7.36559736,9.9326733 7.37879868,10.0171618 7.39992079,10.1227723 L7.39992084,10.1227723 Z M15.8434852,13.0376238 C15.8857295,13.1854786 15.9200529,13.3650165 15.9464555,13.5762376 C15.9728582,13.7874588 15.9860595,14.0013201 15.9860595,14.2178218 C15.9860595,14.4343234 15.9702179,14.6376238 15.9385347,14.8277228 C15.9068516,15.0178218 15.8593268,15.160396 15.7959605,15.2554455 C15.7537163,15.3188119 15.6296238,15.3821782 15.4236832,15.4455446 C15.2177426,15.5089109 14.961637,15.5669967 14.6553664,15.619802 C14.3490958,15.6726073 14.011142,15.7227723 13.641505,15.770297 C13.271868,15.8178218 12.8995908,15.8574257 12.5246733,15.8891089 C12.1497558,15.9207921 11.7880397,15.9471947 11.4395248,15.9683168 C11.09101,15.989439 10.7847393,16 10.5207129,16 C10.2566865,16 9.95305617,15.9894389 9.60982183,15.9683168 C9.2665875,15.9471947 8.91015185,15.9207921 8.54051489,15.8891089 C8.17087793,15.8574257 7.80652149,15.8231023 7.44744557,15.7861386 C7.08836965,15.7491749 6.75833665,15.7069307 6.45734655,15.6594059 C6.15635646,15.6118812 5.90289111,15.5643564 5.6969505,15.5168317 C5.4910099,15.4693069 5.36163696,15.4244225 5.30883169,15.3821782 C5.22434324,15.3082508 5.15569638,15.0864686 5.10289109,14.7168317 C5.05008581,14.3471947 5.0659274,13.8719472 5.15041584,13.2910891 C5.20322113,12.9531353 5.33787459,12.69967 5.55437624,12.530693 C5.77087788,12.3617161 6.02698349,12.2244224 6.32269307,12.1188119 C6.61840264,12.0132013 6.92203301,11.9207921 7.23358417,11.8415841 C7.54513532,11.7623762 7.82236305,11.6435643 8.06526734,11.4851485 C8.25536635,11.3584158 8.40058087,11.2422442 8.5009109,11.1366337 C8.60124094,11.0310231 8.67516833,10.9254125 8.72269308,10.819802 C8.77021783,10.7141914 8.7939802,10.6033003 8.7939802,10.4871287 C8.7939802,10.3709571 8.78869968,10.2389439 8.77813862,10.0910891 C8.75701651,9.87986796 8.68308912,9.71353132 8.55635645,9.59207918 C8.42962378,9.47062703 8.29233005,9.35181515 8.14447526,9.23564354 C8.07054787,9.1722772 8.00454127,9.08250822 7.94645547,8.9663366 C7.88836966,8.85016497 7.83820465,8.73399336 7.79596042,8.61782175 C7.75371619,8.49108907 7.71147196,8.34851482 7.66922775,8.19009899 C7.60586141,8.16897687 7.54249507,8.1372937 7.47912873,8.09504948 C7.42632345,8.05280526 7.3708779,7.98943892 7.31279209,7.90495047 C7.25470627,7.82046202 7.19926073,7.70429041 7.14645545,7.55643562 C7.09365016,7.40858084 7.07252805,7.26864685 7.0830891,7.13663364 C7.09365015,7.00462043 7.1200528,6.89636961 7.16229702,6.81188117 C7.20454125,6.7062706 7.26262706,6.6112211 7.33655445,6.52673265 C7.32599339,6.18877886 7.34183498,5.84554453 7.3840792,5.49702968 C7.42632343,5.2013201 7.49233003,4.89240921 7.58209899,4.570297 C7.67186796,4.24818479 7.81180196,3.94983496 8.00190098,3.6752475 C8.17087788,3.42178215 8.36097689,3.21584156 8.57219801,3.05742572 C8.78341914,2.89900987 8.99992079,2.77491746 9.22170297,2.68514848 C9.44348515,2.5953795 9.66526733,2.53465343 9.8870495,2.50297026 C10.1088317,2.47128709 10.3200528,2.45544551 10.5207129,2.45544551 C11.0593267,2.45544551 11.5398548,2.5663366 11.962297,2.78811878 C12.3847393,3.00990095 12.6962904,3.24752472 12.8969505,3.50099006 C13.1292937,3.78613857 13.3009109,4.10561052 13.411802,4.45940591 C13.5226931,4.81320129 13.6045413,5.1432343 13.6573465,5.44950493 C13.7101518,5.80858084 13.7312739,6.16765674 13.7207129,6.52673265 C13.7735182,6.56897688 13.8210429,6.62706269 13.8632871,6.70099007 C13.8949703,6.76435641 13.9240132,6.84620459 13.9504158,6.94653462 C13.9768185,7.04686465 13.9794588,7.17095706 13.9583366,7.31881186 C13.9372145,7.50891087 13.8949703,7.66204618 13.831604,7.7782178 C13.7682376,7.89438941 13.7048713,7.98415839 13.641505,8.04752473 C13.5675776,8.12145213 13.4830891,8.16897688 13.3880396,8.19009899 C13.3457954,8.34851483 13.3035512,8.49108909 13.2613069,8.61782175 C13.2190627,8.73399337 13.1662574,8.85016498 13.1028911,8.9663366 C13.0395248,9.08250821 12.9708779,9.16699666 12.8969505,9.21980194 C12.8124621,9.29372934 12.7358944,9.35709568 12.6672475,9.40990096 C12.5986007,9.46270624 12.5378746,9.51815179 12.4850693,9.5762376 C12.432264,9.63432341 12.3873795,9.70033001 12.3504158,9.7742574 C12.3134521,9.84818478 12.2844092,9.93795376 12.2632871,10.0435643 C12.242165,10.1808581 12.2342442,10.3207921 12.2395247,10.4633663 C12.2448053,10.6059406 12.2791287,10.7458746 12.342495,10.8831683 C12.4058614,11.020462 12.5088317,11.1524752 12.6514059,11.2792079 C12.7939802,11.4059406 12.992,11.5168317 13.2454653,11.6118812 C13.4672475,11.7069307 13.7127921,11.7887789 13.982099,11.8574257 C14.2514059,11.9260726 14.5101518,12.0079208 14.7583366,12.1029703 C15.0065215,12.1980198 15.2283036,12.3194719 15.4236832,12.4673267 C15.6190627,12.6151815 15.7589967,12.8052805 15.8434852,13.0376238 L15.8434852,13.0376238 Z" id="形状"></path>
                        </g>
                    </g>
                </g>
            </g>
        </g>
    </g>
</svg>