<?xml version="1.0" encoding="UTF-8"?>
<svg width="16px" height="14px" viewBox="0 0 16 14" version="1.1" xmlns="http://www.w3.org/2000/svg" xmlns:xlink="http://www.w3.org/1999/xlink">
    <title>形状</title>
    <g id="页面-1" stroke="none" stroke-width="1" fill="none" fill-rule="evenodd">
        <g id="5图层备份-2" transform="translate(-1080.000000, -114.000000)" fill="#32ADE5" fill-rule="nonzero">
            <g id="编组-9" transform="translate(707.000000, 86.000000)">
                <g id="编组-7" transform="translate(15.000000, 10.000000)">
                    <g id="编组-37备份-4" transform="translate(342.000000, 0.000000)">
                        <g id="编组-11" transform="translate(0.000000, 1.000000)">
                            <path d="M22.885963,17 L16.5570185,17 C16.2517295,17 16,17.2499442 16,17.5570185 L16,29.5382727 C16,30.150636 16.5016737,30.6505244 17.1122517,30.6505244 L22.3289444,30.6505244 C22.9413077,30.6505244 23.4411962,30.1488507 23.4411962,29.5382727 L23.4411962,17.5570185 C23.4411962,17.2499442 23.191252,17 22.885963,17 Z M19.120732,26.2568623 C19.120732,26.5621513 18.8707878,26.8138808 18.5637135,26.8138808 L17.7567507,26.8138808 C17.4514617,26.8138808 17.1997322,26.5639366 17.1997322,26.2568623 L17.1997322,25.4498996 C17.1997322,25.1446106 17.4496764,24.8928811 17.7567507,24.8928811 L18.5637135,24.8928811 C18.8690025,24.8928811 19.120732,25.1428253 19.120732,25.4498996 L19.120732,26.2568623 Z M19.120732,23.1361303 C19.120732,23.4414193 18.8707878,23.6931489 18.5637135,23.6931489 L17.7567507,23.6931489 C17.4514617,23.6931489 17.1997322,23.4432046 17.1997322,23.1361303 L17.1997322,22.3291676 C17.1997322,22.0238786 17.4496764,21.7721491 17.7567507,21.7721491 L18.5637135,21.7721491 C18.8690025,21.7721491 19.120732,22.0220933 19.120732,22.3291676 L19.120732,23.1361303 Z M19.120732,20.0153983 C19.120732,20.3206873 18.8707878,20.5724169 18.5637135,20.5724169 L17.7567507,20.5724169 C17.4514617,20.5724169 17.1997322,20.3224727 17.1997322,20.0153983 L17.1997322,19.2084356 C17.1997322,18.9031466 17.4496764,18.6514171 17.7567507,18.6514171 L18.5637135,18.6514171 C18.8690025,18.6514171 19.120732,18.9013613 19.120732,19.2084356 L19.120732,20.0153983 Z M22.241464,26.2568623 C22.241464,26.5621513 21.9915198,26.8138808 21.6844454,26.8138808 L20.8774827,26.8138808 C20.5721937,26.8138808 20.3204642,26.5639366 20.3204642,26.2568623 L20.3204642,25.4498996 C20.3204642,25.1446106 20.5704084,24.8928811 20.8774827,24.8928811 L21.6844454,24.8928811 C21.9897344,24.8928811 22.241464,25.1428253 22.241464,25.4498996 L22.241464,26.2568623 Z M22.241464,23.1361303 C22.241464,23.4414193 21.9915198,23.6931489 21.6844454,23.6931489 L20.8774827,23.6931489 C20.5721937,23.6931489 20.3204642,23.4432046 20.3204642,23.1361303 L20.3204642,22.3291676 C20.3204642,22.0238786 20.5704084,21.7721491 20.8774827,21.7721491 L21.6844454,21.7721491 C21.9897344,21.7721491 22.241464,22.0220933 22.241464,22.3291676 L22.241464,23.1361303 Z M22.241464,20.0153983 C22.241464,20.3206873 21.9915198,20.5724169 21.6844454,20.5724169 L20.8774827,20.5724169 C20.5721937,20.5724169 20.3204642,20.3224727 20.3204642,20.0153983 L20.3204642,19.2084356 C20.3204642,18.9031466 20.5704084,18.6514171 20.8774827,18.6514171 L21.6844454,18.6514171 C21.9897344,18.6514171 22.241464,18.9013613 22.241464,19.2084356 L22.241464,20.0153983 Z M30.8841776,30.6505244 L30.7092167,30.6505244 C30.0950681,30.6505244 29.596965,30.1524213 29.596965,29.5382727 L29.596965,28.1635796 C29.596965,27.5494309 29.0988619,27.0513278 28.4847132,27.0513278 L28.1901361,27.0513278 C27.5759875,27.0513278 27.0778844,27.5494309 27.0778844,28.1635796 L27.0778844,29.5382727 C27.0778844,30.1524213 26.5797813,30.6505244 25.9656327,30.6505244 L25.6710556,30.6505244 C25.0569069,30.6505244 24.5588038,30.1524213 24.5588038,29.5382727 L24.5588038,24.5840214 C24.5588038,23.9698728 25.0569069,23.4717697 25.6710556,23.4717697 L30.8877483,23.4717697 C31.5018969,23.4717697 32,23.9698728 32,24.5840214 L32,29.5382727 C31.9964294,30.1524213 31.4983263,30.6505244 30.8841776,30.6505244 L30.8841776,30.6505244 Z M31.3965633,22.7737112 L25.1550993,22.7737112 C24.8230306,22.7737112 24.5552332,22.5041285 24.5552332,22.1738451 C24.5552332,21.8417764 24.8248159,21.573979 25.1550993,21.573979 L31.3965633,21.573979 C31.728632,21.573979 31.9964294,21.8435617 31.9964294,22.1738451 C31.9964294,22.5041285 31.728632,22.7737112 31.3965633,22.7737112 Z" id="形状"></path>
                        </g>
                    </g>
                </g>
            </g>
        </g>
    </g>
</svg>