<svg  xmlns="http://www.w3.org/2000/svg" xmlns:xlink="http://www.w3.org/1999/xlink" width="37px" height="33px"><path fill-rule="evenodd"  fill="rgb(255, 255, 255)" d="M34.986,22.135 C34.757,22.135 34.539,22.182 34.340,22.264 L34.340,22.264 L34.332,22.267 L34.325,22.270 L18.656,28.757 L2.987,22.270 C2.985,22.269 2.983,22.268 2.980,22.267 L2.973,22.264 L2.972,22.265 C2.119,21.942 1.163,22.356 0.814,23.200 C0.465,24.043 0.849,25.011 1.681,25.387 L1.681,25.387 L17.996,32.142 C17.998,32.143 18.000,32.144 18.003,32.145 L18.010,32.147 L18.011,32.147 C18.424,32.320 18.889,32.320 19.302,32.147 L19.302,32.148 L19.310,32.145 C19.312,32.144 19.315,32.143 19.317,32.142 L35.631,25.388 L35.631,25.387 C36.376,25.079 36.799,24.287 36.642,23.496 C36.485,22.705 35.792,22.135 34.986,22.135 L34.986,22.135 ZM1.681,10.739 L1.681,10.739 L17.996,17.494 L18.003,17.497 L18.011,17.499 L18.011,17.499 C18.424,17.672 18.889,17.672 19.302,17.499 L19.302,17.500 L19.310,17.497 C19.312,17.496 19.315,17.495 19.317,17.494 L35.631,10.740 L35.631,10.739 C36.263,10.477 36.674,9.861 36.675,9.178 C36.675,8.494 36.263,7.878 35.631,7.616 L35.631,7.616 L19.317,0.861 C19.315,0.860 19.312,0.859 19.310,0.859 L19.302,0.856 L19.302,0.856 C18.889,0.684 18.424,0.684 18.011,0.856 L18.010,0.855 L18.003,0.858 C18.000,0.859 17.998,0.860 17.996,0.861 L1.681,7.616 L1.681,7.616 C1.049,7.878 0.637,8.494 0.637,9.178 C0.638,9.861 1.050,10.477 1.681,10.739 L1.681,10.739 ZM34.986,14.812 C34.757,14.812 34.539,14.858 34.340,14.940 L34.340,14.940 L34.332,14.943 C34.330,14.944 34.328,14.945 34.325,14.946 L18.656,21.433 L2.987,14.946 C2.985,14.945 2.983,14.944 2.980,14.943 L2.973,14.940 L2.972,14.940 C2.117,14.612 1.156,15.025 0.806,15.872 C0.455,16.719 0.844,17.691 1.681,18.063 L1.681,18.063 L17.996,24.818 L18.003,24.821 L18.010,24.823 L18.011,24.823 C18.424,24.996 18.889,24.996 19.302,24.823 L19.302,24.824 L19.310,24.821 C19.312,24.820 19.315,24.819 19.317,24.818 L35.631,18.064 L35.631,18.063 C36.376,17.755 36.799,16.963 36.642,16.172 C36.485,15.381 35.792,14.812 34.986,14.812 L34.986,14.812 Z"/></svg>