<?xml version="1.0" standalone="no"?><!DOCTYPE svg PUBLIC "-//W3C//DTD SVG 1.1//EN"
        "http://www.w3.org/Graphics/SVG/1.1/DTD/svg11.dtd">
<svg class="icon" width="20px" height="20px" viewBox="0 0 1024 1024" version="1.1"
     xmlns="http://www.w3.org/2000/svg">
    <path fill="#ffffff"
          d="M301.4144 643.4816l-203.4176-203.264v-0.1536L152.1152 386.048a57.4976 57.4976 0 0 1 62.6688-12.544L351.744 430.1824h0.1024l264.192-203.7248v-0.1024l-70.656-70.656v-0.1024l40.5504-40.6016c22.528-22.528 58.88-22.528 81.408 0l40.6016 40.6016 0.2048-0.2048 162.6112 162.6624-0.2048 0.2048 40.6016 40.6016c22.528 22.528 22.528 58.88 0 81.408l-40.6016 40.6016H870.4l-70.8096-70.656h-0.1024l-203.6736 264.0384v0.1024l56.6784 137.0112c8.9088 21.504 3.9936 46.2336-12.4928 62.72l-54.1184 54.0672h-0.1024l-203.0592-203.264h-0.1024l-203.008 203.008h-81.408v-81.3056l203.1104-203.1104h0.1024z"/>
</svg>