<?xml version="1.0" standalone="no"?><!DOCTYPE svg PUBLIC "-//W3C//DTD SVG 1.1//EN"
        "http://www.w3.org/Graphics/SVG/1.1/DTD/svg11.dtd">
<svg t="1603244907407" class="icon" viewBox="0 0 1084 1024" version="1.1" xmlns="http://www.w3.org/2000/svg" p-id="5751"
     width="16" height="16" xmlns:xlink="http://www.w3.org/1999/xlink">
    <defs>
        <style type="text/css"></style>
    </defs>
    <path d="M1083.834127 513.807059c3.011765 2.831059-11.444706 7.047529-15.661176 7.047529H948.726362v482.966588a16.865882 16.865882 0 0 1-17.106823 16.624942H709.592245a16.865882 16.865882 0 0 1-17.106824-16.624942v-283.105882a16.865882 16.865882 0 0 0-17.106823-16.685176H402.151304a16.865882 16.865882 0 0 0-17.046589 16.685176v283.105882a16.865882 16.865882 0 0 1-17.106823 16.624942H146.030833a16.865882 16.865882 0 0 1-17.106824-16.624942V520.854588H9.356951a9.336471 9.336471 0 0 1-8.673883-5.722353 8.975059 8.975059 0 0 1 2.168471-9.938823L538.764951 0l545.129411 513.807059z"
          p-id="5752" fill="#ffffff"></path>
</svg>
