<?xml version="1.0" encoding="UTF-8"?>
<svg width="24px" height="28px" viewBox="0 0 24 28" version="1.1" xmlns="http://www.w3.org/2000/svg" xmlns:xlink="http://www.w3.org/1999/xlink">
    <title>切片</title>
    <g id="页面-1" stroke="none" stroke-width="1" fill="none" fill-rule="evenodd">
        <g id="3-3图例" transform="translate(-1151.000000, -181.000000)">
            <g id="编组-23" transform="translate(1127.000000, 74.000000)">
                <g id="编组-22" transform="translate(0.000000, 46.000000)">
                    <g id="编组" transform="translate(24.000000, 55.000000)">
                        <g id="核酸采样点" transform="translate(0.000000, 6.000000)">
                            <g id="编组">
                                <path d="M12.009988,0 C17.8244181,-0.00454412441 22.805573,4.16000453 23.8312081,9.88326325 C24.8568433,15.606522 21.6318377,21.2416536 16.1776615,23.2564935 C14.8797023,23.7374731 12.009988,27.4285751 12.009988,27.4285751 C12.009988,27.4285751 9.15839619,23.7404119 7.86680436,23.2653098 C2.40393373,21.260448 -0.833222565,15.6250986 0.187023187,9.89609122 C1.20726894,4.16708387 6.19084649,-0.00428263648 12.009988,0 L12.009988,0 Z" id="椭圆_1259" fill="#F42A34"></path>
                                <circle id="椭圆_1260" fill="#FFFFFF" fill-rule="nonzero" cx="12" cy="12" r="11.0204082"></circle>
                            </g>
                            <path d="M19.2336903,10.4448495 C19.0385382,9.5328441 18.6474205,8.68571467 18.0934711,7.90391312 L17.8003633,7.51288581 C16.6601442,6.14445292 15.0638591,5.29739579 13.3047242,5.00421569 C12.8809968,4.93926742 12.4249851,4.87401184 11.9686299,4.90663963 C19.8203397,8.75068103 16.3017266,14.2239969 16.3017266,14.2239969 L11.7407777,9.56511037 L13.4672667,7.67577168 L12.2620992,6.56818032 L11.3173937,7.41494822 L9.5582589,7.38260966 L5.97469751,11.0311193 L8.1572163,13.0184679 L9.49302141,11.7153448 L14.1514921,16.2436117 C10.2421409,18.7522637 6.62629521,14.4844769 6.62629521,14.4844769 L5.22489108,15.7222902 L6.30014387,16.993147 L6.10463022,17.253627 C5.61593646,17.1883172 5.38779502,17.4164586 5.38779502,17.4164586 C4.14990943,18.6219876 5.64861848,19.2735853 5.64861848,19.2735853 C7.08194543,19.5993028 7.01663562,18.100666 7.01663562,18.100666 L7.27747716,17.7422484 C12.7178217,20.6742844 15.9106089,18.0354285 15.9106089,18.0354285 L17.474212,19.5013652 L19.5918367,17.3838308 C19.3965942,17.1559605 19.1684528,16.9278191 18.9725776,16.6996054 C18.8100352,16.5367195 18.679759,16.3738879 18.5168551,16.2109839 C18.3539511,16.04808 18.1584375,15.9505039 18.3213414,15.7222902 C19.2986566,14.1586871 19.6244645,12.2366664 19.2333468,10.4448495 L19.2336903,10.4448495 Z" id="Fill-1" fill="#F42A34"></path>
                        </g>
                    </g>
                </g>
            </g>
        </g>
    </g>
</svg>