<?xml version="1.0" standalone="no"?><!DOCTYPE svg PUBLIC "-//W3C//DTD SVG 1.1//EN"
        "http://www.w3.org/Graphics/SVG/1.1/DTD/svg11.dtd">
<svg class="icon" width="20px" height="20px" viewBox="0 0 1024 1024" version="1.1"
     xmlns="http://www.w3.org/2000/svg">
    <path fill="#ffffff"
          d="M511.65 290l192.27 333H319.38l192.27-333m0-2l-194 336h388l-194-336zM530.42 681.74v234.12A44.14 44.14 0 0 1 486.28 960a44.14 44.14 0 0 1-44.14-44.14V681.74H211.8c-9.26 0-17.41-3.58-24.08-10.87a36.51 36.51 0 0 1-10.19-25.81c0-47.06 13.92-89.45 42.06-127.21s59.75-56.51 95.1-56.51v-250c-18.62 0-34.58-7.28-48.29-21.86a73.44 73.44 0 0 1-20.4-51.7c0-19.94 6.79-37 20.38-51.72C279.89 71.62 296 64.2 314.69 64.2h343.1c18.62 0 34.58 7.29 48.29 21.86 13.49 14.58 20.41 31.78 20.41 51.72s-6.79 37.05-20.38 51.72-29.7 21.86-48.32 21.86v249.86q53 0 95.1 56.5a207.81 207.81 0 0 1 42.17 127.34 36.19 36.19 0 0 1-10.16 25.81c-6.79 7.16-14.82 10.87-24.08 10.87h-230.4z"/>
</svg>