<?xml version="1.0" standalone="no"?><!DOCTYPE svg PUBLIC "-//W3C//DTD SVG 1.1//EN" "http://www.w3.org/Graphics/SVG/1.1/DTD/svg11.dtd"><svg t="1623160260580" class="icon" viewBox="0 0 1024 1024" version="1.1" xmlns="http://www.w3.org/2000/svg" p-id="1540" width="16" height="16" xmlns:xlink="http://www.w3.org/1999/xlink"><defs><style type="text/css"></style></defs><path d="M102.4 319.914667V102.4h217.6a32 32 0 0 0 32-31.914667v-38.4A32 32 0 0 0 320 0H24.746667a24.746667 24.746667 0 0 0-24.746667 24.746667v295.253333c0 17.749333 14.336 32 31.914667 32h38.4A32.170667 32.170667 0 0 0 102.4 320zM704 102.4h217.6v217.6c0 17.664 14.336 32 31.914667 32h38.4A32 32 0 0 0 1024 320V24.746667a24.746667 24.746667 0 0 0-24.746667-24.746667H704a32 32 0 0 0-31.914667 31.914667v38.4c0 17.664 14.336 32.085333 32 32.085333z m-384 819.2H102.4V704a32 32 0 0 0-31.914667-32h-38.4A32 32 0 0 0 0 704v295.253333c0 13.653333 11.093333 24.746667 24.746667 24.746667h295.253333a32 32 0 0 0 32-31.914667v-38.4a32.170667 32.170667 0 0 0-32.085333-32.085333z m601.6-217.6v217.6H704a32 32 0 0 0-32 31.914667v38.4c0 17.664 14.336 32 32 32h295.253333a24.746667 24.746667 0 0 0 24.746667-24.746667V704a32 32 0 0 0-31.914667-31.914667h-38.4a32 32 0 0 0-32.085333 32z" p-id="1541" fill="#ffffff"></path></svg>