<?xml version="1.0" encoding="UTF-8"?>
<svg width="80px" height="53px" viewBox="0 0 80 53" version="1.1" xmlns="http://www.w3.org/2000/svg" xmlns:xlink="http://www.w3.org/1999/xlink">
    <title>zanwushuju</title>
    <defs>
        <polygon id="path-1" points="0 0 80 0 80 52.461263 0 52.461263"></polygon>
    </defs>
    <g id="页面-1" stroke="none" stroke-width="1" fill="none" fill-rule="evenodd">
        <g id="2-2高速出入口详情备份" transform="translate(-1657.000000, -404.000000)">
            <g id="右1-物资-医疗资源" transform="translate(1496.000000, 68.000000)">
                <g id="zanwushuju" transform="translate(161.000000, 336.000000)">
                    <mask id="mask-2" fill="white">
                        <use xlink:href="#path-1"></use>
                    </mask>
                    <g id="Clip-2"></g>
                    <path d="M8.00002048,35.85031 L9.0774337,35.85031 C9.36836857,35.8567781 9.60051449,36.0946876 9.60025854,36.3856225 C9.60025854,36.6805919 9.37060998,36.9207429 9.0774337,36.9207429 L8.00002048,36.9207429 L8.00002048,38.0014221 C7.99476918,38.2921008 7.75788429,38.5252074 7.46694942,38.5259758 C7.32606086,38.5287296 7.19023148,38.4744234 7.08994445,38.3758655 C6.98940125,38.2770514 6.93285371,38.1422467 6.93310987,38.0014221 L6.93310987,36.9199744 L5.85569665,36.9199744 C5.5649539,36.9134423 5.33261586,36.6757889 5.3330635,36.384854 C5.3330635,36.0896925 5.56245633,35.8497977 5.85569665,35.8497977 L6.93310987,35.8497977 L6.93310987,34.7691184 C6.93957793,34.4779274 7.17575839,34.2445647 7.46694942,34.2445647 C7.76134246,34.2445647 8.00002048,34.4751737 8.00002048,34.7691184 L8.00002048,35.85031 Z M78.4037614,31.5696034 L78.4037614,30.4889241 C78.4029929,30.3483557 78.3465094,30.2139993 78.2464145,30.1156975 C78.1463836,30.0171395 78.0110025,29.9625772 77.8706903,29.9640826 C77.5794993,29.9646265 77.3421021,30.1977331 77.3368508,30.4889241 L77.3368508,31.5696034 L76.2594376,31.5696034 C76.1188052,31.5701157 75.9842566,31.6269194 75.8859548,31.7277187 C75.787653,31.8282619 75.7338592,31.9640826 75.7368691,32.1047237 C75.7368691,32.3911117 75.9715126,32.63978 76.2594376,32.63978 L77.3368508,32.63978 L77.3368508,33.7204593 C77.3368508,34.0149164 77.5762332,34.245013 77.8706903,34.245013 C78.1616252,34.2445647 78.3985101,34.0113942 78.4037614,33.7204593 L78.4037614,32.63978 L79.4811746,32.63978 C79.621807,32.6387554 79.7560994,32.5817596 79.8542091,32.4814085 C79.9525109,32.3808653 80.0062406,32.2452921 80.0037431,32.1047237 C80.0042554,31.8137888 79.7721095,31.5758793 79.4811746,31.5696034 L78.4037614,31.5696034 Z M39.6516594,49.2269741 L12.7977882,49.2269741 C12.5148583,49.2272302 12.2434557,49.1146475 12.0435221,48.9140093 C11.7393309,48.6080891 11.6483297,48.1490485 11.8129131,47.7500137 C11.9774966,47.3510429 12.3655165,47.0896306 12.7970197,47.087133 L17.6348125,47.087133 C17.2613298,46.4377008 17.0656868,45.7009818 17.0674799,44.9517748 L17.0674799,13.9069814 C17.0672238,12.77206 17.5177469,11.6833757 18.3199792,10.8806311 C19.11997,10.0793595 20.2061568,9.6297969 21.3383884,9.63133386 L24.5341251,9.63133386 L24.5341251,8.55590589 C24.5343813,7.42117665 24.9849685,6.33300467 25.7866885,5.53026009 C26.5866793,4.72873229 27.6733784,4.27897759 28.8058662,4.28095249 L54.3979523,4.28095249 C55.5306323,4.27846527 56.6175875,4.7279638 57.4178345,5.52949161 C58.2195544,6.33249235 58.6698855,7.42117665 58.6696293,8.55590589 L58.6696293,39.6006353 C58.6708461,40.3500984 58.475011,41.0865613 58.1010159,41.7359935 L64.0016848,41.7359935 C64.5918158,41.7359935 65.0698763,42.2113003 65.0698763,42.8061702 C65.0698763,43.3963011 64.5950818,43.8763469 64.0029656,43.8763469 L51.2024077,43.8763469 L51.2024077,44.9517748 C51.2036885,45.7012379 51.0075332,46.4377008 50.6337943,47.087133 L51.2056738,47.087133 C51.7925387,47.087133 52.2693184,47.5619275 52.2693184,48.1565412 C52.2693184,48.7473766 51.7860066,49.2269741 51.2056738,49.2269741 L45.5936343,49.2269741 C46.0932123,50.0682068 45.9581514,51.1413934 45.2656842,51.832836 C44.8667134,52.2350728 44.3238442,52.461263 43.7574722,52.461263 C43.190908,52.461263 42.6480388,52.2350728 42.249068,51.832836 L39.6521717,49.2269741 L39.6516594,49.2269741 Z M43.5520951,47.087133 L46.9437309,47.087133 C48.1177168,47.087133 49.0685865,46.1342781 49.0685865,44.9415284 L49.0685865,13.8564536 C49.0685865,12.700527 48.1472394,11.7711749 47.0100126,11.7711749 L21.2598751,11.7711749 C20.1226483,11.7711749 19.2013012,12.7050098 19.2013012,13.8564536 L19.2013012,44.9415284 C19.2013012,46.1257608 20.1613926,47.087133 21.3253883,47.087133 L37.5165574,47.087133 L36.9682447,46.5362588 C36.4268484,45.9951827 36.2157717,45.2063989 36.4141044,44.4672463 L35.4067512,43.4560507 C32.2707641,45.7992836 27.8560212,45.3162279 25.3006229,42.3503957 C22.7400375,39.3842433 22.8941183,34.9389532 25.6536128,32.1584535 C28.4216247,29.3714857 32.8669148,29.2073505 35.8310179,31.7832416 C38.7958895,34.3586204 39.2694031,38.7961617 36.9152194,41.9426514 L37.9230849,42.953783 C38.6603163,42.7541695 39.4480114,42.9662708 39.9853732,43.5091401 L43.5515827,47.087133 L43.5520951,47.087133 Z M51.2024077,41.7359935 L54.4124254,41.7359935 C55.5883966,41.7279885 56.537281,40.7716114 56.5357459,39.5956402 L56.5357459,8.56115719 C56.5357459,7.37538787 55.5849384,6.42054769 54.4124254,6.42054769 L28.7905606,6.42054769 C27.6148456,6.42906505 26.6664735,7.38518603 26.6680086,8.56115719 L26.6680086,9.63133386 L46.9312431,9.63133386 C48.0636668,9.62909245 49.1503659,10.078591 49.9503567,10.8798626 C50.7523969,11.6831195 51.2026639,12.77206 51.2024077,13.9069814 L51.2024077,41.7359935 Z M13.6002766,2.4080416 L15.1900118,2.4080416 C15.6378453,2.4080416 16.0005693,2.76397732 16.0005693,3.21078617 C15.9982639,3.65605805 15.6355399,4.01551599 15.1900118,4.01327458 L13.6002766,4.01327458 L13.6002766,5.6067882 C13.6002766,6.05654289 13.2447891,6.42003537 12.8002857,6.42003537 C12.5861351,6.41907477 12.3812704,6.33249235 12.23116,6.17988442 C12.0808575,6.0272765 11.9977973,5.8209388 12.0002949,5.6067882 L12.0002949,4.01327458 L10.4107518,4.01327458 C9.96752918,4.01327458 9.6080072,3.6540728 9.6080072,3.21078617 C9.6080072,2.76749954 9.96752918,2.4080416 10.4107518,2.4080416 L12.0002949,2.4080416 L12.0002949,0.813247174 C12.0002949,0.364004798 12.3557823,0 12.8002857,0 C13.2415871,0 13.6002766,0.364004798 13.6002766,0.813247174 L13.6002766,2.4080416 Z M1.06662401,48.1565412 C1.06662401,47.5664103 1.54995024,47.087133 2.12957857,47.087133 L8.53661377,47.087133 C9.12347864,47.087133 9.60025833,47.5619275 9.60025833,48.1565412 C9.60025833,48.7473766 9.11694654,49.2269741 8.53661377,49.2269741 L2.12957857,49.2269741 C1.84690489,49.2269741 1.57569442,49.1143913 1.37608095,48.9140093 C1.17646748,48.7126027 1.06516552,48.4402395 1.06662401,48.1565412 Z M34.7062789,41.2396816 C36.0549026,39.8856145 36.5809933,37.9163767 36.0874351,36.0701602 C35.5963744,34.2255448 34.1584786,32.7833583 32.3155282,32.2862778 C30.4736665,31.7915028 28.5078869,32.3198349 27.1625293,33.6714045 C25.0797481,35.76123 25.0797481,39.1495998 27.1625293,41.2389131 C28.161173,42.2422958 29.5187623,42.8064264 30.9344361,42.8064264 C32.3503021,42.8064264 33.7076993,42.2422958 34.7065351,41.2389131 L34.7062789,41.2396816 Z M23.4677207,16.0520737 C23.4677207,15.4617506 23.9445065,14.9831778 24.5334207,14.9824093 L36.2685409,14.9824093 C36.857391,14.9824093 37.334684,15.4612383 37.334684,16.0520737 C37.3354515,16.6417563 36.8584157,17.1207774 36.2685409,17.1222543 L24.5341251,17.1222543 C24.2510032,17.1230188 23.9792804,17.0104361 23.7791546,16.8100541 C23.5788367,16.6087116 23.4667662,16.3360282 23.4677207,16.0520737 Z M23.4677269,21.402957 C23.4677269,20.8128261 23.9425213,20.3327804 24.5268886,20.3327804 L41.6096261,20.3327804 C41.8922998,20.333805 42.1629979,20.4470922 42.3615868,20.6479865 C42.5604958,20.8488808 42.6707731,21.1205395 42.6688142,21.402957 C42.6688142,21.9933441 42.1939934,22.4733899 41.6091138,22.4733899 L24.5261201,22.4733899 C23.9385508,22.4696115 23.4644608,21.9908465 23.4672026,21.402957 L23.4677269,21.402957 Z M23.467717,26.7540965 C23.467717,26.1634533 23.9432898,25.6839199 24.5321399,25.6839199 L32.003332,25.6839199 C32.5914777,25.6839199 33.0682574,26.1587143 33.0682574,26.7535842 C33.0682574,27.3444836 32.5922461,27.8237648 32.003332,27.8237648 L24.5321399,27.8237648 C24.2489539,27.8245294 23.9775513,27.7119466 23.7779378,27.5110523 C23.5780682,27.3097098 23.4665101,27.0372825 23.467717,26.7535842 L23.467717,26.7540965 Z M3.19975523,20.332268 C2.05529187,20.3315636 0.998627696,19.7194028 0.428477323,18.727035 C-0.142825774,17.7331303 -0.142825774,16.5106659 0.428477323,15.5170174 C0.998627696,14.5243934 2.05529187,13.9122327 3.19975523,13.9115282 C4.9670741,13.9115282 6.4000388,15.3489117 6.4000388,17.1215459 C6.4000388,18.8946284 4.9670741,20.332268 3.19975523,20.332268 Z M3.19975523,18.727035 C3.77208298,18.727035 4.30067123,18.4206024 4.58539419,17.9242905 C4.87126988,17.42721 4.87126988,16.8158177 4.58539419,16.3189935 C4.2236308,15.6903743 3.484158,15.3836856 2.78374975,15.5722841 C2.08327746,15.7606905 1.59721194,16.3968024 1.59969993,17.1222503 C1.59900507,17.5472855 1.76736689,17.955286 2.0672674,18.2562111 C2.36748811,18.5574565 2.77472008,18.7267789 3.19975523,18.7275474 L3.19975523,18.727035 Z M69.336302,13.9115282 C67.5691752,13.9115282 66.1362746,12.4740807 66.1362746,10.7009982 C66.1362746,8.92759552 67.5691752,7.49021204 69.336302,7.49021204 C71.1036849,7.49021204 72.5365855,8.92759552 72.5365855,10.7009982 C72.5365855,12.4740807 71.1036849,13.9115282 69.336302,13.9115282 Z M69.336302,12.3062312 C69.9081814,12.3062312 70.4367697,12.0000547 70.7227094,11.5034866 C71.0085851,11.0066623 71.0085851,10.39527 70.7227094,9.89825364 C70.360946,9.26957047 69.6214732,8.96313786 68.9213211,9.15154429 C68.2208488,9.33963051 67.7347833,9.97555022 67.7370806,10.7009982 C67.7363203,11.1260334 67.9044259,11.5340338 68.2045826,11.834959 C68.5045471,12.1361403 68.9120353,12.3055267 69.3370704,12.3062312 L69.336302,12.3062312 Z" id="Fill-1" fill="#FFFFFF" opacity="0.8" mask="url(#mask-2)"></path>
                </g>
            </g>
        </g>
    </g>
</svg>