<?xml version="1.0" encoding="UTF-8"?>
<svg width="51px" height="56px" viewBox="0 0 51 56" version="1.1" xmlns="http://www.w3.org/2000/svg" xmlns:xlink="http://www.w3.org/1999/xlink">
    <title>组 61备份</title>
    <g id="页面-1" stroke="none" stroke-width="1" fill="none" fill-rule="evenodd">
        <g id="组-61备份" transform="translate(0.979608, -0.000008)">
            <path d="M24.5203922,0 C36.3915203,-0.00927758733 46.5613782,8.49334258 48.6553833,20.1783291 C50.7493884,31.8633157 44.165002,43.3683761 33.0293922,47.4820076 C30.3793922,48.4640076 24.5203922,56 24.5203922,56 C24.5203922,56 18.6983922,48.4700076 16.0613922,47.5 C4.90803136,43.4067479 -1.70116274,31.9012429 0.381839006,20.2045196 C2.46484075,8.50779622 12.6396449,-0.00874371614 24.5203922,0 L24.5203922,0 Z" id="椭圆_1259" fill="#E8473F"></path>
            <circle id="椭圆_1260" fill="#FFFFFF" fill-rule="nonzero" cx="24.5203922" cy="24.5000076" r="22.5"></circle>
            <path d="M9.02039223,24.0000076 L24.0203922,24.0000076 L24.0203922,9.0000076 L9.02039223,9.0000076 L9.02039223,24.0000076 Z M13.0203922,20.0000076 L20.0203922,20.0000076 L20.0203922,13.0000076 L13.0203922,13.0000076 L13.0203922,20.0000076 Z M25.0203922,24.0000076 L40.0203922,24.0000076 L40.0203922,9.0000076 L25.0203922,9.0000076 L25.0203922,24.0000076 Z M29.0203922,20.0000076 L36.0203922,20.0000076 L36.0203922,13.0000076 L29.0203922,13.0000076 L29.0203922,20.0000076 Z M14.0203922,18.0000076 L18.0203922,18.0000076 L18.0203922,14.0000076 L14.0203922,14.0000076 L14.0203922,18.0000076 Z M9.02039223,40.0000076 L24.0203922,40.0000076 L24.0203922,25.0000076 L9.02039223,25.0000076 L9.02039223,40.0000076 Z M13.0203922,36.0000076 L20.0203922,36.0000076 L20.0203922,29.0000076 L13.0203922,29.0000076 L13.0203922,36.0000076 Z M35.0203922,14.0000076 L31.0203922,14.0000076 L31.0203922,18.0000076 L35.0202032,18.0000076 L35.0202032,14.0000076 L35.0203922,14.0000076 Z M25.0203922,40.0000076 L29.0203922,40.0000076 L29.0203922,36.0000076 L25.0203922,36.0000076 L25.0203922,40.0000076 Z M29.0203922,36.0000076 L33.0203922,36.0000076 L33.0203922,29.0000076 L29.0203922,29.0000076 L29.0203922,36.0000076 Z M36.5203095,36.5000076 L33.0203922,36.5000076 L33.0203922,40.0000076 L40.0203922,40.0000076 L40.0203922,33.0000076 L36.5203095,33.0000076 L36.5203095,36.5000076 Z M36.0203922,29.0000076 L40.0203922,29.0000076 L40.0203922,25.0000076 L36.0203922,25.0000076 L36.0203922,29.0000076 Z M25.0203922,29.0000076 L29.0203922,29.0000076 L29.0203922,25.0000076 L25.0203922,25.0000076 L25.0203922,29.0000076 Z M14.0203922,35.0000076 L18.0203922,35.0000076 L18.0203922,31.0000076 L14.0203922,31.0000076 L14.0203922,35.0000076 Z" id="erweima" fill="#E8473F"></path>
        </g>
    </g>
</svg>