<svg  xmlns="http://www.w3.org/2000/svg" xmlns:xlink="http://www.w3.org/1999/xlink" width="19px" height="23px"><path fill-rule="evenodd"  fill="rgb(228, 61, 73)" d="M18.320,9.752 C18.320,4.786 14.371,0.761 9.500,0.761 C4.629,0.761 0.679,4.786 0.679,9.752 C0.679,9.910 0.695,10.062 0.703,10.216 C0.695,10.293 0.679,10.366 0.679,10.444 C0.679,15.978 8.822,22.247 8.822,22.247 C8.822,22.247 9.500,22.766 10.178,22.247 C10.857,21.728 18.321,15.978 18.321,10.444 C18.321,10.366 18.305,10.293 18.297,10.216 C18.305,10.062 18.320,9.910 18.320,9.752 L18.320,9.752 ZM9.500,13.211 C7.626,13.211 6.107,11.663 6.107,9.752 C6.107,7.843 7.626,6.294 9.500,6.294 C11.374,6.294 12.893,7.843 12.893,9.752 C12.893,11.663 11.374,13.211 9.500,13.211 L9.500,13.211 Z"/></svg>