<svg  xmlns="http://www.w3.org/2000/svg" xmlns:xlink="http://www.w3.org/1999/xlink" width="46px" height="34px"><path fill-rule="evenodd"  fill="rgb(255, 255, 255)" d="M45.043,29.382 L44.217,30.208 C44.046,30.380 43.768,30.380 43.596,30.208 L39.162,25.769 C39.082,25.685 39.034,25.576 39.034,25.459 L39.034,24.976 C37.701,26.128 35.966,26.826 34.067,26.826 C29.870,26.826 26.469,23.422 26.469,19.221 C26.469,15.019 29.870,11.615 34.067,11.615 C38.264,11.615 41.664,15.019 41.664,19.221 C41.664,21.122 40.967,22.859 39.816,24.193 L40.298,24.193 C40.415,24.193 40.525,24.237 40.609,24.321 L45.043,28.760 C45.215,28.932 45.215,29.210 45.043,29.382 ZM34.066,13.897 C31.128,13.897 28.748,16.279 28.748,19.220 C28.748,22.162 31.128,24.544 34.066,24.544 C37.005,24.544 39.385,22.162 39.385,19.220 C39.385,16.279 37.005,13.897 34.066,13.897 ZM33.893,9.247 C32.824,9.247 31.795,9.420 30.831,9.739 L30.831,3.129 L43.114,0.080 L43.114,15.761 C41.762,11.969 38.139,9.247 33.893,9.247 ZM27.785,26.697 L27.785,33.920 L15.452,30.821 L15.452,0.080 L27.785,3.129 L27.785,11.395 C25.543,13.192 24.104,15.954 24.104,19.046 C24.104,22.138 25.543,24.900 27.785,26.697 ZM0.123,3.129 L12.406,0.080 L12.406,30.821 L0.123,33.920 L0.123,3.129 ZM38.760,27.548 L42.248,31.040 L30.831,33.920 L30.831,28.353 C31.795,28.672 32.824,28.845 33.893,28.845 C35.610,28.845 37.287,28.392 38.760,27.548 Z"/></svg>