<?xml version="1.0" encoding="UTF-8"?>
<svg width="15px" height="16px" viewBox="0 0 15 16" version="1.1" xmlns="http://www.w3.org/2000/svg" xmlns:xlink="http://www.w3.org/1999/xlink">
    <title>形状</title>
    <g id="页面-1" stroke="none" stroke-width="1" fill="none" fill-rule="evenodd">
        <g id="5图层备份-2" transform="translate(-902.000000, -113.000000)" fill="#32ADE5" fill-rule="nonzero">
            <g id="编组-9" transform="translate(707.000000, 86.000000)">
                <g id="编组-7" transform="translate(15.000000, 10.000000)">
                    <g id="编组-37备份-2" transform="translate(164.000000, 0.000000)">
                        <g id="编组-11" transform="translate(0.000000, 1.000000)">
                            <path d="M23.4448539,20.2186067 C24.608,20.2186067 25.5543371,19.2724494 25.5543371,18.1093034 C25.5543371,16.9461573 24.608,16 23.4448539,16 C22.2817079,16 21.3355506,16.9463371 21.3355506,18.1094831 C21.3355506,19.2726292 22.2817079,20.2186067 23.4448539,20.2186067 L23.4448539,20.2186067 Z M23.4448539,17.3085843 C23.886382,17.3085843 24.2457528,17.6679551 24.2457528,18.1094831 C24.2457528,18.5510112 23.886382,18.9100225 23.4448539,18.9100225 C23.0033258,18.9100225 22.6443146,18.5510112 22.6443146,18.1094831 C22.6443146,17.6679551 23.0033258,17.3085843 23.4448539,17.3085843 Z M18.4862921,17.6082697 C17.3231461,17.6082697 16.376809,18.554427 16.376809,19.717573 C16.376809,20.8807191 17.3231461,21.8270562 18.4862921,21.8270562 C19.6494382,21.8270562 20.5955955,20.8805393 20.5955955,19.7173933 C20.5955955,18.5542472 19.6494382,17.6082697 18.4862921,17.6082697 L18.4862921,17.6082697 Z M18.4862921,20.5182921 C18.044764,20.5182921 17.6853933,20.1589213 17.6853933,19.7173933 C17.6853933,19.2758652 18.044764,18.9168539 18.4862921,18.9168539 C18.9278202,18.9168539 19.2868315,19.2758652 19.2868315,19.7173933 C19.2868315,20.1589213 18.9278202,20.5182921 18.4862921,20.5182921 L18.4862921,20.5182921 Z M30.5130787,19.7173933 C30.5130787,18.5542472 29.5667416,17.6080899 28.4035955,17.6080899 C27.2404494,17.6080899 26.2941124,18.5542472 26.2941124,19.7173933 C26.2941124,20.8805393 27.2404494,21.8268764 28.4035955,21.8268764 C29.5667416,21.8268764 30.5130787,20.8805393 30.5130787,19.7173933 L30.5130787,19.7173933 Z M27.6028764,19.7173933 C27.6028764,19.2758652 27.9622472,18.9168539 28.4037753,18.9168539 C28.8453034,18.9168539 29.2046742,19.2758652 29.2046742,19.7173933 C29.2046742,20.1589213 28.8453034,20.5182921 28.4037753,20.5182921 C27.9622472,20.5182921 27.6028764,20.1589213 27.6028764,19.7173933 Z M25.1054382,20.7338427 L21.6666966,20.7338427 C20.8402697,20.7338427 20.1680899,21.4060225 20.1680899,22.2324494 L20.1680899,26.6389213 C20.1680899,27.3754607 20.7022022,27.9897528 21.4036854,28.1143371 L21.4036854,31.3166742 C21.4036854,31.6782022 21.6965393,31.9710562 22.0580674,31.9710562 C22.4195955,31.9710562 22.7124494,31.6782022 22.7124494,31.3166742 L22.7124494,27.6787416 C22.7124494,27.2102472 22.3311461,26.8289438 21.8626517,26.8289438 L21.6668764,26.8289438 C21.5620674,26.8289438 21.4768539,26.7437303 21.4768539,26.6389213 L21.4768539,22.2324494 C21.4768539,22.1276404 21.5620674,22.042427 21.6668764,22.042427 L25.105618,22.042427 C25.210427,22.042427 25.2956404,22.1276404 25.2956404,22.2324494 L25.2956404,26.6389213 C25.2956404,26.7437303 25.210427,26.8289438 25.105618,26.8289438 L24.9409438,26.8289438 C24.4778427,26.8289438 24.1013933,27.205573 24.1013933,27.6684944 L24.1013933,31.345618 C24.1013933,31.7071461 24.3942472,32 24.7557753,32 C25.1173034,32 25.4101573,31.7071461 25.4101573,31.345618 L25.4101573,28.106427 C26.0911461,27.9654831 26.6044045,27.3608989 26.6044045,26.6389213 L26.6044045,22.2324494 C26.6038652,21.4060225 25.9316854,20.7338427 25.1054382,20.7338427 L25.1054382,20.7338427 Z M29.3375281,22.3104719 L28.0519551,22.3104719 C27.690427,22.3104719 27.397573,22.6033258 27.397573,22.9648539 C27.397573,23.326382 27.690427,23.619236 28.0519551,23.619236 L29.3375281,23.619236 C29.4540225,23.619236 29.5138876,23.6650787 29.5275506,23.6684944 L29.5322247,27.3173933 C29.5214382,27.3366292 29.4552809,27.3891236 29.3375281,27.3891236 L29.1728539,27.3891236 C28.7097528,27.3891236 28.3333034,27.7519101 28.3333034,28.1979326 L28.3333034,31.2618427 C28.3333034,31.6233708 28.6261573,31.9162247 28.9876854,31.9162247 C29.3492135,31.9162247 29.6420674,31.6233708 29.6420674,31.2618427 L29.6420674,28.6694831 C30.3230562,28.5416629 30.8363146,27.9940674 30.8363146,27.3398652 L30.8363146,23.6681348 C30.8361348,22.9195506 30.1637753,22.3104719 29.3375281,22.3104719 Z M18.7841798,22.3104719 L17.4986067,22.3104719 C16.6721798,22.3104719 16,22.9195506 16,23.6683146 L16,27.3396854 C16,27.9940674 16.5132584,28.5416629 17.1942472,28.6693034 L17.1942472,31.2613034 C17.1942472,31.6228315 17.4871011,31.9156854 17.8486292,31.9156854 C18.2101573,31.9156854 18.5030112,31.6228315 18.5030112,31.2613034 L18.5030112,28.197573 C18.5030112,27.7515506 18.126382,27.388764 17.6634607,27.388764 L17.4987865,27.388764 C17.3822921,27.388764 17.3159551,27.3387865 17.308764,27.3395056 L17.3039101,23.6907865 C17.3146966,23.6715506 17.3808539,23.6190562 17.4986067,23.6190562 L18.7841798,23.6190562 C19.1457079,23.6190562 19.4385618,23.3262022 19.4385618,22.9646742 C19.4385618,22.6033258 19.1457079,22.3104719 18.7841798,22.3104719 Z" id="形状"></path>
                        </g>
                    </g>
                </g>
            </g>
        </g>
    </g>
</svg>