<?xml version="1.0" encoding="utf-8"?>
<svg version="1.1" xmlns:xlink="http://www.w3.org/1999/xlink" width="255px" height="34px" xmlns="http://www.w3.org/2000/svg">
  <defs>
    <mask fill="white" id="clip1">
      <path d="M 3.35526315789474 30  L 3.35526315789474 22.1614530776993  L 0.56457127303624 17.6205852674066  L 3.35526315789474 13.1806256306761  L 3.35526315789474 4  C 3.35526315789474 1.76000000000001  4.83157894736841 0  6.71052631578947 0  L 251.644736842105 0  C 253.523684210526 0  255 1.76000000000001  255 4  L 255 30  C 255 32.24  253.523684210526 34  251.644736842105 34  L 6.71052631578947 34  C 4.83157894736841 34  3.35526315789474 32.24  3.35526315789474 30  Z " fill-rule="evenodd" />
    </mask>
  </defs>
  <g transform="matrix(1 0 0 1 -115 -53 )">
    <path d="M 3.35526315789474 30  L 3.35526315789474 22.1614530776993  L 0.56457127303624 17.6205852674066  L 3.35526315789474 13.1806256306761  L 3.35526315789474 4  C 3.35526315789474 1.76000000000001  4.83157894736841 0  6.71052631578947 0  L 251.644736842105 0  C 253.523684210526 0  255 1.76000000000001  255 4  L 255 30  C 255 32.24  253.523684210526 34  251.644736842105 34  L 6.71052631578947 34  C 4.83157894736841 34  3.35526315789474 32.24  3.35526315789474 30  Z " fill-rule="nonzero" fill="#b2e77f" stroke="none" transform="matrix(1 0 0 1 115 53 )" />
    <path d="M 3.35526315789474 30  L 3.35526315789474 22.1614530776993  L 0.56457127303624 17.6205852674066  L 3.35526315789474 13.1806256306761  L 3.35526315789474 4  C 3.35526315789474 1.76000000000001  4.83157894736841 0  6.71052631578947 0  L 251.644736842105 0  C 253.523684210526 0  255 1.76000000000001  255 4  L 255 30  C 255 32.24  253.523684210526 34  251.644736842105 34  L 6.71052631578947 34  C 4.83157894736841 34  3.35526315789474 32.24  3.35526315789474 30  Z " stroke-width="2" stroke="#b3d49a" fill="none" transform="matrix(1 0 0 1 115 53 )" mask="url(#clip1)" />
  </g>
</svg>