<?xml version="1.0" encoding="utf-8"?>
<!-- Generator: Adobe Illustrator 24.3.0, SVG Export Plug-In . SVG Version: 6.00 Build 0)  -->
<svg version="1.1" id="图层_1" xmlns="http://www.w3.org/2000/svg" xmlns:xlink="http://www.w3.org/1999/xlink" x="0px" y="0px"
	 viewBox="0 0 36 44" style="enable-background:new 0 0 36 44;" xml:space="preserve">
<style type="text/css">
	.st0{fill-rule:evenodd;clip-rule:evenodd;fill:#D8D8D8;fill-opacity:0;}
	.st1{fill:#F42A34;}
	.st2{fill:#FFFFFF;}
</style>
<g id="alarm">
	<rect id="矩形" x="0" class="st0" width="36" height="44"/>
	<g id="编组" transform="translate(2.000000, 1.999995)">
		<path id="椭圆_1259" class="st1" d="M16,0c7.8,0,14.4,5.5,15.8,13.2c1.4,7.6-2.9,15.1-10.2,17.8c-1.7,0.6-5.6,5.6-5.6,5.6
			s-3.8-4.9-5.5-5.6C3.2,28.3-1.1,20.8,0.2,13.2S8.3,0,16,0L16,0z"/>
		<circle id="椭圆_1260" class="st2" cx="16" cy="16" r="14.7"/>
	</g>
	<path id="gaojing-_x28_4_x29_" class="st1" d="M15.4,9.8c1.4-2.6,3.7-2.6,5.2,0l6.6,12c1.4,2.6,0.2,4.7-2.8,4.7H11.6
		c-3,0-4.2-2.1-2.8-4.7L15.4,9.8z M19.1,13.7c0-0.6-0.5-1.1-1.1-1.1c-0.6,0-1.1,0.5-1.1,1.1v5.4c0,0.6,0.5,1.1,1.1,1.1
		c0.6,0,1.1-0.5,1.1-1.1V13.7z M16.9,24.4h2.1v-2.1h-2.1V24.4z"/>
</g>
</svg>
