<?xml version="1.0" encoding="UTF-8"?>
<svg width="24px" height="28px" viewBox="0 0 24 28" version="1.1" xmlns="http://www.w3.org/2000/svg" xmlns:xlink="http://www.w3.org/1999/xlink">
    <title>icon/map/隔离酒店</title>
    <g id="页面-1" stroke="none" stroke-width="1" fill="none" fill-rule="evenodd">
        <g id="3-3图例" transform="translate(-1151.000000, -594.000000)">
            <g id="编组-23" transform="translate(1127.000000, 74.000000)">
                <g id="编组-22" transform="translate(0.000000, 46.000000)">
                    <g id="编组备份-3" transform="translate(24.000000, 468.000000)">
                        <g id="核酸采样点" transform="translate(0.000000, 6.000000)">
                            <g id="编组">
                                <path d="M12.009988,0 C17.8244181,-0.00454412441 22.805573,4.16000453 23.8312081,9.88326325 C24.8568433,15.606522 21.6318377,21.2416536 16.1776615,23.2564935 C14.8797023,23.7374731 12.009988,27.4285751 12.009988,27.4285751 C12.009988,27.4285751 9.15839619,23.7404119 7.86680436,23.2653098 C2.40393373,21.260448 -0.833222565,15.6250986 0.187023187,9.89609122 C1.20726894,4.16708387 6.19084649,-0.00428263648 12.009988,0 L12.009988,0 Z" id="椭圆_1259" fill="#14A4C1"></path>
                                <circle id="椭圆_1260" fill="#FFFFFF" fill-rule="nonzero" cx="12" cy="12" r="11.0204082"></circle>
                            </g>
                            <path d="M15.7300894,4.89844241 C15.7754782,4.90037533 15.8135165,4.9100399 15.8135165,4.95836277 L15.8135165,4.95836277 L18.4869001,5.91744693 C18.546335,5.91947414 18.546335,5.97939335 18.546335,6.03931257 L18.546335,6.03931257 L18.546335,6.5183613 C18.5423344,6.58247844 18.4915286,6.63371475 18.4274832,6.63827148 L18.4274832,6.63827148 L17.8928567,6.63827148 L17.8928567,7.35958041 L18.1901206,7.35958041 C18.3090441,7.35958041 18.3679946,7.41949963 18.3679946,7.53989419 L18.3679946,7.53989419 L18.3679946,8.02041399 C18.3679946,8.08081758 18.3090441,8.14080856 18.1901206,8.14080856 L18.1901206,8.14080856 L17.358302,8.14080856 C17.2940413,8.13618007 17.2431638,8.08467466 17.2393785,8.02041399 L17.2393785,8.02041399 L17.2393785,7.53989419 C17.2393785,7.41949963 17.2988851,7.35958041 17.358302,7.35958041 L17.358302,7.35958041 L17.6580236,7.35958041 L17.6580236,6.63827148 L15.9919286,6.63827148 L15.9919286,9.6364029 L16.5859182,9.87172036 C16.6499636,9.87627709 16.7008411,9.92756722 16.7048417,9.99163055 L16.7048417,9.99163055 L16.7048417,10.3021341 C16.7048417,10.3489542 16.6958531,10.3775665 16.6813683,10.3950517 L17.22221,10.3930355 L17.22221,18.4411726 L18.8293725,18.4411726 C18.9067472,18.4361853 18.9824894,18.4647814 19.0373675,18.5195878 C19.0921739,18.5744659 19.1207521,18.6502081 19.1157828,18.7275828 L19.1157828,18.7275828 L19.1157828,19.3054444 C19.1157828,19.3814019 19.0856438,19.4542199 19.0318959,19.5079678 C18.9782197,19.5616439 18.9053479,19.5918367 18.8293725,19.5918367 L18.8293725,19.5918367 L4.69464528,19.5918367 C4.53639756,19.5918367 4.40816327,19.4636024 4.40816327,19.3054444 L4.40816327,19.3054444 L4.40816327,18.7275828 C4.40816327,18.5694068 4.53639756,18.4411726 4.69464528,18.4411726 L4.69464528,18.4411726 L6.30180776,18.4411726 L6.30180776,8.42425873 C6.30313531,7.92572728 6.70678271,7.52181079 7.20531415,7.5201962 L7.20531415,7.5201962 L12.2980706,7.5201962 C12.796602,7.52181079 13.2002494,7.92572728 13.201577,8.42425873 L13.201577,8.42425873 L13.201577,18.4397015 L13.7764964,18.4397015 L13.7764964,10.3930355 L14.411511,10.3950517 C14.3971233,10.3775665 14.3882106,10.3489542 14.3882106,10.3021341 L14.3882106,10.3021341 L14.3882106,9.99163055 C14.3919959,9.92763898 14.4426582,9.87634885 14.50656,9.87172036 L14.50656,9.87172036 L15.2195449,9.63835834 L15.2195449,6.63827148 L14.328704,6.63827148 L14.328704,6.93896189 C14.328704,6.9988811 14.2692871,7.05935645 14.1503636,7.05935645 L14.1503636,7.05935645 L13.0202944,7.05935645 C12.901371,7.05935645 12.8419361,6.9988811 12.8419361,6.93896189 L12.8419361,6.93896189 L12.8419361,5.55683732 C12.8419361,5.43664009 12.901371,5.37652354 13.0202944,5.37652354 L13.0202944,5.37652354 L14.1503636,5.37652354 C14.2692871,5.37616474 14.328704,5.43629923 14.328704,5.55683732 L14.328704,5.55683732 L14.328704,5.91744693 L15.3978853,5.91744693 L15.3978853,5.01589598 C15.4030699,4.95262201 15.4535348,4.90258767 15.5168087,4.89795918 L15.5168087,4.89795918 Z M8.88913376,14.9899873 L7.73943833,14.9899873 C7.58113679,14.9899873 7.45275898,15.1181498 7.45247194,15.2764693 L7.45247194,15.2764693 L7.45247194,15.8532725 C7.44743083,15.9309881 7.47595525,16.007089 7.53081541,16.0622362 C7.58576528,16.1174552 7.66172275,16.1464102 7.73943833,16.1417099 L7.73943833,16.1417099 L8.88766269,16.1417099 C9.04695092,16.1417099 9.17610015,16.0125607 9.17610015,15.8532725 L9.17610015,15.8532725 L9.17610015,15.2769537 C9.17610015,15.2008527 9.14583556,15.1278194 9.09201591,15.0740715 C9.03826802,15.0202519 8.96525269,14.9899873 8.88913376,14.9899873 L8.88913376,14.9899873 Z M11.761973,14.9899873 L10.6137487,14.9899873 C10.5361766,14.9849462 10.4601474,15.0133989 10.4049822,15.0681873 C10.3497633,15.1229936 10.3208262,15.1988076 10.3253112,15.2764693 L10.3253112,15.2764693 L10.3253112,15.8532725 C10.3205392,15.9311316 10.3493506,16.0073043 10.4045696,16.0624515 C10.4597168,16.1176705 10.5358896,16.1464819 10.6137487,16.1417099 L10.6137487,16.1417099 L11.761973,16.1417099 C11.8384328,16.1417099 11.9117352,16.1113018 11.9657522,16.0571951 C12.0197871,16.0030885 12.0500696,15.9297323 12.0499266,15.8532725 L12.0499266,15.8532725 L12.048455,15.2764693 C12.048455,15.1182216 11.9202028,14.9899873 11.761973,14.9899873 L11.761973,14.9899873 Z M16.0724608,14.9899868 L14.9232497,14.9899868 C14.8472205,14.9898438 14.7741872,15.0199828 14.7203676,15.0737307 C14.6665479,15.1274786 14.6362833,15.2004221 14.6362833,15.2764693 L14.6362833,15.2764693 L14.6362833,15.8532725 C14.6312422,15.9309881 14.6597487,16.007089 14.7146986,16.0622362 C14.7695587,16.1174552 14.8455342,16.1464102 14.9232497,16.1417099 L14.9232497,16.1417099 L16.0724608,16.1417099 C16.1503737,16.1464819 16.2265465,16.1176705 16.2817116,16.0624515 C16.3368588,16.0073043 16.3656523,15.9311316 16.3608982,15.8532725 L16.3608982,15.8532725 L16.3608982,15.2779404 C16.3608982,15.2014806 16.3304722,15.1281782 16.2763835,15.0741433 C16.2222768,15.0201263 16.1489026,14.9898438 16.0724608,14.9899868 L16.0724608,14.9899868 Z M8.88913376,12.6939512 L7.73943833,12.6939512 C7.58113679,12.6939512 7.45275898,12.8221317 7.45247194,12.9804332 L7.45247194,12.9804332 L7.45247194,13.5552809 C7.44743083,13.6329965 7.47595525,13.7090975 7.53081541,13.7642626 C7.58576528,13.8194816 7.66172275,13.8484186 7.73943833,13.8437184 L7.73943833,13.8437184 L8.88766269,13.8437184 C8.96419423,13.8437184 9.0374966,13.8133103 9.09158535,13.7592036 C9.14569204,13.7051866 9.17610015,13.6318125 9.17610015,13.5552809 L9.17610015,13.5552809 L9.17610015,12.9804332 C9.17583105,12.8221317 9.04745324,12.6939512 8.88913376,12.6939512 L8.88913376,12.6939512 Z M11.761973,12.6939512 L10.6137487,12.6939512 C10.5361766,12.6889101 10.4601474,12.7174345 10.4049822,12.7721691 C10.3497633,12.8269754 10.3208262,12.9027894 10.3253112,12.9804332 L10.3253112,12.9804332 L10.3253112,13.5552809 C10.3205392,13.63314 10.3493506,13.7093128 10.4045696,13.7645317 C10.4597168,13.8196789 10.5358896,13.8484904 10.6137487,13.8437184 L10.6137487,13.8437184 L11.761973,13.8437184 C11.8384328,13.8437184 11.9117352,13.8133103 11.9657522,13.7592036 C12.0197871,13.7051148 12.0500696,13.6317407 12.0499266,13.5552809 L12.0499266,13.5552809 L12.048455,12.9804332 C12.048455,12.8222034 11.9202028,12.6939512 11.761973,12.6939512 L11.761973,12.6939512 Z M16.0724608,12.6954222 L14.9232497,12.6954222 C14.8472205,12.6953685 14.7741872,12.7254178 14.7203676,12.7791657 C14.6665479,12.8329315 14.6362833,12.9058751 14.6362833,12.9819043 L14.6362833,12.9819043 L14.6362833,13.556752 C14.6316549,13.6341985 14.6603946,13.7099407 14.7152547,13.764747 C14.7701328,13.8196251 14.8458033,13.8483469 14.9232497,13.8437184 L14.9232497,13.8437184 L16.0724608,13.8437184 C16.1503737,13.8484904 16.2265465,13.8196789 16.2817116,13.7645317 C16.3368588,13.7093128 16.3656523,13.63314 16.3608982,13.5552809 L16.3608982,13.5552809 L16.3608982,12.9833754 C16.3608982,12.9069335 16.3304722,12.8336311 16.2763835,12.7795962 C16.2222768,12.725633 16.1489026,12.6953685 16.0724608,12.6954222 L16.0724608,12.6954222 Z M8.88913376,10.3910621 L7.7409094,10.3910621 C7.66446755,10.3909903 7.59109343,10.4212728 7.53698673,10.475236 C7.48289798,10.529253 7.45247194,10.6025554 7.45247194,10.6790152 L7.45247194,10.6790152 L7.45247194,11.2538629 C7.44743083,11.3315784 7.47595525,11.4076794 7.53081541,11.4628266 C7.58576528,11.5180635 7.66172275,11.5470006 7.73943833,11.5423003 L7.73943833,11.5423003 L8.88766269,11.5423003 C9.0461795,11.5423003 9.17498787,11.4143351 9.17610015,11.2558183 L9.17610015,11.2558183 L9.17610015,10.6790152 C9.18101568,10.6014431 9.1524195,10.5254677 9.09755933,10.4703922 C9.04260947,10.4153168 8.96677758,10.3864336 8.88913376,10.3910621 L8.88913376,10.3910621 Z M11.761973,10.3910621 L10.6137487,10.3910621 C10.5359613,10.386308 10.4598603,10.4151015 10.4047131,10.4701231 C10.3495659,10.5251986 10.3206827,10.6012278 10.3253112,10.6790152 L10.3253112,10.6790152 L10.3253112,11.2538629 C10.3205392,11.331722 10.3493506,11.4078947 10.4045696,11.4631137 C10.4597168,11.5182609 10.5358896,11.5470723 10.6137487,11.5423003 L10.6137487,11.5423003 L11.761973,11.5423003 C11.9204181,11.5423003 12.0490829,11.4142634 12.0499261,11.2558183 L12.0499261,11.2558183 L12.048455,10.6790152 C12.0534961,10.6014431 12.0250435,10.5254677 11.9702371,10.4703922 C11.915377,10.4153168 11.8395451,10.3864336 11.761973,10.3910621 L11.761973,10.3910621 Z M15.8730052,5.31660432 L15.8730052,5.91744693 L17.5366603,5.91744693 L15.8730052,5.31660432 Z" id="形状结合" fill="#14A4C1"></path>
                        </g>
                    </g>
                </g>
            </g>
        </g>
    </g>
</svg>