<?xml version="1.0" encoding="UTF-8"?>
<svg width="50px" height="56px" viewBox="0 0 50 56" version="1.1" xmlns="http://www.w3.org/2000/svg" xmlns:xlink="http://www.w3.org/1999/xlink">
    <title>切片</title>
    <g id="页面-1" stroke="none" stroke-width="1" fill="none" fill-rule="evenodd">
        <g id="7-3中巴运输企业" transform="translate(-472.000000, -186.000000)">
            <g id="icon/map/党组织分布备份" transform="translate(472.979608, 185.999992)">
                <g id="核酸采样点" transform="translate(0.000000, 0.000000)">
                    <g id="编组">
                        <path d="M24.5203922,0 C36.3915203,-0.00927758733 46.5613782,8.49334258 48.6553833,20.1783291 C50.7493884,31.8633157 44.165002,43.3683761 33.0293922,47.4820076 C30.3793922,48.4640076 24.5203922,56 24.5203922,56 C24.5203922,56 18.6983922,48.4700076 16.0613922,47.5 C4.90803136,43.4067479 -1.70116274,31.9012429 0.381839006,20.2045196 C2.46484075,8.50779622 12.6396449,-0.00874371614 24.5203922,0 L24.5203922,0 Z" id="椭圆_1259" fill="#0ABE13"></path>
                        <circle id="椭圆_1260" fill="#FFFFFF" fill-rule="nonzero" cx="24.5" cy="24.5" r="22.5"></circle>
                    </g>
                    <path d="M35.2275854,34.0503646 C35.8872333,34.7135823 35.8872333,35.6580671 35.2275854,36.317836 C34.6579721,36.9775141 33.6197619,36.8837886 33.0538092,36.317836 C32.7690025,36.0365689 32.5815819,35.560802 32.5815819,35.1858096 C32.5815819,34.8109684 32.7690025,34.3387109 33.0538092,34.0539042 C33.6197619,33.3942261 34.6579721,33.4879515 35.2275854,34.0503646 Z M24.2722699,34.0503646 C24.8382226,34.7135823 24.8382226,35.6580671 24.2722699,36.317836 C23.7026263,36.9775141 22.6644463,36.8837886 22.0984936,36.317836 C21.8136869,36.0365689 21.6262664,35.560802 21.6262664,35.1858096 C21.6262664,34.8109684 21.8136869,34.3387109 22.0984936,34.0539042 C22.6644463,33.3942261 23.7026263,33.4879515 24.2722699,34.0503646 Z M26.3486298,25.5536017 L26.3486298,33.1094194 L32.8627279,33.1094194 C32.1597397,33.4609135 31.783165,34.1356125 31.6579135,34.8363527 L31.6334365,34.998389 L31.6334365,35.0957751 L25.4006053,35.0957751 L25.4006053,35.0020497 C25.4943307,34.2485554 25.0221035,33.4914912 24.3623044,33.0192639 C24.3623044,33.0192639 24.2686092,33.0192639 24.1748838,33.1129894 C23.5152057,32.8282734 22.7581717,32.8282734 22.0984936,33.1129894 C22.0047682,33.1129894 22.0047682,33.2068055 21.911073,33.2068055 C21.2984024,33.5582996 20.9283572,34.2329986 20.8786195,35.0087564 L20.8728628,35.1894703 L20.8728628,35.2831957 L19.9282873,35.2831957 L19.9282873,30.0885748 C20.0221035,29.0502738 20.4005146,28.105789 20.9665883,27.2550296 C21.3072672,26.6581337 21.8756498,26.0640068 22.5378193,25.6752887 L22.7618324,25.5536017 L26.3486298,25.5536017 Z M20.65295,12.5434062 C21.3451204,11.8188646 22.4949661,11.8188646 23.1835968,12.5434062 L23.1835968,12.5434062 L31.7956861,21.5918119 C32.1742182,21.9919753 31.8929512,22.6516534 31.3414294,22.6516534 L31.3414294,22.6516534 L23.2340597,22.6516534 C20.6961823,22.6516534 18.6377627,24.7100729 18.634223,27.2477991 L18.634223,27.2477991 L18.634223,34.2485554 C18.634223,34.7712455 18.2124587,35.1930099 17.6896475,35.1930099 L17.6896475,35.1930099 L14.5750471,35.1930099 C13.5440675,35.1930099 12.7077391,34.3566815 12.7077391,33.3257019 L12.7077391,33.3257019 L12.7077391,27.2333984 L10.7466754,27.2333984 C9.21817657,27.2333984 8.42508043,25.3948917 9.48489164,24.2846176 L9.48489164,24.2846176 Z M38.3421555,33.1094194 L38.3421555,35.1858096 L36.3594908,35.1858096 L36.3594908,35.0921144 C36.4469678,34.2980441 36.0414109,33.5888343 35.4476288,33.1900415 L35.3176199,33.1094194 L38.3421555,33.1094194 Z M38.5295761,23.5708159 C38.7827376,23.5708159 38.958976,23.7190209 38.9950146,23.9518991 L39.0018336,24.0430735 L39.0018336,26.4042703 L38.9081082,31.7864328 C38.9081082,31.9562828 38.7600228,32.1232643 38.5270861,32.1582744 L38.4358809,32.1649649 L27.38684,32.1649649 C27.1336785,32.1649649 26.9574401,32.0168556 26.9214015,31.7839136 L26.9145825,31.6927074 L26.9145825,24.0430735 C26.9145825,23.7900195 27.0626918,23.6136975 27.2956338,23.577639 L27.38684,23.5708159 L38.5295761,23.5708159 Z M25.5952565,26.4042703 L23.1403645,26.4042703 L22.7618324,26.8766186 L21.5325409,28.105789 L21.5325409,29.7100427 L25.5915958,29.7100427 L25.5915958,28.4807512 L25.5952565,28.4807512 L25.5952565,26.4042703 Z" id="形状结合" fill="#0ABE13"></path>
                </g>
            </g>
        </g>
    </g>
</svg>