<?xml version="1.0" encoding="utf-8"?>
<!-- Generator: Adobe Illustrator 22.0.0, SVG Export Plug-In . SVG Version: 6.00 Build 0)  -->
<svg version="1.1" id="图层_1" xmlns="http://www.w3.org/2000/svg" xmlns:xlink="http://www.w3.org/1999/xlink" x="0px" y="0px"
	 viewBox="0 0 51 56" style="enable-background:new 0 0 51 56;" xml:space="preserve">
<style type="text/css">
	.st0{fill:#3466E2;}
	.st1{fill:#FFFFFF;}
	.st2{fill:none;}
</style>
<title>icon/map/党组织分布</title>
<g id="编组">
	<path id="椭圆_1259" class="st0" d="M25.5,0c11.9,0,22,8.5,24.1,20.2S45.1,43.4,34,47.5c-2.6,1-8.5,8.5-8.5,8.5s-5.8-7.5-8.5-8.5
		C5.9,43.4-0.7,31.9,1.4,20.2S13.6,0,25.5,0L25.5,0z"/>
	<circle id="椭圆_1260" class="st1" cx="25.5" cy="24.5" r="22.5"/>
</g>
<path class="st0" d="M40.7,15.5c-4.8-2.5-9.6-4.9-14.4-7.4c-0.3-0.2-0.7-0.2-1,0c-4.6,2.5-9.2,4.8-13.9,7.2c-0.4,0.2-0.8,0.4-1,1
	v2.3c0.1,0.5,0.6,0.8,1.1,0.7c0.3,0,0.6,0,0.9,0v17.3c0,0.6,0.1,1.1,0.4,1.6c0.3,0.4,0.7,0.7,1.2,0.7h2.4V24.5h18.8v14.3
	c1.3,0.1,1.6,0,2.9-0.2c0.8-0.4,1.2-1.2,1.2-2V19.2h1.1c0.6,0,0.9-0.4,0.9-1v-1.6C41.4,16.1,41.1,15.7,40.7,15.5L40.7,15.5z
	 M20.4,19.6c0,0.3-0.1,0.4-0.3,0.4h-4.3c-0.3,0-0.4-0.1-0.4-0.4v-1.5c0-0.3,0.1-0.3,0.3-0.3h4.4c0.2,0,0.3,0.1,0.3,0.3
	C20.4,18.6,20.4,19.1,20.4,19.6L20.4,19.6z M28.4,18.1v1.5c0,0.3-0.1,0.3-0.3,0.3h-4.4c-0.3,0-0.4-0.1-0.4-0.4v-1.5
	c0-0.3,0.1-0.4,0.3-0.4H28C28.3,17.7,28.4,17.9,28.4,18.1L28.4,18.1z M36.4,19.6c0,0.1,0,0.2,0,0.2C36.3,20,36.2,20,36.1,20h-4.2
	c-0.3,0-0.4-0.1-0.4-0.4v-1.4c0-0.3,0.1-0.4,0.3-0.4h4.3c0.1,0,0.2,0,0.3,0.1c0.1,0.1,0.1,0.2,0.1,0.3L36.4,19.6z M36.4,19.6"/>
<rect x="66.1" y="9.3" class="st2" width="42.7" height="42.7"/>
<polygon class="st0" points="25,39.2 25,38 24.4,38.5 23.2,37.4 25,35.6 25,33.9 23.5,34.8 22.9,37.2 21.3,36.7 21.5,36 20.5,36.5 
	19.6,35.1 20.6,34.5 19.9,34.3 20.3,32.6 22.7,33.3 24.1,32.5 22.7,31.6 20.3,32.3 19.9,30.7 20.6,30.4 19.6,29.9 20.5,28.4 
	21.5,29 21.3,28.2 22.9,27.8 23.5,30.2 25,31 25,29 23.2,27.2 24.4,26 25,26.6 25,25.8 26.7,25.8 26.7,26.6 27.2,26 28.4,27.2 
	26.7,29 26.7,31 28.4,30 29,27.6 30.7,28 30.5,28.8 31.2,28.4 32,29.9 31.3,30.3 32.1,30.5 31.6,32.1 29.2,31.5 27.5,32.5 
	29.2,33.5 31.6,32.8 32.1,34.5 31.3,34.7 32,35.1 31.2,36.5 30.5,36.1 30.7,36.9 29,37.4 28.4,34.9 26.7,33.9 26.7,35.6 28.4,37.4 
	27.2,38.5 26.7,38 26.7,39.2 "/>
</svg>
