<?xml version="1.0" encoding="utf-8"?>
<!-- Generator: Adobe Illustrator 22.0.0, SVG Export Plug-In . SVG Version: 6.00 Build 0)  -->
<svg version="1.1" id="图层_1" xmlns="http://www.w3.org/2000/svg" xmlns:xlink="http://www.w3.org/1999/xlink" x="0px" y="0px"
	 viewBox="0 0 51 56" style="enable-background:new 0 0 51 56;" xml:space="preserve">
<style type="text/css">
	.st0{fill:#FF4D4F;}
	.st1{fill:#FFFFFF;}
</style>
<title>icon/map/党组织分布</title>
<g id="编组">
	<path id="椭圆_1259" class="st0" d="M25.5,0c11.9,0,22,8.5,24.1,20.2S45.1,43.4,34,47.5c-2.6,1-8.5,8.5-8.5,8.5s-5.8-7.5-8.5-8.5
		C5.9,43.4-0.7,31.9,1.4,20.2S13.6,0,25.5,0L25.5,0z"/>
	<circle id="椭圆_1260" class="st1" cx="25.5" cy="24.5" r="22.5"/>
	<path class="st0" d="M27,20.1C26.9,20.1,26.9,20.1,27,20.1c-0.4,1.9-1.5,3.6-3.2,4.5c-0.6,0.6-1.5,1-2.5,0.9
		c-0.9,0.1-1.7-0.2-2.5-0.9c-1.4-0.9-2.1-1.1-3.1-4.5c0,0,0,0-0.1,0c-0.6,0-1-0.7-1.2-2c-0.2-1.2,0.1-1.7,0.6-1.9c0.1,0,0.4,0,0.5,0
		c-0.1-0.7-0.1-1.4,0-2.1c0.1-1.4,0.7-2.5,1.7-3.5c1.1-0.9,2.5-1.4,4-1.4s2.9,0.5,4,1.4c1,0.9,1.6,2.1,1.7,3.5c0.1,0.7,0,1.4,0,2.1
		c0.1,0,0.4-0.1,0.5,0c0.5,0.1,0.9,0.6,0.6,1.9C27.9,19.3,27.5,20.2,27,20.1L27,20.1z"/>
	<g>
		<path class="st0" d="M33.7,25.9h-3.1V29h3.1V25.9z M32.9,28.2h-1.6v-1.6h1.6V28.2z"/>
		<path class="st0" d="M40.8,25.9h-3.1V29h3.1V25.9z M40,28.2h-1.6v-1.6H40V28.2z"/>
		<path class="st0" d="M33.7,32.9h-3.1V36h3.1V32.9z M32.9,35.2h-1.6v-1.6h1.6V35.2z"/>
		<path class="st0" d="M35.7,21.6c-5.5,0-9.9,4.4-9.9,9.9s4.4,9.9,9.9,9.9c5.5,0,9.9-4.4,9.9-9.9S41.1,21.6,35.7,21.6z M35.3,37.6
			H29v-6.2h6.2V37.6z M35.3,30.5H29v-6.2h6.2V30.5z M37.6,37.6h-1.6V36h1.6V37.6z M42.3,37.6h-3.1V36h-1.6v-3.1h-1.6v-1.6h1.6v1.6
			h1.6V36h1.6v-1.6h1.6V37.6z M42.3,32.9h-1.6v-1.6h1.6V32.9z M42.3,30.5h-6.2v-6.2h6.2V30.5z"/>
	</g>
	<path class="st0" d="M24.3,32c0-2.1,0.6-4.1,1.7-5.7c-0.1,0-0.1-0.1-0.1-0.1c-0.2,0-0.5-0.1-0.6-0.1c-1.6-0.1-1.4,0.6-4,0.6
		c-2.6,0-2.5-0.9-4-0.6c-0.1,0-0.4,0-0.6,0.1c0,0-0.6,0.2-1.4,0.5c-1.5,0.5-3,1.1-4.3,1.9c-2.4,1.1-3.5,1.9-3.5,4.8v0.9
		c0,0.7,0.2,1.5,0.9,2.1c0.5,0.5,1.2,0.9,2,0.9h7.6h6.8h0.9C24.8,35.7,24.3,33.9,24.3,32z"/>
</g>
</svg>
