<?xml version="1.0" encoding="UTF-8"?>
<svg width="49px" height="56px" viewBox="0 0 49 56" version="1.1" xmlns="http://www.w3.org/2000/svg" xmlns:xlink="http://www.w3.org/1999/xlink">
    <title>icon/map/快递哥</title>
    <g id="icon/map/快递哥" stroke="none" stroke-width="1" fill="none" fill-rule="evenodd">
        <g id="核酸采样点">
            <g id="编组">
                <path d="M24.5203922,0 C36.3915203,-0.00927758733 46.5613782,8.49334258 48.6553833,20.1783291 C50.7493884,31.8633157 44.165002,43.3683761 33.0293922,47.4820076 C30.3793922,48.4640076 24.5203922,56 24.5203922,56 C24.5203922,56 18.6983922,48.4700076 16.0613922,47.5 C4.90803136,43.4067479 -1.70116274,31.9012429 0.381839006,20.2045196 C2.46484075,8.50779622 12.6396449,-0.00874371614 24.5203922,0 L24.5203922,0 Z" id="椭圆_1259" fill="#0ABE13"></path>
                <circle id="椭圆_1260" fill="#FFFFFF" fill-rule="nonzero" cx="24.5" cy="24.5" r="22.5"></circle>
            </g>
            <path d="M21.2147213,28.0344447 C21.2189434,28.0352123 21.22282,28.0364022 21.2268885,28.0370163 L25.85223,28.7562247 L27.5848475,33.1480096 C27.8214363,33.7475802 28.3956746,34.1134024 29.0034974,34.1134024 C29.1897286,34.1134024 29.3790687,34.0792037 29.5628818,34.0066611 C30.3458433,33.6976448 30.730396,32.8121641 30.4215332,32.029049 L28.3682312,26.8247866 C28.1700248,26.3225536 27.7175353,25.9607616 27.184251,25.8778557 L23.3521574,25.2817011 C23.3321986,24.3824411 23.4313018,23.4510551 23.5728559,22.5637704 C23.29278,22.3433789 23.0444846,22.1190725 22.8285839,21.9033253 C21.7985552,20.8784015 21.28024,19.8735517 21.1459018,19.5901748 L21.1451725,19.5883708 L21.1399141,19.5771248 C21.0048466,19.2807363 20.9936006,18.9490745 21.10798,18.6441267 C21.2222443,18.3391406 21.4486233,18.0968712 21.7452037,17.962226 C21.9051813,17.8892227 22.0748697,17.8524908 22.2497013,17.8524908 C22.7269474,17.8524908 23.1629325,18.132989 23.3604096,18.5672085 L23.3663973,18.5791838 C23.3753788,18.5976457 23.3903863,18.6271617 23.4113814,18.6664653 C23.4539474,18.7463773 23.5253386,18.8739602 23.624864,19.02914 C23.7412009,19.2113027 23.9097378,19.4528428 24.1287859,19.715378 C24.3487551,18.5625642 23.8852882,17.291149 22.9180915,17.0501846 C21.8768168,16.790528 20.3673159,17.3560535 19.7531983,19.1419074 C18.9233336,21.6027148 18.7447789,23.2042566 19.060205,25.91382 C19.3653447,27.4834661 20.286521,27.9269357 21.2147213,28.0344447 Z M33.1705153,25.7225224 C34.1977037,25.7225224 34.1977037,22.0024286 33.1705153,22.0024286 C32.1433653,22.0024286 31.3105068,22.8351336 31.3105068,23.8624755 C31.3105068,24.889779 32.1432118,25.7225224 33.1705153,25.7225224 Z M23.4194801,19.160945 C23.3169225,19.0005068 23.242691,18.8687018 23.1959029,18.7814588 C23.1726816,18.737818 23.1561772,18.7053082 23.1467351,18.6855029 C23.1428585,18.6774042 23.1398647,18.6715701 23.1380607,18.6681157 L23.1382142,18.6681157 C22.9149441,18.1775509 22.3365222,17.9608826 21.8459574,18.1841143 C21.3552007,18.4070774 21.1387243,18.9854993 21.3616489,19.4761025 C21.3941972,19.5432716 21.8849155,20.620357 23.0009974,21.7307583 C24.1051039,22.834673 25.9011291,23.9791194 28.3766369,23.9792729 L28.3904162,23.9792729 C28.5355782,23.9792729 28.6815847,23.9752044 28.8289729,23.9677199 C29.3670934,23.9402765 29.7812006,23.4819529 29.7539107,22.9436788 C29.7264673,22.4055967 29.2678367,21.9914896 28.7298697,22.0190481 C28.6132257,22.0249206 28.5001897,22.0277609 28.3904162,22.0277609 C26.5210808,22.0237308 25.2510089,21.2043444 24.3752773,20.3449253 C23.9428618,19.9167318 23.624557,19.4816295 23.4194801,19.160945 Z M25.4667945,15.9615461 C25.1310641,16.141022 24.7703468,16.1972521 24.4034499,16.1972521 C24.0830725,16.1970986 23.7557478,16.1551083 23.4254677,16.1120817 C23.1172191,16.0720489 22.8450883,16.0086413 22.6023583,15.9221274 C22.9752044,16.40444 23.5098705,16.7663856 24.1499345,16.9152707 C25.6256974,17.2590614 27.1005774,16.3411859 27.4445217,14.8655382 C27.5965541,14.2124626 27.5013275,13.5599627 27.2202152,13.0052226 C26.7288828,13.0654829 26.067555,13.1878458 25.7338205,13.4455449 C25.5814809,13.5623424 25.5041021,13.685281 25.5029123,13.8443759 C25.5029123,13.8524745 25.5032193,13.8608803 25.503795,13.8703223 C25.5351534,14.4604509 25.6693381,14.8714107 25.6712956,15.2792231 C25.6718713,15.4895584 25.6311093,15.6993179 25.516845,15.9117642 C25.5057525,15.9324523 25.4879048,15.9503001 25.4667945,15.9615461 Z M21.9227221,15.2297483 C22.2596039,15.5685877 22.7422236,15.7763897 23.4570948,15.8702345 C23.7866456,15.9134147 24.1047969,15.953601 24.4034499,15.9532957 C24.7336149,15.9532957 25.0381404,15.9051625 25.3184851,15.7636467 C25.3994718,15.6003682 25.4268768,15.4492186 25.4273374,15.2792231 C25.4292949,14.9303276 25.2951102,14.503324 25.2603358,13.8842551 C25.2594146,13.8710516 25.2591076,13.8577329 25.2588389,13.8443759 C25.2579177,13.5930866 25.3972073,13.3914258 25.5868544,13.2507929 C25.7774228,13.1074732 26.023185,13.0092528 26.2822658,12.9350597 C26.730111,12.807899 27.2226333,12.7560444 27.5239731,12.728294 C27.471965,12.3578276 27.355014,12.005017 27.1833298,11.6831043 C26.7172146,10.8085625 25.8516543,10.165236 24.7946428,10.0269828 C24.6550462,10.0086744 24.5166779,10 24.3796145,10 L24.3791923,10 C22.8111966,10 21.4477405,11.1635992 21.2393244,12.7608422 C21.2213231,12.8996712 21.2123416,13.0377325 21.2123416,13.1740282 C21.2123416,13.3624855 21.2291147,13.5481025 21.2616629,13.7295359 C21.3820683,14.4052571 21.5854948,14.8904483 21.9227221,15.2297483 Z M38.4761455,31.6533242 C37.2942379,30.1133861 35.6502452,29.8147331 34.493977,29.8301628 C34.421396,29.6345279 34.3462817,29.4301419 34.2681737,29.2139726 C33.5595972,27.254976 31.9682267,26.321786 31.0316206,25.9271771 L30.1285992,23.2937642 C30.1002346,23.2113189 30.0540607,23.1375481 29.9957579,23.0753303 C29.9552645,23.6829996 29.4645462,24.1795904 28.8414088,24.2116397 C28.6874572,24.2194697 28.5355782,24.2233463 28.3904162,24.2233463 L28.3766369,24.2233463 C27.9622227,24.2233463 27.5683431,24.1927556 27.1945758,24.1374466 C27.1927718,24.2139042 27.204632,24.2920123 27.2332652,24.3678942 C27.3521737,24.6830517 27.7040631,24.841801 28.0192205,24.7227774 L28.0192205,24.7226239 L29.1786361,24.2843742 L31.9301514,32.3085493 C32.4064763,31.7879695 33.008158,31.3922859 33.6950101,31.1594586 C34.1365222,31.0098442 34.5951913,30.9336552 35.0575834,30.9336552 C36.5307746,30.9336552 37.869359,31.693357 38.6361231,32.8976032 C39.0923741,32.8757252 39.2092867,32.6085457 38.4761455,31.6533242 Z M33.890952,31.7368442 C31.9904117,32.3812454 30.9719361,34.4444501 31.6163373,36.3451439 C32.2607385,38.2456458 34.3237897,39.2641214 36.224637,38.6197202 C38.1251389,37.975319 39.1434994,35.9119608 38.4990981,34.0114589 C37.8546969,32.1109186 35.7916458,31.092443 33.890952,31.7368442 Z M35.5187473,36.5377849 C34.7679118,36.7925286 33.9525556,36.3899745 33.6981574,35.6392542 C33.4437209,34.8883803 33.8461214,34.0730625 34.5968417,33.8187795 C35.3476772,33.5640742 36.1628415,33.9667818 36.417278,34.7173102 C36.6718681,35.4681841 36.2696211,36.2830413 35.5187473,36.5377849 Z M30.8611263,34.5400989 L23.0845173,34.5400989 C22.412097,33.1835133 22.1808817,31.7989085 22.1044241,30.8981132 C22.3039739,30.8369701 22.4501723,30.6533106 22.4501723,30.4336484 L22.4501723,29.0920702 C22.4501723,28.8224726 22.2317,28.6040387 21.9622943,28.6040387 L12.0215735,28.6040387 C11.7521294,28.6040387 11.5336955,28.8224726 11.5336955,29.0920702 L11.5336955,30.4336484 C11.5336955,30.7030541 11.7521294,30.9215264 12.0215735,30.9215264 L12.0753855,30.9215264 C11.5455172,32.2217284 10.7278197,34.4753479 10.7278197,36.003733 L12.8307501,36.003733 C12.6478199,35.0909624 12.7686859,34.1486374 13.1874373,33.3000421 C13.6894016,32.2836391 14.5567275,31.5232081 15.6302434,31.1594586 C16.0721009,31.0095371 16.5304245,30.9338088 16.9931237,30.9338088 C18.8125237,30.9338088 20.427461,32.0918809 21.0117171,33.8157857 C21.2593984,34.5458179 21.2947869,35.297114 21.1534247,36.0035794 L30.8957855,36.0035794 C30.7983327,35.517966 30.7869332,35.0239468 30.8611263,34.5400989 Z M15.8260701,31.7368442 C13.9253763,32.3812454 12.9070542,34.4446036 13.5514555,36.3451439 C14.1958567,38.2456458 16.2589078,39.2641214 18.1597552,38.6197202 C20.0602571,37.9751654 21.0785791,35.9119608 20.4341779,34.0114589 C19.7897767,32.1109186 17.7268791,31.092443 15.8260701,31.7368442 Z M17.4538654,36.5377849 C16.7028764,36.7925286 15.8876738,36.3899745 15.6332372,35.6392542 C15.3788006,34.8883803 15.7812395,34.0730625 16.5319215,33.8187795 C17.2827953,33.5640742 18.0979596,33.9667818 18.3523962,34.7173102 C18.6071398,35.4681841 18.2047009,36.2830413 17.4538654,36.5377849 Z M18.0053046,27.3026468 L18.0053046,19.7075864 C18.0053046,19.348059 17.7139826,19.0565834 17.3544552,19.0565834 L9.65084946,19.0565834 C9.29132201,19.0565834 9,19.348059 9,19.7075864 L9,27.3026468 C9,27.6621743 9.29132201,27.9536498 9.65084946,27.9536498 L17.3546087,27.9536498 C17.7139826,27.9536498 18.0053046,27.6621743 18.0053046,27.3026468 Z M15.3057974,22.2579015 L13.0289566,27.1363745 C12.9923782,27.206691 12.9334229,27.2417724 12.8518604,27.2417724 C12.8406144,27.2417724 12.821001,27.2389321 12.79279,27.2333667 C12.7449656,27.2192804 12.7091549,27.1927198 12.6853194,27.1533011 C12.6613305,27.1138825 12.6550357,27.0717386 12.6662818,27.0269081 L13.4968758,23.6198606 L11.7850999,24.0456744 C11.7738922,24.0485147 11.7569272,24.05005 11.7344352,24.05005 C11.6837705,24.05005 11.6402833,24.0345819 11.6038584,24.003569 C11.5531937,23.9614252 11.5348853,23.9065384 11.5489717,23.8392158 L12.3963771,20.3605469 C12.4077767,20.3210898 12.4302687,20.2888487 12.4638533,20.2635163 C12.4977449,20.238184 12.53701,20.2255946 12.5819941,20.2255946 L13.9649485,20.2255946 C14.0183383,20.2255946 14.0633224,20.2431353 14.0999008,20.2783703 C14.1363257,20.3136053 14.154634,20.3549815 14.154634,20.4028059 C14.154634,20.4252979 14.1475717,20.4506303 14.1334854,20.4786878 L13.4126265,22.4307755 L15.0822586,22.0175512 C15.1049042,22.0120241 15.1216773,22.0091838 15.1329233,22.0091838 C15.1863131,22.0093374 15.2342911,22.0304477 15.2763965,22.0725915 C15.3269461,22.1285146 15.3368487,22.1904253 15.3057974,22.2579015 Z" id="Fill-1" fill="#0ABE13"></path>
        </g>
    </g>
</svg>