<?xml version="1.0" encoding="UTF-8"?>
<svg width="24px" height="28px" viewBox="0 0 24 28" version="1.1" xmlns="http://www.w3.org/2000/svg" xmlns:xlink="http://www.w3.org/1999/xlink">
    <title>切片</title>
    <g id="页面-1" stroke="none" stroke-width="1" fill="none" fill-rule="evenodd">
        <g id="6确诊人员轨迹" transform="translate(-1747.000000, -294.000000)">
            <g id="编组-22" transform="translate(1727.000000, 278.000000)">
                <g id="编组" transform="translate(20.000000, 10.000000)">
                    <g id="核酸采样点" transform="translate(0.000000, 6.000000)">
                        <g id="编组">
                            <path d="M12.009988,0 C17.8244181,-0.00454412441 22.805573,4.16000453 23.8312081,9.88326325 C24.8568433,15.606522 21.6318377,21.2416536 16.1776615,23.2564935 C14.8797023,23.7374731 12.009988,27.4285751 12.009988,27.4285751 C12.009988,27.4285751 9.15839619,23.7404119 7.86680436,23.2653098 C2.40393373,21.260448 -0.833222565,15.6250986 0.187023187,9.89609122 C1.20726894,4.16708387 6.19084649,-0.00428263648 12.009988,0 L12.009988,0 Z" id="椭圆_1259" fill="#F42A34"></path>
                            <circle id="椭圆_1260" fill="#FFFFFF" fill-rule="nonzero" cx="12" cy="12" r="11.0204082"></circle>
                        </g>
                        <path d="M14.8560182,8.04338209 C14.7740939,8.03071317 14.6924027,8.04338209 14.6137833,8.06886824 C14.6402652,7.56927194 14.6530188,7.03467719 14.6179357,6.63810594 C14.5584256,5.9961643 14.1630195,5.31583455 13.7878033,5.04165189 C13.1904783,4.60794247 12.2668331,4.40816327 11.9181835,4.40816327 C11.57161,4.40816327 10.6458039,4.60794247 10.0495594,5.04165189 C9.67326265,5.31583455 9.27893706,5.9961643 9.22050747,6.63810594 C9.18434384,7.03467719 9.19701276,7.56927194 9.22357937,8.06886824 C9.14496,8.04338209 9.063184,8.03056487 8.98026398,8.04338209 C8.74010522,8.07946099 8.57418044,8.31879351 8.69220482,8.9012251 C8.80912756,9.48473714 8.97918352,9.87171137 9.26626814,9.84936067 C9.28332246,9.84828021 9.29283475,9.84192456 9.30880861,9.83876793 C9.40357132,10.5796882 10.1357843,11.7520087 10.7702687,12.1707399 C10.9318928,12.3970858 11.3857285,12.5864205 11.918353,12.5704466 C12.4509563,12.5864205 12.9068681,12.3972552 13.0663313,12.1707399 C13.7029766,11.7520087 14.4333041,10.5796882 14.5278973,9.83876793 C14.5437864,9.84192456 14.5533835,9.84828021 14.570353,9.84936067 C14.8584969,9.87171137 15.0285529,9.48473714 15.1445011,8.9012251 C15.2631822,8.31862403 15.0974057,8.07946099 14.8560182,8.04338209 Z M16.8160789,14.2041448 C15.7288394,13.6598471 14.0949929,13.1157401 14.0949929,13.1157401 C13.9004254,14.3190125 13.3808088,15.7157509 12.6557776,16.9316076 C12.6233426,16.2374437 12.5591294,15.545123 12.4634557,14.8568275 C12.647261,14.5676879 12.7675099,14.3296053 12.8451336,14.1404188 C12.9364007,13.9097724 12.772891,13.6600166 12.5304019,13.6600166 L11.3081048,13.6600166 C11.0635607,13.6600166 10.903017,13.9130773 10.9934791,14.1404188 C11.071018,14.3296053 11.1911821,14.5676879 11.3751357,14.8568275 C11.268721,15.6093362 11.2125159,16.3193892 11.1815639,16.9316076 C10.4567234,15.7178271 9.93585685,14.3190125 9.74145876,13.1157401 C9.74145876,13.1157401 8.10884107,13.6600166 7.0203516,14.2041448 C5.93302733,14.7483366 5.3877551,15.4795751 5.3877551,16.9252308 L5.3877551,17.7416138 C5.3877551,18.1025934 5.53132919,18.4488491 5.78672032,18.703986 C6.04211144,18.9591229 6.3884307,19.1023792 6.74941033,19.1020408 L17.0871897,19.1020408 C17.448254,19.1023792 17.7945945,18.9591229 18.0499856,18.703986 C18.3053555,18.4488491 18.4488661,18.1025934 18.4488661,17.7416138 L18.4488661,16.9252308 C18.4486966,15.4795751 17.9034244,14.7481671 16.8160789,14.2041448 Z" id="ren-(2)" fill="#F42A34"></path>
                    </g>
                </g>
            </g>
        </g>
    </g>
</svg>
