<?xml version="1.0" encoding="UTF-8"?>
<svg width="25px" height="28px" viewBox="0 0 25 28" version="1.1" xmlns="http://www.w3.org/2000/svg" xmlns:xlink="http://www.w3.org/1999/xlink">
    <title>icon/map/告警</title>
    <g id="页面-1" stroke="none" stroke-width="1" fill="none" fill-rule="evenodd">
        <g id="6-1确诊人员-流调信息-基本信息" transform="translate(-819.000000, -492.000000)">
            <g id="编组-2" transform="translate(0.000000, -3.000000)">
                <g id="核酸采样点" transform="translate(819.000000, 495.000000)">
                    <g id="编组">
                        <path d="M12.009988,0 C17.8244181,-0.00454412441 22.805573,4.16000453 23.8312081,9.88326325 C24.8568433,15.606522 21.6318377,21.2416536 16.1776615,23.2564935 C14.8797023,23.7374731 12.009988,27.4285751 12.009988,27.4285751 C12.009988,27.4285751 9.15839619,23.7404119 7.86680436,23.2653098 C2.40393373,21.260448 -0.833222565,15.6250986 0.187023187,9.89609122 C1.20726894,4.16708387 6.19084649,-0.00428263648 12.009988,0 L12.009988,0 Z" id="椭圆_1259" fill="#FF0000"></path>
                        <circle id="椭圆_1260" fill="#FFFFFF" fill-rule="nonzero" cx="12" cy="12" r="11.0204082"></circle>
                    </g>
                    <path d="M13.803607,13.0282978 C16.4774349,13.0282978 18.6444473,15.1523592 18.6444473,17.772754 L18.6444473,17.772754 L18.6444473,18.0786201 C18.6444473,19.0436869 16.7480295,19.1403487 14.3143476,19.1488043 L10.1677584,19.1492634 C7.73282516,19.1450935 5.83542857,19.0804587 5.83542857,18.0786201 L5.83542857,18.0786201 L5.83542857,17.772754 C5.83542857,15.1523592 8.00355951,13.0282978 10.6787616,13.0282978 L10.6787616,13.0282978 Z M12.0828823,4.45567347 C14.1546292,4.45567347 15.8312843,6.10024316 15.8312843,8.12919878 C15.8312843,10.1579946 14.1533828,11.8025643 12.0828823,11.8025643 C10.0135004,11.8025643 8.33448039,10.1579946 8.33448039,8.12919878 C8.33448039,6.10024316 10.0135004,4.45567347 12.0828823,4.45567347 Z" id="形状结合" fill="#FF0000"></path>
                </g>
            </g>
        </g>
    </g>
</svg>