<?xml version="1.0" encoding="utf-8"?>
<!-- Generator: Adobe Illustrator 22.0.0, SVG Export Plug-In . SVG Version: 6.00 Build 0)  -->
<svg version="1.1" id="图层_1" xmlns="http://www.w3.org/2000/svg" xmlns:xlink="http://www.w3.org/1999/xlink" x="0px" y="0px"
	 viewBox="0 0 51 56" style="enable-background:new 0 0 51 56;" xml:space="preserve">
<style type="text/css">
	.st0{fill:#14A4C1;}
	.st1{fill:#FFFFFF;}
</style>
<title>icon/map/党组织分布</title>
<g id="编组">
	<path id="椭圆_1259" class="st0" d="M25.5,0c11.9,0,22,8.5,24.1,20.2S45.1,43.4,34,47.5c-2.6,1-8.5,8.5-8.5,8.5s-5.8-7.5-8.5-8.5
		C5.9,43.4-0.7,31.9,1.4,20.2S13.6,0,25.5,0L25.5,0z"/>
	<circle id="椭圆_1260" class="st1" cx="25.5" cy="24.5" r="22.5"/>
</g>
<path class="st0" d="M34.8,17.6c-0.1-0.4-0.7-0.5-0.7-0.5s0.2-1.6,0.2-2.6s-0.5-3.6-1.2-4.5c-0.7-0.9-2.8-2.2-5.5-2.8
	c-2.8-0.6-4.1-0.1-5.8,0.4c-1.7,0.5-4.1,2.2-4.8,3.5c-0.7,1.3-0.2,6.2-0.2,6.2s-0.2-0.2-0.3-0.2c-0.1,0-0.2,0.2-0.2,0.2l0.2,2.4
	c0,0,0.4,1,0.5,1.4c0.1,0.4,0.9,0.6,0.9,0.6s0.6,1.5,1.6,3.1c1.1,1.6,3.4,2.6,4.6,2.9c1.2,0.3,2.5,0,3.8-0.2
	c1.3-0.2,2.2-1.4,3.6-2.8c1.4-1.4,1.4-2.9,1.4-2.9s0.7-0.3,1.3-1.3S34.9,18,34.8,17.6z M33.2,19.8c-0.2,0.5-0.2,0.4-0.5,0.6
	c-0.3,0.3-0.7,0.4-0.7,0.4s0.1,1.3-0.9,2.5c-1,1.2-2.4,2.3-3.1,2.7s-2.2,0.6-3.2,0.5c-1-0.1-2.6-0.7-3.6-2c-0.9-1.2-1.6-2.3-1.6-2.3
	l-0.1-1.2c0,0-0.5,0-1-0.4c-0.5-0.4-0.7-1.4-0.7-1.4v-1.3l0.1,0l1.6,0.1c0,0,0.7-0.7,1-1.1c0.2-0.5,0-0.8,0.4-0.9
	c0.4-0.1,2.2,0.6,3.4,0.7c1.3,0.1,3.6,0.2,4.5,0c1-0.2,2.1-0.4,2.1-0.4s0.3-0.1,0.6,0.7c0.2,0.7,0.3,1,0.3,1s1.1-0.4,1.3-0.2
	C33.4,18.3,33.4,19.3,33.2,19.8z"/>
<path class="st0" d="M10.8,38.4c0,0,0.2-3.4,0.8-5.7c0.6-2.3,2.8-4.8,2.8-4.8h5.2c0,0,0.8,1.1,1.9,1.6c1.1,0.5,1.9,0.8,4.1,0.8
	s3.1-0.3,4.3-1.1c1.2-0.8,1.7-1.3,1.7-1.3h5.1c0,0,1.1,1.2,2.1,3s1.6,3.5,1.5,4.9c0,1.3,0,2.6,0,2.6h-2.7c0,0,0.8-0.2,0.9-1.1
	c0.2-0.9-0.2-1.8-0.2-1.8l-0.8-0.2l-0.6-1.2l-0.9-0.2c0,0,0.2-0.8-0.2-0.8c-0.4,0-0.8-0.3-0.8-0.3l-0.9-0.2c0,0-0.3-0.5-0.9-0.4
	c-0.6,0.1-1.2,0.8-1.2,0.8s-1-0.6-3.3-0.8s-4.1-0.7-6-0.3c-1.8,0.4-3.6,1.2-3.6,1.2s-0.4-0.8-1.3-0.8s-1.2,0.3-1.2,0.3l-1.4,0.5
	l-0.3,0.5l-0.5,0.6h-0.6l-0.4,0.3l-0.2,0.6c0,0-0.5-0.1-0.8,0.5c-0.3,0.6-0.6,1-0.5,1.3c0.1,0.3,1.1,1.5,1.1,1.5H10.8z"/>
<path class="st0" d="M16.9,38.4c0,0,1.8-1.8,2.2-1.9s0.4-1.8,0.4-1.8h1l0.7,1.1c0,0,0.8-0.8,2.4-0.9c1.6-0.1,3.8,0.2,4.5,0.4
	c0.7,0.2,1.4,0.3,1.4,0.3l0.9-0.8h0.8v1.7c0,0,1.2,0.9,1.8,1.5c0.6,0.6,0.6,0.6,0.6,0.6L16.9,38.4z"/>
<path class="st0" d="M31.9,33.8c-0.1,0.7-0.1,1.3,0.1,1.6c0.2,0.3,0.8,1,1.1,1.2c0.3,0.2,0.7,0.6,1.1,0.8c0.4,0.3,0.7,0.6,1.2,0.7
	c0.4,0.1,0.9,0.1,1.4-0.1s1.4-0.5,1.2-1.3c-0.2-0.7-1.4-1.4-1.4-1.4s0.3-0.7,0-0.8c-0.3-0.1-1.2-0.3-1.2-0.3s0.3-0.6-0.3-0.8
	c-0.6-0.2-1.2,0.1-1.2,0.1l-0.2,0.2c0,0,0.1-0.6-0.2-0.7S33,32.8,33,32.8s-0.7,0.4-0.9,0.6C32,33.6,31.9,33.8,31.9,33.8z"/>
<path class="st0" d="M18.6,33.8c0.1,0.7,0.1,1.3-0.1,1.6c-0.2,0.3-0.8,1-1.1,1.2c-0.3,0.2-0.7,0.6-1.1,0.8c-0.4,0.3-0.7,0.6-1.2,0.7
	c-0.4,0.1-0.9,0.1-1.4-0.1s-1.4-0.5-1.2-1.3c0.2-0.7,1.4-1.4,1.4-1.4s-0.3-0.7,0-0.8c0.3-0.1,1.2-0.3,1.2-0.3s-0.3-0.6,0.3-0.8
	c0.6-0.2,1.2,0.1,1.2,0.1l0.2,0.2c0,0-0.1-0.6,0.2-0.7s0.7-0.2,0.7-0.2s0.7,0.4,0.9,0.6C18.5,33.6,18.6,33.8,18.6,33.8z"/>
</svg>
