<?xml version="1.0" encoding="UTF-8"?>
<svg width="50px" height="56px" viewBox="0 0 50 56" version="1.1" xmlns="http://www.w3.org/2000/svg" xmlns:xlink="http://www.w3.org/1999/xlink">
    <title>切片</title>
    <g id="页面-1" stroke="none" stroke-width="1" fill="none" fill-rule="evenodd">
        <g id="7-1跨境司机作业点" transform="translate(-560.000000, -379.000000)">
            <g id="icon/map/党组织分布备份-2" transform="translate(560.979608, 378.999992)">
                <g id="编组" transform="translate(-0.000000, 0.000000)">
                    <path d="M24.5203922,0 C36.3915203,-0.00927758733 46.5613782,8.49334258 48.6553833,20.1783291 C50.7493884,31.8633157 44.165002,43.3683761 33.0293922,47.4820076 C30.3793922,48.4640076 24.5203922,56 24.5203922,56 C24.5203922,56 18.6983922,48.4700076 16.0613922,47.5 C4.90803136,43.4067479 -1.70116274,31.9012429 0.381839006,20.2045196 C2.46484075,8.50779622 12.6396449,-0.00874371614 24.5203922,0 L24.5203922,0 Z" id="椭圆_1259" fill="#14A4C1"></path>
                    <circle id="椭圆_1260" fill="#FFFFFF" fill-rule="nonzero" cx="24.5" cy="24.5" r="22.5"></circle>
                </g>
                <path d="M34.5301548,34.7594255 C35.3113763,35.5448748 35.3113763,36.6634289 34.5301548,37.4447937 C33.8555613,38.226051 32.6260081,38.1150519 31.9557499,37.4447937 C31.6184531,37.111689 31.3964908,36.5482378 31.3964908,36.104134 C31.3964908,35.6602093 31.6184531,35.1009143 31.9557499,34.7636175 C32.6260081,33.9823602 33.8555613,34.0933593 34.5301548,34.7594255 Z M21.5557659,34.7594255 C22.2260241,35.5448748 22.2260241,36.6634289 21.5557659,37.4447937 C20.8811365,38.226051 19.6516192,38.1150519 18.9813609,37.4447937 C18.6440642,37.111689 18.4221018,36.5482378 18.4221018,36.104134 C18.4221018,35.6602093 18.6440642,35.1009143 18.9813609,34.7636175 C19.6516192,33.9823602 20.8811365,34.0933593 21.5557659,34.7594255 Z M24.0148006,24.6967025 L24.0148006,33.6450635 L31.7294522,33.6450635 C30.8926333,34.0634729 30.446361,34.8685901 30.3003309,35.7030418 L30.2736013,35.8821716 L30.2736013,35.9975061 L22.8920545,35.9975061 L22.8920545,35.886507 C23.0030536,34.9941431 22.4437944,34.0975514 21.6623938,33.5382922 C21.6623938,33.5382922 21.5514306,33.5382922 21.4404315,33.6492913 C20.6591742,33.312102 19.7626183,33.312102 18.9813609,33.6492913 C18.9536112,33.6492913 18.9327988,33.6562355 18.9154558,33.6666517 L18.8252836,33.7430375 L18.7593986,33.7603979 C18.0300914,34.1788074 17.5910802,34.9839246 17.5357868,35.9085935 L17.5298454,36.1084693 L17.5298454,36.2194684 L16.4111839,36.2194684 L16.4111839,30.0674747 C16.5222904,28.837814 16.970443,27.71926 17.6408445,26.711705 C18.0517824,25.9917097 18.7424703,25.2751166 19.5453351,24.8154928 L19.7669536,24.6967025 L24.0148006,24.6967025 Z M38.2187427,33.6450635 L38.2187427,36.104134 L35.8706713,36.104134 L35.8706713,35.9931707 C35.9747329,35.0485543 35.4896689,34.2053376 34.7813211,33.734241 L34.6367828,33.6450635 L38.2187427,33.6450635 Z M28.5272642,13.342315 C30.8532939,15.028467 32.4516625,17.4185486 33.1739903,20.0580126 L32.0820825,20.0579602 C31.9785468,19.7125119 31.8584829,19.372108 31.722296,19.037991 L31.2326381,19.2564265 C30.5012048,19.5820778 29.6509179,19.4863547 29.0103889,19.0061903 L28.4974218,18.6202 C28.1327722,18.3445615 27.6510244,18.2778548 27.225072,18.4440365 L26.6241953,18.674894 C26.1154275,18.8734997 25.7795533,19.3623725 25.7764555,19.9085208 C25.7791747,20.8725671 25.1531366,21.7259518 24.2326665,22.0127425 L23.062511,22.3810063 C22.8511353,22.4490554 22.6306383,22.4846805 22.4086612,22.4868146 C21.7720217,22.4862983 21.1662916,22.2114515 20.7467759,21.7325261 L19.9396522,20.8073405 C19.3559856,20.1423385 19.2274599,19.192439 19.6136222,18.3964675 L21.3106852,14.8894772 C21.419729,14.6641269 21.5664287,14.4592223 21.7443133,14.2832308 L23.7404971,12.2974014 C20.9045434,11.66733 17.8777153,12.147176 15.3329201,13.7365827 L15.2201692,13.3261719 C15.46865,14.1823791 15.6559313,15.0552458 15.7805676,15.9379567 C16.0519035,17.9153737 15.8105477,19.1260077 15.0439024,19.6388026 C13.8878591,20.4126074 14.4941055,22.141406 14.5010928,22.1572738 L14.5452198,22.2840785 L14.5134842,22.4127419 C14.3402807,22.9730026 14.0188287,23.4760222 13.5829289,23.8684835 C13.0016385,24.4146481 11.9494151,25.0273026 10.1701355,25.0314924 C10.2599032,25.6152389 10.3982679,26.1968409 10.5851194,26.7716369 C10.9441264,27.8761382 11.4627287,28.8957075 12.1104149,29.8081815 C12.1677621,29.6766982 12.2869121,29.5767057 12.4374871,29.5501196 L14.5522071,29.1783794 C14.6396882,29.1626807 14.7275332,29.1518504 14.8153671,29.1458058 L14.8151461,30.0298487 C14.7785832,30.0337023 14.7420521,30.0388566 14.7056188,30.0453258 L12.5907611,30.4189936 L12.5766359,30.419549 C13.2268531,31.2142746 13.9808072,31.9136701 14.8145976,32.5003742 L14.8153035,33.7583416 C12.4034067,32.2603794 10.5217886,29.937389 9.60183211,27.1032085 C7.95719143,22.035873 9.76037243,16.4857228 14.0692202,13.3526411 C18.37824,10.2195939 24.2139763,10.2154291 28.5272642,13.342315 Z M38.440705,22.3484877 C38.7442721,22.3484877 38.9544474,22.5284223 38.9934468,22.8101941 L39,22.9077827 L39,25.70415 L38.8890009,32.0782493 C38.8890009,32.2794028 38.7136233,32.4771592 38.4377561,32.5186217 L38.3297418,32.5265452 L25.2443537,32.5265452 C24.9407866,32.5265452 24.7306114,32.3467267 24.691612,32.0648736 L24.6850588,31.9672503 L24.6850588,22.9077827 C24.6850588,22.6043446 24.8648773,22.3940661 25.1467304,22.3550448 L25.2443537,22.3484877 L38.440705,22.3484877 Z M23.12258,25.70415 L20.2152495,25.70415 L19.7669536,26.2635524 L18.3111027,27.71926 L18.3111027,29.6191788 L23.1182447,29.6191788 L23.1182447,28.163328 L23.12258,28.163328 L23.12258,25.70415 Z M14.67199,14.1825168 C11.4629878,16.5158885 9.77260809,20.3139708 10.065304,24.146682 C12.7200438,24.1790932 13.4665411,22.7125692 13.6217551,22.3053159 C13.5144667,21.9320611 13.4582582,21.5461741 13.4542311,21.1580154 C13.4542311,20.1693585 13.8278988,19.3957258 14.5522071,18.9057516 C15.0070238,18.6009273 15.2734146,16.9781812 14.5673037,14.2621499 L14.67199,14.1825168 Z M24.608011,12.5268081 L24.6018217,12.5811276 C24.5852088,12.6644485 24.5443819,12.7438692 24.4793919,12.8081106 L22.3645343,14.9088214 C22.2572459,15.0143887 22.1689232,15.1378203 22.1038342,15.2736087 L20.4066336,18.780599 C20.1750877,19.2589736 20.2521205,19.8294572 20.6022447,20.2292156 L21.4111239,21.1545045 C21.7573586,21.5507521 22.3052624,21.7043014 22.8069051,21.5456578 L23.9807093,21.1756386 C24.5332942,21.0032613 24.9090961,20.4909827 24.907616,19.9120317 C24.9105761,19.0010961 25.4694944,18.1844035 26.3175096,17.8519025 L26.9166309,17.6210449 C27.6250714,17.3463702 28.4251045,17.4576857 29.0314885,17.9153737 L29.5442835,18.3012607 C29.9291035,18.5889807 30.4393514,18.6463939 30.878349,18.4510238 L31.3593645,18.2381708 C30.5689318,16.6623844 29.4028106,15.2601133 27.9079726,14.1755294 C26.8853992,13.4336089 25.7692332,12.8840437 24.608011,12.5268081 Z" id="形状结合" fill="#14A4C1"></path>
            </g>
        </g>
    </g>
</svg>