<?xml version="1.0" encoding="UTF-8"?>
<svg width="24px" height="28px" viewBox="0 0 24 28" version="1.1" xmlns="http://www.w3.org/2000/svg" xmlns:xlink="http://www.w3.org/1999/xlink">
    <title>icon/map/国际进口邮件快件处理场所</title>
    <g id="页面-1" stroke="none" stroke-width="1" fill="none" fill-rule="evenodd">
        <g id="3-3图例" transform="translate(-1151.000000, -851.000000)">
            <g id="编组-23" transform="translate(1127.000000, 74.000000)">
                <g id="编组-22" transform="translate(0.000000, 46.000000)">
                    <g id="编组备份-4" transform="translate(24.000000, 579.000000)">
                        <g id="编组-21备份-12" transform="translate(0.000000, 146.000000)">
                            <g id="核酸采样点" transform="translate(0.000000, 6.000000)">
                                <g id="编组">
                                    <path d="M12.009988,0 C17.8244181,-0.00454412441 22.805573,4.16000453 23.8312081,9.88326325 C24.8568433,15.606522 21.6318377,21.2416536 16.1776615,23.2564935 C14.8797023,23.7374731 12.009988,27.4285751 12.009988,27.4285751 C12.009988,27.4285751 9.15839619,23.7404119 7.86680436,23.2653098 C2.40393373,21.260448 -0.833222565,15.6250986 0.187023187,9.89609122 C1.20726894,4.16708387 6.19084649,-0.00428263648 12.009988,0 L12.009988,0 Z" id="椭圆_1259" fill="#9700C9"></path>
                                    <circle id="椭圆_1260" fill="#FFFFFF" fill-rule="nonzero" cx="12" cy="12" r="11.0204082"></circle>
                                </g>
                                <path d="M17.1681624,17.3027375 C17.0186803,18.0912396 16.7303504,18.5450477 16.5061161,18.5450477 C16.281815,18.5450477 15.9934629,18.0912396 15.8422677,17.3027375 L17.1681624,17.3027375 Z M18.6757094,17.3044728 C18.5653387,17.5128 18.4211737,17.704931 18.2485763,17.8776174 C17.9210237,18.205081 17.517006,18.4275577 17.0774364,18.5308092 C17.1646028,18.4062667 17.2500339,18.2406995 17.3301477,18.0235399 C17.4084596,17.8100067 17.4707753,17.56615 17.517006,17.3044728 L18.6757094,17.3044728 Z M15.4951595,17.3044728 C15.5413902,17.5678853 15.6055302,17.8100067 15.6819955,18.0235399 C15.7603963,18.2371399 15.844003,18.4008827 15.9294341,18.5236677 C15.5004544,18.4186809 15.1071378,18.1979617 14.7867935,17.8776174 C14.6141071,17.704931 14.4717664,17.5128 14.3596604,17.3044728 L15.4951595,17.3044728 Z M17.8786497,9.79627414 C17.9945151,9.79627414 18.0915573,9.87679835 18.116919,9.98494064 L18.1233818,10.0410684 L18.1237423,13.2215417 C17.6783011,13.0098718 17.1799795,12.8914286 16.653994,12.8914286 C14.7604463,12.8914286 13.2254226,14.4264523 13.2254226,16.32 C13.2254226,16.9819001 13.4129857,17.5999925 13.7378615,18.1240267 L6.36760047,18.1233818 C6.10774175,18.1233818 5.8585168,18.0201534 5.6747579,17.8363945 C5.52162548,17.6832491 5.42440626,17.484652 5.39625353,17.2723258 L5.3877551,17.1435364 L5.3877551,10.0410684 C5.3877551,9.97614643 5.41356219,9.91389849 5.45940864,9.86798986 C5.49001439,9.83738411 5.5279097,9.81571237 5.5689903,9.80466519 L5.63248713,9.79627414 L17.8786497,9.79627414 Z M18.8287511,15.3325279 C18.9195662,15.5905342 18.9675321,15.8646478 18.9675321,16.1475937 C18.9675321,16.4288266 18.9195662,16.7029179 18.8305755,16.9610354 L17.5704449,16.9610354 C17.6007017,16.7011826 17.6166756,16.4270912 17.6166756,16.1475937 C17.6149402,15.8664721 17.5988774,15.5923585 17.5686206,15.3325279 L18.8287511,15.3325279 Z M17.2233589,15.3325279 C17.2535935,15.5798553 17.2714139,15.8522113 17.2714139,16.1458584 C17.2714139,16.441352 17.2535935,16.7136191 17.2233589,16.9592111 L15.7888066,16.9592111 C15.758572,16.7118837 15.7407516,16.4395277 15.7407516,16.1458584 C15.7407516,15.850387 15.758572,15.57812 15.7888066,15.3325279 L17.2233589,15.3325279 Z M15.4435449,15.3307036 C15.413288,15.5905342 15.3973142,15.8646478 15.3973142,16.1440341 C15.3973142,16.4235316 15.413288,16.697623 15.4435449,16.9574758 L14.2065296,16.9574758 C14.1175389,16.7011826 14.069573,16.4270912 14.069573,16.1458584 C14.069573,15.8646478 14.1175389,15.5887988 14.208354,15.3307036 L15.4435449,15.3307036 Z M10.2862201,15.6741492 L7.34702607,15.6741492 C7.07648696,15.6741492 6.85714226,15.8935095 6.85714226,16.1641108 C6.85714226,16.40459 7.03045165,16.6046316 7.25897312,16.6461164 L7.34702607,16.6540102 L10.2862201,16.6540102 C10.5567593,16.6540102 10.7761195,16.4346499 10.7761195,16.1641108 C10.7761195,15.8935095 10.5567593,15.6741492 10.2862201,15.6741492 Z M16.5061161,13.7466691 C16.7303504,13.7466691 17.0186803,14.2004994 17.1699867,14.9889793 L15.844003,14.9889793 C15.9934629,14.1987641 16.2800797,13.7466691 16.5061161,13.7466691 Z M17.0791717,13.7626652 C17.5188303,13.8659166 17.9228481,14.0883934 18.2503116,14.4158569 C18.4211737,14.5866968 18.5636034,14.7807633 18.6757094,14.987155 L17.517006,14.987155 C17.4707753,14.7237425 17.4067242,14.4817323 17.3301477,14.2681991 C17.2518582,14.0510173 17.1664271,13.8872966 17.0791717,13.7626652 Z M15.9312584,13.7680491 C15.844003,13.8925916 15.7603963,14.0563122 15.6819955,14.2681991 C15.6037059,14.4817323 15.5413902,14.7255668 15.4951595,14.987155 L14.3613957,14.987155 C14.4735018,14.778939 14.6159314,14.5866968 14.7885288,14.4140993 C15.1089621,14.0936883 15.5022787,13.8730359 15.9312584,13.7680491 Z M8.81641323,13.7148783 L7.34702607,13.7148783 C7.07648696,13.7148783 6.85714226,13.9342385 6.85714226,14.2047776 C6.85714226,14.4453121 7.03045165,14.6453476 7.25897312,14.6868303 L7.34702607,14.6947236 L8.81641323,14.6947236 C9.08701454,14.6947236 9.30637478,14.4753789 9.30637478,14.2047776 C9.30637478,13.9342385 9.08701454,13.7148783 8.81641323,13.7148783 Z M11.0209137,5.3877551 C11.0858356,5.3877551 11.148068,5.41356219 11.1939922,5.45942418 C11.2245565,5.49002994 11.2462144,5.52792524 11.257257,5.56900124 L11.2656458,5.63248713 L11.2656458,8.5716812 C11.2656458,8.68765319 11.1852472,8.78461918 11.0770723,8.80995697 L11.0209137,8.81641323 L5.8637404,8.81641323 C5.77161221,8.81684853 5.68756816,8.76552974 5.64567051,8.68391094 C5.61424727,8.62274348 5.61041411,8.55221026 5.63301012,8.48930475 L5.66437288,8.42957121 L7.54367297,5.79766804 C7.70488371,5.57274023 7.95207985,5.42759649 8.22331358,5.39482506 L8.34084769,5.3877551 L11.0209137,5.3877551 Z M15.1702892,5.3877551 C15.4470857,5.38780951 15.708861,5.50479646 15.893084,5.70654432 L15.9671063,5.79810334 L17.846764,8.42921364 C17.9002126,8.50385209 17.9074417,8.60210558 17.8654042,8.68372438 C17.8317866,8.74901942 17.7711952,8.79488266 17.701293,8.81052089 L17.6473965,8.81641374 L12.4902853,8.81641374 C12.37426,8.81641374 12.2772864,8.7360148 12.2519476,8.62783977 L12.2454911,8.5716812 L12.2454911,5.63248713 C12.2454911,5.51662175 12.3260267,5.41957961 12.4341625,5.39421789 L12.4902853,5.3877551 L15.1702892,5.3877551 Z" id="形状结合" fill="#9700C9"></path>
                            </g>
                        </g>
                    </g>
                </g>
            </g>
        </g>
    </g>
</svg>