<?xml version="1.0" encoding="UTF-8"?>
<svg width="51px" height="51px" viewBox="0 0 51 51" version="1.1" xmlns="http://www.w3.org/2000/svg" xmlns:xlink="http://www.w3.org/1999/xlink">
    <title>直播备份</title>
    <defs>
        <polygon id="path-1" points="0 -9.09494702e-13 30 -9.09494702e-13 30 27 0 27"></polygon>
    </defs>
    <g id="页面-1" stroke="none" stroke-width="1" fill="none" fill-rule="evenodd">
        <g id="icon" transform="translate(-1042.000000, -370.000000)">
            <g id="直播备份" transform="translate(1042.500000, 370.500000)">
                <g id="编组" fill-rule="nonzero">
                    <circle id="椭圆_1260" fill="#AD2BC4" cx="25" cy="25" r="25"></circle>
                    <circle id="椭圆_1260" fill="#FFFFFF" cx="25" cy="25" r="22.5"></circle>
                </g>
                <g id="zhibo" transform="translate(10.500000, 10.500000)">
                    <mask id="mask-2" fill="white">
                        <use xlink:href="#path-1"></use>
                    </mask>
                    <g id="Clip-2"></g>
                    <path d="M27.0664349,12.7931021 C28.3679643,12.0032914 30,12.988104 30,14.5612265 L30,22.8658927 C30,24.4422465 28.3646643,25.4270591 27.063025,24.6372484 L24.6300228,23.1732269 L24.6300228,24.1250006 C24.6300228,25.7045856 23.395262,27 21.8800805,27 L2.75338885,27 C1.2414706,27 0,25.7045856 0,24.1250006 L0,12.3205735 C0,10.7409522 1.2349074,9.44553787 2.75338885,9.44553787 L21.8800805,9.44553787 C23.3919988,9.44553787 24.6300228,10.7342718 24.6300228,12.3205735 L24.6300228,14.2538923 L27.063025,12.7898345 L27.0664349,12.7931021 Z M11.0000623,13.6623512 C10.3592525,13.1995892 9.55161275,13.7779147 9.54831282,14.7065612 L9.54831282,21.7322962 C9.54831282,22.6642104 10.3592525,23.245985 11.0000623,22.7799553 L15.8827865,19.2670152 C16.5268596,18.8043984 16.5268596,17.6379082 15.8827865,17.1718786 L10.9967624,13.6623512 L11.0000623,13.6623512 Z M9.54831282,5.40049033 C9.54831282,6.89174172 8.32759512,8.10049258 6.82172674,8.10049258 C5.3158217,8.10049258 4.09499401,6.89174172 4.09499401,5.40049033 C4.09499401,3.90938417 5.3158217,2.70063331 6.82172674,2.70063331 C8.32759512,2.70063331 9.54831282,3.90938417 9.54831282,5.40049033 Z M17.728401,8.09722499 C19.2230863,8.1776438 20.6428998,7.44359986 21.4303733,6.18293077 C22.2178101,4.92240691 22.2471795,3.3365409 21.5069684,2.0482426 C20.7667939,0.759944296 19.3752131,-0.0254732755 17.8784746,0.000631066632 C15.6763941,0.0390432975 13.9001148,1.79663885 13.8595623,3.97716832 C13.8191931,6.15769779 15.5291439,7.97868441 17.728401,8.09722499 Z" id="Fill-1" fill="#AD2BC4" mask="url(#mask-2)"></path>
                </g>
            </g>
        </g>
    </g>
</svg>