<?xml version="1.0" encoding="UTF-8"?>
<svg width="50px" height="56px" viewBox="0 0 50 56" version="1.1" xmlns="http://www.w3.org/2000/svg" xmlns:xlink="http://www.w3.org/1999/xlink">
    <title>切片</title>
    <g id="页面-1" stroke="none" stroke-width="1" fill="none" fill-rule="evenodd">
        <g id="3-11生产企业" transform="translate(-639.000000, -162.000000)">
            <g id="核酸采样点" transform="translate(639.979608, 161.999992)">
                <g id="编组">
                    <path d="M24.5203922,0 C36.3915203,-0.00927758733 46.5613782,8.49334258 48.6553833,20.1783291 C50.7493884,31.8633157 44.165002,43.3683761 33.0293922,47.4820076 C30.3793922,48.4640076 24.5203922,56 24.5203922,56 C24.5203922,56 18.6983922,48.4700076 16.0613922,47.5 C4.90803136,43.4067479 -1.70116274,31.9012429 0.381839006,20.2045196 C2.46484075,8.50779622 12.6396449,-0.00874371614 24.5203922,0 L24.5203922,0 Z" id="椭圆_1259" fill="#07B900"></path>
                    <circle id="椭圆_1260" fill="#FFFFFF" fill-rule="nonzero" cx="24.5" cy="24.5" r="22.5"></circle>
                </g>
                <path d="M35.1833315,10 L35.5607124,10 C36.0587965,10.0171753 36.557906,10.0334717 37.0522913,10.1005616 C37.2715787,10.1337404 37.4991791,10.1592287 37.7013278,10.2570804 C37.9523657,10.4149907 38.0709449,10.7082528 38.1487648,10.9824719 C38.2965677,11.5472431 38.3085795,12.1354518 38.3344706,12.7156771 C38.3551982,13.5426557 38.4111187,14.367913 38.4557598,15.1934634 C38.828563,21.851223 39.2266714,28.5075543 39.7060421,35.1584291 C39.7456662,35.8496531 39.8260496,36.5371784 39.8947142,37.2256558 C39.9423583,37.7696994 39.9862671,38.3197123 39.9191771,38.8640489 C39.8779784,39.1607167 39.8023191,39.4684442 39.6061763,39.7033322 C39.4754388,39.8625242 39.2837638,39.9630859 39.0828968,40 L10.9023815,40 C10.4978278,39.8327879 10.1676516,39.5026117 10,39.098351 L10,24.7724912 C10.1390505,24.4493096 10.389539,24.1908376 10.6540169,23.9656543 C11.2056411,23.503056 11.8479393,23.1691445 12.4395904,22.763602 C13.5349286,22.0493433 14.6182551,21.3169206 15.7224923,20.6162849 C15.9400585,20.4772345 16.1656447,20.348914 16.3707964,20.190967 C16.7980918,19.8795409 17.2205166,19.534936 17.7306491,19.369445 C18.0912574,19.249108 18.5177106,19.2775992 18.8286973,19.5088983 C19.0720448,19.6901363 19.1950552,19.9851196 19.2584097,20.2733646 C19.3527092,20.7302865 19.339965,21.199916 19.3240714,21.6635396 C19.2960563,22.3982695 19.2289663,23.1352699 19.2956168,23.8696703 C19.5711176,23.9025927 19.8531004,23.8676927 20.1128541,23.769841 C20.6444466,23.5747236 21.0577161,23.174601 21.5116351,22.8517125 C22.4344512,22.2336209 23.3505656,21.6054585 24.2726493,20.9860486 C24.75733,20.6548836 25.2584171,20.3471928 25.7327707,20.0005737 C26.1453444,19.7140499 26.5703327,19.4206414 27.0608729,19.286608 C27.3813078,19.1964834 27.7499362,19.2306875 28.0184424,19.4393914 C28.2597757,19.6291988 28.3780986,19.9298949 28.4391827,20.2221682 C28.5325666,20.6846566 28.5202985,21.159999 28.5051007,21.6293721 C28.4813702,22.3546171 28.3985332,23.0823158 28.4699444,23.8077439 C29.2292471,23.8080369 29.9886963,23.8074509 30.7480356,23.8080369 C30.777479,25.1605654 30.7633432,26.5131305 30.7570444,27.865952 C30.8857677,27.865952 31.0143811,27.866245 31.1435439,27.8652562 C31.5068988,23.6300581 31.8942772,19.3969109 32.2580716,15.1617128 C32.3294462,14.1218922 32.3424833,13.0764686 32.4896637,12.0433497 C32.5630524,11.5731342 32.6444612,11.0947889 32.8512974,10.6615975 C32.9438757,10.4776495 33.0668861,10.2896732 33.2605753,10.2008303 C33.3976116,10.1427492 33.5461103,10.1185792 33.6920089,10.093567 C34.1854055,10.0207276 34.6852108,10.0064453 35.1833315,10 L35.1833315,10 Z M17.0900355,27.182748 C16.8068076,27.2445645 16.5641926,27.4639984 16.4773639,27.7409274 C16.4337481,27.8669774 16.4334551,28.0017065 16.4354327,28.1337624 C16.436751,28.6593123 16.4344439,29.1848989 16.436751,29.7108883 C16.4421709,30.0186157 16.6351643,30.3111454 16.9133751,30.4413335 C17.1829067,30.572364 17.5215058,30.5424445 17.7628391,30.3651982 C17.981394,30.2095584 18.1164528,29.945227 18.1114357,29.6769771 C18.1094215,29.0944813 18.1167457,28.511839 18.1077369,27.9298925 C18.0835304,27.4402313 17.5646821,27.0601405 17.0900355,27.182748 L17.0900355,27.182748 Z M23.4913006,27.1831875 C23.1302528,27.2588468 22.8474278,27.5971894 22.8392979,27.9661108 C22.836295,28.535716 22.8390049,29.1047719 22.8379795,29.6742672 C22.8305454,29.9941528 23.0251136,30.3058353 23.3149332,30.4408941 C23.5764448,30.5686286 23.9043138,30.5444587 24.1446218,30.3795171 C24.3749321,30.2260379 24.5192926,29.9532104 24.5136896,29.6756954 C24.5117121,29.0934925 24.5189997,28.5111432 24.5099909,27.9289037 C24.4855279,27.4392425 23.9659472,27.0597376 23.4913006,27.1831875 L23.4913006,27.1831875 Z M33.134269,30.5217169 C32.8690587,30.553614 32.6260042,30.7224008 32.5024078,30.9591564 C32.2992704,31.3218156 32.424295,31.8208885 32.7734775,32.0462183 C32.9726233,32.1906887 33.2263711,32.1996975 33.4629803,32.1899929 C34.3009818,32.1896999 35.1389833,32.1902493 35.9769848,32.1896999 C36.3038651,32.1939846 36.619283,31.9858301 36.7465781,31.6851339 C36.8716026,31.401613 36.8227134,31.049574 36.6199788,30.8143931 C36.4563555,30.6162727 36.1992751,30.5049811 35.9432201,30.5139899 C35.0069275,30.519007 34.0700855,30.5039923 33.134269,30.5217169 L33.134269,30.5217169 Z M17.0897792,32.4118438 C16.7294272,32.4872467 16.4461627,32.824564 16.4371539,33.1931924 C16.4337481,33.7636765 16.436751,34.3341606 16.4357256,34.9050841 C16.4307452,35.1896304 16.5829426,35.4701483 16.8245323,35.621064 C17.0688685,35.7795603 17.39747,35.7947214 17.6555391,35.6599556 C17.9223241,35.5255194 18.1060158,35.2399844 18.1104469,34.940277 C18.1130104,34.3697929 18.1117287,33.7988694 18.1114357,33.2283853 C18.1127174,33.0010779 18.0158911,32.7761875 17.8496678,32.6214265 C17.6518038,32.4305938 17.35726,32.3499174 17.0897792,32.4118438 L17.0897792,32.4118438 Z M23.4915936,32.4121367 C23.1312416,32.4876495 22.8480137,32.824857 22.8392979,33.1939248 C22.8366978,33.7754319 22.8377232,34.3573417 22.838712,34.9392883 C22.8407261,35.3780095 23.2382486,35.7631174 23.6770064,35.7518015 C24.1134572,35.7618356 24.5102838,35.3792912 24.5127008,34.9422912 C24.5129938,34.3483329 24.5182672,33.7539719 24.5102838,33.1600136 C24.4868097,32.66962 23.9669726,32.2885404 23.4915936,32.4121367 L23.4915936,32.4121367 Z M32.1061671,34.0878468 C31.8146262,34.1514943 31.5661152,34.3827934 31.4864642,34.671075 C31.404616,34.9419982 31.4747088,35.252692 31.6653951,35.4621282 C31.8206321,35.6380928 32.05292,35.7430856 32.287808,35.7426462 C33.5180585,35.7433786 34.7478696,35.7433786 35.9779736,35.7426462 C36.3131303,35.746821 36.6352864,35.527497 36.7563193,35.2155215 C36.8658897,34.942987 36.8204063,34.6138362 36.6347371,34.38554 C36.4785113,34.1863943 36.229451,34.0656544 35.9763989,34.0673756 C34.8030942,34.0663868 33.6299361,34.0673756 32.4567779,34.0670826 C32.3397367,34.0670826 32.2211575,34.0616627 32.1061671,34.0878468 Z" id="Fill-1" fill="#07B900"></path>
            </g>
        </g>
    </g>
</svg>