<?xml version="1.0" encoding="utf-8"?>
<!-- Generator: Adobe Illustrator 22.0.0, SVG Export Plug-In . SVG Version: 6.00 Build 0)  -->
<svg version="1.1" id="图层_1" xmlns="http://www.w3.org/2000/svg" xmlns:xlink="http://www.w3.org/1999/xlink" x="0px" y="0px"
	 viewBox="0 0 51 56" style="enable-background:new 0 0 51 56;" xml:space="preserve">
<style type="text/css">
	.st0{fill:#3466E2;}
	.st1{fill:#FFFFFF;}
	.st2{fill:none;}
</style>
<title>icon/map/党组织分布</title>
<g id="编组">
	<path id="椭圆_1259" class="st0" d="M25.5,0c11.9,0,22,8.5,24.1,20.2S45.1,43.4,34,47.5c-2.6,1-8.5,8.5-8.5,8.5s-5.8-7.5-8.5-8.5
		C5.9,43.4-0.7,31.9,1.4,20.2S13.6,0,25.5,0L25.5,0z"/>
	<circle id="椭圆_1260" class="st1" cx="25.5" cy="24.5" r="22.5"/>
</g>
<rect x="66.1" y="9.3" class="st2" width="42.7" height="42.7"/>
<g>
	<g>
		<path class="st0" d="M12.4,12.2c0-0.1,0.1-0.2,0.2-0.2c0.1,0,0.2,0.1,0.2,0.2c0.2,0.7,0.3,1.3,0.5,2c0,0.2,0.2,0.3,0.4,0.3
			c1.2,0,2.4,0,3.6,0c0.2,0,0.4-0.1,0.4-0.3c0.2-0.7,0.4-1.4,0.5-2.1c0-0.2,0.3-0.2,0.4,0c0.2,0.7,0.3,1.3,0.5,2
			c0,0.1,0.1,0.3,0.2,0.3c0.3,0.2,0.7,0.2,1,0.4c0.4,0.2,0.5,0.9,0.1,1.2c-0.3,0.3-0.7,0.2-1,0.2c-0.4,2.1-0.7,4.3-1.1,6.4
			c0,0.2-0.2,0.4-0.4,0.3h-4.9c-0.2,0-0.4-0.2-0.4-0.4c-0.4-2.1-0.7-4.2-1.1-6.3c-0.3,0-0.7,0.1-1-0.2c-0.4-0.3-0.3-1.1,0.1-1.3
			c0.3-0.2,0.7-0.2,1-0.4c0.1-0.1,0.2-0.2,0.2-0.3C12.1,13.5,12.2,12.8,12.4,12.2L12.4,12.2z M12.4,12.2"/>
		<path class="st0" d="M20.6,17.8c4.8,0,9.7,0,14.5,0c0.5,0,1,0.1,1.4,0.4c0.5,0.4,0.8,1,0.8,1.6c0,1.7,0,3.5,0,5.2
			c0,0.5,0.2,1,0.6,1.4c0.6,0.7,1.2,1.5,1.8,2.2c0.3,0.4,0.4,1,0.4,1.6c0.2,2.5,0.4,5.1,0.6,7.6c0.1,0.5-0.4,1-0.9,1
			c-0.5,0-0.9-0.3-1-0.8c-0.2-1.4-0.5-2.7-0.7-4.1c-0.1-0.3-0.1-0.7-0.2-1c-0.3-0.6-0.9-1.1-1.5-1.3c-0.7-0.3-1.4-0.3-2.1-0.5
			c-0.3-0.1-0.6-0.2-0.8-0.4c-0.3-0.3-0.3-0.7-0.5-1.1c-0.2-0.3-0.4-0.8-0.7-1c-0.4-0.2-0.8-0.3-1.2-0.1c-2,0.8-4,1.6-6,2.3
			c-0.3,0.1-0.5,0.4-0.5,0.8c0,2.1,0,4.1,0,6.2c0,0.5-0.5,0.9-1,0.9c-0.5,0-1-0.4-1-0.9c0-1.4,0-2.8,0-4.2c0-0.4,0-0.9-0.2-1.3
			c-0.2-0.6-0.9-0.9-1.5-0.9c-1,0-2.1,0-3.1,0c-1,0-2-0.8-2.3-1.8c-0.5-1.8-1.1-3.7-1.6-5.5c1.4,0,2.8,0,4.2,0
			c0.8,0,1.5-0.6,1.6-1.3C20,21.2,20.3,19.5,20.6,17.8L20.6,17.8z M20.6,17.8"/>
		<path class="st0" d="M32.1,31.9c0.1-0.2,0.2-0.5,0.3-0.7c0.4,0.5,0.9,1,1.3,1.5c-0.7,1.8-1.4,3.7-2.1,5.5
			c-0.2,0.5-0.8,0.7-1.2,0.5C30,38.5,29.8,38,30,37.5C30.7,35.7,31.4,33.8,32.1,31.9L32.1,31.9z M18.5,32.5c0.7,0,1.3,0,2,0
			c-0.7,1.9-1.3,3.8-2,5.7c-0.2,0.6-1.1,0.8-1.5,0.3c-0.3-0.3-0.3-0.7-0.2-1.1C17.4,35.8,17.9,34.1,18.5,32.5L18.5,32.5z M18.5,32.5
			"/>
	</g>
</g>
</svg>
