<?xml version="1.0" encoding="UTF-8"?>
<svg width="24px" height="28px" viewBox="0 0 24 28" version="1.1" xmlns="http://www.w3.org/2000/svg" xmlns:xlink="http://www.w3.org/1999/xlink">
    <title>icon/map/market</title>
    <g id="页面-1" stroke="none" stroke-width="1" fill="none" fill-rule="evenodd">
        <g id="3-3图例" transform="translate(-1151.000000, -483.000000)">
            <g id="编组-23" transform="translate(1127.000000, 74.000000)">
                <g id="编组-22" transform="translate(0.000000, 46.000000)">
                    <g id="编组备份-2" transform="translate(24.000000, 317.000000)">
                        <g id="编组-21备份-3" transform="translate(0.000000, 40.000000)">
                            <g id="核酸采样点" transform="translate(0.000000, 6.000000)">
                                <g id="编组">
                                    <path d="M12.009988,0 C17.8244181,-0.00454412441 22.805573,4.16000453 23.8312081,9.88326325 C24.8568433,15.606522 21.6318377,21.2416536 16.1776615,23.2564935 C14.8797023,23.7374731 12.009988,27.4285751 12.009988,27.4285751 C12.009988,27.4285751 9.15839619,23.7404119 7.86680436,23.2653098 C2.40393373,21.260448 -0.833222565,15.6250986 0.187023187,9.89609122 C1.20726894,4.16708387 6.19084649,-0.00428263648 12.009988,0 L12.009988,0 Z" id="椭圆_1259" fill="#07B900"></path>
                                    <circle id="椭圆_1260" fill="#FFFFFF" fill-rule="nonzero" cx="12" cy="12" r="11.0204082"></circle>
                                </g>
                                <path d="M13.7981293,6.36862335 C14.0420335,6.38333288 14.3431596,6.51919663 14.4626362,7.06252888 C15.0158089,7.01019648 15.2384364,7.25729216 15.3268369,7.48321346 C15.3562355,7.55847965 15.3677535,7.63863537 15.3644802,7.71887293 C15.3448197,8.04780191 15.1696351,8.32112516 14.893059,8.45209937 C14.7075872,8.53933709 14.4993555,8.55160356 14.3100975,8.49268736 L14.1991534,8.44882604 L13.5559027,9.22129155 C13.6625549,9.42472331 13.6813832,9.67625301 13.6000841,9.91195334 L13.5510336,10.0281884 L13.5232308,10.0822189 C13.4872105,10.1541913 13.4570185,10.2298643 13.4340976,10.3077166 L13.4053499,10.4259392 L13.3300632,10.7941891 L13.3423357,10.8000964 L13.3545928,10.8072006 L14.6656033,10.2327717 C14.7670493,10.1880225 14.863449,10.1345717 14.9542566,10.0728679 L15.086206,9.97417844 L15.1467831,9.92509892 C15.3930656,9.72315733 15.7020487,9.64528558 15.9848934,9.69364915 L16.1042533,9.72211139 L16.9847592,8.68121217 C16.7769026,8.47167799 16.6770865,8.17552325 16.7180031,7.87599288 C16.7670622,7.51428966 17.0191088,7.2163755 17.3889749,7.07564267 C17.4740815,7.04286843 17.5690081,7.02817935 17.6606819,7.03472602 C17.9552409,7.05438647 18.3251684,7.22946883 18.4560812,7.9348924 C19.169729,7.85473668 19.4446276,8.15418521 19.5493947,8.43076133 C19.5821689,8.51586798 19.596858,8.61081507 19.5903113,8.70246838 C19.5641042,9.09854159 19.3513581,9.42587482 19.0207515,9.57810523 C18.7780573,9.69031623 18.5040844,9.69553937 18.2617552,9.59886357 L18.1435189,9.54205766 L17.2285816,10.6239554 C17.3717899,10.873102 17.3984937,11.1912146 17.2910954,11.4861375 L17.2368058,11.6108446 L17.2024358,11.6779684 C17.1522584,11.7750909 17.111519,11.8772961 17.079751,11.9826383 L17.0387692,12.1427611 L16.7375817,13.6174382 L16.819415,13.7581506 C17.1696821,14.3604847 17.5330629,14.9839726 17.5330629,15.6386391 C17.5330629,16.3751389 17.3661025,16.8842034 17.0092888,17.2409557 C16.3582884,17.8905518 15.1382418,17.9646694 13.0312066,17.9686281 L12.4343304,17.9683479 L12.1189507,17.9676151 C11.8325342,17.9676151 11.5313262,17.9660193 11.215511,17.9660193 C10.6214217,17.9660193 10.0812605,17.972566 9.59193819,17.9791331 C9.18766119,17.9856798 8.81284418,17.9905488 8.47082187,17.9905488 C6.96177475,17.9905488 6.05176791,17.8988955 5.49045279,17.3441271 C5.07473959,16.9349605 4.89795918,16.3244841 4.89795918,15.3031635 C4.89795918,12.7892647 6.56083246,10.9708672 9.17127407,10.4635621 C9.37098826,10.1198622 9.54607062,9.92182558 9.90450051,9.62718476 C9.98851604,9.55845842 10.0819788,9.49555133 10.1839431,9.43942126 L10.3431475,9.36042863 L11.4446238,8.86781257 C11.5199105,8.83398814 11.5908236,8.79433536 11.6573874,8.74838141 L11.7539742,8.67466551 L11.8014375,8.63534461 C11.9963995,8.47266583 12.2418944,8.40374799 12.4719722,8.42959599 L12.5854211,8.45042179 L13.2024442,7.71232627 C13.0501933,7.5404354 12.9782005,7.30970639 13.0092767,7.07732025 C13.0485158,6.77451655 13.2563928,6.52406572 13.5624698,6.40458909 C13.6361403,6.37519047 13.7179736,6.36207668 13.7981293,6.36862335 Z M9.31208874,11.9905102 C9.28091025,11.9987345 6.17781166,12.7712 6.90127948,16.2081989 C6.93564947,16.3637231 7.07308851,16.4717636 7.22693513,16.4717636 C7.24986892,16.4717636 7.27272087,16.470086 7.2940589,16.4635393 C7.47411264,16.425896 7.58863835,16.2491156 7.55099503,16.0691437 C6.96345234,13.2769912 9.36114781,12.6615638 9.46423732,12.6370343 C9.6426953,12.5945219 9.75392723,12.4160639 9.71141482,12.2376877 C9.67049817,12.0593116 9.49044443,11.9479978 9.31208874,11.9905102 Z M15.8211101,10.3424283 C15.7584769,10.3424283 15.6921957,10.3608523 15.6298359,10.3969667 L15.5690635,10.4389507 L15.5100821,10.4864345 C15.3933469,10.5824932 15.268592,10.6668588 15.1368055,10.7395919 L14.9339756,10.8399748 L13.5166636,11.4618671 C13.3661108,11.5273951 13.2335204,11.6075508 13.1238024,11.6959512 C12.3791602,12.2982648 12.0321665,13.2704445 12.2809398,14.0625501 C12.3873026,14.4029971 12.5854211,14.6959603 12.8504996,14.9119798 C13.1500095,15.1542064 13.5248265,15.2867763 13.9323973,15.2966168 C14.7212295,15.3064368 15.5281468,14.781067 15.932342,13.9676234 C15.9749362,13.8825168 16.0093062,13.7876515 16.0387253,13.6844802 C16.032165,13.6332252 16.038007,13.5812247 16.0552268,13.532837 L16.0894619,13.4635098 L16.385719,12.0085749 C16.4201196,11.841589 16.471057,11.6792867 16.5371589,11.5250254 L16.6082647,11.3735689 L16.6443122,11.3047676 C16.7097789,11.1765621 16.7082019,11.0347177 16.6452286,10.9417341 L16.6001222,10.8923072 L15.9815033,10.393165 C15.9373134,10.358795 15.8816053,10.3424283 15.8211101,10.3424283 Z M12.2751149,9.11533378 L12.2269093,9.14768249 L12.1811236,9.18692156 C12.0883655,9.26439042 11.9876242,9.33314859 11.8813,9.39268687 L11.7179266,9.47501572 L10.613177,9.96761132 C10.501945,10.0167727 10.4053204,10.0756517 10.3251646,10.1411184 C10.2335113,10.2147888 10.1598204,10.280235 10.09597,10.3424283 C10.2989575,10.3277188 10.5068141,10.3194741 10.7179441,10.3194741 C11.2853558,10.3194741 11.8402083,10.3808633 12.3768781,10.503618 L12.696653,10.5846345 L12.7555525,10.2966221 C12.7785204,10.1787822 12.8130631,10.0623879 12.8577866,9.9498641 L12.9323329,9.78428425 L12.95854,9.7303561 C12.993892,9.65963576 12.9967725,9.58155696 12.9688471,9.53052898 L12.9421529,9.49786767 L12.456104,9.11163492 C12.412896,9.07762499 12.3413933,9.08023711 12.2751149,9.11533378 Z" id="形状结合" fill="#07B900"></path>
                            </g>
                        </g>
                    </g>
                </g>
            </g>
        </g>
    </g>
</svg>
