<?xml version="1.0" encoding="UTF-8"?>
<svg width="24px" height="28px" viewBox="0 0 24 28" version="1.1" xmlns="http://www.w3.org/2000/svg" xmlns:xlink="http://www.w3.org/1999/xlink">
    <title>icon/map/核酸检测点周边</title>
    <g id="页面-1" stroke="none" stroke-width="1" fill="none" fill-rule="evenodd">
        <g id="3-3图例" transform="translate(-942.000000, -518.000000)">
            <g id="编组-22备份" transform="translate(922.000000, 422.000000)">
                <g id="编组" transform="translate(20.000000, 10.000000)">
                    <g id="编组-21备份-4" transform="translate(0.000000, 80.000000)">
                        <g id="核酸检测点" transform="translate(0.000000, 6.000000)">
                            <g id="编组">
                                <path d="M12.009988,0 C17.8244181,-0.00454412441 22.805573,4.16000453 23.8312081,9.88326325 C24.8568433,15.606522 21.6318377,21.2416536 16.1776615,23.2564935 C14.8797023,23.7374731 12.009988,27.4285751 12.009988,27.4285751 C12.009988,27.4285751 9.15839619,23.7404119 7.86680436,23.2653098 C2.40393373,21.260448 -0.833222565,15.6250986 0.187023187,9.89609122 C1.20726894,4.16708387 6.19084649,-0.00428263648 12.009988,0 L12.009988,0 Z" id="椭圆_1259" fill="#14A4C1"></path>
                                <circle id="椭圆_1260" fill="#FFFFFF" fill-rule="nonzero" cx="12" cy="12" r="11.0204082"></circle>
                            </g>
                            <path d="M12,4.40816327 C16.0576022,4.40816327 19.3469388,7.6974998 19.3469388,11.755102 C19.3469388,15.8127043 16.0576022,19.1020408 12,19.1020408 C7.94239776,19.1020408 4.65306122,15.8127043 4.65306122,11.755102 C4.65306122,7.6974998 7.94239776,4.40816327 12,4.40816327 Z M12,5.3877551 C8.48341139,5.3877551 5.63265306,8.23851343 5.63265306,11.755102 C5.63265306,15.2716907 8.48341139,18.122449 12,18.122449 C15.5165886,18.122449 18.3673469,15.2716907 18.3673469,11.755102 C18.3673469,8.23851343 15.5165886,5.3877551 12,5.3877551 Z M14.8024317,7.34693878 L14.8024317,8.13810192 L14.0072245,8.13793878 L14.0072813,15.0660539 C14.0086314,16.2106362 13.0764104,17.1428571 11.9318281,17.1428571 C10.7872623,17.1428571 9.85502485,16.2119218 9.85502485,15.0660539 L9.85422449,8.13793878 L9.06122449,8.13810192 L9.06122449,7.34693878 L14.8024317,7.34693878 Z M11.9463163,15.5763706 C11.8012532,15.5763706 11.6839468,15.693677 11.6839468,15.8387401 C11.6839468,15.9838031 11.8012532,16.1011755 11.9463163,16.1011755 C12.0913793,16.1011755 12.2087517,15.9838031 12.2087517,15.8387401 C12.2087517,15.693677 12.0913793,15.5763706 11.9463163,15.5763706 Z M12.5779282,14.152244 C12.3669514,14.152244 12.1955492,14.3236956 12.1955492,14.534623 C12.1955492,14.7456163 12.3669514,14.917068 12.5779282,14.917068 C12.7889215,14.917068 12.9603237,14.7456163 12.9603237,14.534623 C12.9603237,14.3236956 12.7889215,14.152244 12.5779282,14.152244 Z M11.4083089,12.9338857 C11.1248252,12.9338857 10.8940693,13.1646416 10.8940693,13.4481252 C10.8940693,13.7316089 11.1235396,13.9623648 11.4083089,13.9623648 C11.6931606,13.9623648 11.9226308,13.7316089 11.9226308,13.4481252 C11.9226308,13.1646416 11.6931606,12.9338857 11.4083089,12.9338857 Z M13.3492245,8.13793878 L10.5142245,8.13793878 L10.5142245,12.4019388 L13.3492245,11.6529388 L13.3492245,11.0279388 L12.5779282,11.0284681 L12.5779282,10.4179704 L13.3492245,10.4179388 L13.3492245,10.1179388 L12.5779282,10.118647 L12.5779282,9.50814926 L13.3492245,9.50793878 L13.3492245,9.19493878 L12.5779282,9.19562333 L12.5779282,8.58512558 L13.3492245,8.58493878 L13.3492245,8.13793878 Z" id="形状结合" fill="#14A4C1" fill-rule="nonzero"></path>
                        </g>
                    </g>
                </g>
            </g>
        </g>
    </g>
</svg>