<?xml version="1.0" encoding="UTF-8"?>
<svg width="24px" height="28px" viewBox="0 0 24 28" version="1.1" xmlns="http://www.w3.org/2000/svg" xmlns:xlink="http://www.w3.org/1999/xlink">
    <title>切片</title>
    <g id="页面-1" stroke="none" stroke-width="1" fill="none" fill-rule="evenodd">
        <g id="3-3图例" transform="translate(-1151.000000, -745.000000)">
            <g id="编组-23" transform="translate(1127.000000, 74.000000)">
                <g id="编组-22" transform="translate(0.000000, 46.000000)">
                    <g id="编组备份-4" transform="translate(24.000000, 579.000000)">
                        <g id="编组-21备份-8" transform="translate(0.000000, 40.000000)">
                            <g id="核酸采样点" transform="translate(0.000000, 6.000000)">
                                <g id="编组">
                                    <path d="M11.9997251,0 C17.8091866,-0.00454024132 22.7860849,4.15644968 23.8108436,9.87481771 C24.8356024,15.5931857 21.6133526,21.2235019 16.1638372,23.2366201 C14.8669872,23.7171887 11.9997251,27.4051366 11.9997251,27.4051366 C11.9997251,27.4051366 9.15057007,23.720125 7.86008194,23.2454289 C2.40187949,21.2422803 -0.832510551,15.6117465 0.18686337,9.88763471 C1.20623729,4.16352297 6.18555622,-0.00427897683 11.9997251,0 L11.9997251,0 Z" id="椭圆_1259" fill="#14A4C1"></path>
                                    <circle id="椭圆_1260" fill="#FFFFFF" fill-rule="nonzero" cx="11.9897456" cy="11.9897456" r="11.0109909"></circle>
                                </g>
                                <g id="caiyangrenwu" transform="translate(4.893774, 6.361906)" fill="#14A4C1">
                                    <path d="M10.7290866,3.42564161 C11.0388799,3.42564161 11.286651,3.67341269 11.286651,3.95219485 L11.286651,3.95219485 L11.286651,4.04516005 C11.286651,4.32385147 11.0388799,4.57169061 10.7290866,4.57169061 L10.7290866,4.57169061 L9.70699123,4.57169061 L9.70699123,10.8282847 C9.70699123,12.1291622 8.77777029,13.2131891 7.60080094,13.2131891 C6.45482,13.2131891 5.49467871,12.1291622 5.49467871,10.8282847 L5.49467871,10.8282847 L5.49467871,4.57169061 L4.47249257,4.57169061 C4.16279006,4.57169061 3.91501898,4.35486256 3.91501898,4.04516005 L3.91501898,4.04516005 L3.91501898,3.98320594 C3.91501898,3.67341269 4.16279006,3.42564161 4.47249257,3.42564161 L4.47249257,3.42564161 Z M7.38404095,10.673388 C7.26015541,10.673388 7.16719021,10.7663532 7.16719021,10.8902388 C7.16719021,11.0141243 7.26015541,11.1070668 7.38404095,11.1070668 C7.4769154,11.1070668 7.60080094,11.0141243 7.60080094,10.8902388 C7.60080094,10.7663532 7.50792649,10.673388 7.38404095,10.673388 Z M7.817629,9.96101784 C7.69374346,9.96101784 7.60080094,10.053983 7.60080094,10.1778459 C7.60080094,10.3017314 7.69374346,10.3946059 7.817629,10.3946059 C7.94151454,10.3946059 8.03447973,10.2707203 8.03447973,10.1778459 C8.03447973,10.053983 7.94151454,9.96101784 7.817629,9.96101784 Z M7.04330467,9.46547568 C6.91941913,9.46547568 6.82647662,9.55835014 6.82647662,9.68223568 C6.82647662,9.80612122 6.91941913,9.89906373 7.04330467,9.89906373 C7.16719021,9.89906373 7.26015541,9.80612122 7.26015541,9.68223568 C7.26015541,9.55835014 7.16719021,9.46547568 7.04330467,9.46547568 Z M8.12735419,9.09372832 C7.97252562,9.09372832 7.84864008,9.21761386 7.84864008,9.37251048 C7.84864008,9.52742979 7.97252562,9.65131533 8.12735419,9.65131533 C8.28225081,9.65131533 8.40613635,9.52742979 8.40613635,9.37251048 C8.40613635,9.21761386 8.28225081,9.09372832 8.12735419,9.09372832 Z M7.60080094,8.22655223 C7.38404095,8.22655223 7.22914433,8.38135811 7.22914433,8.59820885 C7.22914433,8.78402581 7.41496129,8.96984278 7.60080094,8.96984278 C7.817629,8.96984278 7.97252562,8.8150369 7.97252562,8.59820885 C7.97252562,8.38135811 7.817629,8.22655223 7.60080094,8.22655223 Z M8.46806778,4.57169061 L6.70259108,4.57169061 L6.70259108,6.92567466 L8.46806778,6.92567466 L8.46806778,4.57169061 Z M0.736231785,3.14127261e-14 L3.06056654,0.153812469 C3.47199695,0.153812469 3.65266556,0.316184437 3.72961488,0.479762777 L3.72961488,0.479762777 L14.4536184,0.479762777 C14.5793752,0.479762777 14.6813212,0.581708781 14.6813212,0.70746555 C14.6813212,0.833222319 14.5793752,0.935168323 14.4536184,0.935168323 L14.4536184,0.935168323 L3.75161681,0.935168323 C3.68934502,1.11333802 3.51600081,1.31115436 3.05450596,1.31238945 L3.05450596,1.31238945 L0.743527465,1.47229123 C0.330861967,1.47229123 0,1.14263564 0,0.736145615 C0,0.329626871 0.330861967,3.14127261e-14 0.736231785,3.14127261e-14 L0.736231785,3.14127261e-14 Z M0.896133562,0.377192408 L0.896133562,1.0950701 L3.04721028,0.946169289 C3.24738191,0.946169289 3.33895131,0.907019636 3.38169136,0.858219004 C3.41825593,0.816685329 3.41825593,0.770354887 3.41825593,0.736145615 C3.41825593,0.703257609 3.41825593,0.655577179 3.38169136,0.612837132 C3.34018641,0.562772681 3.24738191,0.520032634 3.04721028,0.520032634 L3.04721028,0.520032634 L0.896133562,0.377192408 Z" id="形状结合"></path>
                                </g>
                            </g>
                        </g>
                    </g>
                </g>
            </g>
        </g>
    </g>
</svg>