<?xml version="1.0" encoding="UTF-8"?>
<svg width="24px" height="28px" viewBox="0 0 24 28" version="1.1" xmlns="http://www.w3.org/2000/svg" xmlns:xlink="http://www.w3.org/1999/xlink">
    <title>icon/map/常规核酸采样点</title>
    <g id="页面-1" stroke="none" stroke-width="1" fill="none" fill-rule="evenodd">
        <g id="3-3图例" transform="translate(-1151.000000, -785.000000)">
            <g id="编组-23" transform="translate(1127.000000, 74.000000)">
                <g id="编组-22" transform="translate(0.000000, 46.000000)">
                    <g id="编组备份-4" transform="translate(24.000000, 579.000000)">
                        <g id="编组-21备份-10" transform="translate(0.000000, 80.000000)">
                            <g id="编组" transform="translate(0.000000, 6.000000)">
                                <g id="核酸采样点" transform="translate(0.000000, -0.000000)">
                                    <g id="编组">
                                        <path d="M12.009988,0 C17.8244181,-0.00454412441 22.805573,4.16000453 23.8312081,9.88326325 C24.8568433,15.606522 21.6318377,21.2416536 16.1776615,23.2564935 C14.8797023,23.7374731 12.009988,27.4285751 12.009988,27.4285751 C12.009988,27.4285751 9.15839619,23.7404119 7.86680436,23.2653098 C2.40393373,21.260448 -0.833222565,15.6250986 0.187023187,9.89609122 C1.20726894,4.16708387 6.19084649,-0.00428263648 12.009988,0 L12.009988,0 Z" id="椭圆_1259" fill="#ffc800"></path>
                                        <circle id="椭圆_1260" fill="#FFFFFF" fill-rule="nonzero" cx="12" cy="12" r="11.0204082"></circle>
                                    </g>
                                    <g id="编组-2" transform="translate(4.897959, 5.877551)" fill="#ffc800">
                                        <path d="M3.73280467,0.4801731 C3.65578954,0.316454857 3.47496641,0.153944019 3.06318413,0.153944019 L0.736861455,0 C0.33114494,0 0,0.329908788 0,0.736775212 C0,1.14361289 0.33114494,1.47355042 0.736861455,1.47355042 L0.744163375,1.47355042 L3.05711836,1.31351189 C3.51900791,1.31227574 3.69250038,1.11429022 3.75482542,0.935968136 L14.46598,0.935968136 C14.5918444,0.935968136 14.6938776,0.833934942 14.6938776,0.708070618 C14.6938776,0.582206294 14.5918444,0.4801731 14.46598,0.4801731 L3.73280467,0.4801731 L3.73280467,0.4801731 Z M3.04981644,0.946978511 L0.89689999,1.09600667 L0.89689999,0.377515006 L3.04981644,0.520477397 C3.25015927,0.520477397 3.34304314,0.563253999 3.38458359,0.613361268 C3.42117943,0.656137869 3.42117943,0.703859077 3.42117943,0.736775212 C3.42117943,0.771013742 3.42117943,0.817383808 3.38458359,0.858953005 C3.34180699,0.907795374 3.25015927,0.946978511 3.04981644,0.946978511 Z" id="形状结合"></path>
                                        <path d="M12.862408,13.713971 L2.84147689,13.713971 C2.63621245,13.7145914 2.46507074,13.5569008 2.44897959,13.3522436 L2.44897959,12.8211433 C2.44897959,12.7170326 2.49033609,12.6172121 2.56396728,12.5436337 C2.63754568,12.4699893 2.73737944,12.428646 2.84147689,12.428646 L3.50340523,12.428646 L3.50340523,3.962405 C3.52006399,3.39211304 3.98732771,2.93851162 4.55783087,2.93877551 L9.0372687,2.93877551 C9.61957291,2.93877551 10.0916811,3.41083105 10.0916811,3.99318806 L10.0916811,12.459429 L10.6227418,12.459429 L10.6227418,8.21089062 C10.622227,8.1358206 10.6539869,8.06414304 10.7099297,8.01407436 C10.7658857,7.96400567 10.8406522,7.94039036 10.9152074,7.94926095 L11.68485,7.94926095 C12.0696648,7.94926095 12.2158975,8.34944082 12.2158975,8.71889042 L12.2158975,12.413228 L12.8778259,12.413228 C13.094601,12.413228 13.2703232,12.5890031 13.2703232,12.8057781 L13.2703232,13.3368257 C13.2663499,13.4409363 13.2210861,13.5392124 13.1445641,13.609966 C13.068042,13.6807063 12.9665714,13.7181423 12.862408,13.713971 Z M7.47483005,11.8668022 C7.47483005,11.9362093 7.50241865,12.0027256 7.55145771,12.0518174 C7.60054958,12.1008961 7.66711862,12.1284847 7.73651252,12.1284847 L7.99820819,12.1284847 C8.06761529,12.1284847 8.13418434,12.1008961 8.183263,12.0518174 C8.23230206,12.0027256 8.25989066,11.9362093 8.25989066,11.8668022 L8.25989066,11.0971067 C8.25989066,11.0277128 8.23230206,10.9611966 8.183263,10.9121047 C8.13418434,10.8630129 8.06761529,10.8354243 7.99820819,10.8354243 L7.72110779,10.8354243 C7.65175349,10.8354243 7.58518444,10.8630129 7.53609258,10.9121047 C7.48700072,10.9611966 7.45946492,11.0277128 7.45946492,11.0971067 L7.47483005,11.8668022 Z M7.47483005,10.0195938 C7.47483005,10.0889877 7.50241865,10.1555567 7.55145771,10.2046486 C7.60054958,10.2537405 7.66711862,10.2812763 7.73651252,10.2812763 L7.99820819,10.2812763 C8.06761529,10.2812763 8.13418434,10.2537405 8.183263,10.2046486 C8.23230206,10.1555567 8.25989066,10.0889877 8.25989066,10.0195938 L8.25989066,9.24995113 C8.25989066,9.18054402 8.23230206,9.11397498 8.183263,9.06493592 C8.13418434,9.01585726 8.06761529,8.98826866 7.99820819,8.98826866 L7.72110779,8.98826866 C7.65175349,8.98826866 7.58518444,9.01585726 7.53609258,9.06493592 C7.48700072,9.11397498 7.45946492,9.18054402 7.45946492,9.24995113 L7.47483005,10.0195938 Z M5.36597878,11.8668022 C5.36597878,11.9362093 5.39356737,12.0027256 5.44260643,12.0518174 C5.4916983,12.1008961 5.55826734,12.1284847 5.62767444,12.1284847 L5.88935691,12.1284847 C5.95876401,12.1284847 6.02533306,12.1008961 6.07437212,12.0518174 C6.12345078,12.0027256 6.15103938,11.9362093 6.15103938,11.8668022 L6.15103938,11.0971067 C6.15103938,11.0277128 6.12345078,10.9611966 6.07437212,10.9121047 C6.02533306,10.8630129 5.95876401,10.8354243 5.88935691,10.8354243 L5.61225651,10.8354243 C5.54284941,10.8354243 5.47628036,10.8630129 5.4272413,10.9121047 C5.37814944,10.9611966 5.35056084,11.0277128 5.35056084,11.0971067 L5.36597878,11.8668022 Z M5.36597878,10.0195938 C5.36597878,10.0889877 5.39356737,10.1555567 5.44260643,10.2046486 C5.4916983,10.2537405 5.55826734,10.2812763 5.62767444,10.2812763 L5.88935691,10.2812763 C5.95876401,10.2812763 6.02533306,10.2537405 6.07437212,10.2046486 C6.12345078,10.1555567 6.15103938,10.0889877 6.15103938,10.0195938 L6.15103938,9.24995113 C6.15103938,9.18054402 6.12345078,9.11397498 6.07437212,9.06493592 C6.02533306,9.01585726 5.95876401,8.98826866 5.88935691,8.98826866 L5.61225651,8.98826866 C5.54284941,8.98826866 5.47628036,9.01585726 5.4272413,9.06493592 C5.37814944,9.11397498 5.35056084,9.18054402 5.35056084,9.24995113 L5.36597878,10.0195938 Z M8.52925569,5.40165857 C8.52925569,5.18488348 8.35353349,5.00914807 8.13675839,5.00914807 L7.45946492,5.00914807 L7.45946492,4.38575137 C7.45946492,4.16892347 7.28368991,3.99318806 7.06691482,3.99318806 L6.53585411,3.99318806 C6.43175666,3.99318806 6.3319229,4.03454456 6.2582917,4.10817575 C6.18466051,4.18176735 6.14330401,4.28164071 6.14330401,4.38575137 L6.14330401,5.0476137 L5.48144168,5.0476137 C5.26466658,5.0476137 5.08887837,5.22334911 5.08887837,5.44017701 L5.08887837,5.97122451 C5.08887837,6.1879996 5.26466658,6.36372181 5.48144168,6.36372181 L6.14330401,6.36372181 L6.14330401,7.02565015 C6.14330401,7.24242524 6.31909222,7.41814745 6.53585411,7.41814745 L7.06691482,7.41814745 C7.28368991,7.41814745 7.45946492,7.24242524 7.45946492,7.02565015 L7.45946492,6.36372181 L8.12134046,6.36372181 C8.22545111,6.36372181 8.32527167,6.32237852 8.39890287,6.24878692 C8.47253406,6.17515573 8.51389056,6.07533516 8.51389056,5.97122451 L8.52925569,5.40165857 Z" id="Fill-1"></path>
                                    </g>
                                </g>
                            </g>
                        </g>
                    </g>
                </g>
            </g>
        </g>
    </g>
</svg>