<?xml version="1.0" encoding="UTF-8"?>
<svg width="49px" height="56px" viewBox="0 0 49 56" version="1.1" xmlns="http://www.w3.org/2000/svg" xmlns:xlink="http://www.w3.org/1999/xlink">
    <title>icon/map/大规模核酸采样点</title>
    <g id="icon/map/大规模核酸采样点" stroke="none" stroke-width="1" fill="none" fill-rule="evenodd">
        <g id="核酸采样点" transform="translate(0.000000, -0.000000)">
            <g id="编组">
                <path d="M24.5203922,0 C36.3915203,-0.00927758733 46.5613782,8.49334258 48.6553833,20.1783291 C50.7493884,31.8633157 44.165002,43.3683761 33.0293922,47.4820076 C30.3793922,48.4640076 24.5203922,56 24.5203922,56 C24.5203922,56 18.6983922,48.4700076 16.0613922,47.5 C4.90803136,43.4067479 -1.70116274,31.9012429 0.381839006,20.2045196 C2.46484075,8.50779622 12.6396449,-0.00874371614 24.5203922,0 L24.5203922,0 Z" id="椭圆_1259" fill="#14A4C1"></path>
                <circle id="椭圆_1260" fill="#FFFFFF" fill-rule="nonzero" cx="24.5" cy="24.5" r="22.5"></circle>
            </g>
            <g id="caiyangrenwu" transform="translate(10.000000, 12.000000)" fill="#14A4C1">
                <path d="M7.62114288,0.980353412 C7.46390365,0.646095333 7.09472309,0.314302372 6.25400092,0.314302372 L1.50442547,0 C0.676087586,0 0,0.673563776 0,1.50424939 C0,2.33487631 0.676087586,3.00849878 1.50442547,3.00849878 L1.51933356,3.00849878 L6.24161665,2.68175344 C7.18464115,2.67922963 7.53885493,2.2750092 7.66610191,1.91093494 L29.5347092,1.91093494 C29.7916822,1.91093494 30,1.70261717 30,1.44564418 C30,1.18867118 29.7916822,0.980353412 29.5347092,0.980353412 L7.62114288,0.980353412 L7.62114288,0.980353412 Z M6.22670856,1.93341446 L1.83117081,2.23768029 L1.83117081,0.770759804 L6.22670856,1.06264135 C6.63574184,1.06264135 6.82537975,1.14997691 6.9101915,1.25227925 C6.98490801,1.33961482 6.98490801,1.43704562 6.98490801,1.50424939 C6.98490801,1.57415306 6.98490801,1.66882527 6.9101915,1.75369572 C6.82285594,1.85341556 6.63574184,1.93341446 6.22670856,1.93341446 Z" id="Fill-9"></path>
                <path d="M15.3513358,7 L4,14.8016588 L4,16.9276357 L6.12600504,16.9276357 L6.12600504,26.8554969 L23.8740232,26.8554969 L23.8740232,16.9276357 L26,16.9276357 L26,14.8016588 L15.3513358,7 Z M20.4209533,20.2703376 L16.48059,20.2703376 L16.48059,24.210701 L13.5125014,24.210701 L13.5125014,20.2703376 L9.59768569,20.2703376 L9.59768569,17.3280222 L13.538049,17.3280222 L13.538049,13.3876589 L16.48059,13.3876589 L16.48059,17.328135 L20.4209533,17.328135 L20.4209533,20.2703376 Z" id="yiyuan"></path>
            </g>
        </g>
    </g>
</svg>