<?xml version="1.0" encoding="UTF-8"?>
<svg width="24px" height="28px" viewBox="0 0 24 28" version="1.1" xmlns="http://www.w3.org/2000/svg" xmlns:xlink="http://www.w3.org/1999/xlink">
    <title>切片</title>
    <g id="页面-1" stroke="none" stroke-width="1" fill="none" fill-rule="evenodd">
        <g id="3-3图例" transform="translate(-1316.000000, -221.000000)">
            <g id="编组-23" transform="translate(1127.000000, 74.000000)">
                <g id="编组-22" transform="translate(0.000000, 46.000000)">
                    <g id="编组" transform="translate(24.000000, 55.000000)">
                        <g id="编组-21备份-4" transform="translate(165.000000, 40.000000)">
                            <g id="编组" transform="translate(0.000000, 6.000000)">
                                <path d="M12.009988,0 C17.8244181,-0.00454412441 22.805573,4.16000453 23.8312081,9.88326325 C24.8568433,15.606522 21.6318377,21.2416536 16.1776615,23.2564935 C14.8797023,23.7374731 12.009988,27.4285751 12.009988,27.4285751 C12.009988,27.4285751 9.15839619,23.7404119 7.86680436,23.2653098 C2.40393373,21.260448 -0.833222565,15.6250986 0.187023187,9.89609122 C1.20726894,4.16708387 6.19084649,-0.00428263648 12.009988,0 L12.009988,0 Z" id="椭圆_1259" fill="#14A4C1"></path>
                                <circle id="椭圆_1260" fill="#FFFFFF" fill-rule="nonzero" cx="12" cy="12" r="11.0204082"></circle>
                                <path d="M12.2396493,5.87755102 C13.818442,5.87755102 15.0024432,6.54762269 15.0024432,7.43798437 L15.0024432,10.0355442 C15.0024432,10.1198941 14.9760647,10.1969202 14.9315067,10.2590091 C14.9667013,10.4346796 14.9840838,10.6156581 14.9840838,10.7973906 C14.9910801,11.3780088 14.8154722,11.917318 14.5110946,12.362485 C16.0462459,13.0641973 17.0126362,14.4124111 17.0126362,15.919095 C17.0309955,17.3142944 14.4517071,17.8099743 12.2396493,17.8099743 C11.0463806,17.8099743 9.9266371,17.6722793 9.09135341,17.4152707 C7.73285075,17.0022077 7.44830307,16.3688766 7.44830307,15.919095 C7.44830307,14.4094504 8.41849514,13.051319 9.95939558,12.3544619 C9.65488585,11.9115839 9.47685544,11.3749228 9.47685544,10.7973906 C9.47685544,10.6092793 9.49629143,10.4227857 9.53395956,10.2405557 C9.49793121,10.1842794 9.47685544,10.116842 9.47685544,10.0447239 L9.47685544,7.43798437 C9.47685544,6.54762269 10.6608786,5.87755102 12.2396493,5.87755102 Z M8.75172775,7.05246037 C8.85270407,7.05246037 8.94447876,7.08917904 9.01791609,7.16261636 C9.09135341,7.23603172 9.12807207,7.32782838 9.11889241,7.4288047 L9.11889241,7.44716403 C9.10971274,7.63991505 8.95365843,7.80506119 8.75172775,7.80506119 C8.71500908,7.80506119 8.67829042,7.79588152 8.64157176,7.78670186 C7.76038974,7.81424085 7.22801306,8.16302422 7.22801306,8.36497687 L7.22801306,9.45726923 C7.34734871,9.4389099 7.47584207,9.48480823 7.55845906,9.57660488 C7.67779471,9.71427791 7.67779471,9.90702892 7.56763873,10.0539036 C7.34734871,10.3292716 7.22801306,10.6597176 7.22801306,11.0177026 C7.22801306,11.4307436 7.39324704,11.8161798 7.68697438,12.1099071 C7.8246474,12.2384224 7.83382707,12.4587124 7.71449141,12.6055651 C7.66861505,12.6698228 7.60435739,12.7065414 7.53092006,12.7249008 C6.37445789,13.1196044 5.63097085,14.0374831 5.63097085,15.0563601 C5.63097085,15.2490233 5.99811356,15.5152336 6.8241517,15.7079846 C7.02608238,15.753883 7.14539607,15.946634 7.0995197,16.1485647 C7.06280104,16.3137986 6.91592639,16.4331123 6.74162255,16.4331123 C6.71408355,16.4331123 6.68654455,16.4331123 6.65900556,16.4239327 C5.19954853,16.0935086 4.89664153,15.4968743 4.89664153,15.0563601 C4.89664153,13.8630915 5.64012856,12.7891584 6.84248907,12.2108834 C6.6222869,11.8528984 6.5029732,11.4399233 6.5029732,11.0177026 C6.5029732,10.8708279 6.52131057,10.7331549 6.53966991,10.5862803 C6.51213091,10.5312023 6.5029732,10.4761462 6.5029732,10.4210682 L6.5029732,8.36497687 C6.49379354,7.62155572 7.4666624,7.05246037 8.75172775,7.05246037 Z M15.7275709,7.05246037 C17.0126362,7.05246037 17.9856149,7.61237605 17.9856149,8.36497687 L17.9856149,10.4210682 C17.9856149,10.4853039 17.9672555,10.5403819 17.9488962,10.5862803 C17.9764352,10.7239752 17.9856149,10.8708279 17.9856149,11.0177026 C17.9856149,11.4491029 17.8662792,11.8620781 17.6459892,12.2108834 C18.83917,12.7891584 19.5918367,13.8630915 19.5918367,15.0563601 C19.5918367,15.4968743 19.2889297,16.0935086 17.8203809,16.4239327 C17.7836622,16.4331123 17.7561232,16.4331123 17.7377859,16.4331123 C17.5725519,16.4331123 17.4165195,16.3137986 17.3798009,16.1485647 C17.3339025,15.946634 17.4624178,15.753883 17.6551689,15.7079846 C18.481185,15.5244133 18.8483497,15.2490233 18.8483497,15.0563601 C18.8483497,14.0374831 18.1048407,13.1196044 16.9483785,12.7157211 C16.8749632,12.6973618 16.8107055,12.6514634 16.7648072,12.5963855 C16.6454715,12.4495328 16.6546512,12.2384224 16.7923462,12.1007274 C17.0860735,11.8161798 17.2512855,11.4215639 17.2512855,11.0085229 C17.2512855,10.6505379 17.1319718,10.3200919 16.9116599,10.0447239 C16.8015258,9.90702892 16.8015258,9.70509824 16.9208395,9.56742522 C17.0034565,9.4664489 17.1319718,9.42973023 17.2512855,9.44808956 L17.2512855,8.36497687 C17.2512855,8.17220389 16.7189089,7.81424085 15.8377268,7.78670186 C15.8010082,7.79588152 15.7642895,7.80506119 15.7275709,7.80506119 C15.5256402,7.80506119 15.3696078,7.64909472 15.3604282,7.44716403 L15.3604282,7.4288047 C15.3604282,7.32782838 15.3971468,7.23603172 15.4613825,7.16261636 C15.5348198,7.08917904 15.6266165,7.05246037 15.7275709,7.05246037 Z M12.2396493,9.21861989 C11.5243746,9.21861989 10.9589898,9.38376595 10.6087746,9.58695818 L10.6241599,9.56742522 C10.3488798,9.92538825 10.2111848,10.3476309 10.2111848,10.7973906 C10.2111848,11.811849 10.9569513,12.6530912 11.9298932,12.8023465 C11.9426073,12.8058383 11.9556307,12.8076339 11.9686852,12.8093041 L11.9298932,12.8023465 C11.9797663,12.8099974 12.0302364,12.8158299 12.0812336,12.8197744 L11.9686852,12.8093041 C12.0331206,12.8175484 12.0983123,12.8227404 12.1641191,12.8248273 L12.0812336,12.8197744 C12.1318681,12.8236908 12.1830222,12.8257458 12.2346276,12.825871 C12.4058408,12.8258771 12.578226,12.8039628 12.7440143,12.7611201 C12.7490953,12.7613017 12.7534362,12.7601726 12.7577715,12.7590294 L12.7440143,12.7611201 C13.0815119,12.6739047 13.391671,12.4999594 13.6440283,12.2476021 L13.7704106,12.128009 C14.0803797,11.771755 14.2681138,11.3063749 14.2681138,10.7973906 C14.2681138,10.3529174 14.1247789,9.93531819 13.8644975,9.58007437 C13.5148637,9.37915114 12.9514819,9.21861989 12.2396493,9.21861989 Z M12.2396493,6.61188035 C11.0004823,6.61188035 10.2111848,7.10753837 10.2111848,7.43798437 L10.2111848,8.95243154 C10.6451263,8.69523184 11.2480589,8.52247709 11.9397872,8.48348751 C12.0058488,8.479647 12.0722055,8.47713577 12.1389448,8.47593429 C11.9852436,8.43489459 11.8724846,8.29313983 11.8724846,8.12632752 L11.8716415,7.94255102 L11.6889133,7.94273421 C11.4869826,7.94273421 11.3217486,7.77752219 11.3217486,7.57565739 C11.3217486,7.37372671 11.4869826,7.20851469 11.6889133,7.20851469 L11.8716415,7.20755102 L11.8724846,7.02492138 C11.8724846,6.82299069 12.0377186,6.65775671 12.2396493,6.65775671 C12.44158,6.65775671 12.606814,6.82299069 12.606814,7.02492138 L12.6066415,7.20755102 L12.7903853,7.20851469 C12.992338,7.20851469 13.15755,7.37372671 13.15755,7.57565739 C13.15755,7.77752219 12.992338,7.94273421 12.7903853,7.94273421 L12.6066415,7.94255102 L12.606814,8.11714786 C12.606814,8.29192581 12.4935599,8.43524431 12.339991,8.47939822 L12.2396493,8.47511089 C13.0565737,8.47511089 13.7725436,8.65870421 14.2681138,8.95243154 L14.2681138,7.43798437 C14.2681138,7.0983587 13.4788163,6.61188035 12.2396493,6.61188035 Z" id="形状结合" fill="#14A4C1"></path>
                            </g>
                        </g>
                    </g>
                </g>
            </g>
        </g>
    </g>
</svg>