<?xml version="1.0" encoding="UTF-8"?>
<svg width="24px" height="28px" viewBox="0 0 24 28" version="1.1" xmlns="http://www.w3.org/2000/svg" xmlns:xlink="http://www.w3.org/1999/xlink">
    <title>切片</title>
    <g id="页面-1" stroke="none" stroke-width="1" fill="none" fill-rule="evenodd">
        <g id="6确诊人员轨迹" transform="translate(-1747.000000, -374.000000)">
            <g id="编组-22" transform="translate(1727.000000, 278.000000)">
                <g id="编组" transform="translate(20.000000, 10.000000)">
                    <g id="编组-21备份-4" transform="translate(0.000000, 80.000000)">
                        <g id="核酸采样点" transform="translate(0.000000, 6.000000)">
                            <g id="编组">
                                <path d="M12.009988,0 C17.8244181,-0.00454412441 22.805573,4.16000453 23.8312081,9.88326325 C24.8568433,15.606522 21.6318377,21.2416536 16.1776615,23.2564935 C14.8797023,23.7374731 12.009988,27.4285751 12.009988,27.4285751 C12.009988,27.4285751 9.15839619,23.7404119 7.86680436,23.2653098 C2.40393373,21.260448 -0.833222565,15.6250986 0.187023187,9.89609122 C1.20726894,4.16708387 6.19084649,-0.00428263648 12.009988,0 L12.009988,0 Z" id="椭圆_1259" fill="#F42A34"></path>
                                <circle id="椭圆_1260" fill="#FFFFFF" fill-rule="nonzero" cx="12" cy="12" r="11.0204082"></circle>
                            </g>
                            <path d="M18.3669228,6.55177917 C18.3669228,6.21374905 18.0925735,5.93931116 17.7544548,5.93931116 L10.5305186,5.93931116 L10.5305186,4.71439727 C10.5305186,4.54446395 10.3941958,4.40816327 10.2242846,4.40816327 L8.38871706,4.40816327 C8.22050963,4.40816327 8.08248306,4.54446395 8.08248306,4.71439727 L8.08248306,5.93931116 L6.73534108,5.93931116 C6.39731096,5.93931116 6.12287308,6.21374905 6.12287308,6.55177917 L4.89795918,10.8372851 C4.89795918,11.1754037 5.17228644,11.449731 5.51042719,11.449731 L18.9776428,11.449731 C19.3157836,11.449731 19.5901108,11.1754037 19.5901108,10.8372851 L18.3669228,6.55177917 Z M6.3671301,18.514399 C6.3671301,18.8383344 6.63092502,19.1020408 6.95488254,19.1020408 L11.0686408,19.1020408 L11.0686408,15.2095499 C11.0686408,15.0467193 11.1996753,14.9156848 11.3625059,14.9156848 L13.1255641,14.9156848 C13.2883948,14.9156848 13.4194293,15.0467193 13.4194293,15.2095499 L13.4194293,19.1020408 L17.5331875,19.1020408 C17.857145,19.1020408 18.1209399,18.8383344 18.1209399,18.514399 L18.1209399,12.1224501 L6.3671301,12.1224501 L6.3671301,18.514399 Z" id="Fill-1备份" fill="#F42A34"></path>
                        </g>
                    </g>
                </g>
            </g>
        </g>
    </g>
</svg>
