<?xml version="1.0" encoding="UTF-8"?>
<svg width="24px" height="28px" viewBox="0 0 24 28" version="1.1" xmlns="http://www.w3.org/2000/svg" xmlns:xlink="http://www.w3.org/1999/xlink">
    <title>切片</title>
    <g id="页面-1" stroke="none" stroke-width="1" fill="none" fill-rule="evenodd">
        <g id="3-3图例" transform="translate(-1151.000000, -443.000000)">
            <g id="编组-23" transform="translate(1127.000000, 74.000000)">
                <g id="编组-22" transform="translate(0.000000, 46.000000)">
                    <g id="编组备份-2" transform="translate(24.000000, 317.000000)">
                        <g id="核酸采样点" transform="translate(0.000000, 6.000000)">
                            <g id="编组">
                                <path d="M12.009988,0 C17.8244181,-0.00454412441 22.805573,4.16000453 23.8312081,9.88326325 C24.8568433,15.606522 21.6318377,21.2416536 16.1776615,23.2564935 C14.8797023,23.7374731 12.009988,27.4285751 12.009988,27.4285751 C12.009988,27.4285751 9.15839619,23.7404119 7.86680436,23.2653098 C2.40393373,21.260448 -0.833222565,15.6250986 0.187023187,9.89609122 C1.20726894,4.16708387 6.19084649,-0.00428263648 12.009988,0 L12.009988,0 Z" id="椭圆_1259" fill="#14A4C1"></path>
                                <circle id="椭圆_1260" fill="#FFFFFF" fill-rule="nonzero" cx="12" cy="12" r="11.0204082"></circle>
                            </g>
                            <path d="M19.5918367,18.3300657 L19.5918367,19.2485773 L4.89795918,19.2485773 L4.89795918,18.3300657 L19.5918367,18.3300657 Z M15.917545,4.89795918 L15.917545,5.81655255 L15.6315125,5.81814616 L15.6315125,10.4094376 L19.5902431,10.4094376 L19.5902431,11.3279493 L19.3025353,11.3279493 L19.3042106,17.3559411 L19.5918367,17.3559411 L19.5918367,17.9868267 L4.89795918,17.9884203 L4.89795918,17.3575347 L5.18558529,17.3575347 L5.18399168,11.3279493 L4.89795918,11.3279493 L4.89795918,10.4094376 L8.85828341,10.4094376 L8.85828341,5.81814616 L8.57065731,5.81655255 L8.57065731,4.89795918 L15.917545,4.89795918 Z M8.85995874,11.3263557 L5.75932562,11.3263557 L5.75932562,17.3559411 L8.85995874,17.3559411 L8.85995874,11.3263557 Z M18.7321456,11.3263557 L15.6331878,11.3263557 L15.6331878,17.3559411 L15.6331878,17.3559411 L17.1826744,17.3551035 C17.2281328,17.3550511 17.2735912,17.3549988 17.319945,17.3549472 L18.7321456,17.3542658 L18.7321456,11.3263557 Z M11.0386478,15.0594475 L10.2344879,15.0594475 L10.2344879,16.7233803 L11.0386478,16.7233803 L11.0386478,15.0594475 Z M12.6470086,15.0594475 L11.8428691,15.0594475 L11.8428691,16.7233803 L12.6470086,16.7233803 L12.6470086,15.0594475 Z M14.2537144,15.0594475 L13.4494932,15.0594475 L13.4494932,16.7233803 L14.2537144,16.7233803 L14.2537144,15.0594475 Z M18.1568117,15.0594475 L18.1568117,16.7233803 L17.4686992,16.7233803 L17.4686992,15.0594475 L18.1568117,15.0594475 Z M16.8933653,15.0594475 L16.8933653,16.7233803 L16.2052528,16.7233803 L16.2052528,15.0594475 L16.8933653,15.0594475 Z M7.02117841,15.0594475 L7.02117841,16.7233803 L6.33298422,16.7233803 L6.33298422,15.0594475 L7.02117841,15.0594475 Z M8.28294948,15.0594475 L8.28294948,16.7233803 L7.59483701,16.7233803 L7.59483701,15.0594475 L8.28294948,15.0594475 Z M11.0403232,12.0716746 L10.2361632,12.0716746 L10.2361632,14.3680865 L11.0403232,14.3680865 L11.0403232,12.0716746 Z M12.6470086,12.0716746 L11.8428691,12.0716746 L11.8428691,14.3680865 L12.6470086,14.3680865 L12.6470086,12.0716746 Z M14.2537144,12.0716746 L13.4494932,12.0716746 L13.4494932,14.3680865 L14.2537144,14.3680865 L14.2537144,12.0716746 Z M18.1568117,12.0716746 L18.1568117,14.3680865 L17.4686992,14.3680865 L17.4686992,12.0716746 L18.1568117,12.0716746 Z M16.8933653,12.0716746 L16.8933653,14.3680865 L16.2052528,14.3680865 L16.2052528,12.0716746 L16.8933653,12.0716746 Z M8.28294948,12.0716746 L8.28294948,14.3680865 L7.59483701,14.3680865 L7.59483701,12.0716746 L8.28294948,12.0716746 Z M7.02117841,12.0716746 L7.02117841,14.3680865 L6.33298422,14.3680865 L6.33298422,12.0716746 L7.02117841,12.0716746 Z M12.8758141,6.61742311 L11.6139818,6.61742311 L11.6139818,7.99532337 L10.2361632,7.99532337 L10.2361632,9.31589454 L11.6139818,9.31589454 L11.6139818,10.6349743 L12.8758141,10.6349743 L12.8758141,9.31756988 L14.2537144,9.31756988 L14.2537144,7.99532337 L12.8758141,7.99532337 L12.8758141,6.61742311 Z" id="形状结合" fill="#14A4C1"></path>
                        </g>
                    </g>
                </g>
            </g>
        </g>
    </g>
</svg>