<?xml version="1.0" encoding="UTF-8"?>
<svg width="24px" height="28px" viewBox="0 0 24 28" version="1.1" xmlns="http://www.w3.org/2000/svg" xmlns:xlink="http://www.w3.org/1999/xlink">
    <title>切片</title>
    <g id="页面-1" stroke="none" stroke-width="1" fill="none" fill-rule="evenodd">
        <g id="3-3图例" transform="translate(-1316.000000, -705.000000)">
            <g id="编组-23" transform="translate(1127.000000, 74.000000)">
                <g id="编组-22" transform="translate(0.000000, 46.000000)">
                    <g id="编组备份-4" transform="translate(24.000000, 579.000000)">
                        <g id="编组-21备份-2" transform="translate(165.000000, 0.000000)">
                            <g id="核酸采样点" transform="translate(0.000000, 6.000000)">
                                <g id="编组">
                                    <path d="M12.009988,0 C17.8244181,-0.00454412441 22.805573,4.16000453 23.8312081,9.88326325 C24.8568433,15.606522 21.6318377,21.2416536 16.1776615,23.2564935 C14.8797023,23.7374731 12.009988,27.4285751 12.009988,27.4285751 C12.009988,27.4285751 9.15839619,23.7404119 7.86680436,23.2653098 C2.40393373,21.260448 -0.833222565,15.6250986 0.187023187,9.89609122 C1.20726894,4.16708387 6.19084649,-0.00428263648 12.009988,0 L12.009988,0 Z" id="椭圆_1259" fill="#F42A34"></path>
                                    <circle id="椭圆_1260" fill="#FFFFFF" fill-rule="nonzero" cx="12" cy="12" r="11.0204082"></circle>
                                </g>
                                <path d="M18.1987486,18.1288673 L17.9240497,18.1288673 L17.9240497,6.92961671 C17.9419663,6.57046973 17.6664961,6.26419098 17.3073492,6.24413675 L16.656887,6.24413675 L16.656887,5.72960256 C16.6615369,5.56372544 16.5451563,5.41891629 16.3822102,5.3877551 L7.82042111,5.3877551 C7.65117224,5.3877551 7.54572226,5.52489517 7.54572226,5.72960256 L7.54572226,6.27743559 L6.89578898,6.27743559 C6.53673014,6.29751185 6.26117183,6.60370245 6.27915452,6.96293758 L6.27915452,18.1288673 L6.00436752,18.1288673 C5.70214369,18.0919323 5.42676168,18.3058514 5.3877551,18.6078328 C5.3877551,18.8825316 5.6625421,19.0867983 6.00436752,19.0867983 L18.1987486,19.0867983 C18.398806,19.137595 18.6094636,19.0588325 18.7271444,18.8892531 C18.8448253,18.7196516 18.8448253,18.4948019 18.7271444,18.3252224 C18.6094636,18.155621 18.398806,18.0768585 18.1987486,18.1276552 L18.1987486,18.1288673 Z M11.1422387,6.10708484 C11.1379414,6.0789428 11.1473294,6.05036002 11.1674718,6.03021764 C11.1876142,6.01007526 11.2161969,6.00068724 11.244339,6.00498457 L11.6212042,6.00498457 C11.6493683,6.00068724 11.6778629,6.01007526 11.6980053,6.03021764 C11.7182358,6.05036002 11.7275357,6.0789428 11.7233045,6.10708484 L11.7233045,6.62161903 C11.7190071,6.64976106 11.7283951,6.67825569 11.7485375,6.69839807 C11.7686799,6.7186286 11.7972627,6.72792848 11.8254047,6.72369725 L12.4081894,6.72369725 C12.4363535,6.72792848 12.4649363,6.7186286 12.4850786,6.69839807 C12.505221,6.67825569 12.514609,6.64976106 12.5102897,6.62161903 L12.5102897,6.10708484 C12.5060805,6.0789428 12.5154685,6.05036002 12.5356109,6.03021764 C12.5557533,6.01007526 12.5842479,6.00068724 12.6123899,6.00498457 L12.9892772,6.00498457 C13.0175074,6.00068724 13.046002,6.01007526 13.0661444,6.03021764 C13.0862868,6.05036002 13.0956748,6.0789428 13.0913554,6.10708484 L13.0913554,7.95694413 C13.0956748,7.9851082 13.0862868,8.01369098 13.0661444,8.03383336 C13.046002,8.05397574 13.0175074,8.06334172 12.9892772,8.05904439 L12.580788,8.05904439 C12.5527341,8.06309931 12.5243276,8.05362314 12.5042734,8.03356891 C12.484131,8.01342653 12.474743,7.9851082 12.4787098,7.95694413 L12.4787098,7.34033171 C12.4830071,7.31218968 12.4736191,7.28360689 12.4534767,7.26346451 C12.4333343,7.24332214 12.4047515,7.23393411 12.3766095,7.23823145 L11.7932959,7.23823145 C11.7650657,7.23393411 11.7365711,7.24332214 11.7164287,7.26346451 C11.6962863,7.28360689 11.6868983,7.31218968 11.6911075,7.34033171 L11.6911075,7.92311639 C11.6954269,7.95128046 11.6860388,7.97984121 11.6658965,7.99998359 C11.6457541,8.020148 11.6171713,8.02951399 11.5890293,8.02521665 L11.212142,8.02521665 C11.184,8.02951399 11.1555053,8.020148 11.135363,7.99998359 C11.1152206,7.97984121 11.1058326,7.95128046 11.1100418,7.92311639 L11.1422387,6.10708484 Z M10.0809954,15.1483683 L8.02521665,15.1483683 L8.02521665,13.677005 L10.1125753,13.677005 L10.1125753,15.1483683 L10.0809954,15.1483683 Z M10.0809954,12.7157023 L8.02521665,12.7157023 L8.02521665,11.244339 L10.1125753,11.244339 L10.1125753,12.717333 L10.0809954,12.7157023 Z M10.0809954,10.2491204 L8.02521665,10.2491204 L8.02521665,8.81167296 L10.1125753,8.81167296 L10.1125753,10.2508393 L10.0809954,10.2491204 Z M11.0401384,16.7234406 L13.1275191,16.7234406 L13.1275191,13.677005 L11.0401384,13.677005 L11.0401384,16.7234406 Z M11.0401384,12.7179281 L13.1275191,12.7179281 L13.1275191,11.244339 L11.0401384,11.244339 L11.0401384,12.7179281 Z M11.0401384,10.2514563 L13.1275191,10.2514563 L13.1275191,8.81167296 L11.0401384,8.81167296 L11.0401384,10.2514563 Z M14.0905408,15.1483683 L16.1779215,15.1483683 L16.1779215,13.677005 L14.0905408,13.677005 L14.0905408,15.1483683 Z M14.0905408,12.7157023 L16.1779215,12.7157023 L16.1779215,11.244339 L14.0905408,11.244339 L14.0905408,12.7157023 Z M14.0905408,10.2491204 L16.1779215,10.2491204 L16.1779215,8.81167296 L14.0905408,8.81167296 L14.0905408,10.2491204 Z" id="Fill-1" fill="#F42A34"></path>
                            </g>
                        </g>
                    </g>
                </g>
            </g>
        </g>
    </g>
</svg>