<?xml version="1.0" encoding="UTF-8"?>
<svg width="24px" height="28px" viewBox="0 0 24 28" version="1.1" xmlns="http://www.w3.org/2000/svg" xmlns:xlink="http://www.w3.org/1999/xlink">
    <title>icon/map/进口原材料企业</title>
    <g id="页面-1" stroke="none" stroke-width="1" fill="none" fill-rule="evenodd">
        <g id="3-3图例" transform="translate(-1316.000000, -909.000000)">
            <g id="编组-23" transform="translate(1127.000000, 74.000000)">
                <g id="编组-22" transform="translate(0.000000, 46.000000)">
                    <g id="编组备份-4" transform="translate(24.000000, 579.000000)">
                        <g id="编组-21备份-14" transform="translate(165.000000, 204.000000)">
                            <g id="核酸采样点" transform="translate(0.000000, 6.000000)">
                                <g id="编组">
                                    <path d="M12.009988,0 C17.8244181,-0.00454412441 22.805573,4.16000453 23.8312081,9.88326325 C24.8568433,15.606522 21.6318377,21.2416536 16.1776615,23.2564935 C14.8797023,23.7374731 12.009988,27.4285751 12.009988,27.4285751 C12.009988,27.4285751 9.15839619,23.7404119 7.86680436,23.2653098 C2.40393373,21.260448 -0.833222565,15.6250986 0.187023187,9.89609122 C1.20726894,4.16708387 6.19084649,-0.00428263648 12.009988,0 L12.009988,0 Z" id="椭圆_1259" fill="#0ABE13"></path>
                                    <circle id="椭圆_1260" fill="#FFFFFF" fill-rule="nonzero" cx="12" cy="12" r="11.0204082"></circle>
                                </g>
                                <g id="编组-2" transform="translate(4.407087, 5.387755)" fill="#0ABE13">
                                    <path d="M12.5357102,12.1040168 C12.3563316,13.0502193 12.0103358,13.594789 11.7412546,13.594789 C11.4720933,13.594789 11.1260708,13.0502193 10.9446365,12.1040168 L12.5357102,12.1040168 Z M14.3447665,12.1060992 C14.2123217,12.3560918 14.0393238,12.5866489 13.8322068,12.7938727 C13.4391438,13.1868289 12.9543224,13.453801 12.426839,13.5777028 C12.5314386,13.4282518 12.6339559,13.2295712 12.7300926,12.9689797 C12.8240667,12.7127399 12.8988456,12.4201118 12.9543224,12.1060992 L14.3447665,12.1060992 Z M10.5281067,12.1060992 C10.5835835,12.4221941 10.6605515,12.7127399 10.7523098,12.9689797 C10.8463908,13.2252996 10.9467189,13.4217911 11.0492362,13.569133 C10.5344606,13.4431488 10.0624806,13.1782858 9.67806749,12.7938727 C9.47084374,12.5866489 9.30003499,12.3560918 9.16550775,12.1060992 L10.5281067,12.1060992 Z M8.67003335,0 L12.1968625,1.76341455 L13.6663058,5.80454973 L14.1072088,5.80454973 C14.4745113,5.80454973 14.6949538,6.02492049 14.6949538,6.31887374 C14.6949538,6.64944603 14.4569098,6.8610617 14.1950745,6.90007911 L14.1072088,6.9066188 L13.7398166,6.9066188 L13.7398166,7.05356852 L13.6623674,7.35124328 C13.3419514,7.17249487 12.9938499,7.03741502 12.6261133,6.95405397 L12.6376757,6.9066188 L12.3760717,6.90590185 C12.1741638,6.87381093 11.9671176,6.85714286 11.7561783,6.85714286 C11.5452391,6.85714286 11.3381929,6.87381093 11.1362849,6.90590185 L2.05729605,6.9066188 L2.64511286,9.2578681 L8.14281807,9.25722147 C7.98841627,9.62423875 7.88830052,10.0197113 7.85252308,10.4335868 L6.31887374,10.4334479 C6.39231272,10.6538904 6.39231272,10.8008222 6.39231272,11.021193 C6.39231272,11.9029092 5.6575462,12.6376757 4.77582995,12.6376757 C3.8942034,12.6376757 3.15943687,11.9029092 3.15943687,11.021193 C3.15943687,10.8448963 3.15943687,10.6685538 3.19703763,10.5298396 L3.23287585,10.4334479 L1.8368356,10.4334479 L0.955137289,7.05356852 L0.955137289,6.9066188 L0.587834748,6.9066188 C0.220442515,6.9066188 0,6.68617628 0,6.31887374 C0,5.98822073 0.238044013,5.77659699 0.499944735,5.73757878 L0.587834748,5.73103899 L0.881698307,5.73103899 C0.881698307,5.67224476 0.928699256,5.56643809 0.985137132,5.48886643 L1.02864802,5.4371575 L3.52681117,2.13078885 L5.73103899,3.60025015 L8.67003335,0 Z M14.5284166,9.73976524 C14.6373947,10.0493728 14.6949538,10.3783091 14.6949538,10.7178442 C14.6949538,11.0553237 14.6373947,11.3842333 14.5306058,11.6939743 L13.0184491,11.6939743 C13.0547573,11.3821509 13.0739259,11.0532413 13.0739259,10.7178442 C13.0718436,10.3804983 13.0525682,10.051562 13.01626,9.73976524 L14.5284166,9.73976524 Z M12.601946,9.73976524 C12.6382275,10.0365581 12.6596119,10.3633854 12.6596119,10.7157618 C12.6596119,11.0703542 12.6382275,11.3970747 12.601946,11.6917852 L10.8804831,11.6917852 C10.8442016,11.3949923 10.8228172,11.068165 10.8228172,10.7157618 C10.8228172,10.3611962 10.8442016,10.0344757 10.8804831,9.73976524 L12.601946,9.73976524 Z M10.4661691,9.73757606 C10.4298609,10.0493728 10.4106923,10.3783091 10.4106923,10.7135727 C10.4106923,11.0489697 10.4298609,11.3778794 10.4661691,11.6897028 L8.98175085,11.6897028 C8.87496201,11.3821509 8.81740282,11.0532413 8.81740282,10.7157618 C8.81740282,10.3783091 8.87496201,10.0472904 8.98394002,9.73757606 L10.4661691,9.73757606 Z M4.70240891,10.2864982 C4.40852741,10.3599372 4.1880849,10.5803797 4.1880849,10.8742612 C4.1880849,11.2416355 4.48194846,11.4620959 4.77582995,11.4620959 C5.0697832,11.4620959 5.29015396,11.2416355 5.21671498,10.8742612 C5.21671498,10.5068869 4.99627247,10.2864982 4.70240891,10.2864982 Z M11.7412546,7.83673469 C12.0103358,7.83673469 12.3563316,8.38133109 12.5378993,9.32750691 L10.9467189,9.32750691 C11.1260708,8.3792487 11.4700109,7.83673469 11.7412546,7.83673469 Z M12.4289213,7.85592999 C12.9565116,7.97983174 13.4413329,8.24680384 13.8342892,8.63976008 C14.0393238,8.84476796 14.2102393,9.07764772 14.3447665,9.32531774 L12.9543224,9.32531774 C12.8988456,9.00922277 12.8219844,8.71881052 12.7300926,8.4625707 C12.6361451,8.20195253 12.5336278,8.00548776 12.4289213,7.85592999 Z M11.0514254,7.86239071 C10.9467189,8.0118417 10.8463908,8.20830647 10.7523098,8.4625707 C10.6583623,8.71881052 10.5835835,9.01141194 10.5281067,9.32531774 L9.16759013,9.32531774 C9.30211737,9.07545855 9.47303291,8.84476796 9.68014987,8.637651 C10.0646698,8.25315778 10.5366498,7.98837485 11.0514254,7.86239071 Z M9.03742558,1.32252952 L6.02492049,5.0697832 L3.82069266,3.60025015 L2.13078885,5.80454973 L12.490726,5.80454973 L11.3151462,2.49818108 L9.03742558,1.32252952 Z M10.6538904,2.79204464 L11.3151462,3.30636865 L11.6090277,4.55545919 C11.6825384,4.84934069 11.4620959,5.14322219 11.1682144,5.21671498 C10.8742612,5.29015396 10.5803797,5.0697832 10.5068869,4.77582995 L10.2864982,3.96764238 L9.91912389,3.67376088 C9.69868138,3.45331837 9.69868138,3.15943687 9.84561316,2.86548362 C10.0660557,2.64511286 10.3599372,2.57160212 10.6538904,2.79204464 Z" id="形状结合"></path>
                                </g>
                            </g>
                        </g>
                    </g>
                </g>
            </g>
        </g>
    </g>
</svg>