<?xml version="1.0" encoding="UTF-8"?>
<svg width="24px" height="28px" viewBox="0 0 24 28" version="1.1" xmlns="http://www.w3.org/2000/svg" xmlns:xlink="http://www.w3.org/1999/xlink">
    <title>icon/map/工业企业</title>
    <g id="页面-1" stroke="none" stroke-width="1" fill="none" fill-rule="evenodd">
        <g id="3-3图例" transform="translate(-942.000000, -558.000000)">
            <g id="编组-22备份" transform="translate(922.000000, 422.000000)">
                <g id="编组" transform="translate(20.000000, 10.000000)">
                    <g id="编组-21备份-6" transform="translate(0.000000, 120.000000)">
                        <g id="核酸检测点" transform="translate(0.000000, 6.000000)">
                            <g id="编组">
                                <path d="M12.009988,0 C17.8244181,-0.00454412441 22.805573,4.16000453 23.8312081,9.88326325 C24.8568433,15.606522 21.6318377,21.2416536 16.1776615,23.2564935 C14.8797023,23.7374731 12.009988,27.4285751 12.009988,27.4285751 C12.009988,27.4285751 9.15839619,23.7404119 7.86680436,23.2653098 C2.40393373,21.260448 -0.833222565,15.6250986 0.187023187,9.89609122 C1.20726894,4.16708387 6.19084649,-0.00428263648 12.009988,0 L12.009988,0 Z" id="椭圆_1259" fill="#F42A34"></path>
                                <circle id="椭圆_1260" fill="#FFFFFF" fill-rule="nonzero" cx="12" cy="12" r="11.0204082"></circle>
                            </g>
                            <path d="M4.89795918,19.1020212 L19.5918367,19.1020212 L19.5918367,18.4183926 L4.89795918,18.4183926 L4.89795918,19.1020212 Z M7.96799719,8.50907422 L8.16396539,13.9468346 L11.6200695,12.1535153 L11.6154125,13.9988841 L15.1052314,12.1538088 L15.0670748,13.9471477 L18.5899823,12.1531239 L18.5899823,18.0768033 L5.89979401,18.0768033 L6.24443584,8.50907422 L7.96799719,8.50907422 Z M9.23933476,16.3683089 L10.5751276,16.3683089 L10.5751276,15.0014234 L9.23933476,15.0014234 L9.23933476,16.3683089 Z M12.5788755,16.3683089 L13.9146683,16.3683089 L13.9146683,15.0014234 L12.5788755,15.0014234 L12.5788755,16.3683089 Z M15.918338,16.3683089 L17.2541308,16.3683089 L17.2541308,15.0014234 L15.918338,15.0014234 L15.918338,16.3683089 Z M12.7458056,4.40816327 C14.1290691,4.40816327 15.2504416,5.17289908 15.2504416,6.11663809 C15.2504416,7.06039668 14.1290691,7.82550427 12.7458056,7.82550427 C12.4240186,7.82642394 12.103523,7.78339508 11.7933591,7.69755259 C11.4571117,7.98509655 10.9611937,8.16709357 10.4081975,8.16709357 C9.98266377,8.16709357 9.59094261,8.05955076 9.27978072,7.87894303 C9.06598656,8.05557857 8.75314187,8.16709357 8.40443001,8.16709357 C7.75893835,8.16709357 7.23558683,7.78439302 7.23558683,7.31285616 C7.23558683,6.84102579 7.75893835,6.45861874 8.40443001,6.45861874 C8.47996044,6.45861874 8.55339715,6.46366715 8.62487711,6.47366613 C8.82084531,5.87656482 9.54491992,5.43338122 10.4081975,5.43338122 L10.4495436,5.43338122 C10.8356097,4.83031184 11.7185918,4.40816327 12.7458056,4.40816327 Z" id="gongchang" fill="#F42A34"></path>
                        </g>
                    </g>
                </g>
            </g>
        </g>
    </g>
</svg>