<?xml version="1.0" encoding="utf-8"?>
<!-- Generator: Adobe Illustrator 22.0.0, SVG Export Plug-In . SVG Version: 6.00 Build 0)  -->
<svg version="1.1" id="图层_1" xmlns="http://www.w3.org/2000/svg" xmlns:xlink="http://www.w3.org/1999/xlink" x="0px" y="0px"
	 viewBox="0 0 51 56" style="enable-background:new 0 0 51 56;" xml:space="preserve">
<style type="text/css">
	.st0{fill:#1F82E5;}
	.st1{fill:#FFFFFF;}
	.st2{fill:none;}
</style>
<title>icon/map/党组织分布</title>
<g id="编组">
	<path id="椭圆_1259" class="st0" d="M25.5,0c11.9,0,22,8.5,24.1,20.2S45.1,43.4,34,47.5c-2.6,1-8.5,8.5-8.5,8.5s-5.8-7.5-8.5-8.5
		C5.9,43.4-0.7,31.9,1.4,20.2S13.6,0,25.5,0L25.5,0z"/>
	<circle id="椭圆_1260" class="st1" cx="25.5" cy="24.5" r="22.5"/>
</g>
<rect x="66.1" y="9.3" class="st2" width="42.7" height="42.7"/>
<g>
	<path class="st0" d="M37.4,17.9h-0.3v-2.1c0-0.1,0-0.2-0.2-0.2H14c-0.1,0-0.2,0-0.2,0.2v2.1h-0.2c-0.5,0-0.9,0.3-0.9,0.8
		c0,0.5,0.3,0.8,0.9,0.8h23.6c0.5,0,0.9-0.3,0.9-0.8C38.2,18.2,37.9,17.9,37.4,17.9L37.4,17.9z M21.6,25.5h-7.7
		c-0.5,0-0.9,0.3-0.9,0.8c0,0.5,0.3,0.8,0.9,0.8h7.7c0.5,0,0.9-0.3,0.9-0.8C22.5,25.8,22.1,25.5,21.6,25.5L21.6,25.5z M37,25.5h-7.7
		c-0.5,0-0.9,0.3-0.9,0.8c0,0.5,0.3,0.8,0.9,0.8H37c0.4,0,0.9-0.3,0.9-0.8C37.9,25.8,37.5,25.5,37,25.5L37,25.5z M29.1,25.1H37
		c0.1,0,0.2-0.1,0.1-0.2v-4.8c0-0.1,0-0.2-0.2-0.2H14c-0.1,0-0.2,0-0.2,0.2v4.8c0,0.1,0,0.2,0.2,0.2h7.9c0,0,0.2,0,0.2-0.2
		c0.1-1.7,1.6-3.1,3.4-3.1c1.8,0,3.3,1.4,3.4,3.1C28.9,25.1,29,25.1,29.1,25.1L29.1,25.1z M21.9,27.6H14c-0.1,0-0.2,0-0.2,0.2v10.8
		c0,0.1,0,0.2,0.2,0.2h7.9c0.1,0,0.2-0.1,0.2-0.2V27.8C22.1,27.6,22,27.6,21.9,27.6L21.9,27.6z M37.1,27.6h-8c-0.1,0-0.2,0-0.2,0.2
		v10.8c0,0.1,0,0.2,0.2,0.2h8c0.1,0,0.2-0.1,0.2-0.2V27.8C37.3,27.6,37.3,27.6,37.1,27.6L37.1,27.6z M37.1,27.6"/>
</g>
<path class="st0" d="M24.4,15.8v-2.3c-0.1-0.6-0.2-1.2,0-1.8c0.1-0.2,0.1-0.3,0.3-0.2l0,0c2.4,0.7,3.4-0.8,5.8,0
	c0.2,0.1,0.2,0.1,0.2,0.3c-0.1,0.6-0.1,1.2,0,1.8c0,0.2-0.1,0.3-0.2,0.2c-1.4-0.3-3.2,0-4.9,0v1.8L24.4,15.8z"/>
</svg>
