<?xml version="1.0" encoding="utf-8"?>
<!-- Generator: Adobe Illustrator 22.0.0, SVG Export Plug-In . SVG Version: 6.00 Build 0)  -->
<svg version="1.1" id="图层_1" xmlns="http://www.w3.org/2000/svg" xmlns:xlink="http://www.w3.org/1999/xlink" x="0px" y="0px"
	 viewBox="0 0 51 56" style="enable-background:new 0 0 51 56;" xml:space="preserve">
<style type="text/css">
	.st0{fill:#16BBF4;}
	.st1{fill:#FFFFFF;}
</style>
<title>icon/map/党组织分布</title>
<g id="编组">
	<path id="椭圆_1259" class="st0" d="M25.5,0c11.9,0,22,8.5,24.1,20.2S45.1,43.4,34,47.5c-2.6,1-8.5,8.5-8.5,8.5s-5.8-7.5-8.5-8.5
		C5.9,43.4-0.7,31.9,1.4,20.2S13.6,0,25.5,0L25.5,0z"/>
	<circle id="椭圆_1260" class="st1" cx="25.5" cy="24.5" r="22.5"/>
</g>
<g>
	<g>
		<path class="st0" d="M25.5,13.6c3.5,0,6.5,2.2,7.7,5.2h1.6c-1.3-3.9-4.9-6.8-9.3-6.8s-8,2.8-9.3,6.8h1.6
			C19,15.8,22,13.6,25.5,13.6L25.5,13.6z M39.1,19.4H11.9c-0.5,0-1,0.4-1,1v3.3c0,0.5,0.4,1,1,1h0.8l2.1,10.8c0,0,0.1,1.5,1.3,1.5
			H35c1.2,0,1.3-1.5,1.3-1.5l2.1-10.8h0.7c0.5,0,1-0.4,1-1v-3.3C40.1,19.8,39.6,19.4,39.1,19.4L39.1,19.4z M21.4,33.3
			c0,0.6-0.5,1-1,1c-0.6,0-1-0.5-1-1V25c0-0.6,0.5-1,1-1c0.6,0,1,0.5,1,1V33.3z M26.5,33.3c0,0.6-0.5,1-1,1c-0.6,0-1-0.5-1-1V25
			c0-0.6,0.5-1,1-1s1,0.5,1,1V33.3z M31.6,33.3c0,0.6-0.5,1-1,1c-0.6,0-1-0.5-1-1V25c0-0.6,0.5-1,1-1c0.6,0,1,0.5,1,1V33.3z
			 M31.6,33.3"/>
	</g>
</g>
</svg>
