<?xml version="1.0" encoding="UTF-8"?>
<svg width="24px" height="28px" viewBox="0 0 24 28" version="1.1" xmlns="http://www.w3.org/2000/svg" xmlns:xlink="http://www.w3.org/1999/xlink">
    <title>icon/map/月子中心</title>
    <g id="页面-1" stroke="none" stroke-width="1" fill="none" fill-rule="evenodd">
        <g id="3-3图例" transform="translate(-942.000000, -438.000000)">
            <g id="编组-22备份" transform="translate(922.000000, 422.000000)">
                <g id="编组" transform="translate(20.000000, 10.000000)">
                    <g id="核酸检测点" transform="translate(0.000000, 6.000000)">
                        <g id="编组">
                            <path d="M12.009988,0 C17.8244181,-0.00454412441 22.805573,4.16000453 23.8312081,9.88326325 C24.8568433,15.606522 21.6318377,21.2416536 16.1776615,23.2564935 C14.8797023,23.7374731 12.009988,27.4285751 12.009988,27.4285751 C12.009988,27.4285751 9.15839619,23.7404119 7.86680436,23.2653098 C2.40393373,21.260448 -0.833222565,15.6250986 0.187023187,9.89609122 C1.20726894,4.16708387 6.19084649,-0.00428263648 12.009988,0 L12.009988,0 Z" id="椭圆_1259" fill="#C1148A"></path>
                            <circle id="椭圆_1260" fill="#FFFFFF" fill-rule="nonzero" cx="12" cy="12" r="11.0204082"></circle>
                        </g>
                        <path d="M15.4637061,6.54467046 C15.4637061,6.54467046 14.7940833,4.40816327 12.4276715,4.40816327 C12.4276715,4.40816327 8.68877448,4.40816327 7.42372392,8.99038959 C7.42372392,8.99038959 6.60848421,12.1389523 6.88960656,14.0505541 C7.17074777,15.9621559 6.13052718,16.1026793 5.87755102,16.3276602 C5.87755102,16.3276602 7.08644125,16.7493248 7.47994085,15.4562036 C7.47994085,15.4562036 9.13856646,18.9982847 11.5280498,18.6609266 C11.5280498,18.6609266 11.0501682,18.3798043 10.9658051,18.0986631 C10.9658051,18.0986631 12.6525769,18.4922381 12.5963411,17.002301 C12.5963411,17.002301 11.3032198,18.8014501 9.25101917,15.9340097 C9.25101917,15.9340097 7.28312502,12.5044567 9.8694242,9.69325205 C9.8694242,9.69325205 8.60446796,12.0265751 9.05420335,13.5164556 C9.05420335,13.5164556 9.36332097,10.6771614 10.3473246,9.94630367 C11.3313094,9.21529502 13.7769343,9.41211084 14.7046267,7.58481559 C14.7046267,7.58481559 14.9571689,10.6729546 13.0160816,11.9329116 C13.0160816,11.9329116 12.692589,12.2564231 12.4712113,11.6094191 C12.4712113,11.6094191 11.8068329,10.4826848 11.1772223,11.4391837 C11.1772223,11.4391837 11.1322676,12.3872878 11.7220171,13.0055607 C11.7220171,13.0055607 12.4347458,13.9882816 12.8996484,14.0976405 C13.3645699,14.2069994 13.4739288,15.0548185 13.3645699,15.3282063 C13.3645699,15.3282063 13.8841614,15.5743346 13.9389069,14.7539259 C13.9389069,14.7539259 13.5012638,14.0976405 13.309881,14.0156355 C13.309881,14.0156355 13.0911067,13.1131463 13.7200571,13.003712 C13.7200571,13.003712 13.4466504,11.308319 14.6772162,10.7340575 C15.9077632,10.1597771 16.5914779,11.3355785 16.7281718,11.6637307 C16.8649412,11.9919394 17.3844572,13.2225052 15.6616538,13.988225 C15.6616538,13.988225 16.5622942,15.442055 15.3608366,16.7502115 C15.3608366,16.7502115 14.1305727,18.375522 11.9698997,19.1020408 C11.9698997,19.1020408 16.6973657,18.2211329 17.9587942,13.4960439 C17.9587942,13.4960439 18.4921759,10.5401657 15.9077632,9.69487442 C15.9078386,9.69487442 16.1955259,8.12540356 15.4637061,6.54467046 Z" id="Fill-1" fill="#C1148A"></path>
                    </g>
                </g>
            </g>
        </g>
    </g>
</svg>