<?xml version="1.0" encoding="utf-8"?>
<!-- Generator: Adobe Illustrator 22.0.0, SVG Export Plug-In . SVG Version: 6.00 Build 0)  -->
<svg version="1.1" id="图层_1" xmlns="http://www.w3.org/2000/svg" xmlns:xlink="http://www.w3.org/1999/xlink" x="0px" y="0px"
	 viewBox="0 0 51 56" style="enable-background:new 0 0 51 56;" xml:space="preserve">
<style type="text/css">
	.st0{fill:#D14D3F;}
	.st1{fill:#FFFFFF;}
</style>
<title>icon/map/党组织分布</title>
<g id="编组">
	<path id="椭圆_1259" class="st0" d="M25.5,0c11.9,0,22,8.5,24.1,20.2S45.1,43.4,34,47.5c-2.6,1-8.5,8.5-8.5,8.5s-5.8-7.5-8.5-8.5
		C5.9,43.4-0.7,31.9,1.4,20.2S13.6,0,25.5,0L25.5,0z"/>
	<circle id="椭圆_1260" class="st1" cx="25.5" cy="24.5" r="22.5"/>
</g>
<path class="st0" d="M23.5,21.2C23.4,21.2,23.4,21.2,23.5,21.2c-0.3,1.5-1.2,2.9-2.6,3.6c-0.5,0.5-1.2,0.8-2,0.7
	c-0.7,0.1-1.4-0.2-2-0.7c-1.1-0.7-1.7-0.9-2.5-3.6c0,0,0,0-0.1,0c-0.5,0-0.8-0.6-1-1.6c-0.2-1,0.1-1.4,0.5-1.5c0.1,0,0.3,0,0.4,0
	c-0.1-0.6-0.1-1.1,0-1.7c0.1-1.1,0.6-2,1.4-2.8c0.9-0.7,2-1.1,3.2-1.1c1.2,0,2.3,0.4,3.2,1.1c0.8,0.7,1.3,1.7,1.4,2.8
	c0.1,0.6,0,1.1,0,1.7c0.1,0,0.3-0.1,0.4,0c0.4,0.1,0.7,0.5,0.5,1.5C24.2,20.6,23.9,21.3,23.5,21.2L23.5,21.2z"/>
<path class="st0" d="M38.1,22.5C38.1,22.5,38.1,22.5,38.1,22.5c-0.2,1.2-1,2.3-2.1,2.9c-0.4,0.4-1,0.6-1.6,0.6
	c-0.6,0.1-1.2-0.1-1.6-0.6c-0.9-0.6-1.4-0.7-2-2.9c0,0,0,0-0.1,0c-0.4,0-0.6-0.5-0.8-1.3c-0.2-0.8,0.1-1.1,0.4-1.2
	c0.1,0,0.2,0,0.3,0c0-0.5,0-0.9,0-1.4c0.1-0.8,0.5-1.6,1.1-2.2c0.7-0.6,1.6-0.9,2.6-0.9c0.9,0,1.8,0.3,2.6,0.9
	c0.6,0.6,1,1.4,1.1,2.2c0,0.5,0,0.9,0,1.4c0.1,0,0.2,0,0.3,0c0.3,0.1,0.6,0.4,0.4,1.2C38.8,21.9,38.5,22.5,38.1,22.5L38.1,22.5z"/>
<path class="st0" d="M34.5,30.8c0-1.6,0.5-3,1.2-4.2c-0.3,0.1-0.6,0.2-1.2,0.2c-1.7,0-1.6-0.5-2.6-0.4c-0.1,0-0.3,0-0.4,0.1
	c0,0-0.4,0.1-0.9,0.3c0,0,0,0,0,0c-1,0.4-1.9,0.7-2.8,1.2c-1.5,0.8-2.2,1.2-2.2,3.2v0.5c0,0.5,0.2,1,0.5,1.3
	c0.4,0.4,0.8,0.6,1.3,0.6h4.9h2.7C34.6,32.7,34.5,31.8,34.5,30.8z"/>
<path class="st0" d="M22.5,31.5c0-1.8,0.6-3.5,1.7-4.8c-0.2-0.1-0.3-0.1-0.5-0.2c0,0,0,0,0,0c-0.7-0.2-1.1-0.4-1.1-0.4
	c-0.2,0-0.4-0.1-0.5-0.1c-1.3-0.1-1.1,0.5-3.2,0.5c-2.1,0-2-0.7-3.2-0.5c-0.1,0-0.3,0-0.5,0.1c0,0-0.5,0.2-1.1,0.4c0,0,0,0,0,0
	c-1.2,0.4-2.4,0.9-3.5,1.5c-1.9,0.9-2.8,1.5-2.8,3.9v0.7c0,0.6,0.2,1.2,0.7,1.7c0.4,0.4,1,0.7,1.6,0.7h6.1h5.5h1.7
	C22.8,33.9,22.5,32.7,22.5,31.5z"/>
<path class="st0" d="M42.4,26c-1.8-0.7-3.9-0.3-5.2,1c-1.4,1.4-1.8,3.4-1,5.2c0.7,1.8,2.5,3,4.4,3c1.3,0,2.5-0.5,3.4-1.4
	c0.9-0.9,1.4-2.1,1.4-3.4C45.4,28.5,44.2,26.8,42.4,26z M41.5,34c-0.2,0.1-0.4,0.2-0.6,0.3h-0.4c-0.2,0-0.4-0.1-0.6-0.3
	c-0.2-0.2-0.3-0.4-0.3-0.7c0-0.3,0.1-0.5,0.3-0.7c0.5-0.4,1.1-0.4,1.6,0c0.2,0.2,0.3,0.4,0.3,0.7C41.9,33.5,41.8,33.8,41.5,34z
	 M41.3,31.6h-1.1c-0.1-1.4-0.6-3.3-0.6-3.6c0-0.3,0.1-0.6,0.3-0.8c0.5-0.4,1.2-0.4,1.6,0c0.2,0.2,0.3,0.5,0.3,0.8
	C41.9,28.3,41.4,30.2,41.3,31.6z"/>
</svg>
