<?xml version="1.0" encoding="UTF-8"?>
<svg width="24px" height="28px" viewBox="0 0 24 28" version="1.1" xmlns="http://www.w3.org/2000/svg" xmlns:xlink="http://www.w3.org/1999/xlink">
    <title>icon/map/养老院</title>
    <g id="页面-1" stroke="none" stroke-width="1" fill="none" fill-rule="evenodd">
        <g id="3-3图例" transform="translate(-942.000000, -478.000000)">
            <g id="编组-22备份" transform="translate(922.000000, 422.000000)">
                <g id="编组" transform="translate(20.000000, 10.000000)">
                    <g id="编组-21备份-3" transform="translate(0.000000, 40.000000)">
                        <g id="核酸检测点" transform="translate(0.000000, 6.000000)">
                            <g id="编组">
                                <path d="M12.009988,0 C17.8244181,-0.00454412441 22.805573,4.16000453 23.8312081,9.88326325 C24.8568433,15.606522 21.6318377,21.2416536 16.1776615,23.2564935 C14.8797023,23.7374731 12.009988,27.4285751 12.009988,27.4285751 C12.009988,27.4285751 9.15839619,23.7404119 7.86680436,23.2653098 C2.40393373,21.260448 -0.833222565,15.6250986 0.187023187,9.89609122 C1.20726894,4.16708387 6.19084649,-0.00428263648 12.009988,0 L12.009988,0 Z" id="椭圆_1259" fill="#F4974E"></path>
                                <circle id="椭圆_1260" fill="#FFFFFF" fill-rule="nonzero" cx="12" cy="12" r="11.0204082"></circle>
                            </g>
                            <path d="M17.4565045,9.3069595 L17.4565045,16.6802207 L18.1544287,16.6802207 L18.1544287,19.1020408 L5.59217041,19.1020408 L5.59217041,16.6802207 L6.29009457,16.6802207 L6.29009457,9.3069595 L4.89795918,9.3069595 L4.89795918,7.20708848 L11.8769497,4.40816327 L18.8560119,7.20708848 L18.8560119,9.30570392 L17.4602174,9.30570392 L17.4565045,9.3069595 Z M10.6832321,11.5659666 C10.6002023,11.5867734 10.5229302,11.6256605 10.4567072,11.679812 C8.8636249,12.8890091 7.92116719,14.7684717 7.90504194,16.7683625 C7.87716802,16.975964 7.87716802,17.1864354 7.90504194,17.3940548 L12.669186,17.3940548 L12.669186,14.9207917 L12.8956391,15.1485004 C12.9372527,15.1931274 12.9851083,15.2314585 13.0377351,15.2623638 C13.0676539,15.494772 13.2580898,15.6734413 13.4919688,15.6884365 C13.7113369,15.6899791 13.9010912,15.5361165 13.9449469,15.3211429 L13.9449469,15.2072796 C13.9456464,15.0506906 14.0723884,14.9238768 14.2290671,14.923249 C14.3057114,14.9184778 14.3807593,14.9469257 14.4350543,15.0012207 C14.4893492,15.0555874 14.5177971,15.1305636 14.5131156,15.2072796 L14.5131156,17.3964943 L15.2477566,17.3964943 L15.2477566,15.2330011 C15.2213355,14.6798993 14.779568,14.2370915 14.2266098,14.2094149 C14.089554,14.2072983 13.9538436,14.2365892 13.8298997,14.2950994 C13.8298997,14.2795481 13.8172901,14.2669385 13.8017388,14.2669385 L11.3345742,11.7361517 C11.172927,11.5699486 10.9339359,11.5043713 10.7101374,11.564693 L10.6832321,11.5659666 Z M14.936731,9.23962444 L14.8510465,9.26780329 L14.4249738,8.7559743 L14.368634,8.69963454 L14.3809028,8.71798398 C14.2568155,8.58480261 14.1198315,8.46421294 13.9719239,8.35806246 C13.1081554,8.32905852 12.2564224,8.56720653 11.5329202,9.04000486 C11.4470923,9.18945498 11.3894252,9.35341603 11.3627351,9.52367294 L11.2207108,10.2913178 L11.1423805,10.3146537 C11.0002845,10.3427428 10.6880751,10.7688873 10.7443969,10.9121133 C10.7593204,10.9799327 10.8006649,11.0389988 10.8593185,11.0761999 C10.9178824,11.1134728 10.9889304,11.1258134 11.0566242,11.1104594 L11.0847851,11.1104594 L11.6516804,10.9684351 C11.7301542,11.8454591 12.5047406,12.4928551 13.3817466,12.4144529 C14.2587706,12.3359791 14.9061845,11.5614106 14.8277824,10.6843866 C14.829594,10.5009641 14.8010026,10.3185101 14.7432817,10.1443968 L15.4240403,9.94603275 C15.5611498,9.86447374 15.6299557,9.70366957 15.5942254,9.54813885 C15.5660645,9.4061146 15.1118309,9.20656676 14.9428295,9.23472767 L14.936731,9.23962444 Z M14.3820867,8.72218828 L14.4817846,8.79279658 C14.4844627,8.83366806 14.470707,8.81556593 14.3847648,8.71308721 L14.3820867,8.72218828 Z" id="yanglaoyuan" fill="#F4974E"></path>
                        </g>
                    </g>
                </g>
            </g>
        </g>
    </g>
</svg>