<?xml version="1.0" encoding="UTF-8"?>
<svg width="51px" height="56px" viewBox="0 0 51 56" version="1.1" xmlns="http://www.w3.org/2000/svg" xmlns:xlink="http://www.w3.org/1999/xlink">
    <title>核酸采样点</title>
    <g id="页面-1" stroke="none" stroke-width="1" fill="none" fill-rule="evenodd">
        <g id="3-1医疗资源" transform="translate(-780.000000, -131.000000)">
            <g id="蓝绿备份-5" transform="translate(546.979608, 130.999992)">
                <g id="核酸采样点" transform="translate(234.000000, 0.000000)">
                    <g id="编组">
                        <path d="M24.5203922,0 C36.3915203,-0.00927758733 46.5613782,8.49334258 48.6553833,20.1783291 C50.7493884,31.8633157 44.165002,43.3683761 33.0293922,47.4820076 C30.3793922,48.4640076 24.5203922,56 24.5203922,56 C24.5203922,56 18.6983922,48.4700076 16.0613922,47.5 C4.90803136,43.4067479 -1.70116274,31.9012429 0.381839006,20.2045196 C2.46484075,8.50779622 12.6396449,-0.00874371614 24.5203922,0 L24.5203922,0 Z" id="椭圆_1259" fill="#9700C9"></path>
                        <circle id="椭圆_1260" fill="#FFFFFF" fill-rule="nonzero" cx="24.5" cy="24.5" r="22.5"></circle>
                    </g>
                    <path d="M35.5519771,24.6011617 C36.1519852,24.6011617 36.6770243,25.1262008 36.7521397,25.7262089 L36.7521397,25.7262089 L36.7521397,36.5270864 C36.7521397,37.8771503 35.6269461,39.0021974 34.2768822,39.0021974 L34.2768822,39.0021974 L13.6503829,39.0021974 C12.3002824,39.0021974 11.1751253,37.8771503 11.1751253,36.5270864 L11.1751253,36.5270864 L11.1751253,25.7262089 C11.1751253,25.1262008 11.6251955,24.6011617 12.2251669,24.6011617 C12.8253215,24.6011617 13.3503606,25.1262008 13.3503606,25.7262089 L13.3503606,25.7262089 L13.3503606,36.5270864 C13.3503606,36.6770243 13.5002985,36.8271087 13.6503829,36.8271087 L13.6503829,36.8271087 L34.1267978,36.8271087 C34.2768822,36.8271087 34.42693,36.6770243 34.42693,36.5270864 L34.42693,36.5270864 L34.42693,25.7262089 C34.42693,25.0512318 34.9519691,24.6011617 35.5519771,24.6011617 Z M29.9265216,30.7516929 C30.0765694,30.6765775 30.0765694,30.7516929 30.1515384,30.9016309 C30.5266396,31.6516867 30.9765632,32.4767115 31.42667,33.226804 C31.5767177,33.3768884 31.5767177,33.5267897 31.5767177,33.6768741 L31.5767177,33.7518431 C31.5767177,34.3518512 30.9765632,34.7269523 30.3016228,34.9519691 C29.8515527,35.101907 29.4765614,34.8019213 29.1764292,34.3518512 C28.8014745,33.6017587 28.4265198,32.9267817 27.9764497,32.1767258 C27.8263652,31.9516724 27.8263652,31.8767401 28.051382,31.8017711 C28.7265055,31.42667 29.3265136,31.1266476 29.9265216,30.7516929 Z M26.176279,32.1767258 C26.4013324,32.1017568 26.5512337,32.1767258 26.5512337,32.4017792 C26.7762871,33.6768741 25.6512399,34.9519691 24.301176,34.9519691 C23.6260525,34.9519691 23.026081,34.6518369 22.5760109,34.1267978 C22.3509575,33.9018909 22.3509575,33.8268121 22.6509432,33.6768741 C22.9509839,33.5456144 23.2463298,33.4190401 23.5393278,33.2948087 L25.287915,32.5587912 L25.287915,32.5587912 Z M21.0758626,24.8262151 C21.8259184,24.8262151 22.5010419,25.0512318 23.026081,25.5762709 C23.5510835,26.10131 23.8511059,26.7762871 23.8511059,27.5263429 C23.8511059,28.2764354 23.5510835,28.9515589 23.026081,29.4765614 L23.026081,29.4765614 L19.5007453,33.0017506 C18.9757062,33.5267897 18.3007292,33.8268121 17.5506733,33.8268121 C16.8005809,33.8268121 16.125494,33.5267897 15.6004549,33.0017506 C14.5503767,31.9516724 14.5503767,30.2266538 15.6004549,29.1764292 L15.6004549,29.1764292 L19.125754,25.6512399 C19.6507931,25.1262008 20.3257701,24.8262151 21.0758626,24.8262151 Z M21.0758626,25.2761387 C20.4758545,25.2761387 19.9508154,25.5011921 19.5007453,25.9512622 L19.5007453,25.9512622 L15.975556,29.4765614 C15.0754158,30.3016228 15.0754158,31.7266557 15.975556,32.6267959 C16.4256262,33.0767196 16.9506653,33.301773 17.5506733,33.301773 C18.1506448,33.301773 18.6756839,33.0767196 19.125754,32.6267959 L19.125754,32.6267959 L22.6509432,29.1014602 C23.1010134,28.6513901 23.3260668,28.126351 23.3260668,27.5263429 C23.3260668,26.9263715 23.1010134,26.4013324 22.6509432,25.9512622 C22.2010196,25.5011921 21.6759805,25.2761387 21.0758626,25.2761387 Z M23.5510835,30.6016085 C24.4511139,30.2266538 25.4262231,30.5266396 26.10131,31.276732 C26.251248,31.5016023 26.251248,31.5767177 25.9512622,31.7266557 C24.8262151,32.1767258 23.7010214,32.7017649 22.5760109,33.151835 C22.1259042,33.3768884 22.0509718,33.301773 22.0509718,32.8518493 L22.0509718,32.8518493 L22.0509718,32.7017649 C22.1259042,31.7266557 22.6509432,30.9016309 23.5510835,30.6016085 Z M17.7756901,27.8263652 L20.7758402,30.8266619 L19.125754,32.4767115 C18.7506528,32.8518493 18.2256137,33.0767196 17.6256423,33.0767196 C17.0256342,33.0767196 16.5005951,32.8518493 16.125494,32.4767115 C15.3004325,31.6516867 15.3004325,30.3016228 16.125494,29.4765614 L16.125494,29.4765614 L17.7756901,27.8263652 Z M27.0762728,27.6764273 C27.4514106,27.4514106 27.8263652,27.4514106 28.2014664,27.6764273 C28.3514043,27.7513963 28.5014521,27.9014807 28.5764211,28.051382 C29.0264912,28.8014745 29.4014825,29.5515303 29.7014682,30.3016228 C29.8515527,30.5266396 29.7765837,30.6016085 29.6264993,30.6765775 C29.0264912,30.9765632 28.4265198,31.276732 27.8263652,31.6516867 C27.6764273,31.7266557 27.60131,31.8017711 27.5263429,31.5767177 C27.0762728,30.8266619 26.7013181,30.0765694 26.251248,29.3265136 C26.176279,29.1764292 26.10131,28.9515589 26.10131,28.8014745 C26.10131,28.126351 26.6263491,27.9014807 27.0762728,27.6764273 Z M21.1509414,25.6512399 C21.6759805,25.6512399 22.0509718,25.8762933 22.3509575,26.176279 C22.426073,26.251248 22.426073,26.3263634 22.3509575,26.4013324 C22.2759886,26.4763013 22.2010196,26.4763013 22.1259042,26.4013324 C21.9010339,26.10131 21.5259327,25.9512622 21.1509414,25.9512622 C20.7758402,25.9512622 20.4758545,26.10131 20.1758322,26.4013324 L20.1758322,26.4013324 L19.0508217,27.5263429 C18.9757062,27.6013119 18.9757062,27.6013119 18.9007372,27.6013119 C18.8257683,27.6013119 18.7506528,27.5263429 18.7506528,27.5263429 C18.6756839,27.4514106 18.6756839,27.3764416 18.7506528,27.3013261 L18.7506528,27.3013261 L19.8758465,26.176279 C20.2508011,25.8013243 20.7008713,25.6512399 21.1509414,25.6512399 Z M36.3020696,12.3752513 L39.0021974,19.125754 C39.0021974,21.1509414 36.902041,22.8010277 35.2519914,22.8010277 C33.6768741,22.8010277 31.5016023,22.6509432 31.5016023,20.6259023 C31.5016023,22.6509432 29.1014602,22.8010277 27.7513963,22.8010277 C26.5512337,22.8010277 24.0011903,22.6509432 24.0011903,20.6259023 C24.0011903,22.6509432 21.2259104,22.8759966 20.2508011,22.8010277 C18.9757062,22.7260587 16.5005951,22.6509432 16.5005951,20.6259023 C16.5005951,22.6509432 14.1753854,22.9511121 12.750206,22.8010277 C10.875103,22.6509432 9,21.1509414 9,19.125754 L9,19.125754 L11.5502265,12.3752513 L36.3020696,12.3752513 Z M24.0011903,13.7253152 C23.6260525,13.7253152 23.3260668,14.0253376 23.3260668,14.4004388 L23.3260668,14.4004388 L23.3260668,16.050525 L21.6008651,16.050525 C21.2259104,16.050525 20.9259247,16.3505107 20.9259247,16.7256119 C20.9259247,17.1006032 21.2259104,17.4005889 21.6008651,17.4005889 L21.6008651,17.4005889 L23.1759823,17.4005889 L23.1759823,19.125754 C23.1759823,19.5007453 23.4761512,19.800731 23.8511059,19.800731 C24.2260605,19.800731 24.5262294,19.5007453 24.5262294,19.125754 L24.5262294,19.125754 L24.5262294,17.4005889 L26.251248,17.4005889 C26.6263491,17.4005889 26.9263715,17.1755355 26.9263715,16.8005809 C26.9263715,16.4256262 26.6263491,16.125494 26.251248,16.125494 L26.251248,16.125494 L24.6761307,16.125494 L24.6761307,14.4004388 C24.6761307,14.0253376 24.376145,13.7253152 24.0011903,13.7253152 Z M34.6518369,9 C35.4019293,9 35.9269318,9.5250391 35.9269318,10.2750949 C35.9269318,11.0251874 35.4019293,11.5502265 34.6518369,11.5502265 L34.6518369,11.5502265 L13.2003128,11.5502265 C12.4502203,11.5502265 11.9251812,11.0251874 11.9251812,10.2750949 C11.9251812,9.5250391 12.4502203,9 13.2003128,9 L13.2003128,9 Z" id="形状结合" fill="#9700C9"></path>
                </g>
            </g>
        </g>
    </g>
</svg>