<?xml version="1.0" encoding="UTF-8"?>
<svg width="24px" height="28px" viewBox="0 0 24 28" version="1.1" xmlns="http://www.w3.org/2000/svg" xmlns:xlink="http://www.w3.org/1999/xlink">
    <title>切片</title>
    <g id="页面-1" stroke="none" stroke-width="1" fill="none" fill-rule="evenodd">
        <g id="6确诊人员轨迹" transform="translate(-1747.000000, -494.000000)">
            <g id="编组-22" transform="translate(1727.000000, 278.000000)">
                <g id="编组" transform="translate(20.000000, 10.000000)">
                    <g id="编组-21备份-7" transform="translate(0.000000, 200.000000)">
                        <g id="icon/map/隔离酒店" transform="translate(0.000000, 6.000000)">
                            <g id="icon/map/公共场所蓝" transform="translate(0.000000, 0.000000)">
                                <g id="编组">
                                    <path d="M12.009988,0 C17.8244181,-0.00454412441 22.805573,4.16000453 23.8312081,9.88326325 C24.8568433,15.606522 21.6318377,21.2416536 16.1776615,23.2564935 C14.8797023,23.7374731 12.009988,27.4285751 12.009988,27.4285751 C12.009988,27.4285751 9.15839619,23.7404119 7.86680436,23.2653098 C2.40393373,21.260448 -0.833222565,15.6250986 0.187023187,9.89609122 C1.20726894,4.16708387 6.19084649,-0.00428263648 12.009988,0 L12.009988,0 Z" id="椭圆_1259" fill="#F4974E"></path>
                                    <circle id="椭圆_1260" fill="#FFFFFF" fill-rule="nonzero" cx="12" cy="12" r="11.0204082"></circle>
                                </g>
                                <path d="M12.2072001,18.0998074 L5.400043,18.0998074 C5.400043,18.0103913 5.3877551,17.9088156 5.3877551,17.8194637 L5.3877551,5.66809878 C5.3877551,5.57786456 5.40090925,5.47710703 5.40090925,5.3877551 L12.2072001,5.3877551 L12.194046,10.9999385 C12.194046,13.3487231 12.2072001,15.7238321 12.2072001,18.0989411 L12.2072001,18.0998074 Z M10.4033339,11.9268564 L11.0131086,11.9268564 C11.2163883,11.9268564 11.3048579,11.8506586 11.3048579,11.647379 L11.3048579,10.5566759 C11.3048579,10.339424 11.1909463,10.2518206 10.9877308,10.2518206 L10.3533963,10.2518206 C9.47731423,10.2518206 9.54128829,10.1878305 9.54128829,11.0516407 C9.54128829,12.0679106 9.45193636,11.9146327 10.4042162,11.9277227 L10.4033339,11.9268564 Z M10.4296582,6.9997473 L10.3017582,6.9997473 C9.47643194,6.9997473 9.52725186,6.91039537 9.52725186,7.77507178 C9.52725186,8.76508152 9.4133883,8.66344169 10.4296582,8.66344169 C11.4064978,8.66344169 11.2925861,8.72478492 11.2925861,7.85045144 C11.2925861,6.8727296 11.4064978,7.00062959 10.4287759,7.00062959 L10.4287759,6.9997473 L10.4296582,6.9997473 Z M10.416488,15.2156972 L10.9622887,15.2156972 C11.2032181,15.2279851 11.3179639,15.1263452 11.3048579,14.8853998 C11.2925861,14.5420125 11.3048579,14.2125975 11.3048579,13.869146 C11.3048579,13.6518941 11.2163883,13.5520028 11.0008207,13.5642907 L10.3017582,13.5642907 C9.48958609,13.5642907 9.52725186,13.475805 9.52725186,14.3527693 C9.53952371,15.3041828 9.42561203,15.202543 10.416488,15.2156972 Z M7.13993518,11.9277227 C7.33004464,11.9277227 7.49559435,11.9146327 7.68571985,11.9277227 C7.92753152,11.9400106 8.04139507,11.8515249 8.02917134,11.5974414 C8.01601719,11.2549203 8.02917134,10.924623 8.02917134,10.5811715 C8.02917134,10.3648019 7.93981941,10.2640283 7.72425187,10.2640283 L6.58098032,10.2640283 C6.36461069,10.2640283 6.26383712,10.3533963 6.26383712,10.5689478 L6.26383712,11.6105955 C6.26383712,11.8269651 6.3400349,11.9277227 6.56869242,11.9146327 C6.77197207,11.9146327 6.94980968,11.9277227 7.13993518,11.9277227 Z M7.13993518,15.2042916 L7.71116189,15.2042916 C7.93981941,15.2042916 8.04139507,15.1017855 8.02917134,14.8739942 C8.01601719,14.569155 8.02917134,14.2642997 8.02917134,13.9593802 C8.02917134,13.5782629 8.0037293,13.565173 7.61040436,13.5528851 L7.06373739,13.5528851 C6.17623373,13.5528851 6.26383712,13.4652817 6.26383712,14.3527693 C6.2770073,15.3059314 6.13681942,15.2042916 7.13993518,15.2042916 Z M7.1661793,7.00062959 L7.03829535,7.00062959 C6.18763933,6.9997473 6.26383712,6.91127766 6.26383712,7.77595407 C6.26383712,8.76596381 6.12366528,8.66432398 7.1898728,8.67747813 C8.12992887,8.67747813 8.0151349,8.74052177 8.0151349,7.86443975 C8.02828905,6.87449418 8.14303489,7.00062959 7.16531305,7.00062959 L7.1661793,7.00062959 Z M13.2375064,18.0989411 C13.2375064,17.1343092 13.2243523,16.1434814 13.2243523,15.1780474 L13.2243523,11.2672082 C13.35137,11.2549203 13.4416042,11.2417662 13.5161016,11.2417662 L18.8225634,11.2417662 C18.9119153,11.2417662 19.0135551,11.2672082 19.1020408,11.2794159 L19.1020408,18.1006255 L17.4392287,18.1006255 L17.4392287,15.3191016 L14.8232545,15.3191016 L14.8232545,18.1006255 L13.2375064,18.0989411 Z M19.0765988,10.2771985 L13.2375064,10.2771985 L13.2375064,9.35029654 C13.2659483,9.33518532 13.295529,9.3222718 13.3259921,9.31174848 L19.0923837,9.31174848 L19.0923837,10.2771985 L19.0765988,10.2771985 Z" id="Fill-1" fill="#F4974E"></path>
                            </g>
                        </g>
                    </g>
                </g>
            </g>
        </g>
    </g>
</svg>
