<?xml version="1.0" encoding="UTF-8"?>
<svg width="24px" height="28px" viewBox="0 0 24 28" version="1.1" xmlns="http://www.w3.org/2000/svg" xmlns:xlink="http://www.w3.org/1999/xlink">
    <title>切片</title>
    <g id="页面-1" stroke="none" stroke-width="1" fill="none" fill-rule="evenodd">
        <g id="6确诊人员轨迹" transform="translate(-1747.000000, -454.000000)">
            <g id="编组-22" transform="translate(1727.000000, 278.000000)">
                <g id="编组" transform="translate(20.000000, 10.000000)">
                    <g id="编组-21备份-5" transform="translate(0.000000, 160.000000)">
                        <g id="icon/map/公共场所红" transform="translate(0.000000, 6.000000)">
                            <g id="编组">
                                <path d="M11.9997251,0 C17.8091866,-0.00454024132 22.7860849,4.15644968 23.8108436,9.87481771 C24.8356024,15.5931857 21.6133526,21.2235019 16.1638372,23.2366201 C14.8669872,23.7171887 11.9997251,27.4051366 11.9997251,27.4051366 C11.9997251,27.4051366 9.15057007,23.720125 7.86008194,23.2454289 C2.40187949,21.2422803 -0.832510551,15.6117465 0.18686337,9.88763471 C1.20623729,4.16352297 6.18555622,-0.00427897683 11.9997251,0 L11.9997251,0 Z" id="椭圆_1259" fill="#F42A34"></path>
                                <circle id="椭圆_1260" fill="#FFFFFF" fill-rule="nonzero" cx="11.9897456" cy="11.9897456" r="11.0109909"></circle>
                            </g>
                            <path d="M12.1967687,18.0843405 L5.3954285,18.0843405 C5.3954285,17.9950008 5.3831511,17.893512 5.3831511,17.8042364 L5.3831511,5.66325522 C5.3831511,5.57309811 5.39629401,5.47242668 5.39629401,5.3831511 L12.1967687,5.3831511 L12.1836258,10.9905387 C12.1836258,13.3373162 12.1967687,15.7103956 12.1967687,18.083475 L12.1967687,18.0843405 Z M10.3944439,11.9166646 L11.0036976,11.9166646 C11.2068035,11.9166646 11.2951976,11.8405319 11.2951976,11.637426 L11.2951976,10.5476549 C11.2951976,10.3305886 11.1813832,10.2430601 10.9783414,10.2430601 L10.344549,10.2430601 C9.46921558,10.2430601 9.53313497,10.1791247 9.53313497,11.0421967 C9.53313497,12.0575982 9.4438594,11.9044513 10.3953254,11.9175301 L10.3944439,11.9166646 Z M10.4207457,6.9937658 L10.2929551,6.9937658 C9.46833405,6.9937658 9.51911053,6.90449023 9.51911053,7.76842775 C9.51911053,8.75759149 9.40534428,8.65603852 10.4207457,8.65603852 C11.3967506,8.65603852 11.2829362,8.71732933 11.2829362,7.84374299 C11.2829362,6.86685665 11.3967506,6.99464734 10.4198642,6.99464734 L10.4198642,6.9937658 L10.4207457,6.9937658 Z M10.4075868,15.2026949 L10.9529211,15.2026949 C11.1936446,15.2149723 11.3082924,15.1134193 11.2951976,14.8726798 C11.2829362,14.5295859 11.2951976,14.2004524 11.2951976,13.8572944 C11.2951976,13.6402281 11.2068035,13.5404222 10.9914202,13.5526996 L10.2929551,13.5526996 C9.48147695,13.5526996 9.51911053,13.4642895 9.51911053,14.3405044 C9.5313719,15.291105 9.41755756,15.189552 10.4075868,15.2026949 Z M7.13383389,11.9175301 C7.32378089,11.9175301 7.48918914,11.9044513 7.67915217,11.9175301 C7.9207572,11.9298075 8.03452345,11.8413974 8.02231017,11.587531 C8.00916726,11.2453026 8.02231017,10.9152875 8.02231017,10.5721295 C8.02231017,10.3559448 7.93303459,10.2552574 7.71765126,10.2552574 L6.57535667,10.2552574 C6.35917194,10.2552574 6.25848448,10.344549 6.25848448,10.5599163 L6.25848448,11.6006739 C6.25848448,11.8168586 6.33461715,11.9175301 6.56307928,11.9044513 C6.76618521,11.9044513 6.94387085,11.9175301 7.13383389,11.9175301 Z M7.13383389,15.191299 L7.70457247,15.191299 C7.93303459,15.191299 8.03452345,15.0888806 8.02231017,14.8612839 C8.00916726,14.5567052 8.02231017,14.2521104 8.02231017,13.9474515 C8.02231017,13.5666599 7.99688987,13.5535811 7.60390104,13.5413037 L7.05770122,13.5413037 C6.17095595,13.5413037 6.25848448,13.4537752 6.25848448,14.3405044 C6.27164341,15.292852 6.13157533,15.191299 7.13383389,15.191299 Z M7.16005558,6.99464734 L7.03228092,6.99464734 C6.18235181,6.9937658 6.25848448,6.90537176 6.25848448,7.76930928 C6.25848448,8.75847302 6.11843242,8.65692006 7.18372883,8.67006296 C8.1229816,8.67006296 8.00828573,8.73305273 8.00828573,7.85771935 C8.02142863,6.86861972 8.13607642,6.99464734 7.15919007,6.99464734 L7.16005558,6.99464734 Z M13.2261946,18.083475 C13.2261946,17.1196675 13.2130517,16.1296863 13.2130517,15.1650773 L13.2130517,11.25758 C13.3399608,11.2453026 13.430118,11.2321597 13.5045517,11.2321597 L18.8064789,11.2321597 C18.8957545,11.2321597 18.9973075,11.25758 19.0857175,11.2697773 L19.0857175,18.0851579 L17.4243264,18.0851579 L17.4243264,15.3060109 L14.8105876,15.3060109 L14.8105876,18.0851579 L13.2261946,18.083475 Z M19.0602972,10.2684163 L13.2261946,10.2684163 L13.2261946,9.34230643 C13.2546121,9.32720812 13.2841676,9.31430563 13.3146047,9.30379131 L19.0760687,9.30379131 L19.0760687,10.2684163 L19.0602972,10.2684163 Z" id="Fill-1" fill="#F42A34"></path>
                        </g>
                    </g>
                </g>
            </g>
        </g>
    </g>
</svg>
