<?xml version="1.0" encoding="utf-8"?>
<!-- Generator: Adobe Illustrator 22.0.0, SVG Export Plug-In . SVG Version: 6.00 Build 0)  -->
<svg version="1.1" id="图层_1" xmlns="http://www.w3.org/2000/svg" xmlns:xlink="http://www.w3.org/1999/xlink" x="0px" y="0px"
	 viewBox="0 0 24 28" style="enable-background:new 0 0 24 28;" xml:space="preserve">
<style type="text/css">
	.st0{fill:#F42A34;}
	.st1{fill:#FFFFFF;}
</style>
<title>切片</title>
<g id="_x33_-3图例" transform="translate(-1316.000000, -745.000000)">
	<g id="编组">
		<path id="椭圆_1259" class="st0" d="M1328,745c5.8,0,10.8,4.2,11.8,9.9c1,5.7-2.2,11.3-7.6,13.4c-1.3,0.5-4.2,4.2-4.2,4.2
			s-2.8-3.7-4.1-4.2c-5.5-2-8.7-7.6-7.7-13.4C1317.2,749.2,1322.2,745,1328,745L1328,745z"/>
		<circle id="椭圆_1260" class="st0" cx="1328" cy="757" r="11"/>
	</g>
	<path id="Fill-1" class="st1" d="M1328.8,762.9h-6.8c0-0.1,0-0.2,0-0.3v-12.1c0-0.1,0-0.2,0-0.3h6.8l0,5.6
		C1328.8,758.1,1328.8,760.5,1328.8,762.9L1328.8,762.9z M1327,756.7h0.6c0.2,0,0.3-0.1,0.3-0.3v-1.1c0-0.2-0.1-0.3-0.3-0.3h-0.6
		c-0.9,0-0.8-0.1-0.8,0.8C1326.1,756.9,1326,756.7,1327,756.7L1327,756.7z M1327,751.8h-0.1c-0.8,0-0.8-0.1-0.8,0.8
		c0,1-0.1,0.9,0.9,0.9c1,0,0.9,0.1,0.9-0.8C1327.9,751.7,1328,751.8,1327,751.8L1327,751.8L1327,751.8z M1327,760h0.5
		c0.2,0,0.4-0.1,0.3-0.3c0-0.3,0-0.7,0-1c0-0.2-0.1-0.3-0.3-0.3h-0.7c-0.8,0-0.8-0.1-0.8,0.8C1326.1,760.1,1326,760,1327,760z
		 M1323.7,756.7c0.2,0,0.4,0,0.5,0c0.2,0,0.4-0.1,0.3-0.3c0-0.3,0-0.7,0-1c0-0.2-0.1-0.3-0.3-0.3h-1.1c-0.2,0-0.3,0.1-0.3,0.3v1
		c0,0.2,0.1,0.3,0.3,0.3C1323.4,756.7,1323.5,756.7,1323.7,756.7z M1323.7,760h0.6c0.2,0,0.3-0.1,0.3-0.3c0-0.3,0-0.6,0-0.9
		c0-0.4,0-0.4-0.4-0.4h-0.5c-0.9,0-0.8-0.1-0.8,0.8C1322.9,760.1,1322.7,760,1323.7,760z M1323.8,751.8h-0.1c-0.8,0-0.8-0.1-0.8,0.8
		c0,1-0.1,0.9,0.9,0.9c0.9,0,0.8,0.1,0.8-0.8C1324.6,751.7,1324.7,751.8,1323.8,751.8L1323.8,751.8z M1329.8,762.9c0-1,0-2,0-2.9
		v-3.9c0.1,0,0.2,0,0.3,0h5.3c0.1,0,0.2,0,0.3,0v6.8h-1.7v-2.8h-2.6v2.8L1329.8,762.9z"/>
</g>
</svg>
