<?xml version="1.0" encoding="UTF-8"?>
<svg width="51px" height="56px" viewBox="0 0 51 56" version="1.1" xmlns="http://www.w3.org/2000/svg" xmlns:xlink="http://www.w3.org/1999/xlink">
    <title>核酸采样点备份</title>
    <g id="页面-1" stroke="none" stroke-width="1" fill="none" fill-rule="evenodd">
        <g id="2-1高速出入口" transform="translate(-1143.000000, -307.000000)">
            <g id="蓝绿备份-5" transform="translate(546.979608, 130.999992)">
                <g id="核酸采样点备份" transform="translate(597.000000, 176.000000)">
                    <g id="编组">
                        <path d="M24.5203922,0 C36.3915203,-0.00927758733 46.5613782,8.49334258 48.6553833,20.1783291 C50.7493884,31.8633157 44.165002,43.3683761 33.0293922,47.4820076 C30.3793922,48.4640076 24.5203922,56 24.5203922,56 C24.5203922,56 18.6983922,48.4700076 16.0613922,47.5 C4.90803136,43.4067479 -1.70116274,31.9012429 0.381839006,20.2045196 C2.46484075,8.50779622 12.6396449,-0.00874371614 24.5203922,0 L24.5203922,0 Z" id="椭圆_1259" fill="#14A4C1"></path>
                        <circle id="椭圆_1260" fill="#FFFFFF" fill-rule="nonzero" cx="24.5" cy="24.5" r="22.5"></circle>
                    </g>
                    <path d="M25.6414679,28.8564776 L26.005261,36.7523951 L21.7723987,36.7523951 L22.1360819,28.8564776 L25.6414679,28.8564776 Z M20.7147142,13 L16.8781312,36.6548269 L11.8189426,36.6548269 C10.4512301,36.6548269 9.5861182,36.183577 9.222435,35.2421759 C8.85864193,34.2995296 8.94104749,32.9620324 9.46994468,31.2292083 C9.64621932,30.6655543 9.85622531,29.9553649 10.0987174,29.1002516 C10.3412095,28.2440029 10.6000362,27.323954 10.8762596,26.3375411 C11.1512378,25.3523735 11.4263625,24.3349029 11.7013407,23.2835179 C11.9776008,22.2334147 12.2477079,21.2320956 12.5126509,20.2781322 C12.7777404,19.3256338 13.0139697,18.464221 13.2239757,17.6953955 C13.4328463,16.9265699 13.6152739,16.3140952 13.769061,15.8589968 C13.990384,15.2089085 14.1991081,14.6951739 14.3978337,14.3163281 C14.5966692,13.9363469 14.8104109,13.6550693 15.0429044,13.4712499 C15.274226,13.2875405 15.5330527,13.1675213 15.8193113,13.1137197 C16.1067419,13.059918 16.459401,13.0213156 16.8781312,13 L20.7147142,13 Z M30.1069702,13 C31.2095565,13 32.134623,13.2374745 32.8846967,13.7150239 C33.6348071,14.1912914 34.2073609,15.0464047 34.6049219,16.2816091 C34.7361116,16.6716254 34.9023511,17.2779106 35.0999413,18.1017098 L35.8274176,20.895771 C36.0925071,21.935839 36.3624677,23.0184283 36.6388742,24.146066 L37.4151712,27.328825 L38.1101614,29.9941138 C38.2857971,30.6875739 38.4277201,31.1922712 38.5343612,31.5092604 L38.5726946,31.6180527 C38.7278002,32.095602 38.8478193,32.6256712 38.9365243,33.2106774 C39.0240574,33.7957935 39.0240574,34.3420142 38.9365243,34.8509143 C38.8491012,35.3609498 38.6439297,35.7884332 38.3240496,36.1347929 C38.0051584,36.4810061 37.5251918,36.6548269 36.8863839,36.6548269 L30.867079,36.6548269 L26.9978634,13 L30.1069702,13 Z M25.2114207,18.9781021 L25.5764957,26.8738731 L22.2360673,26.8738731 L22.5987617,18.9781021 L25.2114207,18.9781021 Z M24.881359,13.0324495 L25.1126806,16.9966696 L22.6987471,16.9966696 L22.8974727,13.0324495 L24.881359,13.0324495 Z" id="形状结合" fill="#14A4C1"></path>
                </g>
            </g>
        </g>
    </g>
</svg>