<?xml version="1.0" encoding="UTF-8"?>
<svg width="32px" height="37px" viewBox="0 0 32 37" version="1.1" xmlns="http://www.w3.org/2000/svg" xmlns:xlink="http://www.w3.org/1999/xlink">
    <title>切片</title>
    <g id="页面-1" stroke="none" stroke-width="1" fill="none" fill-rule="evenodd">
        <g id="5图层备份-3" transform="translate(-1059.000000, -666.000000)">
            <g id="icon/map/扫码记录" transform="translate(1059.000000, 666.000000)">
                <g id="编组">
                    <path d="M16.0133174,0 C23.7658908,-0.00605883254 30.4074306,5.5466727 31.7749442,13.1776843 C33.1424577,20.808696 28.8424503,28.3222048 21.5702153,31.008658 C19.8396031,31.6499641 16.0133174,36.5714335 16.0133174,36.5714335 C16.0133174,36.5714335 12.2111949,31.6538825 10.4890725,31.0204131 C3.20524497,28.347264 -1.11096342,20.8334648 0.249364249,13.1947883 C1.60969192,5.55611182 8.25446199,-0.00571018197 16.0133174,0 L16.0133174,0 Z" id="椭圆_1259" fill="#14A4C1"></path>
                    <circle id="椭圆_1260" fill="#FFFFFF" fill-rule="nonzero" cx="16" cy="16" r="14.6938776"></circle>
                </g>
                <path d="M6.53061224,15.5767148 L9.52794296,15.5767148 L9.52794296,17.0879415 L6.53061224,17.0879415 L6.53061224,15.5767148 Z M21.6737995,23.086468 L10.9792617,23.086468 C10.2236483,23.086468 9.62456871,22.4699957 9.62456871,21.7201799 L9.62456871,17.0879415 L23.0284925,17.0879415 L23.0284925,21.7201799 C23.0284925,22.4699957 22.4294129,23.086468 21.6737995,23.086468 Z M23.0400876,15.5767148 L9.62456871,15.5767148 L9.62456871,10.9328813 C9.62456871,10.1714704 10.2352434,9.56659326 10.9792617,9.56659326 L21.6737995,9.56659326 C22.4294129,9.56659326 23.0284925,10.1830655 23.0284925,10.9328813 L23.0400876,15.5767148 L23.0400876,15.5767148 Z M25.3436454,26.122449 L21.5172658,26.122449 L21.5172658,24.6112223 L24.5860996,24.6112223 L24.5860996,21.5752413 L26.0857312,21.5752413 L26.0857312,25.3726332 C26.0857312,25.7842589 25.7494736,26.122449 25.3436454,26.122449 Z M11.1222678,26.122449 L7.41763661,26.122449 C6.99828087,26.122449 6.66202326,25.7842589 6.66202326,25.3610381 L6.66202326,21.5636462 L8.16165488,21.5636462 L8.16165488,24.5976947 L11.1106727,24.5976947 L11.1106727,26.1205165 L11.1222678,26.1205165 L11.1222678,26.122449 Z M26.0857312,11.07782 L24.5860996,11.07782 L24.5860996,8.04183895 L21.5172658,8.04183895 L21.5172658,6.53061224 L25.3417129,6.53061224 C25.7610687,6.53061224 26.0973263,6.86880236 26.0973263,7.29202314 L26.0973263,11.07782 L26.0857312,11.07782 Z M8.16165488,11.07782 L6.66202326,11.07782 L6.66202326,7.29202314 C6.66202326,6.86880236 6.99828087,6.53061224 7.41763661,6.53061224 L11.1222678,6.53061224 L11.1222678,8.04183895 L8.16165488,8.04183895 L8.16165488,11.07782 Z M23.0768054,15.5767148 L26.122449,15.5767148 L26.122449,17.0879415 L23.0768054,17.0879415 L23.0768054,15.5767148 L23.0768054,15.5767148 Z" id="形状" fill="#14A4C1"></path>
            </g>
        </g>
    </g>
</svg>