<?xml version="1.0" encoding="UTF-8"?>
<svg width="24px" height="28px" viewBox="0 0 24 28" version="1.1" xmlns="http://www.w3.org/2000/svg" xmlns:xlink="http://www.w3.org/1999/xlink">
    <title>icon/map/学校</title>
    <g id="页面-1" stroke="none" stroke-width="1" fill="none" fill-rule="evenodd">
        <g id="3-3图例" transform="translate(-1151.000000, -891.000000)">
            <g id="编组-23" transform="translate(1127.000000, 74.000000)">
                <g id="编组-22" transform="translate(0.000000, 46.000000)">
                    <g id="编组备份-4" transform="translate(24.000000, 579.000000)">
                        <g id="编组-21备份-13" transform="translate(0.000000, 186.000000)">
                            <g id="核酸采样点" transform="translate(0.000000, 6.000000)">
                                <g id="编组">
                                    <path d="M12.009988,0 C17.8244181,-0.00454412441 22.805573,4.16000453 23.8312081,9.88326325 C24.8568433,15.606522 21.6318377,21.2416536 16.1776615,23.2564935 C14.8797023,23.7374731 12.009988,27.4285751 12.009988,27.4285751 C12.009988,27.4285751 9.15839619,23.7404119 7.86680436,23.2653098 C2.40393373,21.260448 -0.833222565,15.6250986 0.187023187,9.89609122 C1.20726894,4.16708387 6.19084649,-0.00428263648 12.009988,0 L12.009988,0 Z" id="椭圆_1259" fill="#0ABE13"></path>
                                    <circle id="椭圆_1260" fill="#FFFFFF" fill-rule="nonzero" cx="12" cy="12" r="11.0204082"></circle>
                                </g>
                                <path d="M14.4176775,3.91836735 C14.4624025,3.91836735 14.4985911,3.95455597 14.4985911,3.99928099 L14.4985911,5.2614934 C14.4985911,5.30621842 14.4624025,5.34240705 14.4176775,5.34240705 L12.1197906,5.34240705 L12.1197906,6.50175799 L15.1297985,8.74213546 L15.1297985,12.3333865 L18.3015325,12.3333865 L18.3015325,18.6122449 L13.5115256,18.6122449 L13.5115256,15.4970695 C13.5115256,14.8580743 12.9934759,14.3400246 12.3543795,14.3400246 L11.367314,14.3400246 C10.7282175,14.3400246 10.2101679,14.8580743 10.2101679,15.4970695 L10.2101679,18.6122449 L5.3877551,18.6122449 L5.3877551,12.3333865 L8.8508389,12.3333865 L8.8508389,8.74213546 L11.8284408,6.50475179 L11.8284408,3.98307803 C11.8284408,3.94737489 11.8574484,3.91836735 11.8932527,3.91836735 L14.4176775,3.91836735 Z M11.9741663,8.69227243 C11.2412707,8.69227243 10.6471421,9.2864011 10.6471421,10.0192967 C10.6471421,10.7520911 11.2412707,11.3462198 11.9741663,11.3462198 C12.7069607,11.3462198 13.3010894,10.7520911 13.3010894,10.0192967 C13.3010894,9.2864011 12.7069607,8.69227243 11.9741663,8.69227243 Z" id="Fill-1" fill="#0ABE13"></path>
                            </g>
                        </g>
                    </g>
                </g>
            </g>
        </g>
    </g>
</svg>