<?xml version="1.0" encoding="utf-8"?>
<!-- Generator: Adobe Illustrator 22.0.0, SVG Export Plug-In . SVG Version: 6.00 Build 0)  -->
<svg version="1.1" id="图层_1" xmlns="http://www.w3.org/2000/svg" xmlns:xlink="http://www.w3.org/1999/xlink" x="0px" y="0px"
	 viewBox="0 0 51 56" style="enable-background:new 0 0 51 56;" xml:space="preserve">
<style type="text/css">
	.st0{fill:#14A4C1;}
	.st1{fill:#FFFFFF;}
</style>
<title>icon/map/党组织分布</title>
<g id="编组">
	<path id="椭圆_1259" class="st0" d="M25.5,0c11.9,0,22,8.5,24.1,20.2S45.1,43.4,34,47.5c-2.6,1-8.5,8.5-8.5,8.5s-5.8-7.5-8.5-8.5
		C5.9,43.4-0.7,31.9,1.4,20.2S13.6,0,25.5,0L25.5,0z"/>
	<circle id="椭圆_1260" class="st1" cx="25.5" cy="24.5" r="22.5"/>
</g>
<g>
	<g>
		<path class="st0" d="M13.5,14.6h24.7v-1.2H13.5c-2.4,0-4.4,2-4.4,4.4c0,2.4,2,4.4,4.4,4.4H16c2.1,1.4,5.6,2.8,11.6,2.9v-6.5H13.2
			c0,0,0.2,1.2,1.5,2.5h-1.1c-1.8,0-3.2-1.4-3.2-3.2C10.3,16.1,11.7,14.6,13.5,14.6 M19.8,19.5c0.5,0,1,0.4,1,1c0,0.5-0.4,1-1,1
			c-0.3,0-0.5-0.1-0.7-0.3c-0.2-0.2-0.3-0.4-0.3-0.7C18.8,19.9,19.2,19.5,19.8,19.5 M28.6,18.7c0,0,4.7-0.5,7.3,2.2l-8.1,8.3
			L27,28.3l3.2-3.2h-1.5V18.7z M37,21.7l-5,4.7l1.1,1.4l-1.8-0.1l-2.4,2.3l0.9,0.9l1.7-1.7h8.7C40.1,29.2,41.1,25.2,37,21.7
			 M39.7,30.1h-6.6v1.4H30v1.3h2.2l3.1,3.2C35.2,36.1,38,35.7,39.7,30.1 M31.1,33.4c0,0-2.6,1.6-2.4,4.6c0,0,3.3-0.1,5.3-1.4
			L31.1,33.4z M20.2,32.5c0,0,1.7,4.3,7.3,5.4C27.5,37.9,28.1,32.1,20.2,32.5"/>
	</g>
</g>
</svg>
