<?xml version="1.0" encoding="UTF-8"?>
<svg width="51px" height="56px" viewBox="0 0 51 56" version="1.1" xmlns="http://www.w3.org/2000/svg" xmlns:xlink="http://www.w3.org/1999/xlink">
    <title>核酸采样点</title>
    <g id="页面-1" stroke="none" stroke-width="1" fill="none" fill-rule="evenodd">
        <g id="7-7安保力量" transform="translate(-987.000000, -323.000000)">
            <g id="核酸采样点" transform="translate(987.979608, 322.999992)">
                <g id="编组">
                    <path d="M24.5203922,0 C36.3915203,-0.00927758733 46.5613782,8.49334258 48.6553833,20.1783291 C50.7493884,31.8633157 44.165002,43.3683761 33.0293922,47.4820076 C30.3793922,48.4640076 24.5203922,56 24.5203922,56 C24.5203922,56 18.6983922,48.4700076 16.0613922,47.5 C4.90803136,43.4067479 -1.70116274,31.9012429 0.381839006,20.2045196 C2.46484075,8.50779622 12.6396449,-0.00874371614 24.5203922,0 L24.5203922,0 Z" id="椭圆_1259" fill="#0ABE13"></path>
                    <circle id="椭圆_1260" fill="#FFFFFF" fill-rule="nonzero" cx="24.5" cy="24.5" r="22.5"></circle>
                </g>
                <path d="M15.2784483,19.8424198 C19.0455173,18.5298474 25.0459977,18.5097145 28.7126952,19.9261324 C28.5753647,21.3593766 28.1935931,22.5011334 27.6746166,23.5225113 C27.2962773,23.5056851 26.9145058,23.4723256 26.5863522,23.4018395 L26.5863522,23.4018395 L24.302755,22.9700497 L24.0782377,25.3038745 C24.0615789,25.4779968 23.6998984,29.663629 24.1653826,33.2600079 C24.3730318,35.1819665 25.6019334,36.9632879 27.795121,38.640973 C26.4457568,38.7614773 25.0795246,38.8486222 23.8004792,39.0026534 L23.8004792,39.0026534 L20.3948814,39.0026534 C19.4862779,38.8832023 18.5405704,38.8008435 17.594077,38.7194326 L16.8846272,38.6579874 C13.6965472,38.377201 10.6029388,38.0042851 9,36.1497265 L9,36.1497265 L9,35.4934194 C9.83042943,33.2799315 11.7324226,31.8937757 13.7917117,31.0834792 C15.3989526,30.4438309 17.5620874,30.4773578 18.8580009,28.9571362 C19.3441019,27.7203639 18.8999021,27.0850716 18.3631975,26.4485763 L18.191614,26.2468348 C18.0764779,26.1113766 17.9611506,25.9730533 17.8534492,25.8262414 C16.5575356,24.0448782 15.6066019,22.3505343 15.2784483,19.8424198 Z M32.5199881,24.0113932 C32.5199881,24.0113932 33.5578994,24.9254934 35.5302111,25.5316148 C36.7590709,25.9132189 38.851887,25.5316148 38.851887,25.5316148 C38.851887,25.5316148 39.2336585,29.6134014 38.7816102,33.0188318 C38.3329523,36.4075615 32.5232529,38.9857853 32.5232529,38.9857853 C32.5232529,38.9857853 32.3826726,38.9238848 32.1435339,38.8065108 L31.9154014,38.692469 C30.413547,37.9285047 26.6224826,35.7458884 26.2581987,33.0188318 C25.8061504,29.6134014 26.1879219,25.5316148 26.1879219,25.5316148 C26.1879219,25.5316148 28.280738,25.9132189 29.5095978,25.5316148 C31.4819095,24.9288 32.5199881,24.0113932 32.5199881,24.0113932 Z M22.8863371,9 C27.4001228,9.51893468 30.9628074,13.6511164 30.9796336,18.191732 C30.9796336,18.5030175 30.8221702,18.9551076 30.8924888,19.29992 C31.0131606,19.9228676 31.7397444,20.26768 31.7229182,20.9609463 C31.6694677,22.4677739 29.5431247,22.9163899 28.4012424,23.348389 C28.6791683,21.965498 29.0408488,20.6862432 29.3187748,19.3033522 C25.0628658,18.0409655 18.5968594,18.127943 14.4112272,19.3903296 C14.7928312,20.6025306 15.0707991,21.9352359 15.328634,23.2478083 C14.3275145,22.8863371 12.2513991,22.3505343 12.2848841,20.8671044 C12.3184111,20.2075325 13.0281687,19.845852 13.1320142,19.2229044 C13.1823674,18.8748272 13.0281687,18.4428699 13.0450368,18.1147164 C13.1320142,13.3396635 16.6781656,9.62278021 21.1383334,9 L21.1383334,9 Z M22.0055545,11.2133204 L21.1751251,12.8910055 L19.3368791,13.1689734 L20.6695844,14.4647195 L20.3414309,16.2797352 L21.9854216,15.4157789 L23.6296216,16.2797352 L23.3181269,14.4480189 L24.6509996,13.1521053 L22.8359839,12.8741793 L22.0055545,11.2133204 Z" id="形状结合" fill="#0ABE13"></path>
            </g>
        </g>
    </g>
</svg>