<?xml version="1.0" encoding="UTF-8"?>
<svg width="24px" height="28px" viewBox="0 0 24 28" version="1.1" xmlns="http://www.w3.org/2000/svg" xmlns:xlink="http://www.w3.org/1999/xlink">
    <title>切片</title>
    <g id="页面-1" stroke="none" stroke-width="1" fill="none" fill-rule="evenodd">
        <g id="3-3图例" transform="translate(-1151.000000, -332.000000)">
            <g id="编组-23" transform="translate(1127.000000, 74.000000)">
                <g id="编组-22" transform="translate(0.000000, 46.000000)">
                    <g id="编组备份" transform="translate(24.000000, 206.000000)">
                        <g id="核酸采样点" transform="translate(0.000000, 6.000000)">
                            <g id="编组">
                                <path d="M12.009988,0 C17.8244181,-0.00454412441 22.805573,4.16000453 23.8312081,9.88326325 C24.8568433,15.606522 21.6318377,21.2416536 16.1776615,23.2564935 C14.8797023,23.7374731 12.009988,27.4285751 12.009988,27.4285751 C12.009988,27.4285751 9.15839619,23.7404119 7.86680436,23.2653098 C2.40393373,21.260448 -0.833222565,15.6250986 0.187023187,9.89609122 C1.20726894,4.16708387 6.19084649,-0.00428263648 12.009988,0 L12.009988,0 Z" id="椭圆_1259" fill="#14A4C1"></path>
                                <circle id="椭圆_1260" fill="#FFFFFF" fill-rule="nonzero" cx="12" cy="12" r="11.0204082"></circle>
                            </g>
                            <path d="M11.7557123,5.87755102 C13.4920698,5.87755102 14.9046264,7.29002486 14.9046264,9.02644445 C14.9046264,10.031028 14.4300645,10.924899 13.6955392,11.5020024 C15.5622567,12.247696 16.9051861,14.0319253 16.9987286,16.1386436 L17.0039439,16.3740142 L17.0039439,17.4236729 C17.0039439,17.681524 16.8184812,17.8956531 16.5735185,17.940054 L16.4791145,17.9485022 L7.03224802,17.9485022 C6.77437855,17.9485022 6.56024736,17.7630232 6.51584622,17.5180715 L6.50739797,17.4236729 L6.50739797,16.3740142 C6.50739797,14.1660115 7.87996814,12.2753142 9.81574057,11.5020024 C9.08138077,10.924899 8.60681885,10.031028 8.60681885,9.02644445 C8.60681885,7.29002486 10.0192927,5.87755102 11.7557123,5.87755102 Z M11.7141278,15.3878795 C11.4438575,15.3878795 11.2244062,15.7170726 11.2244062,16.1225265 C11.2244062,16.5281418 11.4438575,16.8573027 11.7141278,16.8573027 C11.9845273,16.8573027 12.2039787,16.5281418 12.2039787,16.1225265 C12.2039787,15.7170726 11.9845273,15.3878795 11.7141278,15.3878795 Z M8.60681885,6.92720975 C8.65028054,6.92720975 8.69076342,6.93794588 8.73343903,6.94005587 C8.50628396,7.2685319 8.33303711,7.63596004 8.2223453,8.03011473 C8.2223453,8.03011473 7.50172113,9.95062074 8.93682566,11.4574857 C8.70401544,11.562207 6.12730046,12.6320045 5.98839822,16.0810554 L5.98256861,16.3740142 L4.93299263,16.3740142 C4.67514155,16.3740142 4.4610124,16.1885351 4.41661149,15.9435834 L4.40816327,15.8491848 L4.40816327,15.0373345 C4.40816327,13.4357682 5.29888998,12.0201294 6.66529567,11.3123513 C6.23582965,10.8387617 5.98256861,10.2159832 5.98256861,9.55177028 C5.98256861,8.10437815 7.15984045,6.92720975 8.60681885,6.92720975 Z M14.9047091,6.92720975 C16.3515221,6.92720975 17.5287939,8.10437815 17.5287939,9.55177028 C17.5287939,10.2159832 17.2756156,10.8387617 16.8460668,11.3123513 C18.1503632,11.9879577 19.0212413,13.3085363 19.0977892,14.8201406 L19.103282,15.0373345 L19.103282,15.8491848 C19.103282,16.1070359 18.917803,16.321165 18.6728512,16.3655659 L18.5784526,16.3740142 L17.5236224,16.3740142 C17.5238499,12.9523112 14.8086218,11.5651159 14.569448,11.4574857 C15.9566358,10.0008496 15.3294921,8.15768886 15.2861412,8.03642996 L15.2838457,8.03011473 C15.1778289,7.63596004 15.0051406,7.2685319 14.7775925,6.93997313 C14.8205991,6.93794588 14.861082,6.92720975 14.9047091,6.92720975 Z M11.7141278,11.9593435 C11.308674,11.9593435 10.9794808,12.2781728 10.9794808,12.6719066 C10.9794808,13.0657697 11.308674,14.8980287 11.7141278,14.8980287 C12.1197432,14.8980287 12.4489041,13.0657697 12.4489041,12.6719066 C12.4489041,12.2781728 12.1197432,11.9593435 11.7141278,11.9593435 Z" id="形状结合" fill="#14A4C1"></path>
                        </g>
                    </g>
                </g>
            </g>
        </g>
    </g>
</svg>