<?xml version="1.0" encoding="UTF-8"?>
<svg width="24px" height="28px" viewBox="0 0 24 28" version="1.1" xmlns="http://www.w3.org/2000/svg" xmlns:xlink="http://www.w3.org/1999/xlink">
    <title>icon/map/医疗站</title>
    <g id="页面-1" stroke="none" stroke-width="1" fill="none" fill-rule="evenodd">
        <g id="3-3图例" transform="translate(-942.000000, -598.000000)">
            <g id="编组-22备份" transform="translate(922.000000, 422.000000)">
                <g id="编组" transform="translate(20.000000, 10.000000)">
                    <g id="编组-21备份-8" transform="translate(0.000000, 160.000000)">
                        <g id="核酸检测点" transform="translate(0.000000, 6.000000)">
                            <g id="编组">
                                <path d="M12.009988,0 C17.8244181,-0.00454412441 22.805573,4.16000453 23.8312081,9.88326325 C24.8568433,15.606522 21.6318377,21.2416536 16.1776615,23.2564935 C14.8797023,23.7374731 12.009988,27.4285751 12.009988,27.4285751 C12.009988,27.4285751 9.15839619,23.7404119 7.86680436,23.2653098 C2.40393373,21.260448 -0.833222565,15.6250986 0.187023187,9.89609122 C1.20726894,4.16708387 6.19084649,-0.00428263648 12.009988,0 L12.009988,0 Z" id="椭圆_1259" fill="#F06292"></path>
                                <circle id="椭圆_1260" fill="#FFFFFF" fill-rule="nonzero" cx="12" cy="12" r="11.0204082"></circle>
                            </g>
                            <path d="M12.0923942,5.02260564 L5.20309931,9.74669793 C5.01258327,9.8786556 4.89857276,10.0955555 4.89795918,10.3274497 L4.89795918,10.6619649 C4.89795918,11.0550385 5.21360684,11.3751346 5.60652701,11.3805417 C5.99795158,11.3805417 6.31520988,11.697685 6.31520988,12.0891096 L6.31520988,17.3248878 C6.32015685,17.5164776 6.40256808,17.6977516 6.54353768,17.8276001 C6.68446894,17.9573335 6.87187874,18.0245971 7.06316176,18.0138211 L17.4954875,18.0138211 C17.8869121,18.0138211 18.2042087,17.6966778 18.2042087,17.3052533 L18.2042087,12.0891096 C18.2236898,11.7279421 18.5121866,11.4394069 18.8733541,11.4198108 C19.0639085,11.4198108 19.2466781,11.3441489 19.3814736,11.2094685 C19.516154,11.074673 19.5918367,10.8919034 19.5918367,10.701349 L19.5918367,10.3175558 C19.5935799,10.0901867 19.4831742,9.87654642 19.2965314,9.74669793 L12.9092586,5.03249959 C12.666435,4.85678612 12.3393978,4.85287456 12.0923942,5.02260564 Z M15.1827577,13.6145034 L13.9524566,13.6145034 C13.5611854,13.6145034 13.2438888,13.9317617 13.2438888,14.3231863 L13.2438888,15.5337378 C13.2438888,15.9251624 12.9266305,16.2422673 12.5352059,16.2422673 L11.9840976,16.2422673 C11.5928264,16.2422673 11.2755298,15.9251624 11.2755298,15.5337378 L11.2755298,14.3723493 C11.2755298,13.9810781 10.9582715,13.6637814 10.5668469,13.6637814 L9.36618935,13.6637814 C8.97476478,13.6637814 8.65762152,13.3465231 8.65762152,12.955252 L8.65762152,12.4039903 C8.65762152,12.0126807 8.97476478,11.6954224 9.36618935,11.6954224 L10.5865965,11.6954224 C10.9778676,11.6954224 11.2951643,11.3781641 11.2951643,10.9868546 L11.2951643,9.71716948 C11.2950109,9.33337628 11.6004578,9.01926257 11.9840976,9.00864 L12.5352059,9.00864 C12.9266305,9.00864 13.2438888,9.3258983 13.2438888,9.71716948 L13.2438888,10.9375766 C13.2438888,11.3290012 13.5611854,11.6461444 13.9524566,11.6461444 L15.1629698,11.6461444 C15.3682117,11.6314569 15.5696955,11.7065052 15.7151519,11.8519616 C15.8606083,11.997418 15.9356566,12.1989017 15.9208156,12.4039903 L15.9208156,12.955252 C15.8944318,13.3388918 15.5669727,13.6314152 15.1827577,13.6145034 Z" id="Fill-3" fill="#F06292"></path>
                        </g>
                    </g>
                </g>
            </g>
        </g>
    </g>
</svg>