<?xml version="1.0" encoding="UTF-8"?>
<svg width="24px" height="28px" viewBox="0 0 24 28" version="1.1" xmlns="http://www.w3.org/2000/svg" xmlns:xlink="http://www.w3.org/1999/xlink">
    <title>切片</title>
    <g id="页面-1" stroke="none" stroke-width="1" fill="none" fill-rule="evenodd">
        <g id="3-3图例" transform="translate(-1151.000000, -221.000000)">
            <g id="编组-23" transform="translate(1127.000000, 74.000000)">
                <g id="编组-22" transform="translate(0.000000, 46.000000)">
                    <g id="编组" transform="translate(24.000000, 55.000000)">
                        <g id="编组-21备份-3" transform="translate(0.000000, 40.000000)">
                            <g id="核酸采样点" transform="translate(0.000000, 6.000000)">
                                <g id="编组">
                                    <path d="M12.009988,0 C17.8244181,-0.00454412441 22.805573,4.16000453 23.8312081,9.88326325 C24.8568433,15.606522 21.6318377,21.2416536 16.1776615,23.2564935 C14.8797023,23.7374731 12.009988,27.4285751 12.009988,27.4285751 C12.009988,27.4285751 9.15839619,23.7404119 7.86680436,23.2653098 C2.40393373,21.260448 -0.833222565,15.6250986 0.187023187,9.89609122 C1.20726894,4.16708387 6.19084649,-0.00428263648 12.009988,0 L12.009988,0 Z" id="椭圆_1259" fill="#14A4C1"></path>
                                    <circle id="椭圆_1260" fill="#FFFFFF" fill-rule="nonzero" cx="12" cy="12" r="11.0204082"></circle>
                                </g>
                                <path d="M7.49534366,9.24675325 C6.53063036,9.24675325 5.78849722,9.98888639 5.78849722,10.9535997 C5.78849722,11.9183855 6.53063036,12.6604461 7.49534366,12.6604461 C8.46012944,12.6604461 9.20219011,11.9183855 9.20219011,10.9535997 C9.20219011,9.98888639 8.46012944,9.24675325 7.49534366,9.24675325 Z M6.75321052,13.1799267 C5.7142676,13.1799267 4.89795918,13.9963075 4.89795918,15.0352686 L4.89795918,15.9258066 L7.49534366,15.9258066 L8.01482418,13.6252319 C8.01482418,13.476827 8.08907192,13.328404 8.16324719,13.1799267 L6.75321052,13.1799267 Z M16.9944341,9.24675325 C16.0296484,9.24675325 15.2875877,9.98888639 15.2875877,10.9535997 C15.2875877,11.9183855 16.0296484,12.6604461 16.9944341,12.6604461 C17.9591656,12.6604461 18.7012806,11.9183855 18.7012806,10.9535997 C18.6271234,9.98888639 17.8849903,9.24675325 16.9944341,9.24675325 Z M17.7365673,13.1799267 L16.5491289,13.1799267 C16.6233766,13.328404 16.6976244,13.476827 16.6976244,13.6252319 L17.2171049,15.9258066 L19.5918367,15.9258066 L19.5918367,15.0352686 C19.5918367,13.9963075 18.7755283,13.1799267 17.7365673,13.1799267 Z M14.3228019,9.84048151 C14.3228019,10.9535997 13.4322639,11.8441558 12.3933028,11.8441558 C11.2801847,11.8441558 10.4638038,10.9535997 10.4638038,9.84048151 C10.4638038,8.72727273 11.3543599,7.83673469 12.3933028,7.83673469 C13.4322639,7.91098243 14.3228019,8.80144799 14.3228019,9.84048151 Z M12.3191457,13.1799267 C12.4675506,13.1799267 12.6159555,13.1799267 12.6901307,13.1057514 C12.7643785,13.0315218 12.9127834,12.8089416 12.9127834,12.586289 C12.9127834,12.3636182 12.5417259,12.3636182 12.3191457,12.3636182 C12.096475,12.3636182 11.7254174,12.3636182 11.7254174,12.586289 C11.7254174,12.7346939 11.8738223,13.0315218 11.9480701,13.1057514 C12.096475,13.1799267 12.244898,13.1799267 12.3191457,13.1799267 Z M7.86641929,15.9258066 L8.31165208,13.6994796 C8.38589981,13.1799267 8.83120507,12.8089416 9.27643785,12.7346939 L10.9832843,12.5120413 L11.8738223,14.5157881 L11.9480701,13.476827 C11.9480701,13.476827 11.9480701,13.4025793 12.0222453,13.4025793 L12.5417259,13.4025793 C12.5417259,13.4025793 12.6159555,13.4025793 12.6159555,13.476827 L12.6901307,14.4415403 L13.5806688,12.437866 L15.2875877,12.6604461 C15.8070682,12.7346939 16.1781438,13.1057514 16.2523191,13.6252319 L16.6976244,15.8515589 L7.86641929,15.8515589 L7.86641929,15.9258066 Z" id="Fill-1" fill="#14A4C1"></path>
                            </g>
                        </g>
                    </g>
                </g>
            </g>
        </g>
    </g>
</svg>