<?xml version="1.0" encoding="UTF-8"?>
<svg width="50px" height="56px" viewBox="0 0 50 56" version="1.1" xmlns="http://www.w3.org/2000/svg" xmlns:xlink="http://www.w3.org/1999/xlink">
    <title>切片</title>
    <g id="页面-1" stroke="none" stroke-width="1" fill="none" fill-rule="evenodd">
        <g id="7-2中转仓库" transform="translate(-560.000000, -379.000000)">
            <g id="核酸采样点" transform="translate(560.979608, 378.999992)">
                <g id="编组">
                    <path d="M24.5203922,0 C36.3915203,-0.00927758733 46.5613782,8.49334258 48.6553833,20.1783291 C50.7493884,31.8633157 44.165002,43.3683761 33.0293922,47.4820076 C30.3793922,48.4640076 24.5203922,56 24.5203922,56 C24.5203922,56 18.6983922,48.4700076 16.0613922,47.5 C4.90803136,43.4067479 -1.70116274,31.9012429 0.381839006,20.2045196 C2.46484075,8.50779622 12.6396449,-0.00874371614 24.5203922,0 L24.5203922,0 Z" id="椭圆_1259" fill="#F42A34"></path>
                    <circle id="椭圆_1260" fill="#FFFFFF" fill-rule="nonzero" cx="24.5" cy="24.5" r="22.5"></circle>
                </g>
                <path d="M23.1625013,9.19776439 C23.6905443,8.93407854 24.3118528,8.93407854 24.8398958,9.19776439 L24.8398958,9.19776439 L37.9658296,15.7607523 C38.7436295,16.149799 39.1520593,17.0223328 38.9521028,17.8689805 C38.7524819,18.7152925 38.006316,19.3131483 37.1274051,19.3131483 L37.1274051,19.3131483 L37.1274051,37.1270684 C37.1274051,38.1626385 36.287638,39.0022378 35.2522357,39.0022378 C34.2166237,39.0022378 33.3770244,38.1626385 33.3770244,37.1270684 L33.3770244,37.1270684 L33.3770244,22.1259233 L14.6255406,22.1259233 L14.6255406,37.1270684 C14.6255406,38.1626385 13.7859413,39.0022378 12.7503712,39.0022378 C11.714927,39.0022378 10.8753277,38.1626385 10.8753277,37.1270684 L10.8753277,37.1270684 L10.8753277,19.3131483 C9.996249,19.3131483 9.25008305,18.7154603 9.05046215,17.8689805 C8.85037976,17.0223328 9.25876769,16.149799 10.0365675,15.7607523 L10.0365675,15.7607523 Z M31.1007647,32.4426028 L25.1008928,38.8852509 L25.1008928,35.0983796 L16.0025078,35.0983796 L16.0025078,32.4426028 L31.1007647,32.4426028 Z M22.0023798,23 L22.0187893,26.7868713 L31.1007647,26.7868713 L31.1007647,29.4426481 L16.0025078,29.4426481 L22.0023798,23 Z M20.2509228,16.5005411 L18.3757534,16.5005411 L18.3757534,18.3757104 L20.2509228,18.3757104 L20.2509228,16.5005411 Z M25.876305,16.5005411 L22.1260921,16.5005411 L22.1260921,18.3757104 L25.876305,18.3757104 L25.876305,16.5005411 Z M29.6266857,16.5005411 L27.7514744,16.5005411 L27.7514744,18.3757104 L29.6266857,18.3757104 L29.6266857,16.5005411 Z" id="形状结合" fill="#F42A34"></path>
            </g>
        </g>
    </g>
</svg>