<?xml version="1.0" encoding="UTF-8"?>
<svg width="48px" height="48px" viewBox="0 0 48 48" version="1.1" xmlns="http://www.w3.org/2000/svg" xmlns:xlink="http://www.w3.org/1999/xlink">
    <title>icon／无人机巡航</title>
    <g id="页面-1" stroke="none" stroke-width="1" fill="none" fill-rule="evenodd">
        <g id="3图层备份" transform="translate(-1267.000000, -713.000000)" fill="#D60300" fill-rule="nonzero">
            <g id="icon／无人机巡航" transform="translate(1267.000000, 713.000000)">
                <path d="M3.10380579,32.5655177 C5.5581122,30.1279358 9.18146276,29.2911343 12.4561109,30.405632 C11.8921407,31.0943956 11.2561744,31.8167574 10.5554115,32.5655177 C7.77412595,32.1152477 5.01878596,33.5050238 3.72777281,36.0093355 C2.44154544,38.5124549 2.92296458,41.5601488 4.91810978,43.5449368 C6.91760068,45.532991 9.96814704,46.0112424 12.4801096,44.730474 C14.9889948,43.4551979 16.3867496,40.705278 15.9383267,37.926834 C16.687087,37.2308709 17.4142486,36.5973044 18.1078118,36.0357341 C19.2243498,39.3005937 18.3823547,42.9163293 15.9383267,45.3520411 C12.3863418,48.8772426 6.6557907,48.8772426 3.10380579,45.3520411 C1.40498655,43.6581539 0.450184131,41.3577877 0.450184131,38.9587794 C0.450184131,36.5597712 1.40498655,34.2594049 3.10380579,32.5655177 L3.10380579,32.5655177 Z M35.8932707,30.0768495 C39.1578478,28.9839263 42.7596863,29.825191 45.2023781,32.2511344 C46.9006069,33.9453356 47.8550012,36.2455842 47.8550012,38.6443961 C47.8550012,41.043208 46.9006069,43.3434566 45.2023781,45.0376578 C41.6503932,48.5628593 35.9198422,48.5628593 32.3678573,45.0376578 C29.9373463,42.6134535 29.0919167,39.0206102 30.1863727,35.7669483 C30.8871356,36.3189191 31.6142972,36.9428861 32.3678573,37.6316496 C31.9270806,40.4088945 33.3292675,43.1531468 35.8380736,44.4232903 C38.349707,45.6986958 41.396326,45.2177016 43.3928738,43.2305534 C45.3854666,41.2475629 45.867671,38.2039508 44.5856108,35.7021518 C43.2991405,33.1960208 40.5468625,31.8014816 37.7651716,32.2463346 C37.1164237,31.5449307 36.4920848,30.821338 35.8932707,30.0768495 L35.8932707,30.0768495 Z M10.4594166,7.69323393 C10.7137231,7.92285103 10.9526277,8.16897086 11.1745787,8.4299949 C13.0536793,10.4530878 19.3965436,16.9615434 23.2819381,17.1151353 C23.5315248,17.1247348 24.5538707,17.1295346 24.851455,17.1055358 C28.6432543,16.8175511 34.6429369,10.753072 36.6684297,8.59078641 C36.8196217,8.4299949 37.1892021,8.01481689 37.2683979,7.93562108 L37.304396,7.89962299 C37.3243632,7.87705678 37.3469172,7.85691929 37.3715925,7.83962614 C38.2763446,7.03086892 39.5746759,6.97087213 40.3330357,7.72683213 C41.045798,8.43479469 41.0361985,9.62033193 40.3618342,10.5058851 C40.1312621,10.759345 39.8843474,10.9974413 39.6226734,11.2186474 C37.5659822,13.1169469 30.8847358,19.5798049 30.9039347,23.4340009 L30.9039347,24.4611466 C30.7695419,28.3009435 37.5443833,34.8573965 39.6202735,36.7724951 L39.7834649,36.9140876 C39.9850542,37.0940781 40.1794439,37.2836681 40.3594344,37.4828575 C41.0337987,38.3708106 41.0433982,39.5539479 40.3306359,40.2643104 C39.572276,41.0226703 38.2739448,40.9602735 37.3715925,40.1515163 L37.3355944,40.1227178 L37.2635982,40.0531215 C37.1868023,39.9763256 36.8172218,39.5587477 36.6684297,39.4003561 C34.6525363,37.2548696 28.7176504,31.2503874 24.9210513,30.8928062 C24.2806345,30.8601003 23.6389069,30.8625037 22.998753,30.9000059 C19.0965595,31.3367827 13.0080817,37.5884519 11.1721789,39.5635474 L11.0281865,39.7291387 C10.8478182,39.9300533 10.6571733,40.1214992 10.4570167,40.3027083 C9.56906367,40.9746728 8.3787267,40.9818724 7.66596441,40.2739098 C6.90520469,39.5179498 6.96760137,38.2244183 7.78115832,37.322066 C7.79854826,37.2981901 7.81868546,37.2764419 7.84115511,37.2572695 L7.8771532,37.2188715 C7.95634901,37.1420756 8.37392691,36.774895 8.53471842,36.623703 C10.5962094,34.7062044 16.1855136,29.2224946 16.9942708,25.4402948 C17.1046649,24.9219222 17.1070648,23.2564104 17.047068,22.848432 C16.480698,19.0614324 10.6490066,13.3401351 8.53711832,11.3698394 C8.40992506,11.2498457 8.11474068,10.9906594 7.96114879,10.8538667 L7.88195298,10.7746709 L7.843555,10.7386728 C7.82113691,10.7185573 7.80101533,10.6960212 7.78355815,10.6714763 C6.9700012,9.77152393 6.91000436,8.4779924 7.67076414,7.71963251 C8.38112653,7.01166995 9.56906367,7.02366936 10.4594166,7.69323393 L10.4594166,7.69323393 Z M22.4083843,20.1965723 C20.871447,20.8281968 19.8670896,22.3243102 19.8645189,23.9859718 C19.8661183,25.6485076 20.87064,27.1458135 22.4083843,27.7777711 C23.6781836,28.3026267 25.1259023,28.1612508 26.2701714,27.4006512 C27.4144406,26.6400516 28.1052418,25.359946 28.1128824,23.9859718 C28.1055682,22.6113615 27.4144443,21.3305874 26.2694995,20.5698587 C25.1245546,19.80913 23.6760399,19.6682771 22.4059844,20.1941724 L22.4083843,20.1965723 Z M32.5094498,3.26306834 C36.0614347,-0.262133131 41.7919857,-0.262133131 45.3439706,3.26306834 C47.0442622,4.95714732 48,7.25854344 48,9.65872989 C48,12.0589163 47.0442622,14.3603125 45.3439706,16.0543914 C42.8964157,18.484284 39.2862661,19.3231839 36.0180641,18.2214768 C36.5604354,17.5495123 37.1844024,16.8295504 37.9019644,16.0543914 C40.683089,16.4996592 43.4351993,15.1061734 44.7224035,12.6009742 C46.005649,10.0985662 45.5233794,7.05357231 43.5296666,5.07017271 C41.5311567,3.08242122 38.48192,2.60325545 35.9700666,3.88223557 C33.4621631,5.15517198 32.0628056,7.90152017 32.5070499,10.6786759 C31.7150918,11.4106372 30.9903301,12.0322043 30.3327649,12.5601764 C29.2270854,9.30032795 30.0713057,5.69540494 32.5094498,3.26546823 L32.5094498,3.26306834 Z M2.65502958,2.6439011 C6.20701448,-0.881300367 11.9375655,-0.881300367 15.4895504,2.6439011 C17.9504559,5.09643563 18.7856989,8.74350807 17.6374368,12.0226048 C16.9414736,11.4346359 16.2215117,10.7938698 15.4847507,10.0955068 C15.9458184,7.31446412 14.5538733,4.55484093 12.0433328,3.27266785 C9.52982645,1.98417584 6.47259693,2.45980944 4.46933357,4.45100548 C2.47019204,6.43897655 1.99040957,9.49346205 3.28379627,11.9986061 C4.58080422,14.5058517 7.34572235,15.8917027 10.130634,15.4304245 C10.8313969,16.1671855 11.4793626,16.8847475 12.0649316,17.5759109 C8.7768852,18.7181526 5.12535855,17.8874558 2.65502958,15.4352242 C0.955329145,13.7408307 0,11.4395524 0,9.03956265 C0,6.63957288 0.955329145,4.33829461 2.65502958,2.6439011 L2.65502958,2.6439011 Z" id="形状"></path>
            </g>
        </g>
    </g>
</svg>