<?xml version="1.0" encoding="UTF-8"?>
<svg width="49px" height="56px" viewBox="0 0 49 56" version="1.1" xmlns="http://www.w3.org/2000/svg" xmlns:xlink="http://www.w3.org/1999/xlink">
    <title>icon/map/视频</title>
    <g id="icon/map/视频" stroke="none" stroke-width="1" fill="none" fill-rule="evenodd">
        <g id="编组" transform="translate(-0.000000, 0.000000)">
            <path d="M24.5203922,0 C36.3915203,-0.00927758733 46.5613782,8.49334258 48.6553833,20.1783291 C50.7493884,31.8633157 44.165002,43.3683761 33.0293922,47.4820076 C30.3793922,48.4640076 24.5203922,56 24.5203922,56 C24.5203922,56 18.6983922,48.4700076 16.0613922,47.5 C4.90803136,43.4067479 -1.70116274,31.9012429 0.381839006,20.2045196 C2.46484075,8.50779622 12.6396449,-0.00874371614 24.5203922,0 L24.5203922,0 Z" id="椭圆_1259" fill="#14A4C1"></path>
            <circle id="椭圆_1260" fill="#FFFFFF" fill-rule="nonzero" cx="24.5" cy="24.5" r="22.5"></circle>
        </g>
        <path d="M27.6605998,15 L11.6750493,15 C11.6750493,15 8.9977189,15 8.9977189,17.5986324 L8.9977189,30.7492662 C8.9977189,33.3478986 11.6750493,33.3478986 11.6750493,33.3478986 L27.6605998,33.3478986 C27.6605998,33.3478986 30.3378922,33.3478986 30.3378922,30.7492662 L30.3378922,17.6773304 C30.3378922,15 27.6605998,15 27.6605998,15 Z M38.6061676,16.3386652 C38.3700354,16.2599672 38.1337512,16.2599672 37.976203,16.4173632 L32.7002403,20.512209 C32.5428442,20.6696431 32.463956,20.8272293 32.463956,20.9846254 L32.463956,27.5206693 C32.463956,27.6781034 32.5428442,27.9143877 32.7002403,27.9930857 L37.976203,32.0879314 C38.0550531,32.1666295 38.2124873,32.2453656 38.3700354,32.2453656 C38.4487335,32.2453656 38.5274695,32.2453656 38.6850177,32.1666295 C38.9211499,32.0879314 39,31.8516472 39,31.615363 L39,16.8899317 C39,16.6536475 38.8424518,16.4173632 38.6061676,16.3386652 Z" id="Fill-1" fill="#14A4C1"></path>
    </g>
</svg>