<?xml version="1.0" encoding="UTF-8"?>
<svg width="24px" height="28px" viewBox="0 0 24 28" version="1.1" xmlns="http://www.w3.org/2000/svg" xmlns:xlink="http://www.w3.org/1999/xlink">
    <title>切片</title>
    <g id="页面-1" stroke="none" stroke-width="1" fill="none" fill-rule="evenodd">
        <g id="3-3图例" transform="translate(-1316.000000, -181.000000)">
            <g id="编组-23" transform="translate(1127.000000, 74.000000)">
                <g id="编组-22" transform="translate(0.000000, 46.000000)">
                    <g id="编组" transform="translate(24.000000, 55.000000)">
                        <g id="编组-21备份-2" transform="translate(165.000000, 0.000000)">
                            <g id="核酸采样点" transform="translate(0.000000, 6.000000)">
                                <g id="编组">
                                    <path d="M12.009988,0 C17.8244181,-0.00454412441 22.805573,4.16000453 23.8312081,9.88326325 C24.8568433,15.606522 21.6318377,21.2416536 16.1776615,23.2564935 C14.8797023,23.7374731 12.009988,27.4285751 12.009988,27.4285751 C12.009988,27.4285751 9.15839619,23.7404119 7.86680436,23.2653098 C2.40393373,21.260448 -0.833222565,15.6250986 0.187023187,9.89609122 C1.20726894,4.16708387 6.19084649,-0.00428263648 12.009988,0 L12.009988,0 Z" id="椭圆_1259" fill="#F42A34"></path>
                                    <circle id="椭圆_1260" fill="#FFFFFF" fill-rule="nonzero" cx="12" cy="12" r="11.0204082"></circle>
                                </g>
                                <path d="M10.2985548,17.0919206 L5.58953898,11.7691654 C4.64661367,10.7045781 4.67030535,9.09439441 5.64588138,8.05950774 L5.972099,7.71258478 C6.9269516,6.69541709 8.50448456,6.58866878 9.59281779,7.46343299 L10.6425095,8.30856903 L12.7953757,6.05489103 C14.2572918,4.52778207 16.6918338,4.50995449 18.177514,6.01635811 L18.3168587,6.15867109 C19.9626071,7.88153959 19.9982261,9.69633326 18.5214687,11.2947164 L11.8702056,18.7377414 L10.7255661,17.5960883 L13.4299653,14.5862674 L18.2694211,9.2307709 L18.2545798,9.21897031 C17.8334869,8.91058027 17.2493032,8.96395442 16.8875209,9.33753731 L15.2477272,11.0397005 L14.9363689,10.7342787 L17.7860492,7.85192951 L17.4687544,7.69178895 C17.139641,7.52571189 16.8341468,7.60285012 16.5880537,7.87857134 L14.372963,10.2330793 L14.1001376,9.94548504 L16.7985821,7.05423114 L16.5227885,6.86149415 C16.2856002,6.69541709 15.9623508,6.72801351 15.7607272,6.93855999 L13.4299653,9.4057527 L13.1156387,9.12402259 L15.6065231,6.60351002 L15.3426025,6.45526054 C14.989743,6.25658706 14.5478724,6.32177991 14.2691648,6.61241476 L11.2534074,9.75861215 C10.9420491,10.0818615 10.4378995,10.1233627 10.0791036,9.85059162 L8.82771584,8.90464377 L8.48079288,8.67925606 C8.32065232,8.60805433 8.14863877,8.59031724 7.97961156,8.60211783 C7.5199857,8.6377549 7.11968858,8.94020844 6.92398335,9.35831504 L6.66601731,9.90687973 C6.66601731,9.90687973 7.29763863,9.77050324 7.67418977,10.0225328 C8.0507952,10.2745804 8.17240284,10.5771064 8.29393809,11.2857935 C8.47485639,12.341476 8.32957516,13.275569 9.90709003,14.3400838 C11.2059697,15.2178163 11.7456297,15.5380974 11.7456297,15.5380974 L10.2985548,17.0919206 Z" id="Fill-1" fill="#F42A34"></path>
                            </g>
                        </g>
                    </g>
                </g>
            </g>
        </g>
    </g>
</svg>