<?xml version="1.0" encoding="utf-8"?>
<!-- Generator: Adobe Illustrator 25.0.0, SVG Export Plug-In . SVG Version: 6.00 Build 0)  -->
<svg version="1.1" id="图层_1" xmlns="http://www.w3.org/2000/svg" xmlns:xlink="http://www.w3.org/1999/xlink" x="0px" y="0px"
	 viewBox="0 0 45 45" style="enable-background:new 0 0 45 45;" xml:space="preserve">
<style type="text/css">
	.st0{fill:#2E97FF;}
	.st1{fill:#FFFFFF;}
</style>
<path class="st0" d="M42.3,20C42.4,9,33.6,0.1,22.6,0S2.7,8.8,2.7,19.7c-0.1,8.4,5.1,15.9,13,18.8l0.7,0.4c3.4,2.1,5.8,4.9,6.2,6.1
	c0.4-1.2,3-4.1,6.2-6.2c0.1-0.1,0.2-0.2,0.4-0.2C37,35.8,42.3,28.4,42.3,20z"/>
<circle class="st1" cx="22.5" cy="19.8" r="17.7"/>
<path class="st0" d="M29.8,26.8l-2-1.3c4.2-2.9,5.3-8.7,2.3-12.9s-8.7-5.3-12.9-2.3s-5.3,8.7-2.3,12.9c0.6,0.9,1.4,1.7,2.3,2.3
	l-2,1.3c-0.4,0.2-0.6,0.7-0.7,1.1l0,0v0.6c0,0.7,0.6,1.3,1.3,1.3c0,0,0,0,0,0h13.3c0.7,0,1.3-0.6,1.3-1.3v-0.6
	C30.4,27.4,30.2,27,29.8,26.8z M22.5,24.5c-3.7,0-6.6-3-6.6-6.6s3-6.6,6.6-6.6s6.6,3,6.6,6.6c0,0,0,0,0,0l0,0
	C29.1,21.5,26.2,24.5,22.5,24.5L22.5,24.5z M22.5,12.5c-2.9,0-5.3,2.4-5.3,5.3s2.4,5.3,5.3,5.3s5.3-2.4,5.3-5.3l0,0l0,0
	C27.8,14.9,25.4,12.5,22.5,12.5z M22.5,15.9c-1.1,0-2,0.9-2,2l0,0c0,0.4-0.4,0.6-0.7,0.6c-0.3,0-0.5-0.3-0.6-0.6
	c0-1.8,1.5-3.3,3.3-3.3c0,0,0,0,0,0c0.4,0,0.6,0.4,0.6,0.7C23,15.6,22.8,15.8,22.5,15.9z"/>
</svg>
