<?xml version="1.0" standalone="no"?><!DOCTYPE svg PUBLIC "-//W3C//DTD SVG 1.1//EN" "http://www.w3.org/Graphics/SVG/1.1/DTD/svg11.dtd"><svg t="1643416933702" class="icon" viewBox="0 0 1024 1024" version="1.1" xmlns="http://www.w3.org/2000/svg" p-id="1670" xmlns:xlink="http://www.w3.org/1999/xlink" width="200" height="200"><defs><style type="text/css"></style></defs><path d="M1022.4 894.1l-95.3-95.3c58-82 91.9-181 91.9-287.7 0-5.1-0.1-10.2-0.3-15.2 0-1.6-0.1-3.1-0.2-4.7-0.1-3.6-0.3-7.1-0.5-10.7l-0.3-5.1c-0.3-3.7-0.6-7.3-0.9-11-0.1-1.4-0.2-2.7-0.4-4.1-0.5-5-1.1-9.9-1.7-14.9l-0.3-2.1c-0.6-4.2-1.2-8.5-1.9-12.7-0.2-1.5-0.5-3-0.8-4.5-0.6-3.5-1.2-7-1.9-10.4-0.3-1.5-0.6-3-0.9-4.6-0.8-3.9-1.6-7.8-2.5-11.6-0.2-0.9-0.4-1.9-0.6-2.8-1.1-4.8-2.4-9.7-3.7-14.5-0.2-0.8-0.5-1.7-0.7-2.5-1.1-3.9-2.2-7.8-3.4-11.7-0.4-1.3-0.8-2.6-1.2-4-1.1-3.6-2.3-7.1-3.4-10.6l-1.2-3.6c-1.5-4.5-3.1-9-4.8-13.4 0-0.1-0.1-0.2-0.1-0.3-1.8-4.7-3.7-9.5-5.6-14.1-0.3-0.7-0.6-1.5-0.9-2.2-1.6-3.8-3.3-7.7-5-11.4-0.5-1-0.9-2.1-1.4-3.1-1.7-3.7-3.5-7.5-5.3-11.1-0.4-0.8-0.7-1.5-1.1-2.3-4.5-9-9.2-17.9-14.2-26.7-0.3-0.5-0.6-1.1-0.9-1.6-2.2-3.8-4.4-7.6-6.7-11.3-0.4-0.7-0.9-1.4-1.3-2.1-2.5-4-5-8-7.6-11.9-0.1-0.2-0.2-0.3-0.3-0.5-5.7-8.6-11.6-17-17.8-25.3-0.2-0.3-0.5-0.7-0.8-1-2.8-3.8-5.7-7.5-8.7-11.2-0.3-0.3-0.6-0.7-0.8-1-9.7-12.1-19.9-23.8-30.7-35-0.1-0.2-0.3-0.3-0.4-0.5-3.5-3.7-7.2-7.3-10.8-10.9l-0.1-0.1c-11.3-11-23-21.6-35.3-31.6l-0.1-0.1c-16.4-13.4-33.6-25.8-51.6-37.2C696.3 30.8 596.5 0 489.1 0h-1.9c205.7 52.6 358 243.1 358 470 0 72.6-15.7 141.5-43.6 203.3L464.8 336.5l126.7-126.7-80-80c-24.9 27.5-62.4 45.1-104.4 45.1-20.2 0-39.3-4.1-56.6-11.4L97.6 416.4 241.3 560l94-94 334.5 334.5c-61.1 30-130.2 47-203.2 47-141.7 0-268.3-63.6-351.4-163.2L30.4 767c19.7 32.9 43.2 63.4 69.7 91.1l-7.5 7.5c-3.7-0.5-7.6-0.8-11.5-0.8-44 0-79.6 35.6-79.6 79.6 0 44 35.6 79.6 79.6 79.6s79.6-35.6 79.6-79.6c0-5.3-0.5-10.4-1.5-15.4l10.2-10.2c27.2 19.9 56.4 37.3 87.3 51.9 0.2 0.1 0.4 0.2 0.5 0.3 3.2 1.5 6.4 3 9.7 4.4 0.6 0.3 1.2 0.5 1.7 0.8l9 3.9c0.9 0.4 1.7 0.7 2.6 1.1 2.8 1.2 5.6 2.3 8.5 3.4 1.1 0.4 2.2 0.9 3.3 1.3l8.1 3c1.3 0.5 2.5 0.9 3.8 1.4l7.8 2.7c1.4 0.5 2.8 1 4.2 1.4 2.5 0.8 5 1.7 7.6 2.5 1.5 0.5 3 1 4.6 1.4 2.5 0.8 4.9 1.5 7.4 2.2 1.6 0.5 3.3 0.9 4.9 1.4 2.4 0.7 4.8 1.3 7.2 2 1.7 0.5 3.5 0.9 5.2 1.4 2.3 0.6 4.7 1.2 7 1.8 1.8 0.4 3.7 0.9 5.5 1.3 2.3 0.5 4.6 1.1 6.9 1.6 1.9 0.4 3.8 0.8 5.8 1.2 2.3 0.5 4.5 0.9 6.8 1.4 2 0.4 4 0.8 6 1.1l6.6 1.2c2.1 0.4 4.2 0.7 6.3 1 2.2 0.3 4.3 0.7 6.5 1 2.2 0.3 4.4 0.6 6.5 0.9 2.1 0.3 4.2 0.6 6.4 0.8 2.3 0.3 4.6 0.5 6.8 0.8 2.1 0.2 4.1 0.5 6.2 0.6l7.2 0.6c2 0.2 3.9 0.3 5.9 0.5 2.6 0.2 5.1 0.3 7.7 0.5 1.8 0.1 3.7 0.2 5.5 0.3l8.7 0.3c1.5 0 3 0.1 4.6 0.2 4.4 0.1 8.9 0.2 13.4 0.2 114.7 0 220.8-35.2 307.6-94.9l96.2 96.2 129.5-129.8z" p-id="1671" fill="#d81e06"></path></svg>