<?xml version="1.0" standalone="no"?><!DOCTYPE svg PUBLIC "-//W3C//DTD SVG 1.1//EN" "http://www.w3.org/Graphics/SVG/1.1/DTD/svg11.dtd"><svg t="1623976004482" class="icon" viewBox="0 0 1024 1024" version="1.1" xmlns="http://www.w3.org/2000/svg" p-id="1148" xmlns:xlink="http://www.w3.org/1999/xlink" width="40" height="40"><defs><style type="text/css"></style></defs><path d="M508.95238866 0.000183c217.087961-0.182857 403.035357 155.300544 441.325636 368.969077 38.290279 213.668533-82.102842 424.045639-285.73252 499.273054C616.10665566 886.198882 508.95238866 1024 508.95238866 1024s-106.45941-137.691404-154.678829-155.428544C150.33302466 793.728041 29.50104566 583.33265 67.55361066 369.462974 105.67931866 155.575012 291.71814266-0.182674 508.98896066 0.000183z" fill="#2D98FF" p-id="1149"></path><path d="M508.58667466 448.000103m-411.428498 0a411.428498 411.428498 0 1 0 822.856996 0 411.428498 411.428498 0 1 0-822.856996 0Z" fill="#FFFFFF" p-id="1150"></path><path d="M672.64607466 182.857293a53.961133 53.961133 0 0 1 54.564561 51.126848l0.054857 3.620571v438.857064c0 29.677709-22.473139 53.229705-51.45599 54.875419l-3.236571 0.091429H447.00040066c-29.659423 0-53.211419-22.491425-54.857134-50.121134l-0.091428-3.108571V237.842426a54.546276 54.546276 0 0 1 51.693705-54.857133l3.254857-0.109714h225.645674zM302.50671166 269.933849a54.01599 54.01599 0 0 1 54.674276 55.003419v264.411381c0 30.811423-24.137139 55.003419-54.674276 55.003419h-22.655996c-30.500566 0-54.710847-24.191996-54.710847-53.247991V324.717839a54.308562 54.308562 0 0 1 54.710847-54.78399z m257.883383 21.759996h-0.036572a69.083416 69.083416 0 0 0-69.650273 69.650273 68.937131 68.937131 0 0 0 69.650273 69.668559 68.937131 68.937131 0 0 0 69.668559-69.631987 69.083416 69.083416 0 0 0-69.631987-69.668559z" fill="#2D98FF" p-id="1151"></path></svg>