<?xml version="1.0" encoding="UTF-8"?>
<svg width="80px" height="80px" viewBox="0 0 80 80" version="1.1" xmlns="http://www.w3.org/2000/svg" xmlns:xlink="http://www.w3.org/1999/xlink">
    <title>icon</title>
    <g id="页面-1" stroke="none" stroke-width="1" fill="none" fill-rule="evenodd">
        <g id="icon" transform="translate(-918.000000, -621.000000)">
            <g id="icon-鹰眼摄像头备份" transform="translate(923.000000, 621.000000)">
                <g id="编组">
                    <path d="M69.4484807,28.6763513 C72.4373742,45.2821286 63.0344381,61.6156724 47.1446082,67.4781764 C43.8845088,68.68098 34.9992248,80 34.9992248,80 C34.9992248,80 26.1396028,68.68098 22.9252094,67.5037565 C7.00877797,61.6746016 -2.4283033,45.3360278 0.544884464,28.713571 C3.51807223,12.0911143 18.0411533,-0.0119176405 34.9992248,0 C51.9435663,-0.0126763359 66.4595872,12.0705739 69.4484807,28.6763513 Z" id="椭圆_1259备份" fill="#FFFFFF" opacity="0.4"></path>
                    <path d="M34.9992758,2.52837945 C50.8671753,2.51603247 64.4610208,13.8316567 67.2600356,29.3825004 C70.0590503,44.9333442 61.2578327,60.2447349 46.3730859,65.719319 C42.8308839,67.0262036 34.9992758,77.0554114 34.9992758,77.0554114 C34.9992758,77.0554114 27.2171248,67.0341886 23.6922997,65.7432741 C8.78382525,60.2958018 -0.0505523208,44.9838192 2.73375445,29.4173557 C5.51806122,13.8508922 19.1185185,2.51674297 34.9992758,2.52837945 L34.9992758,2.52837945 Z" id="椭圆_1259" fill="#2E97FF"></path>
                    <ellipse id="椭圆_1260" fill="#FFFFFF" fill-rule="nonzero" cx="34.9992758" cy="35.1339616" rx="30.0753" ry="29.9438927"></ellipse>
                </g>
                <path d="M34.9248791,28.1877304 C44.237098,28.2015873 52.1111152,28.8700702 52.1111152,38.0994801 C52.1111152,47.4330544 44.4501435,55 34.9998866,55 C25.5498273,55 17.8889214,47.4330544 17.8889214,38.0994801 C17.8889214,28.7651905 25.15681,28.1875 34.6068694,28.1875 Z M34.9996232,33.5255605 C31.1912606,33.5255605 28.1043405,36.5745151 28.1043405,40.3360392 C28.1043405,44.0973031 31.191524,47.1461927 34.9996232,47.1461927 C38.8079858,47.1461927 41.8948402,44.0967828 41.8948402,40.3360392 C41.8948402,36.5745151 38.8079858,33.5255605 34.9996232,33.5255605 Z M35.0000183,37.9375 C36.3500152,37.9375 37.4444607,39.0286212 37.4444607,40.375 C37.4444607,41.2457572 36.9786523,42.0505571 36.2223614,42.4860572 C35.4660705,42.9213143 34.5342099,42.9213143 33.777919,42.4860572 C33.0216281,42.0505571 32.5555759,41.2457572 32.5555759,40.375 C32.5555759,39.0286212 33.6500214,37.9375 35.0000183,37.9375 Z M35.5581231,16 C55.8089133,16 57,21.533905 57,23.6484885 C57,26.5141807 56.7572926,26.2947917 54.678423,28.0540408 L54.678423,28.0540408 L53.7617571,30.625 L53.7278565,30.625 C51.3834433,25.8565964 43.7229467,24.4588002 35.0000183,24.4588002 C26.2783764,24.4588002 19.1769496,25.8565964 16.5875775,30.625 L16.5875775,30.625 L16.2387941,30.625 L15.3070113,27.9652946 C13.1577299,26.9988079 13.0102674,26.6852989 13.0006159,24.340391 L13,23.6484885 C13,19.0043763 20.5193344,16 35.5581231,16 Z" id="形状结合" fill="#2E97FF"></path>
            </g>
        </g>
    </g>
</svg>
