<svg t="1623512297960" class="icon" viewBox="0 0 1024 1024" version="1.1" xmlns="http://www.w3.org/2000/svg" p-id="8310"
     width="32" height="32">
    <path d="M512 928.248c-229.768 0-416-186.264-416-416 0-229.752 186.232-416 416-416 229.736 0 416 186.248 416 416 0 229.736-186.264 416-416 416"
          fill="#1296db" p-id="8311"></path>
    <path d="M747.072 562.504H278.072a33.496 33.496 0 0 0-33.504 33.504c0 12.048 6.408 22.512 15.936 28.416 0.672 0.64 1.24 1.352 1.976 1.936l156.92 125.592a33.552 33.552 0 0 0 47.112-5.192 33.536 33.536 0 0 0-5.232-47.12l-87.624-70.136h373.424c18.512 0 33.504-14.984 33.504-33.504s-15-33.496-33.512-33.496zM278.072 462h469a33.488 33.488 0 0 0 33.504-33.496 33.368 33.368 0 0 0-15.672-28.272c-0.72-0.688-1.336-1.456-2.128-2.088L605.864 272.552a33.552 33.552 0 0 0-47.112 5.2 33.544 33.544 0 0 0 5.232 47.112l87.632 70.144H278.072a33.496 33.496 0 1 0 0 66.992z"
          fill="#FFFFFF" p-id="8312"></path>
</svg>