<?xml version="1.0" standalone="no"?><!DOCTYPE svg PUBLIC "-//W3C//DTD SVG 1.1//EN" "http://www.w3.org/Graphics/SVG/1.1/DTD/svg11.dtd"><svg t="1623976289996" class="icon" viewBox="0 0 1024 1024" version="1.1" xmlns="http://www.w3.org/2000/svg" p-id="1149" xmlns:xlink="http://www.w3.org/1999/xlink" width="40" height="40"><defs><style type="text/css"></style></defs><path d="M508.96238066 0.0192c217.08393-0.182854 403.027872 155.29766 441.31744 368.962224 38.289568 213.664565-82.101318 424.037764-285.727214 499.263782C616.11465766 886.201441 508.96238066 1024 508.96238066 1024s-106.457432-137.688847-154.675957-155.425657C150.34967666 793.732318 29.51994166 583.340834 67.57179966 369.475129 105.69679966 155.59114 291.73216866-0.163654 508.99895166 0.0192z" fill="#E8473F" p-id="1150"></path><path d="M508.96238066 448.0108m-411.420857 0a411.420857 411.420857 0 1 0 822.841715 0 411.420857 411.420857 0 1 0-822.841715 0Z" fill="#FFFFFF" p-id="1151"></path><path d="M518.10506666 164.678969c141.620202 53.082433 227.342023 222.624397 153.962827 359.965822l-179.324637-180.165764 68.570143-68.826138-43.190048-42.82434c-23.661271 23.295563-61.365707 28.086331-86.745802 17.809952L295.26124466 387.303367l77.145982 77.054555 51.418465-51.381894 179.67206 179.818343c-87.769783 48.291666-209.495501 32.877098-299.678953-60.268584L260.64703666 576.0084c13.019184 18.157374 23.990407 34.248501 37.704436 48.291666a25.745803 25.745803 0 0 1-5.119904 4.46163c-2.413669-0.347422-5.156475-1.023981-7.551858-1.02398-23.313849 0-41.83693 19.857913-41.83693 43.153476a42.34892 42.34892 0 0 0 42.166066 42.129496c22.984712 0 42.860911-19.19964 42.860911-42.129496 0-2.742806-0.676559-5.138189-1.023981-7.533573l6.509592-6.509592c103.202636 69.520982 216.699937 78.425958 338.425655 5.485611l50.394484 50.68705 68.93585-67.838728-50.760191-51.016186C886.70158366 374.284182 692.98635866 159.54078 518.10506666 164.678969z" fill="#E8473F" p-id="1152"></path></svg>