<?xml version="1.0" encoding="UTF-8"?>
<svg width="16px" height="16px" viewBox="0 0 16 16" version="1.1" xmlns="http://www.w3.org/2000/svg" xmlns:xlink="http://www.w3.org/1999/xlink">
    <title>切片</title>
    <g id="页面-1" stroke="none" stroke-width="1" fill="none" fill-rule="evenodd">
        <g id="2-2-1-6视频回放-录像" transform="translate(-1276.000000, -834.000000)">
            <g id="3-1-2-2告警详情" transform="translate(460.000000, 230.000000)">
                <g id="编组-11" transform="translate(24.000000, 124.000000)">
                    <g id="编组-13" transform="translate(0.000000, 456.000000)">
                        <g id="ico" transform="translate(708.000000, 19.000000)">
                            <g id="icon16*16" transform="translate(84.000000, 5.000000)">
                                <rect id="矩形" fill="#FF3E3E" x="5" y="5" width="6" height="6" rx="1"></rect>
                                <path d="M15.3597414,4.90543667 C17.0690019,8.9222611 15.2412831,13.5608042 11.2421309,15.3554988 C10.2474677,15.7787373 9.17696274,15.9979655 8.09497499,15.999976 C4.24565165,16.0060255 0.926312907,13.3126109 0.161779258,9.56274719 C-0.60267547,5.81296193 1.39983052,2.04754692 4.94781908,0.563643011 C9.02883064,-1.03861159 13.6504809,0.888690685 15.3597414,4.90543667 Z M7.99999965,1.26831395 C4.21266556,1.26831395 1.27882704,4.22625862 1.27882704,7.96737595 C1.27882704,11.7085913 4.22447183,14.7424284 8.00590278,14.7424284 C11.7873337,14.7424284 14.7329785,11.6928831 14.7329785,7.96737595 C14.7329785,4.24196681 11.7873337,1.26831395 7.99999965,1.26831395 Z" id="形状结合" fill="#FFFFFF"></path>
                            </g>
                        </g>
                    </g>
                </g>
            </g>
        </g>
    </g>
</svg>