<?xml version="1.0" encoding="UTF-8"?>
<svg width="16px" height="16px" viewBox="0 0 16 16" version="1.1" xmlns="http://www.w3.org/2000/svg" xmlns:xlink="http://www.w3.org/1999/xlink">
    <title>切片</title>
    <g id="页面-1" stroke="none" stroke-width="1" fill="none" fill-rule="evenodd">
        <g id="2-2-4-1视频回放-分组" transform="translate(-1109.000000, -560.000000)" fill="#FFFFFF">
            <g id="视频" transform="translate(560.000000, 140.000000)">
                <g id="编组-15" transform="translate(-0.000000, 396.000000)">
                    <g id="ico" transform="translate(425.000000, 19.000000)">
                        <g id="icon16*16" transform="translate(124.000000, 5.000000)">
                            <path d="M8.95807336,1.00276134 C9.91612098,0.955255248 10.7305194,1.52502236 11.1137384,2.37957104 C11.3054251,2.80676888 11.7365015,3.09165244 12.2155125,3.09165244 L12.2155125,3.09165244 L13.9880357,3.09165244 C14.5150069,3.04424834 15.0418495,3.28162581 15.3772626,3.66141955 C15.7604817,4.0412388 16,4.56347432 16,5.08563335 L16,5.08563335 L16,12.6343591 C16,13.1565947 15.7604817,13.6788557 15.3772626,14.0586494 C14.9940178,14.4384687 14.4670723,14.6283146 13.9401011,14.6283146 L13.9401011,14.6283146 L2.05989888,14.6283146 C1.53292766,14.6283146 1.00598217,14.4384687 0.622737389,14.0586494 C0.239518339,13.6788557 -6.39488462e-14,13.1565947 -6.39488462e-14,12.6343591 L-6.39488462e-14,12.6343591 L-6.39488462e-14,5.08563335 C-6.39488462e-14,4.56347432 0.239518339,4.0412388 0.622737389,3.66141955 C1.00598217,3.28162581 1.53292766,3.09165244 2.05989888,3.09165244 L2.05989888,3.09165244 L3.78438461,3.09165244 C4.26349848,3.09165244 4.69457488,2.80676888 4.88623586,2.37957104 C5.26948064,1.57242646 6.0837761,1.00276134 7.04192664,1.00276134 L7.04192664,1.00276134 Z M9.0060079,1.9997518 L7.04192664,1.9997518 C6.56288997,1.9997518 6.13171064,2.28463535 5.94015258,2.71185869 C5.55693353,3.56640737 4.69457488,4.13614898 3.73655298,4.13614898 L3.73655298,4.13614898 L1.96410698,4.13614898 C1.48499312,4.13614898 1.05391671,4.56347432 1.05391671,5.03820375 L1.05391671,5.03820375 L1.05391671,12.6818652 C1.05391671,13.2040243 1.48499312,13.583818 1.96410698,13.583818 L1.96410698,13.583818 L14.1317621,13.583818 C14.3712804,13.583818 14.5628385,13.5364139 14.7544995,13.346466 C14.9460833,13.2040243 15.0418495,12.9666468 15.0418495,12.7292948 L15.0418495,12.7292948 L14.9940178,5.03820375 C14.9940178,4.51596823 14.5628385,4.13614898 14.0838276,4.13614898 L14.0838276,4.13614898 L12.3113816,4.13614898 C11.3532567,4.13614898 10.491001,3.56640737 10.107782,2.71185869 C9.91612098,2.28463535 9.48504458,1.9997518 9.0060079,1.9997518 L9.0060079,1.9997518 Z M8.36465329,5.34023863 C10.4348902,5.34023863 12.0816386,7.02505601 12.0816386,9.09498412 C12.0816386,11.1648864 10.4348902,12.8497038 8.41173284,12.8497038 C6.38860074,12.8977941 4.74182711,11.2129767 4.74182711,9.14315204 C4.74182711,7.07322394 6.341597,5.38840656 8.36465329,5.34023863 Z M8.4588124,6.35111872 C6.95322689,6.30302836 5.68288754,7.55456709 5.68288754,9.09498412 C5.68288754,10.6353753 6.85906778,11.886914 8.36465329,11.935082 C9.91731835,11.935082 11.1406034,10.6835432 11.187683,9.14315204 C11.187683,7.60276088 9.96442317,6.35111872 8.4588124,6.35111872 Z M13.6343036,5.14774791 C13.8695498,5.14774791 14.0576911,5.24398034 14.1517744,5.38840656 C14.2459335,5.53283277 14.2459335,5.72532349 14.1517744,5.91794349 C14.0107126,6.11043421 13.8224702,6.2066925 13.6343036,6.2066925 L13.6343036,6.2066925 L13.2108151,6.2066925 C12.8814098,6.2066925 12.6461889,5.966008 12.6461889,5.67715557 C12.6461889,5.38840656 12.8814098,5.14774791 13.2108151,5.14774791 L13.2108151,5.14774791 Z" id="形状结合"></path>
                        </g>
                    </g>
                </g>
            </g>
        </g>
    </g>
</svg>