<?xml version="1.0" encoding="UTF-8"?>
<svg width="32px" height="32px" viewBox="0 0 32 32" version="1.1" xmlns="http://www.w3.org/2000/svg" xmlns:xlink="http://www.w3.org/1999/xlink">
    <title>切片</title>
    <g id="页面-1" stroke="none" stroke-width="1" fill="none" fill-rule="evenodd">
        <g id="2-2-1-5视频回放" transform="translate(-500.000000, -831.000000)" fill="#FFFFFF">
            <g id="3-1-2-2告警详情" transform="translate(460.000000, 230.000000)">
                <g id="编组-11" transform="translate(24.000000, 129.000000)">
                    <g id="编组-13" transform="translate(0.000000, 456.000000)">
                        <g id="icon16*16" transform="translate(15.997656, 16.000000)">
                            <path d="M13.3748878,23.6371758 C12.5305269,23.6373326 11.7212853,23.3017932 11.1270602,22.7053528 C10.5330323,22.1089123 10.2034641,21.3012253 10.2119479,20.4619257 L10.2119479,11.376201 C10.2096198,10.23219 10.8328084,9.17732944 11.8388755,8.62164009 C12.8449821,8.06610763 14.0752992,8.09768089 15.0513374,8.70392667 L22.3893215,13.2625168 C23.3199809,13.8358166 23.8861501,14.8466707 23.8861501,15.9347519 C23.8861501,17.0230292 23.3199809,18.0338833 22.3893215,18.6070262 L15.0513374,23.1342 C14.5571429,23.4387937 13.9880536,23.6019548 13.4064951,23.6057593 L13.3748878,23.6371758 Z M13.3748878,10.7474421 C13.2631376,10.7518741 13.1544653,10.7843494 13.0586175,10.8418089 C12.8660931,10.9522564 12.7460169,11.1552666 12.7422409,11.376201 L12.7422409,20.4619257 C12.7389141,20.6949795 12.865146,20.9106974 13.0706132,21.0226746 C13.2762383,21.134691 13.5272026,21.1245719 13.7228048,20.9964747 L21.0609073,16.4379237 C21.2471181,16.3231618 21.3602493,16.1210537 21.3602493,15.9033747 C21.3602493,15.6858134 21.2471181,15.4835877 21.0609073,15.3689826 L13.6911975,10.8418089 C13.6002427,10.7704258 13.4903471,10.7267332 13.3748878,10.7160257 L13.3748878,10.7474421 Z M16.18995,31.9999521 C8.49130331,32.0120511 1.85262581,26.6252218 0.323558517,19.1254944 C-1.20535094,11.6259239 2.79966104,4.09509385 9.89563817,1.12728602 C18.0576613,-2.07722319 27.3009619,1.77738137 30.7194828,9.81087334 C34.1380038,17.8445222 30.4825662,27.1216083 22.4842618,30.7109975 C20.4949354,31.5574746 18.3539255,31.9959311 16.18995,31.9999521 Z M15.9999993,2.53662791 C8.42533112,2.53662791 2.55765408,8.45251725 2.55765408,15.9347519 C2.55765408,23.4171826 8.44894365,29.4848569 16.0118056,29.4848569 C23.5746675,29.4848569 29.4659571,23.3857663 29.4659571,15.9347519 C29.4659571,8.48393362 23.5746675,2.53662791 15.9999993,2.53662791 Z" id="形状结合"></path>
                        </g>
                    </g>
                </g>
            </g>
        </g>
    </g>
</svg>