<?xml version="1.0" encoding="UTF-8"?>
<svg width="16px" height="16px" viewBox="0 0 16 16" version="1.1" xmlns="http://www.w3.org/2000/svg" xmlns:xlink="http://www.w3.org/1999/xlink">
    <title>切片</title>
    <g id="页面-1" stroke="none" stroke-width="1" fill="none" fill-rule="evenodd">
        <g id="2-2-2-4视频直播-全屏" transform="translate(-1720.000000, -1043.000000)" fill="#FFFFFF">
            <g id="编组-13" transform="translate(0.000000, 1019.000000)">
                <g id="ico" transform="translate(1633.000000, 19.000000)">
                    <g id="icon16*16" transform="translate(87.000000, 5.000000)">
                        <path d="M10.1503748,12.286207 C10.4155913,12.286207 10.6699452,12.3915639 10.8574815,12.5791002 C11.2480058,12.9696245 11.2480058,13.6027895 10.8574815,13.9933138 L10.8574815,13.9933138 L9.41421356,15.4365818 C8.63316498,16.2176304 7.36683502,16.2176304 6.58578644,15.4365818 L6.58578644,15.4365818 L5.14251846,13.9933138 C4.95498208,13.8057774 4.84962524,13.5514235 4.84962524,13.286207 C4.84962524,12.7339223 5.29734049,12.286207 5.84962524,12.286207 L5.84962524,12.286207 Z M12.526496,5.64969494 C12.9170203,5.25917064 13.5501852,5.25917064 13.9407095,5.64969494 L13.9407095,5.64969494 L15.3839775,7.09296292 C16.1650261,7.8740115 16.1650261,9.14034146 15.3839775,9.92139004 L15.3839775,9.92139004 L13.9407095,11.364658 C13.7531731,11.5521944 13.4988192,11.6575512 13.2336027,11.6575512 C12.681318,11.6575512 12.2336027,11.209836 12.2336027,10.6575512 L12.2336027,10.6575512 L12.2336027,6.35680172 C12.2336027,6.09158523 12.3389596,5.83723132 12.526496,5.64969494 Z M3.46576233,5.64969494 C3.65329871,5.83723132 3.75865555,6.09158523 3.75865555,6.35680172 L3.75865555,10.6575512 C3.75865555,11.209836 3.3109403,11.6575512 2.75865555,11.6575512 C2.49343906,11.6575512 2.23908515,11.5521944 2.05154877,11.364658 L0.608280785,9.92139004 C-0.172767798,9.14034146 -0.172767798,7.8740115 0.608280785,7.09296292 L2.05154877,5.64969494 C2.44207306,5.25917064 3.07523804,5.25917064 3.46576233,5.64969494 Z M9.41421356,0.614213006 L10.8574815,2.05748099 C11.2480058,2.44800528 11.2480058,3.08117026 10.8574815,3.47169455 C10.6699452,3.65923093 10.4155913,3.76458777 10.1503748,3.76458777 L5.84962524,3.76458777 C5.29734049,3.76458777 4.84962524,3.31687252 4.84962524,2.76458777 C4.84962524,2.49937128 4.95498208,2.24501737 5.14251846,2.05748099 L6.58578644,0.614213006 C7.36683502,-0.166835578 8.63316498,-0.166835578 9.41421356,0.614213006 Z" id="形状结合"></path>
                    </g>
                </g>
            </g>
        </g>
    </g>
</svg>