<?xml version="1.0" encoding="UTF-8"?>
<svg width="16px" height="16px" viewBox="0 0 16 16" version="1.1" xmlns="http://www.w3.org/2000/svg" xmlns:xlink="http://www.w3.org/1999/xlink">
    <title>icon16*16/iisg-icon-声音</title>
    <g id="页面-1" stroke="none" stroke-width="1" fill="none" fill-rule="evenodd">
        <g id="2-2-1-6视频回放-录像" transform="translate(-1356.000000, -834.000000)" fill="#FFFFFF">
            <g id="3-1-2-2告警详情" transform="translate(460.000000, 230.000000)">
                <g id="编组-11" transform="translate(24.000000, 124.000000)">
                    <g id="编组-13" transform="translate(0.000000, 456.000000)">
                        <g id="ico" transform="translate(708.000000, 19.000000)">
                            <g id="icon16*16" transform="translate(164.000000, 5.000000)">
                                <path d="M8.3076959,0 C8.64332574,0.0418382834 8.86706804,0.232369548 8.97896165,0.571709989 L9.01567892,0.705938311 L9.01567892,15.294172 C8.93174687,15.670643 8.735971,15.8983339 8.42831243,15.9773415 L8.3076959,16 L8.26048412,16 C8.07163702,16 7.88278992,15.9529319 7.69405345,15.811838 C7.64681402,15.811838 7.31644223,15.4823615 6.60837624,14.9176274 C5.94749436,14.3530036 5.19229956,13.741229 4.48423357,13.1294268 C3.82682077,12.5613504 3.4134897,12.196195 3.31999616,12.109243 L3.3041328,12.0941499 L0.99125367,12.0941499 C0.708093651,12.0941499 0.472007118,12.0000138 0.283160019,11.8118242 C0.125879628,11.6549307 0.0340943199,11.4653509 0.00786811698,11.2431489 L6.5192296e-13,11.1059135 L6.5192296e-13,4.98825022 C6.5192296e-13,4.75299259 0.0944235499,4.51765225 0.330371794,4.2824222 C0.487744377,4.12552864 0.677922121,4.03400739 0.900808994,4.00785846 L1.03846544,4.00001379 L3.3041328,4.00001379 C3.44576813,3.85880958 4.90902891,2.58827503 7.69405345,0.188272275 C7.84504263,0.0753089101 7.99610261,0.022592673 8.14717675,0.0060247128 L8.26048412,0 L8.3076959,0 Z M8.1188488,1.0353045 C4.85128784,3.88000469 3.7824076,4.84582037 3.73100581,4.89233321 L3.72903878,4.89411408 L0.99125367,4.89411408 L0.99125367,11.1529816 L3.72903878,11.1529816 C3.72903878,11.1529816 7.72364933,14.6045104 8.09489256,14.8994284 L8.1188488,14.9176274 L8.1188488,1.0353045 Z M12.5660147,2.17293679 C12.7313355,1.95252345 13.0620201,1.95252345 13.2273408,2.11784422 C13.3376121,2.22802936 13.5029329,2.33827908 13.6682752,2.55877854 C13.9989382,2.94453418 14.3297089,3.33037593 14.6051933,3.77128873 C16.6444796,6.85765678 16.6444796,10.3849592 13.2825195,13.9122615 C13.1171772,14.0776038 12.7865142,14.0776038 12.6210857,13.9122615 C12.455765,13.7469192 12.455765,13.4162562 12.6210857,13.2508493 C15.6523827,10.1093887 15.6523827,7.07809165 13.8336175,4.32238667 C13.5581116,3.88145234 13.2825195,3.55078928 13.0069275,3.22012621 C12.8415852,2.99960522 12.6762644,2.88944161 12.6210857,2.83428445 C12.4006724,2.66894215 12.4006724,2.33827908 12.5660147,2.17293679 Z M11.2432333,5.03889149 C11.4086617,4.81839204 11.7393247,4.81839204 11.904667,4.98373434 C12.0700093,5.14914122 12.4006724,5.47980429 12.6762644,5.92073861 C13.8336175,7.73943931 13.8336175,9.83379663 11.904667,11.9281539 C11.7393247,12.0934962 11.4086617,12.0934962 11.2432333,11.9281539 C11.0779125,11.7628116 11.0779125,11.4321486 11.2432333,11.2667202 C12.8966778,9.5582046 12.8966778,7.95993877 11.904667,6.47183655 C11.7944173,6.25140168 11.629075,6.03090223 11.4637327,5.86555993 L11.4637327,5.86555993 L11.2984119,5.70023916 C11.0779125,5.53489686 11.0779125,5.20423379 11.2432333,5.03889149 Z" id="形状结合"></path>
                            </g>
                        </g>
                    </g>
                </g>
            </g>
        </g>
    </g>
</svg>