<?xml version="1.0" encoding="UTF-8"?>
<svg width="16px" height="16px" viewBox="0 0 16 16" version="1.1" xmlns="http://www.w3.org/2000/svg" xmlns:xlink="http://www.w3.org/1999/xlink">
    <title>切片</title>
    <g id="页面-1" stroke="none" stroke-width="1" fill="none" fill-rule="evenodd">
        <g id="2-2-4-2视频回放-全屏" transform="translate(-1880.000000, -1043.000000)" fill="#FFFFFF">
            <g id="编组-13" transform="translate(0.000000, 1019.000000)">
                <g id="ico" transform="translate(1676.000000, 19.000000)">
                    <g id="icon16*16" transform="translate(204.000000, 5.000000)">
                        <path d="M5,11 L5,16 L3.5,16 L3.5,12.5 L0,12.5 L0,11 L5,11 Z M16,11 L16,12.5 L12.5,12.5 L12.5,16 L11,16 L11,11 L16,11 Z M5,0 L5,5 L0,5 L0,3.5 L3.5,3.5 L3.5,0 L5,0 Z M12.5,0 L12.5,3.5 L16,3.5 L16,5 L11,5 L11,0 L12.5,0 Z" id="形状结合"></path>
                    </g>
                </g>
            </g>
        </g>
    </g>
</svg>