<?xml version="1.0" encoding="UTF-8"?>
<svg width="16px" height="15px" viewBox="0 0 16 15" version="1.1" xmlns="http://www.w3.org/2000/svg" xmlns:xlink="http://www.w3.org/1999/xlink">
    <title>icon16*16/iisg-icon-截图禁用</title>
    <g id="页面" stroke="none" stroke-width="1" fill="none" fill-rule="evenodd" opacity="0.3">
        <g id="03图标" transform="translate(-576.000000, -956.000000)" fill="#FFFFFF">
            <g id="icon16*16" transform="translate(576.000000, 955.000000)">
                <path d="M13.6504187,1.32553006 L13.675,1.35 L13.675,1.35 L13.6855121,1.36132077 C13.8630555,1.55252135 13.8637268,1.84809914 13.6870537,2.04010416 L1.73340295,15.0311072 C1.5683021,15.2105357 1.28900588,15.2221506 1.10957737,15.0570497 L1.08499603,15.0325798 L1.08499603,15.0325798 L1.07448389,15.021259 C0.896940494,14.8300585 0.896269222,14.5344807 1.07294233,14.3424756 L13.0265931,1.35147257 C13.1916939,1.17204406 13.4709902,1.16042921 13.6504187,1.32553006 Z M14.1459319,3.08583229 C14.6184611,3.093148 15.0753908,3.31960518 15.3772626,3.66141955 C15.7179018,3.99903666 15.9449996,4.44918021 15.9912604,4.91177297 L16,5.08563335 L16,12.6343591 C16,13.1565947 15.7604817,13.6788557 15.3772626,14.0586494 C15.0366006,14.3962665 14.5823973,14.5837812 14.1155602,14.621283 L13.9401011,14.6283146 L3.463,14.628 L4.424,13.583 L14.1317621,13.583818 C14.3712804,13.583818 14.5628385,13.5364139 14.7544995,13.346466 C14.9187142,13.2243731 15.0125322,13.0325315 15.0359861,12.8307418 L15.0418495,12.7292948 L14.9940178,5.03820375 C14.9940178,4.55327077 14.6222357,4.19113549 14.1856009,4.14187603 L14.0838276,4.13614898 L13.116,4.136 L14.081,3.087 L14.1459319,3.08583229 Z M10.9721503,2.10858805 L10.2179638,2.92743821 C10.1778047,2.85784124 10.1409943,2.78591958 10.107782,2.71185869 C9.91612098,2.28463535 9.48504458,1.9997518 9.0060079,1.9997518 L7.04192664,1.9997518 C6.56288997,1.9997518 6.13171064,2.28463535 5.94015258,2.71185869 C5.58088472,3.51299808 4.80049807,4.06381875 3.91496741,4.12954189 L3.73655298,4.13614898 L1.96410698,4.13614898 C1.51921554,4.13614898 1.11574415,4.50460808 1.06037523,4.93734005 L1.05391671,5.03820375 L1.05391671,12.6818652 C1.05391671,12.7454479 1.06030855,12.8069196 1.07240063,12.8658516 L0.337065738,13.66536 L0.322005906,13.6865655 C0.150606132,13.4190516 0.0395542515,13.1164182 0.00873961251,12.8082431 L-1.27897692e-13,12.6343591 L-1.27897692e-13,5.08563335 C-1.27897692e-13,4.56347432 0.239518339,4.0412388 0.622737389,3.66141955 C0.963399416,3.32382511 1.41760275,3.1362122 1.88443985,3.09868828 L2.05989888,3.09165244 L3.78438461,3.09165244 C4.26349848,3.09165244 4.69457488,2.80676888 4.88623586,2.37957104 C5.24552785,1.62287299 5.98367296,1.07489713 6.86402934,1.009356 L7.04192664,1.00276134 L8.95807336,1.00276134 C9.81083219,0.960476136 10.5497807,1.40724366 10.9721503,2.10858805 Z M10.9979985,6.43988186 C11.669343,7.11994687 12.0816386,8.0592555 12.0816386,9.09498412 C12.0816386,11.1648864 10.4348902,12.8497038 8.41173284,12.8497038 C7.46766791,12.8721444 6.60555448,12.5172469 5.95447839,11.9219704 L6.60316367,11.2166502 C7.0708959,11.6456817 7.68412481,11.9133099 8.36465329,11.935082 C9.91731835,11.935082 11.1406034,10.6835432 11.187683,9.14315204 C11.187683,8.35614664 10.8683733,7.6445139 10.3552377,7.13666955 L10.9979985,6.43988186 Z M7.96960237,5.3708507 L4.7513819,8.86697919 C4.87690481,7.05962564 6.22524352,5.60106877 7.96960237,5.3708507 Z M13.6343036,5.14774791 C13.8695498,5.14774791 14.0576911,5.24398034 14.1517744,5.38840656 C14.2459335,5.53283277 14.2459335,5.72532349 14.1517744,5.91794349 C14.0342229,6.07835243 13.8839071,6.17193328 13.7281745,6.1986711 L13.6343036,6.2066925 L13.2108151,6.2066925 C12.8814098,6.2066925 12.6461889,5.966008 12.6461889,5.67715557 C12.6461889,5.41728146 12.8367178,5.19636054 13.1149601,5.1547751 L13.2108151,5.14774791 L13.6343036,5.14774791 Z" id="形状结合"></path>
            </g>
        </g>
    </g>
</svg>