<?xml version="1.0" encoding="UTF-8"?>
<svg width="32px" height="32px" viewBox="0 0 32 32" version="1.1" xmlns="http://www.w3.org/2000/svg" xmlns:xlink="http://www.w3.org/1999/xlink">
    <title>切片</title>
    <g id="页面-1" stroke="none" stroke-width="1" fill="none" fill-rule="evenodd">
        <g id="2-2-4-1视频回放-分组" transform="translate(-1243.000000, -552.000000)" fill="#FFFFFF">
            <g id="视频" transform="translate(560.000000, 140.000000)">
                <g id="编组-6" transform="translate(668.000000, 0.000000)">
                    <g id="编组-15" transform="translate(-1.000000, 396.000000)">
                        <g id="icon16*16" transform="translate(15.997656, 16.000000)">
                            <path d="M16.0018304,8.8817842e-15 C24.8374178,8.8817842e-15 32,7.1627907 32,16.0000894 C32.0036608,24.8371646 24.8374178,32 16.0018304,32 C7.16624299,32 -1.77635684e-15,24.8371646 -1.77635684e-15,16.0000894 C-1.77635684e-15,7.1627907 7.16275812,8.8817842e-15 16.0018304,8.8817842e-15 Z M16.0018304,2.53662791 C8.5675201,2.53662791 2.5377484,8.56529517 2.5377484,16.0000894 C2.54123328,23.4347048 8.5675201,29.4633721 16.0018304,29.4633721 C23.4361854,29.4633721 29.4659571,23.4347048 29.4659571,16.0000894 C29.4659571,8.56529517 23.4398489,2.53662791 16.0018304,2.53662791 Z M12.7314541,11.0017889 C13.4391517,11.0017889 14.0182218,11.5814401 14.0182218,12.2898479 L14.0182218,19.731619 C14.0182218,20.4400268 13.4391517,21.019678 12.7314541,21.019678 C12.0237564,21.019678 11.4446864,20.4400268 11.4446864,19.731619 L11.4446864,12.2898479 C11.4446864,11.5814401 12.0237564,11.0017889 12.7314541,11.0017889 Z M19.5938875,11.0017889 C20.3015404,11.0017889 20.8806105,11.5814401 20.8806105,12.2898479 L20.8806105,19.731619 C20.8806105,20.4400268 20.3015404,21.019678 19.5938875,21.019678 C18.8861898,21.019678 18.3072985,20.4400268 18.3072985,19.731619 L18.3072985,12.2898479 C18.3072985,11.5814401 18.8861898,11.0017889 19.5938875,11.0017889 Z" id="形状结合"></path>
                        </g>
                    </g>
                </g>
            </g>
        </g>
    </g>
</svg>