<?xml version="1.0" encoding="UTF-8"?>
<svg width="16px" height="16px" viewBox="0 0 16 16" version="1.1" xmlns="http://www.w3.org/2000/svg" xmlns:xlink="http://www.w3.org/1999/xlink">
    <title>切片</title>
    <g id="页面-1" stroke="none" stroke-width="1" fill="none" fill-rule="evenodd">
        <g id="2-2-4-1视频回放-分组" transform="translate(-1149.000000, -560.000000)" fill="#FFFFFF">
            <g id="视频" transform="translate(560.000000, 140.000000)">
                <g id="编组-15" transform="translate(-0.000000, 396.000000)">
                    <g id="ico" transform="translate(425.000000, 19.000000)">
                        <g id="icon16*16" transform="translate(164.000000, 5.000000)">
                            <path d="M8.3076959,0 L8.26048412,0 C8.07163702,0 7.88278992,0.0470680688 7.69405345,0.188272275 C4.90902891,2.58827503 3.44576813,3.85880958 3.3041328,4.00001379 L1.03846544,4.00001379 C0.755305426,4.00001379 0.519218893,4.09414992 0.330371794,4.2824222 C0.0944235499,4.51765225 -3.78364007e-13,4.75299259 -3.78364007e-13,4.98825022 L-3.78364007e-13,11.1059135 C-3.78364007e-13,11.3882116 0.0944235499,11.623552 0.283160019,11.8118242 C0.472007118,12.0000138 0.708093651,12.0941499 0.99125367,12.0941499 L3.3041328,12.0941499 C3.35134458,12.141218 3.77625055,12.5176522 4.48423357,13.1294268 C5.19229956,13.741229 5.94749436,14.3530036 6.60837624,14.9176274 C7.31644223,15.4823615 7.64681402,15.811838 7.69405345,15.811838 C7.88278992,15.9529319 8.07163702,16 8.26048412,16 L8.3076959,16 C8.68527947,15.9529319 8.92125537,15.7177019 9.01567892,15.294172 L9.01567892,0.705938311 C8.92125537,0.282325692 8.68527947,0.0470680688 8.3076959,0 Z M8.1188488,14.9176274 C7.97721347,14.8236016 3.72903878,11.1529816 3.72903878,11.1529816 L0.99125367,11.1529816 L0.99125367,4.89411408 L3.72903878,4.89411408 C3.72903878,4.89411408 4.76750422,3.95294572 8.1188488,1.0353045 L8.1188488,14.9176274 Z M13.8776067,8 L15.8600864,6.02352714 C16.0488505,5.83525487 16.0488505,5.55295675 15.8600864,5.36468447 C15.6712393,5.17652249 15.3880793,5.17652249 15.1992322,5.36468447 L13.2167248,7.34115733 L11.2342451,5.36468447 C11.0453704,5.17652249 10.7622104,5.17652249 10.5733633,5.36468447 C10.3845162,5.55295675 10.3845162,5.83525487 10.5733633,6.02352714 L12.5558706,8 L10.5733633,9.97647286 C10.3845162,10.1647451 10.3845162,10.4470433 10.5733633,10.6353155 C10.7622104,10.8235878 11.0453704,10.8235878 11.2342451,10.6353155 L13.2167248,8.65887024 L15.1992322,10.6353155 C15.3880793,10.8235878 15.6712393,10.8235878 15.8600864,10.6353155 C16.0488505,10.4470433 16.0488505,10.1647451 15.8600864,9.97647286 L13.8776067,8 Z" id="Fill-1"></path>
                        </g>
                    </g>
                </g>
            </g>
        </g>
    </g>
</svg>