<?xml version="1.0" encoding="UTF-8"?>
<svg width="16px" height="16px" viewBox="0 0 16 16" version="1.1" xmlns="http://www.w3.org/2000/svg" xmlns:xlink="http://www.w3.org/1999/xlink">
    <title>切片</title>
    <g id="页面-1" stroke="none" stroke-width="1" fill="none" fill-rule="evenodd">
        <g id="2-2-4-1视频回放-分组" transform="translate(-1189.000000, -560.000000)" fill="#FFFFFF">
            <g id="视频" transform="translate(560.000000, 140.000000)">
                <g id="编组-15" transform="translate(-0.000000, 396.000000)">
                    <g id="ico" transform="translate(425.000000, 19.000000)">
                        <g id="icon16*16" transform="translate(204.000000, 5.000000)">
                            <path d="M1.5,11 L1.5,14.5 L5,14.5 L5,16 L0,16 L0,11 L1.5,11 Z M16,11 L16,16 L11,16 L11,14.5 L14.5,14.5 L14.5,11 L16,11 Z M5,0 L5,1.5 L1.5,1.5 L1.5,5 L0,5 L0,0 L5,0 Z M16,0 L16,5 L14.5,5 L14.5,1.5 L11,1.5 L11,0 L16,0 Z" id="形状结合"></path>
                        </g>
                    </g>
                </g>
            </g>
        </g>
    </g>
</svg>