<?xml version="1.0" encoding="UTF-8"?>
<svg width="16px" height="16px" viewBox="0 0 16 16" version="1.1" xmlns="http://www.w3.org/2000/svg" xmlns:xlink="http://www.w3.org/1999/xlink">
    <title>切片</title>
    <g id="页面-1" stroke="none" stroke-width="1" fill="none" fill-rule="evenodd">
        <g id="2-2-4-1视频回放-分组" transform="translate(-1069.000000, -560.000000)" fill="#FFFFFF">
            <g id="视频" transform="translate(560.000000, 140.000000)">
                <g id="编组-15" transform="translate(-0.000000, 396.000000)">
                    <g id="ico" transform="translate(425.000000, 19.000000)">
                        <g id="icon16*16" transform="translate(84.000000, 5.000000)">
                            <path d="M10,2 C11.6357925,2 12.9658015,3.30921502 12.999351,4.93696907 L14.4294113,3.94344075 C14.8829674,3.62831329 15.5061085,3.74053187 15.821236,4.19408797 C15.9376228,4.36160106 16,4.56069989 16,4.7646767 L16,11.286207 C16,11.8384918 15.5522847,12.286207 15,12.286207 C14.7903234,12.286207 14.5859511,12.220299 14.4157787,12.0978014 L12.997,11.076 L12.9949073,11.1762728 C12.9036609,12.75108 11.5976809,14 10,14 L3,14 C1.34314575,14 0,12.6568542 0,11 L0,5 C0,3.34314575 1.34314575,2 3,2 L10,2 Z M10,3 L3,3 C1.9456382,3 1.08183488,3.81587779 1.00548574,4.85073766 L1,5 L1,11 C1,12.0543618 1.81587779,12.9181651 2.85073766,12.9945143 L3,13 L10,13 C11.0543618,13 11.9181651,12.1841222 11.9945143,11.1492623 L12,11 L12,5 C12,3.9456382 11.1841222,3.08183488 10.1492623,3.00548574 L10,3 Z M15,4.7646767 L13.018,6.141 L13.018,9.86 L15,11.286207 L15,4.7646767 Z M3.79560471,5.0735409 C4.20981827,5.0735409 4.54560471,5.40932734 4.54560471,5.8235409 C4.54560471,6.23775446 4.20981827,6.5735409 3.79560471,6.5735409 C3.38139114,6.5735409 3.04560471,6.23775446 3.04560471,5.8235409 C3.04560471,5.40932734 3.38139114,5.0735409 3.79560471,5.0735409 Z" id="形状结合"></path>
                        </g>
                    </g>
                </g>
            </g>
        </g>
    </g>
</svg>