<?xml version="1.0" encoding="UTF-8"?>
<svg width="16px" height="14px" viewBox="0 0 16 14" version="1.1" xmlns="http://www.w3.org/2000/svg" xmlns:xlink="http://www.w3.org/1999/xlink">
    <title>icon16*16/iisg-icon-录像禁用</title>
    <g id="页面" stroke="none" stroke-width="1" fill="none" fill-rule="evenodd" opacity="0.3">
        <g id="03图标" transform="translate(-542.000000, -956.000000)" fill="#FFFFFF">
            <g id="icon16*16" transform="translate(542.000000, 955.000000)">
                <path d="M13.9550866,1.52348486 L13.9783009,1.54669914 L13.9783009,1.54669914 L13.9873771,1.55647359 C14.1655148,1.74831416 14.1655148,2.04508412 13.9873771,2.23692469 L12.6781921,3.64679445 L12.6781921,3.64679445 L11.9255906,4.4576494 L3.992,13 L3.07,13.9939746 L2.27830086,14.8466991 C2.11162921,15.0261917 1.83100769,15.0365851 1.65151514,14.8699134 C1.6434932,14.8624645 1.6357498,14.8547211 1.62830086,14.8466991 L1.61922458,14.8369247 C1.44108691,14.6450841 1.44108691,14.3483142 1.61922458,14.1564736 L13.3283009,1.54669914 C13.4949725,1.3672066 13.775594,1.35681321 13.9550866,1.52348486 Z M15.821236,4.19408797 C15.9376228,4.36160106 16,4.56069989 16,4.7646767 L16,11.286207 C16,11.8384918 15.5522847,12.286207 15,12.286207 C14.7903234,12.286207 14.5859511,12.220299 14.4157787,12.0978014 L12.997,11.076 L12.9949073,11.1762728 C12.9036609,12.75108 11.5976809,14 10,14 L4.429,14 L5.357,13 L10,13 C11.0543618,13 11.9181651,12.1841222 11.9945143,11.1492623 L12,11 L12,5.846 L12.9920368,4.77973413 C12.9958143,4.83178867 12.9982636,4.88421156 12.999351,4.93696907 L14.4294113,3.94344075 C14.8829674,3.62831329 15.5061085,3.74053187 15.821236,4.19408797 Z M10,2 C10.457243,2 10.890594,2.10229363 11.2784165,2.28524434 L10.5448171,3.07510435 C10.4176576,3.03918488 10.2853535,3.01552617 10.1492623,3.00548574 L10,3 L3,3 C1.9456382,3 1.08183488,3.81587779 1.00548574,4.85073766 L1,5 L1,11 C1,11.6278677 1.28932241,12.1881605 1.74191982,12.5548311 L1.06065744,13.2889569 C0.411807829,12.7386649 0,11.9174239 0,11 L0,5 C0,3.34314575 1.34314575,2 3,2 L10,2 Z M15,4.7646767 L13.018,6.141 L13.018,9.86 L15,11.286207 L15,4.7646767 Z M3.79560471,5.0735409 C4.20981827,5.0735409 4.54560471,5.40932734 4.54560471,5.8235409 C4.54560471,6.23775446 4.20981827,6.5735409 3.79560471,6.5735409 C3.38139114,6.5735409 3.04560471,6.23775446 3.04560471,5.8235409 C3.04560471,5.40932734 3.38139114,5.0735409 3.79560471,5.0735409 Z" id="形状结合"></path>
            </g>
        </g>
    </g>
</svg>